<?xml version="1.0" encoding="utf-8"?>
<!-- Generator: Adobe Illustrator 21.0.2, SVG Export Plug-In . SVG Version: 6.00 Build 0)  -->
<svg version="1.0" id="Layer_1" xmlns="http://www.w3.org/2000/svg" xmlns:xlink="http://www.w3.org/1999/xlink" x="0px" y="0px"
	 viewBox="0 0 200 200" style="enable-background:new 0 0 200 200;" xml:space="preserve">
<style type="text/css">
	.st0{fill:#FFFFEE;}
	.st1{fill:#60ACBE;}
	.st2{fill:#FD8B4F;}
	.st3{fill:#488CA7;}
	.st4{fill:#D6D6CC;}
	.st5{fill:#C1C1B9;}
	.st6{fill:none;}
	.st7{fill:#FFFFFF;}
	.st8{fill:none;stroke:#FFFFFF;stroke-width:0.5;stroke-miterlimit:10;}
	.st9{opacity:0.2;fill:#D6D6CC;enable-background:new    ;}
	.st10{fill:#0A171D;}
	.st11{fill:#18363D;}
	.st12{display:none;fill:#FFFFFF;}
	.st13{fill:#132930;}
	.st14{fill:#142D33;}
</style>
<g id="academy">
	<g>
		<g>
			<rect x="66.3" y="100.2" class="st0" width="113.2" height="66.3"/>
			<path class="st0" d="M180.7,167.5H65.5V99.3h115.1V167.5z M67.4,165.6h111.3v-64.4H67.4V165.6z"/>
		</g>
		<g>
			<rect x="7.8" y="134.1" class="st1" width="57.7" height="33.3"/>
			<rect x="15.9" y="141.5" class="st2" width="5.2" height="4.8"/>
			<rect x="23.2" y="141.5" class="st2" width="5.2" height="4.8"/>
			<rect x="30.7" y="141.3" class="st2" width="5.2" height="4.8"/>
			<rect x="15.7" y="148.4" class="st2" width="5.2" height="4.8"/>
			<rect x="23" y="148.4" class="st2" width="5.2" height="4.8"/>
			<rect x="30.5" y="148.2" class="st2" width="5.2" height="4.8"/>
			<rect x="38.3" y="141.5" class="st2" width="5.2" height="4.8"/>
			<rect x="45.6" y="141.3" class="st2" width="5.2" height="4.8"/>
			<rect x="53.1" y="141.1" class="st2" width="5.2" height="4.8"/>
			<rect x="38.3" y="148.4" class="st2" width="5.2" height="4.8"/>
			<rect x="45.6" y="148.2" class="st2" width="5.2" height="4.8"/>
			<rect x="53.1" y="148" class="st2" width="5.2" height="4.8"/>
		</g>
		<g>
			<rect x="68.2" y="94.3" class="st3" width="109.4" height="4.8"/>
		</g>
		<g id="aerial_1_">
			<g>
				<g id="aerial_2_">
					<g>
						<polygon class="st0" points="39.8,129 33.5,129 35.6,109.7 37.7,109.7 						"/>
						<polygon class="st4" points="36.6,128.8 33.5,128.8 35.6,109.5 36.6,109.3 						"/>
						<path d="M40.4,129.6H33l2.3-20.3h3.1v0.4L40.4,129.6z M34.1,128.6h5.4l-1.9-18.4h-1.3L34.1,128.6z"/>
					</g>
					<g>
						<g>
							<path class="st0" d="M18.8,83C8.8,85.5,1,87.6,1,87.6l14,12.8l18.4,2.9l3.4-0.8l0,0l2.7-0.6l15.9-11.1l6.7-17.6
								c0,0-8.4,1.7-18.6,4c-3.8,0.8-8.4,1.9-12.1,2.9l0,0C27.6,80.7,22.4,81.9,18.8,83z"/>
							<polygon class="st5" points="1,87.8 19.7,85.3 31.4,82.5 36.6,102.4 32.8,103.4 14.4,100.3 							"/>
							<path d="M33.1,103.7L33.1,103.7l-18.6-2.9L0,87.5l0.8-0.2c0,0,8-2.1,17.8-4.6c3.4-1,8.6-2.3,12.5-3.1c3.4-0.8,8-2.1,12.1-2.9
								c10.2-2.3,18.6-4,18.6-4l1-0.2l-7.1,18.6l-16.1,11.3L33.1,103.7z M14.9,99.9l18.2,2.7l5.9-1.3l15.7-10.9l6.3-16.7
								c-2.5,0.6-9.6,2.1-17.8,3.8c-3.8,0.8-8.6,1.9-12.1,2.9c-3.8,0.8-9,2.1-12.5,3.1l0,0c-8,1.9-14.8,3.8-17,4.4L14.9,99.9z"/>
						</g>
						<g>
							<polyline class="st0" points="43.1,79.2 42.9,93.8 39.3,101.6 							"/>
							<polygon points="39.7,101.8 38.9,101.4 42.5,93.6 42.5,79.2 43.5,79.2 43.3,94 							"/>
						</g>
						<g>
							<polygon points="32.8,103.4 25.9,98 19.2,85 20.1,84.6 26.6,97.4 33.3,102.6 							"/>
						</g>
						<g>
							<polyline class="st0" points="0.8,87.5 19.5,84.8 43.1,79.2 61.9,72.9 							"/>
							<polygon points="0.8,88 0.6,87.1 19.5,84.4 42.9,78.6 61.7,72.5 61.9,73.5 43.3,79.6 19.7,85.3 							"/>
						</g>
					</g>
					<g>
						<ellipse class="st0" cx="36.6" cy="107.4" rx="2.7" ry="2.5"/>
						<path class="st4" d="M36.6,104.9v4.8c0,0-2.9-0.8-2.7-2.5C34.1,105.7,36.6,104.9,36.6,104.9z"/>
						<path d="M36.6,110.2c-1.7,0-3.1-1.3-3.1-2.9c0-1.5,1.3-2.9,3.1-2.9c1.7,0,3.1,1.3,3.1,2.9C39.8,108.9,38.5,110.2,36.6,110.2z
							 M36.6,105.5c-1.1,0-2.1,1-2.1,1.9s1,1.9,2.1,1.9s2.1-1,2.1-1.9S37.9,105.5,36.6,105.5z"/>
					</g>
					<g>
						<ellipse class="st0" cx="36.6" cy="103.5" rx="1.7" ry="1.3"/>
						<path class="st4" d="M36.6,101.8v3.3c0,0-1.7-0.4-1.5-1.5C35.2,102.4,36.6,101.8,36.6,101.8z"/>
						<path d="M36.6,105.5c-1.1,0-2.1-0.8-2.1-1.9s1-1.9,2.1-1.9s2.1,0.8,2.1,1.9S37.9,105.5,36.6,105.5z M36.6,102.6
							c-0.6,0-1.1,0.4-1.1,1c0,0.6,0.6,1,1.1,1c0.6,0,1.1-0.4,1.1-1C37.7,103,37.4,102.6,36.6,102.6z"/>
					</g>
					<g>
						<polygon class="st0" points="44.3,133 29.1,133 33.5,129 39.8,129 						"/>
						<polygon class="st4" points="36.8,133 29.3,133 33.7,129 36.6,129 						"/>
						<path d="M45.4,133.6H28l5.4-5H40L45.4,133.6z M30.5,132.7h12.6l-3.3-3.1h-5.9L30.5,132.7z"/>
					</g>
				</g>
				<g>
					<line class="st6" x1="29.1" y1="72.1" x2="36.4" y2="81.9"/>
					<polygon class="st7" points="36,82.1 28.7,72.3 29.5,71.7 36.8,81.5 					"/>
				</g>
				<g>
					<line class="st6" x1="28.9" y1="72.1" x2="27.6" y2="84"/>
					
						<rect x="22.2" y="77.5" transform="matrix(0.1173 -0.9931 0.9931 0.1173 -52.5068 96.8001)" class="st7" width="12.1" height="1"/>
				</g>
				<g>
					<circle class="st0" cx="28.7" cy="70.6" r="1.5"/>
					<path class="st7" d="M28.7,72.5c-1.1,0-1.9-1-1.9-1.9s1-1.9,1.9-1.9s1.9,1,1.9,1.9S29.9,72.5,28.7,72.5z M28.7,69.4
						c-0.6,0-1,0.4-1,1c0,0.6,0.4,1,1,1s1-0.4,1-1C29.7,70,29.3,69.4,28.7,69.4z"/>
				</g>
				<g>
					<line class="st6" x1="31.4" y1="80.4" x2="29.1" y2="72.1"/>
					
						<rect x="29.7" y="71.9" transform="matrix(0.9683 -0.2499 0.2499 0.9683 -18.0936 9.9666)" class="st7" width="1" height="8.6"/>
				</g>
			</g>
		</g>
		<path class="st8" d="M179.7,87.5"/>
		<g>
			<path class="st4" d="M180.7,94.3H65.9V78.3l0.2-0.2l21.5-29.1L123.2,34l35.1,14.9l0.2,0.2l22.2,29.3L180.7,94.3z M67.2,93h111.9
				l-0.2-14.2l-21.8-28.7L123,35.5L88.3,50.1L67.2,78.8V93z"/>
			<g>
				<line class="st6" x1="169.3" y1="93.6" x2="123" y2="34.8"/>
				
					<rect x="145.4" y="26.7" transform="matrix(0.7853 -0.6192 0.6192 0.7853 -8.3431 104.2804)" class="st4" width="1.5" height="74.9"/>
			</g>
			<g>
				<line class="st6" x1="123.4" y1="34.8" x2="77.4" y2="93.6"/>
				
					<rect x="63.1" y="63.5" transform="matrix(0.6153 -0.7883 0.7883 0.6153 -12.0008 103.9162)" class="st4" width="74.7" height="1.5"/>
			</g>
			<g>
				<line class="st6" x1="146" y1="93.6" x2="105.6" y2="42.4"/>
				
					<rect x="125.2" y="35.5" transform="matrix(0.7853 -0.6192 0.6192 0.7853 -15.0889 92.5793)" class="st4" width="1.5" height="65.1"/>
			</g>
			<g>
				<line class="st6" x1="140.2" y1="42.4" x2="100.2" y2="93.2"/>
				
					<rect x="87.8" y="67.2" transform="matrix(0.6186 -0.7857 0.7857 0.6186 -7.541 120.3797)" class="st4" width="64.8" height="1.5"/>
			</g>
			<g>
				<line class="st6" x1="138.9" y1="44" x2="100.2" y2="93.2"/>
				
					<rect x="88.2" y="67.9" transform="matrix(0.6182 -0.786 0.786 0.6182 -8.3379 120.2189)" class="st4" width="62.8" height="1.5"/>
			</g>
			<g>
				<line class="st6" x1="157.5" y1="49.5" x2="122.8" y2="93.6"/>
				
					<rect x="112.1" y="70.8" transform="matrix(0.6182 -0.786 0.786 0.6182 -2.7952 137.4735)" class="st4" width="56.1" height="1.5"/>
			</g>
			<g>
				<line class="st6" x1="168.8" y1="64.3" x2="145.6" y2="93.6"/>
				
					<rect x="138.4" y="78.3" transform="matrix(0.6186 -0.7857 0.7857 0.6186 -2.1792 153.6958)" class="st4" width="37.5" height="1.5"/>
			</g>
			<g>
				<line class="st6" x1="122.8" y1="93.6" x2="87.7" y2="49.5"/>
				
					<rect x="104.5" y="43.3" transform="matrix(0.7838 -0.621 0.621 0.7838 -21.6132 80.8449)" class="st4" width="1.5" height="56.3"/>
			</g>
			<g>
				<line class="st6" x1="100.2" y1="93.2" x2="77" y2="64.3"/>
				
					<rect x="88" y="60.2" transform="matrix(0.7824 -0.6228 0.6228 0.7824 -29.7838 72.3593)" class="st4" width="1.3" height="37.2"/>
			</g>
			<g>
				<line class="st6" x1="157.5" y1="49.5" x2="87.7" y2="49.5"/>
				<rect x="87.7" y="48.8" class="st4" width="69.7" height="1.5"/>
			</g>
			<g>
				<line class="st6" x1="168.8" y1="64.3" x2="77" y2="64.3"/>
				<rect x="77" y="63.5" class="st4" width="91.8" height="1.5"/>
			</g>
			<g>
				<line class="st6" x1="179.7" y1="78.6" x2="66.5" y2="78.6"/>
				<rect x="66.5" y="77.9" class="st4" width="113.2" height="1.5"/>
			</g>
			<g>
				<line class="st6" x1="66.5" y1="78.6" x2="66.5" y2="93.6"/>
				
					<rect x="65.7" y="78.6" transform="matrix(1 -5.455849e-03 5.455849e-03 1 -0.4694 0.364)" class="st4" width="1.5" height="15.1"/>
			</g>
			<g>
				<line class="st6" x1="179.7" y1="78.6" x2="169.3" y2="93.6"/>
				
					<rect x="165.3" y="85.4" transform="matrix(0.564 -0.8258 0.8258 0.564 4.9317 181.556)" class="st4" width="18.2" height="1.3"/>
			</g>
			<g>
				<line class="st6" x1="66.5" y1="78.6" x2="77.4" y2="93.6"/>
				
					<rect x="71.1" y="76.8" transform="matrix(0.8082 -0.589 0.589 0.8082 -36.9392 58.7781)" class="st4" width="1.3" height="18.6"/>
			</g>
			<path class="st9" d="M180.7,94.3H65.9V78.3l0.2-0.2l21.5-29.1L123.2,34l35.1,14.9l0.2,0.2l22.2,29.3L180.7,94.3z"/>
		</g>
		<g>
			<g>
				
					<rect x="167.4" y="40.7" transform="matrix(0.7998 -0.6003 0.6003 0.7998 -5.725044e-02 117.4035)" class="st10" width="17.1" height="36.2"/>
				<path class="st4" d="M179.9,79.4l-22.6-30.1L172,38.2l22.6,30.1L179.9,79.4z M159.2,49.5l20.9,27.8l12.5-9.4l-20.9-27.8
					L159.2,49.5z"/>
			</g>
			<g>
				
					<rect x="182.6" y="30" transform="matrix(0.7998 -0.6003 0.6003 0.7998 5.1851 121.1535)" class="st10" width="3.3" height="45.6"/>
				<path class="st4" d="M196.4,72.9l-28.2-37.5l3.6-2.9L200,70L196.4,72.9z M169.9,35.5l26.6,36l2.3-1.7l-27.2-35.6L169.9,35.5z"/>
			</g>
		</g>
		<path class="st10" d="M107.1,142.8h31.8v22.8h-31.8V142.8z M109.6,165.6h26.6v-20.3h-26.6V165.6z"/>
		<g>
			<rect x="122.3" y="146.6" class="st11" width="12.3" height="19.9"/>
			<path class="st12" d="M135.2,167.1h-13.6v-21.3h13.6V167.1z M123,165.8h10.7v-18.4H123V165.8z"/>
		</g>
		<g>
			<rect x="110.8" y="146.6" class="st13" width="12.3" height="19.9"/>
			<path class="st12" d="M123.8,167.1h-13.6v-21.3h13.6V167.1z M111.5,165.8h10.7v-18.4h-10.7V165.8z"/>
		</g>
		<g>
			<path class="st14" d="M79.1,112.2C79.1,112.2,79.1,112,79.1,112.2c0.2-0.2,0.2-0.2,0.2-0.2h0.2h0.2h2.5c0.2,0,0.2,0,0.2,0.2
				l0.2,0.2l0.2,0.6l5,12.8c0,0.2,0,0.2,0,0.4c0,0-0.2,0.2-0.4,0.2h-2.7c-0.2,0-0.2,0-0.4,0l-0.2-0.2c-0.2-0.4-0.2-0.6-0.4-1
				c-0.2-0.4-0.2-0.6-0.4-1h-5c-0.2,0.4-0.2,0.6-0.4,1c-0.2,0.4-0.2,0.6-0.4,1c0,0.2-0.2,0.4-0.6,0.4h-2.9c-0.2,0-0.2,0-0.4,0v-0.2
				L79.1,112.2z M80.8,116.2c-0.2,0.4-0.2,0.8-0.4,1c-0.2,0.4-0.2,0.8-0.4,1.1c-0.2,0.4-0.2,0.8-0.4,1.1c-0.2,0.4-0.2,0.8-0.4,1h2.9
				L80.8,116.2z"/>
			<path class="st14" d="M99.2,112.7c0.2,0,0.2,0.2,0.2,0.2c0,0.2,0,0.2,0,0.4l-1.5,2.3c0,0.2-0.2,0.2-0.2,0.2s-0.2,0-0.4,0
				c-0.4-0.2-0.6-0.4-1-0.6c-0.4-0.2-0.8-0.2-1.1-0.2c-0.6,0-1,0.2-1.3,0.4c-0.4,0.2-0.8,0.4-1.1,0.8c-0.4,0.4-0.6,0.8-0.8,1.1
				c-0.2,0.4-0.2,1-0.2,1.5c0,0.6,0,1,0.2,1.5c0.2,0.6,0.4,0.8,0.8,1.1c0.4,0.4,0.8,0.6,1.1,0.8c0.4,0.2,1,0.4,1.3,0.4
				c0.4,0,0.8,0,1.1-0.2c0.4-0.2,0.8-0.4,1-0.6c0.2,0,0.2-0.2,0.2,0c0,0,0.2,0,0.2,0.2l1.5,2.3c0,0.2,0,0.2,0,0.4L99,125
				c-0.6,0.4-1.1,0.8-1.9,1s-1.3,0.4-2.1,0.4s-1.3,0-1.9-0.2c-0.6-0.2-1.1-0.4-1.7-0.8c-0.6-0.4-1-0.8-1.5-1.1
				c-0.4-0.4-0.8-1-1.1-1.5c-0.4-0.6-0.6-1.1-0.8-1.7c-0.2-0.6-0.2-1.3-0.2-1.9c0-0.6,0-1.3,0.2-1.9c0.2-0.6,0.4-1.1,0.8-1.7
				c0.4-0.6,0.8-1,1.1-1.5c0.4-0.4,1-0.8,1.5-1.1c0.6-0.4,1.1-0.6,1.7-0.8c0.6-0.2,1.3-0.2,1.9-0.2c0.8,0,1.5,0.2,2.1,0.4
				C98.1,112,98.7,112.4,99.2,112.7z"/>
			<path class="st14" d="M105.9,112.2C105.9,112.2,105.9,112,105.9,112.2c0.2-0.2,0.2-0.2,0.2-0.2h0.2h0.2h2.5c0.2,0,0.2,0,0.2,0.2
				l0.2,0.2l0.2,0.6l5,12.8c0,0.2,0,0.2,0,0.4c0,0-0.2,0.2-0.4,0.2h-2.7c-0.2,0-0.2,0-0.4,0l-0.2-0.2c-0.2-0.4-0.2-0.6-0.4-1
				s-0.2-0.6-0.4-1h-5c-0.2,0.4-0.2,0.6-0.4,1s-0.2,0.6-0.4,1c0,0.2-0.2,0.4-0.6,0.4H101c-0.2,0-0.2,0-0.4,0v-0.2L105.9,112.2z
				 M107.7,116.2c-0.2,0.4-0.2,0.8-0.4,1c-0.2,0.4-0.2,0.8-0.4,1.1c-0.2,0.4-0.2,0.8-0.4,1.1c-0.2,0.4-0.2,0.8-0.4,1h2.9
				L107.7,116.2z"/>
			<path class="st14" d="M128.7,118.9c0,0.8,0,1.3-0.2,1.9c-0.2,0.6-0.4,1.1-0.8,1.7c-0.4,0.6-0.8,1-1.1,1.3s-1,0.8-1.5,1.1
				c-0.6,0.4-1.1,0.6-1.7,0.8c-0.6,0.2-1.3,0.2-1.9,0.2h-4.6c-0.2,0-0.2,0-0.4,0c0,0-0.2-0.2-0.2-0.4v-13.4c0-0.2,0-0.2,0.2-0.4
				c0,0,0.2-0.2,0.4-0.2h4.6c0.6,0,1.3,0,1.9,0.2c0.6,0.2,1.1,0.4,1.7,0.8c0.6,0.4,1,0.6,1.5,1.1c0.4,0.4,0.8,1,1.1,1.3
				c0.4,0.6,0.6,1.1,0.8,1.7C128.7,117.3,128.7,118.1,128.7,118.9z M119.9,115.2v7.3h0.8c0.2,0,0.4,0,0.4,0c0.2,0,0.2,0,0.4,0
				c0.4,0,1-0.2,1.3-0.4c0.4-0.2,0.8-0.4,1.1-0.8c0.4-0.4,0.6-0.8,0.8-1.1c0.2-0.4,0.2-1,0.2-1.3c0-0.6-0.2-1-0.4-1.5
				c-0.2-0.4-0.4-0.8-0.8-1.1c-0.4-0.4-0.8-0.6-1.1-0.8c-0.4-0.2-1-0.2-1.5-0.2H119.9z"/>
			<path class="st14" d="M131.2,112.2c0-0.2,0-0.2,0.2-0.4c0,0,0.2-0.2,0.4-0.2h9.4c0.2,0,0.2,0,0.4,0.2c0,0,0.2,0.2,0.2,0.4v2.3
				c0,0.2,0,0.2-0.2,0.4c0,0.2-0.2,0.2-0.4,0.2h-6.1v2.3h4.8c0.2,0,0.2,0,0.4,0l0.2,0.2v2.1c0,0,0,0.2-0.2,0.2c0,0-0.2,0.2-0.4,0.2
				h-4.8v2.5h6.3c0.2,0,0.4,0.2,0.4,0.4v2.3v0.2c0,0.2-0.2,0.2-0.4,0.2h-9.6c-0.2,0-0.2,0-0.4-0.2c0,0-0.2-0.2-0.2-0.4L131.2,112.2
				L131.2,112.2z"/>
			<path class="st14" d="M144.8,112.2c0-0.2,0-0.2,0.2-0.4c0,0,0.2-0.2,0.4-0.2h3.3c0.2,0,0.4,0.2,0.4,0.4l2.7,8.6l2.7-8.6
				c0-0.2,0.2-0.4,0.6-0.4h3.3c0.2,0,0.2,0,0.4,0.2c0,0,0.2,0.2,0.2,0.4c0.2,2.3,0.4,4.4,0.8,6.7c0.2,2.1,0.4,4.4,0.8,6.7l0,0
				c0,0.2-0.2,0.4-0.4,0.4h-2.7c-0.4,0-0.4-0.2-0.4-0.4l-0.8-7.3l-2.1,7.5c0,0,0,0.2-0.2,0.2l-0.2,0.2h-2.5c0,0-0.2,0-0.2-0.2
				l-0.2-0.2l-2.1-7.5l-0.8,7.3c0,0.2-0.2,0.4-0.4,0.4h-2.7c-0.2,0-0.4-0.2-0.4-0.4L144.8,112.2z"/>
			<path class="st14" d="M167.4,117l2.3-5v-0.2l0,0l0,0c0,0,0,0,0.2,0h3.6c0,0,0,0,0.2,0c0,0,0,0,0,0.2c0,0,0,0.2-0.2,0.2l-4.6,8
				v5.4c0,0.4-0.2,0.4-0.4,0.4h-2.9c-0.2,0-0.2,0-0.4-0.2c0,0-0.2-0.2-0.2-0.4V120l-4.4-8l-0.2-0.2c0,0,0,0,0-0.2c0,0,0,0,0.2,0h3.6
				c0,0,0,0,0.2,0l0,0l0,0c0,0,0,0,0.2,0.2L167.4,117z"/>
		</g>
		<g>
			<path class="st3" d="M78.5,111C78.5,111,78.5,110.8,78.5,111c0.2-0.2,0.2-0.2,0.2-0.2h0.2h0.2h2.5c0.2,0,0.2,0,0.2,0.2l0.2,0.2
				l0.2,0.6l5,12.8c0,0.2,0,0.2,0,0.4c0,0-0.2,0.2-0.4,0.2h-2.7c-0.2,0-0.2,0-0.4,0l-0.2-0.2c-0.2-0.4-0.2-0.6-0.4-1s-0.2-0.6-0.4-1
				h-5c-0.2,0.4-0.2,0.6-0.4,1s-0.2,0.6-0.4,1c0,0.2-0.2,0.4-0.6,0.4h-2.9c-0.2,0-0.2,0-0.4,0v-0.2L78.5,111z M80.3,115
				c-0.2,0.4-0.2,0.8-0.4,1c-0.2,0.2-0.2,0.8-0.4,1.1c-0.2,0.4-0.2,0.8-0.4,1.1c-0.2,0.4-0.2,0.8-0.4,1h2.9L80.3,115z"/>
			<path class="st3" d="M98.7,111.6c0.2,0,0.2,0.2,0.2,0.2c0,0.2,0,0.2,0,0.4l-1.5,2.3c0,0.2-0.2,0.2-0.2,0.2s-0.2,0-0.4,0
				c-0.4-0.2-0.6-0.4-1-0.6s-0.8-0.2-1.1-0.2c-0.6,0-1,0.2-1.3,0.4c-0.4,0.2-0.8,0.4-1.1,0.8c-0.4,0.4-0.6,0.8-0.8,1.1
				c-0.2,0.4-0.2,1-0.2,1.5c0,0.6,0,1,0.2,1.5c0.2,0.6,0.4,0.8,0.8,1.1c0.4,0.4,0.8,0.6,1.1,0.8c0.4,0.2,1,0.4,1.3,0.4
				s0.8,0,1.1-0.2s0.8-0.4,1-0.6c0.2,0,0.2-0.2,0.2,0c0,0,0.2,0,0.2,0.2l1.5,2.3c0,0.2,0,0.2,0,0.4s-0.2,0.2-0.2,0.2
				c-0.6,0.4-1.1,0.8-1.9,1s-1.3,0.4-2.1,0.4s-1.3,0-1.9-0.2s-1.1-0.4-1.7-0.8c-0.6-0.4-1-0.8-1.5-1.1c-0.4-0.4-0.8-1-1.1-1.5
				c-0.4-0.6-0.6-1.1-0.8-1.7c-0.2-0.6-0.2-1.3-0.2-1.9c0-0.6,0-1.3,0.2-1.9c0.2-0.6,0.4-1.1,0.8-1.7c0.4-0.6,0.8-1,1.1-1.5
				c0.4-0.4,1-0.8,1.5-1.1c0.6-0.4,1.1-0.6,1.7-0.8c0.6-0.2,1.3-0.2,1.9-0.2c0.8,0,1.5,0.2,2.1,0.4C97.3,111,98.1,111.2,98.7,111.6z
				"/>
			<path class="st3" d="M105.4,111C105.4,111,105.4,110.8,105.4,111c0.2-0.2,0.2-0.2,0.2-0.2h0.2h0.2h2.5c0.2,0,0.2,0,0.2,0.2
				l0.2,0.2l0.2,0.6l5,12.8c0,0.2,0,0.2,0,0.4c0,0-0.2,0.2-0.4,0.2h-2.7c-0.2,0-0.2,0-0.4,0l-0.2-0.2c-0.2-0.4-0.2-0.6-0.4-1
				c-0.2-0.4-0.2-0.6-0.4-1h-5c-0.2,0.4-0.2,0.6-0.4,1s-0.2,0.6-0.4,1c0,0.2-0.2,0.4-0.6,0.4h-2.9c-0.2,0-0.2,0-0.4,0v-0.2
				L105.4,111z M107.1,115c-0.2,0.4-0.2,0.8-0.4,1c-0.2,0.4-0.2,0.8-0.4,1.1c-0.2,0.4-0.2,0.8-0.4,1.1c-0.2,0.4-0.2,0.8-0.4,1h2.9
				L107.1,115z"/>
			<path class="st3" d="M128,117.7c0,0.8,0,1.3-0.2,1.9c-0.2,0.6-0.4,1.1-0.8,1.7c-0.4,0.6-0.8,1-1.1,1.3s-1,0.8-1.5,1.1
				c-0.6,0.4-1.1,0.6-1.7,0.8c-0.6,0.2-1.3,0.2-1.9,0.2h-4.6c-0.2,0-0.2,0-0.4,0c0,0-0.2-0.2-0.2-0.4v-13.2c0-0.2,0-0.2,0.2-0.4
				c0,0,0.2-0.2,0.4-0.2h4.6c0.6,0,1.3,0,1.9,0.2c0.6,0.2,1.1,0.4,1.7,0.8c0.6,0.4,1,0.6,1.5,1.1c0.4,0.4,0.8,1,1.1,1.3
				c0.4,0.6,0.6,1.1,0.8,1.7C128,116.4,128,117,128,117.7z M119.3,114.1v7.3h0.8c0.2,0,0.4,0,0.4,0c0.2,0,0.2,0,0.4,0
				c0.4,0,1-0.2,1.3-0.4c0.4-0.2,0.8-0.4,1.1-0.8c0.4-0.4,0.6-0.8,0.8-1.1c0.2-0.4,0.2-1,0.2-1.3c0-0.6-0.2-1-0.4-1.5
				c-0.2-0.4-0.4-0.8-0.8-1.1c-0.4-0.4-0.8-0.6-1.1-0.8c-0.4-0.2-1-0.2-1.5-0.2H119.3z"/>
			<path class="st3" d="M130.5,111c0-0.2,0-0.2,0.2-0.4c0,0,0.2-0.2,0.4-0.2h9.4c0.2,0,0.2,0,0.4,0.2c0,0,0.2,0.2,0.2,0.4v2.3
				c0,0.2,0,0.2-0.2,0.4c0,0.2-0.2,0.2-0.4,0.2h-6.1v2.3h4.8c0.2,0,0.2,0,0.4,0l0.2,0.2v2.1c0,0,0,0.2-0.2,0.2c0,0-0.2,0.2-0.4,0.2
				h-4.8v2.5h6.3c0.2,0,0.4,0.2,0.4,0.4v2.3v0.2c0,0.2-0.2,0.2-0.4,0.2H131c-0.2,0-0.2,0-0.4-0.2c0,0-0.2-0.2-0.2-0.4L130.5,111
				L130.5,111z"/>
			<path class="st3" d="M144.1,111c0-0.2,0-0.2,0.2-0.4c0,0,0.2-0.2,0.4-0.2h3.3c0.2,0,0.4,0.2,0.4,0.4l2.7,8.6l2.7-8.6
				c0-0.2,0.2-0.4,0.6-0.4h3.3c0.2,0,0.2,0,0.4,0.2c0,0,0.2,0.2,0.2,0.4c0.2,2.3,0.4,4.4,0.8,6.7c0.2,2.1,0.4,4.4,0.8,6.7l0,0
				c0,0.2-0.2,0.4-0.4,0.4h-2.7c-0.4,0-0.4-0.2-0.4-0.4l-0.8-7.3l-2.1,7.5c0,0,0,0.2-0.2,0.2l-0.2,0.2h-2.5c0,0-0.2,0-0.2-0.2
				l-0.2-0.2l-2.1-7.5l-0.8,7.3c0,0.2-0.2,0.4-0.4,0.4h-3.6c-0.2,0-0.4-0.2-0.4-0.4L144.1,111z"/>
			<path class="st3" d="M166.9,115.8l2.3-5v-0.2l0,0l0,0c0,0,0,0,0.2,0h3.6c0,0,0,0,0.2,0c0,0,0,0,0,0.2c0,0,0,0.2-0.2,0.2l-4.6,8
				v5.4c0,0.4-0.2,0.4-0.4,0.4h-2.9c-0.2,0-0.2,0-0.4-0.2c0,0-0.2-0.2-0.2-0.4v-5.4l-4.4-8l-0.2-0.2c0,0,0,0,0-0.2c0,0,0,0,0.2,0
				h3.6c0,0,0,0,0.2,0l0,0l0,0c0,0,0,0,0.2,0.2L166.9,115.8z"/>
		</g>
	</g>
</g>
</svg>
