<?xml version="1.0" encoding="utf-8"?>
<!-- Generator: Adobe Illustrator 21.0.2, SVG Export Plug-In . SVG Version: 6.00 Build 0)  -->
<svg version="1.1" id="Layer_1" xmlns="http://www.w3.org/2000/svg" xmlns:xlink="http://www.w3.org/1999/xlink" x="0px" y="0px"
	 viewBox="0 0 300 300" style="enable-background:new 0 0 300 300;" xml:space="preserve">
<style type="text/css">
	.st0{fill:#EAEAE9;}
	.st1{fill:#CCCBCB;}
	.st2{fill:#FFFFFF;}
</style>
<g>
	<g id="building_2_">
		<polygon class="st0" points="150,85.6 150,300 75.8,257.2 75.8,42.8 		"/>
		<polygon class="st1" points="224.1,42.8 150,85.6 150,300 224.1,257.2 		"/>
		<polygon class="st2" points="75.8,42.8 150,85.6 224.1,42.8 150,0 		"/>
	</g>
	<g id="windows_2_">
		<polygon class="st2" points="162.4,93.1 174.7,85.9 174.7,100.2 162.4,107.4 		"/>
		<polygon class="st2" points="199.4,71.7 211.8,64.5 211.8,78.8 199.4,85.9 		"/>
		<polygon class="st2" points="180.9,82.4 193.3,75.2 193.3,89.5 180.9,96.7 		"/>
		<polygon class="st2" points="162.4,121.6 174.7,114.5 174.7,128.8 162.4,135.9 		"/>
		<polygon class="st2" points="199.4,100.2 211.8,93.1 211.8,107.4 199.4,114.5 		"/>
		<polygon class="st2" points="180.9,110.9 193.3,103.8 193.3,118.1 180.9,125.2 		"/>
		<polygon class="st2" points="162.4,150.2 174.7,143 174.7,157.3 162.4,164.4 		"/>
		<polygon class="st2" points="199.4,128.8 211.8,121.6 211.8,135.9 199.4,143 		"/>
		<polygon class="st2" points="180.9,139.5 193.3,132.3 193.3,146.6 180.9,153.7 		"/>
		<polygon class="st2" points="162.4,178.7 174.7,171.6 174.7,185.8 162.4,193 		"/>
		<polygon class="st2" points="199.4,157.3 211.8,150.2 211.8,164.4 199.4,171.6 		"/>
		<polygon class="st2" points="180.9,168 193.3,160.9 193.3,175.1 180.9,182.3 		"/>
		<polygon class="st2" points="162.4,207.2 174.7,200.1 174.7,214.4 162.4,221.5 		"/>
		<polygon class="st2" points="199.4,185.8 211.8,178.7 211.8,193 199.4,200.1 		"/>
		<polygon class="st2" points="180.9,196.5 193.3,189.4 193.3,203.7 180.9,210.8 		"/>
	</g>
</g>
</svg>
