<?xml version="1.0" encoding="utf-8"?>
<!-- Generator: Adobe Illustrator 21.0.2, SVG Export Plug-In . SVG Version: 6.00 Build 0)  -->
<svg version="1.0" id="Layer_1" xmlns="http://www.w3.org/2000/svg" xmlns:xlink="http://www.w3.org/1999/xlink" x="0px" y="0px"
	 viewBox="0 0 200 200" style="enable-background:new 0 0 200 200;" xml:space="preserve">
<style type="text/css">
	.st0{fill:#262D30;}
	.st1{fill:#0A171D;}
	.st2{fill:#FFFFFF;}
	.st3{fill:#FEE159;}
	.st4{fill:#FFFFEE;}
	.st5{fill:#60ACBE;}
	.st6{fill:#488CA7;}
	.st7{fill:#FD8B4F;}
</style>
<g id="factory">
	<g id="factoryGroup">
		<g>
			<path class="st0" d="M31.3,46.4L31.3,46.4c-12.8,0-23,10.2-23,23v80.9c0,8.5,8.1,15.5,18.9,16.8v2.3h8.5v-2.1
				c10.6-1.5,18.7-8.5,18.7-16.8V69.6C54.3,56.6,44,46.4,31.3,46.4z"/>
			<path class="st1" d="M21.3,149.4V69.8c0-10.4,7.9-19.4,18.7-21.9c-2.1-0.4-4.3-0.9-6.6-0.9l0,0C19.6,47,8.3,57.2,8.3,69.6v79.6
				c0,8.3,8.9,15.1,20.6,16.6v2.3h9.1v-2.3c0.6,0,1.3-0.2,1.9-0.2C29.4,163.8,21.3,157.2,21.3,149.4z"/>
			<path class="st2" d="M36.6,170.4H26.2v-2.6c-11.1-1.7-18.9-9.1-18.9-17.7V69.4c0-13.2,10.9-24,24-24s24,10.9,24,24v80.9
				c0,8.5-7.9,16-18.7,17.7V170.4z M28.1,168.5h6.4v-2.3l0.9-0.2c10.4-1.5,17.9-8.1,17.9-16V69.1C53.2,57,43.4,47,31.1,47
				S8.9,56.8,8.9,69.1V150c0,7.9,7.7,14.5,18.1,16l0.9,0.2v2.3H28.1z"/>
		</g>
		<path class="st3" d="M103.2,150.4V58.3c0-4.5,3-7,7.9-7h33c4.9,0,7.9,2.6,7.9,7v98.9h6.6V52.3c0-4.5-3.8-7.9-8.7-7.9h-45.3
			c-4.9,0-8.7,3.6-8.7,7.9v97.9h7.4V150.4z"/>
		<polygon class="st4" points="128.9,181.5 66.6,180 66.6,88.3 128.9,88.3 		"/>
		<g id="tartaly1_2_">
			<circle id="tartaly1_3_" class="st5" cx="155.8" cy="148.7" r="35.5"/>
			<path class="st6" d="M135.3,148.7c0-13.8,6-26.4,15.5-35.1c-17.2,2.3-30.4,17.2-30.4,35.1s13.2,32.6,30.4,35.1
				C141.5,175.1,135.3,162.8,135.3,148.7z"/>
		</g>
		<path class="st3" d="M34.5,48.1V25.7c0-4.5,3-7,7.9-7h45.7c4.9,0,7.9,2.6,7.9,7v24.9l6.6,4.9V19.8c0-4.5-3.8-7.9-8.7-7.9H36
			c-4.9,0-8.7,3.6-8.7,7.9v28.5L34.5,48.1z"/>
		<rect x="116.8" y="146.6" class="st3" width="78.1" height="7.7"/>
		<rect x="146.8" y="110.2" class="st3" width="18.1" height="4.3"/>
		<g>
			<polygon class="st3" points="116,185.3 113.6,185.3 126,154.3 128.5,154.3 			"/>
			<rect x="111.1" y="184.5" class="st3" width="6.8" height="1.5"/>
		</g>
		<g>
			<polygon class="st3" points="137.2,185.3 134.9,185.3 147,154.3 149.6,154.3 			"/>
			<rect x="132.3" y="184.5" class="st3" width="6.8" height="1.5"/>
		</g>
		<g>
			<polygon class="st3" points="174.3,185.1 176.6,185.1 164.3,154 161.7,154 			"/>
			<rect x="172.3" y="184.3" class="st3" width="6.8" height="1.5"/>
		</g>
		<g>
			<polygon class="st3" points="195.1,185.3 197.5,185.3 185.3,154.3 182.8,154.3 			"/>
			<rect x="193.2" y="184.4" class="st3" width="6.8" height="1.5"/>
		</g>
		<rect x="146.8" y="183.8" class="st3" width="18.1" height="4.3"/>
		<rect x="90.9" y="75.3" class="st3" width="18.1" height="13"/>
		<g>
			<g>
				<rect x="76.6" y="98.5" class="st1" width="6.6" height="7.4"/>
				<path class="st7" d="M84,106.6H76v-8.9H84V106.6z M77.2,105.1h5.1v-6h-5.1V105.1z"/>
			</g>
			<g>
				<rect x="87.2" y="98.5" class="st1" width="6.6" height="7.4"/>
				<path class="st7" d="M94.7,106.6h-8.1v-8.9h8.1V106.6z M87.9,105.1H93v-6h-5.1V105.1z"/>
			</g>
			<g>
				<rect x="97.7" y="98.5" class="st1" width="6.6" height="7.4"/>
				<path class="st7" d="M104.9,106.6h-8.1v-8.9h8.1V106.6z M98.3,105.1h5.1v-6h-5.1V105.1z"/>
			</g>
			<g>
				<rect x="76.6" y="109.4" class="st1" width="6.6" height="7.4"/>
				<path class="st7" d="M84,117.4H76v-8.9H84V117.4z M77.2,116.2h5.1v-6h-5.1V116.2z"/>
			</g>
			<g>
				<rect x="87.2" y="109.4" class="st1" width="6.6" height="7.4"/>
				<path class="st7" d="M94.7,117.4h-8.1v-8.9h8.1V117.4z M87.9,116.2H93v-6h-5.1V116.2z"/>
			</g>
			<g>
				<rect x="97.7" y="109.4" class="st1" width="6.6" height="7.4"/>
				<path class="st7" d="M104.9,117.4h-8.1v-8.9h8.1V117.4z M98.3,116.2h5.1v-6h-5.1V116.2z"/>
			</g>
			<g>
				<rect x="76.6" y="120.4" class="st1" width="6.6" height="7.4"/>
				<path class="st7" d="M84,128.5H76v-8.9H84V128.5z M77.2,127h5.1v-6h-5.1V127z"/>
			</g>
			<g>
				<rect x="87.2" y="120.4" class="st1" width="6.6" height="7.4"/>
				<path class="st7" d="M94.7,128.5h-8.1v-8.9h8.1V128.5z M87.9,127H93v-6h-5.1V127z"/>
			</g>
			<g>
				<rect x="97.7" y="120.4" class="st1" width="6.6" height="7.4"/>
				<path class="st7" d="M104.9,128.5h-8.1v-8.9h8.1V128.5z M98.3,127h5.1v-6h-5.1V127z"/>
			</g>
			<g>
				<rect x="76.6" y="131.7" class="st1" width="6.6" height="7.4"/>
				<path class="st7" d="M84,139.8H76v-8.9H84V139.8z M77.2,138.3h5.1v-6h-5.1V138.3z"/>
			</g>
			<g>
				<rect x="87.2" y="131.7" class="st1" width="6.6" height="7.4"/>
				<path class="st7" d="M94.7,139.8h-8.1v-8.9h8.1V139.8z M87.9,138.3H93v-6h-5.1V138.3z"/>
			</g>
			<g>
				<rect x="97.7" y="131.7" class="st1" width="6.6" height="7.4"/>
				<path class="st7" d="M104.9,139.8h-8.1v-8.9h8.1V139.8z M98.3,138.3h5.1v-6h-5.1V138.3z"/>
			</g>
		</g>
		<polygon points="100.9,180.9 88.1,180.4 88.1,160.2 100.9,160.2 		"/>
		<rect x="21.9" y="42.1" class="st3" width="18.1" height="6.6"/>
		<polygon class="st2" points="58.9,186.2 51.3,157.7 56.6,157.7 56.6,153.4 6.4,153.4 6.4,157.7 10.6,157.7 3,186.6 0,186.6 
			0,188.1 7,188.1 7,186.6 5.3,186.6 13.2,157.7 24.9,157.7 17.2,186.2 14,186.2 14,187.9 21.3,187.9 21.3,186.2 19.6,186.2 
			27.4,157.7 35.1,157.7 43,186.2 41.1,186.2 41.1,187.9 48.3,187.9 48.3,186.2 45.3,186.2 37.7,157.7 48.7,157.7 56.6,186.2 
			54.9,186.2 54.9,187.9 62.1,187.9 62.1,186.2 		"/>
		<rect x="8.3" y="127.7" class="st2" width="45.7" height="3.8"/>
		<rect x="8.3" y="100.4" class="st2" width="45.7" height="3.8"/>
		<rect x="8.3" y="75.3" class="st2" width="45.7" height="3.8"/>
	</g>
</g>
</svg>
