<?xml version="1.0" encoding="utf-8"?>
<!-- Generator: Adobe Illustrator 21.0.2, SVG Export Plug-In . SVG Version: 6.00 Build 0)  -->
<svg version="1.0" xmlns="http://www.w3.org/2000/svg" xmlns:xlink="http://www.w3.org/1999/xlink" x="0px" y="0px"
	 viewBox="0 0 500 400" style="enable-background:new 0 0 500 400;" xml:space="preserve">
<style type="text/css">
	.st0{opacity:0.54;fill:url(#SVGID_1_);}
	.st1{fill:#B5B5B5;stroke:#3E3D3D;stroke-miterlimit:10;}
	.st2{fill:#6B6B6B;stroke:#3E3D3D;stroke-miterlimit:10;}
	.st3{fill:#888888;}
	.st4{fill:#5B5B5B;}
	.st5{fill:none;stroke:#3E3D3D;stroke-miterlimit:10;}
	.st6{fill:#909090;stroke:#3E3D3D;stroke-miterlimit:10;}
	.st7{fill:#A6A6A6;stroke:#3E3D3D;stroke-miterlimit:10;}
	.st8{fill:none;stroke:#7B7979;stroke-miterlimit:10;}
	.st9{fill:#6B6B6B;stroke:#7B7979;stroke-miterlimit:10;}
	.st10{fill:#464646;stroke:#404040;stroke-miterlimit:10;}
	.st11{display:none;}
	.st12{display:inline;fill:#E08A00;stroke:#FFFFFF;stroke-width:0.75;stroke-miterlimit:10;}
	.st13{display:inline;stroke:#FFFFFF;stroke-width:0.75;stroke-miterlimit:10;}
	.st14{display:inline;stroke:#FFFFFF;stroke-width:0.5;stroke-miterlimit:10;}
	.st15{display:inline;fill:#333333;stroke:#FFFFFF;stroke-width:0.5;stroke-miterlimit:10;}
	.st16{fill:#CCCCCC;stroke:#FFFFFF;stroke-width:0.25;stroke-miterlimit:10;}
	.st17{stroke:#FFFFFF;stroke-width:0.5;stroke-miterlimit:10;}
	.st18{fill:#333333;stroke:#FFFFFF;stroke-width:0.5;stroke-miterlimit:10;}
	.st19{fill:none;stroke:#FFFFFF;stroke-width:0.5;stroke-miterlimit:10;}
	.st20{fill:#FFBA00;}
	.st21{fill:#AA5C5C;}
	.st22{fill:#FFFFFF;}
	.st23{fill:#E27A7A;}
</style>
<g id="glow">
	
		<radialGradient id="SVGID_1_" cx="210.3139" cy="244.329" r="256.0704" gradientTransform="matrix(1.2549 0 0 1.0036 -15.3994 -38.1906)" gradientUnits="userSpaceOnUse">
		<stop  offset="0" style="stop-color:#F1F2F2;stop-opacity:0.5"/>
		<stop  offset="0.1109" style="stop-color:#DEDFDF;stop-opacity:0.4445"/>
		<stop  offset="0.3364" style="stop-color:#ACADAD;stop-opacity:0.3318"/>
		<stop  offset="0.6567" style="stop-color:#5D5D5D;stop-opacity:0.1717"/>
		<stop  offset="1" style="stop-color:#000000;stop-opacity:0"/>
	</radialGradient>
	<ellipse class="st0" cx="248.5" cy="207" rx="321.3" ry="257"/>
</g>
<g id="island_base">
	<polygon id="baseRock_1_" class="st1" points="118.7,203.3 118.7,213.1 142.3,248.2 154.6,240.4 204.6,308.1 221.8,315.2 
		227.7,304.3 234.7,332.8 249.9,349.1 251.9,354.3 293.8,283.4 309.3,298 337.3,258.7 347.5,264.7 354.5,281.3 364.1,241.5 
		391.6,213.8 392,203.3 	"/>
	<polygon class="st2" points="330.3,268.1 339.7,276.7 344.1,262.9 337,258.9 	"/>
</g>
<g id="island_color">
	<polygon class="st3" points="249.9,349.1 234.7,332.8 222.9,283 229.8,301.6 236.4,304.2 239.4,311.1 242.3,329.6 	"/>
	<polygon class="st3" points="118.7,208.5 136.4,206.8 139,210.9 141.8,206.8 153.8,203.5 168.2,205.2 170.9,213.6 173.8,203.4 
		197.2,203.5 204.5,203.5 207.2,213.6 207.2,203.5 234.4,205.6 236.4,208.5 239.4,208.5 243.8,203.5 266.8,205.2 284.2,203.5 
		286.1,208.5 288,208.5 289.9,215 298.4,218.2 302,229.6 304.2,226 315,237.4 322.1,217.6 331.6,203.4 372.8,203.5 374.8,208.5 
		380.2,205.2 385.8,203.5 392,203.5 118.7,203.5 	"/>
	<polygon class="st3" points="170.9,249.2 170.9,251.4 181.2,267.5 198.7,288.4 	"/>
	<polygon class="st3" points="221.8,315.2 212.8,307.4 211.1,304.2 202.8,293.6 202,294.4 205.5,301 204.6,308.1 	"/>
	<polygon class="st4" points="168.8,279.3 173.8,266.3 166.4,256.4 	"/>
</g>
<g id="island-bottom">
	<line class="st5" x1="154.6" y1="240.3" x2="141.8" y2="221.7"/>
	<polyline class="st5" points="211.1,221.7 225.8,264.4 235.3,246.8 245.3,244.9 251.8,226.3 	"/>
	<polygon class="st6" points="166.4,256.3 168.8,279.3 181.2,276.3 	"/>
	<line class="st5" x1="227.7" y1="304.2" x2="222.9" y2="283"/>
	<line class="st5" x1="364.1" y1="241.4" x2="370.6" y2="214.8"/>
	<line class="st5" x1="293.7" y1="283.3" x2="286.1" y2="276.3"/>
	<polyline class="st7" points="293.7,203.2 302,224.6 306.2,219.2 315,231 322.1,214.8 331.6,203.2 293.7,203.2 	"/>
	<line class="st5" x1="306.2" y1="219.2" x2="312.7" y2="211.5"/>
	<polyline class="st5" points="258.9,323.3 255.7,337.2 251.8,354.1 248.5,345.4 242.4,329.3 239.4,311.1 	"/>
	<line class="st5" x1="170.9" y1="249.2" x2="198.7" y2="288.4"/>
	<line class="st5" x1="173.8" y1="203.2" x2="170.9" y2="211.5"/>
	<line class="st5" x1="289.9" y1="279.8" x2="286.1" y2="288.4"/>
	<line class="st5" x1="337.2" y1="258.6" x2="341.6" y2="252.4"/>
	<polyline class="st5" points="264.4,293.6 261.6,283 271.9,271.5 269.6,259.5 	"/>
</g>
<g id="island-top">
	<line class="st5" x1="235.3" y1="246.8" x2="235.3" y2="236.3"/>
	<line class="st8" x1="107.4" y1="199" x2="125.3" y2="200"/>
	<polygon id="top" class="st9" points="399.2,196.2 255.4,199.7 111.1,196.2 107.4,189.3 255.4,193 403.3,189.3 	"/>
	<polygon id="top_1_" class="st10" points="395.1,203.2 255.4,203.2 114.8,203.2 107.4,199 111.1,196.2 255.4,199.7 399.2,196.2 
		403.3,199 	"/>
</g>
<g id="mine" class="st11">
	<polygon class="st12" points="363.4,191.4 363.9,185.3 360.8,178.8 357.1,178.8 357.1,173.1 351.1,161.2 341,159.6 337.7,151.4 
		335,144.7 330.2,143.3 325.5,144.7 322,135.9 310.5,153.5 308.8,166.6 303.6,181.8 292.3,184.2 288.8,182.1 288.3,191.7 
		295.2,191.3 	"/>
	<polygon class="st12" points="292.1,192.9 293.3,185.7 295.8,185.7 295.8,182.7 297.5,173.9 301.4,174.2 305.3,168.4 309.7,168.4 
		311.5,165.9 315,173.6 316.8,179 318,177.5 320.2,182.7 320.2,186.7 320.2,179.5 321.5,180.4 323,192.5 320.3,192.5 317.6,195.1 
		313.9,192.6 	"/>
	<path class="st12" d="M358,156.4"/>
	<line class="st12" x1="325.5" y1="144.7" x2="328.6" y2="151.3"/>
	<line class="st12" x1="341" y1="159.6" x2="343.5" y2="169.6"/>
	<polygon class="st13" points="327.2,191.7 328.6,179.4 333,176.6 334.5,179.4 338.3,179 338.8,191.5 	"/>
	<polygon class="st12" points="340.1,192.3 343.1,193.4 346.9,192 344.4,187.4 340.8,188.7 	"/>
	<polygon class="st12" points="303.4,193 306.4,194.1 311.8,193.1 307.5,188.7 304,189.5 	"/>
	<line class="st12" x1="313.9" y1="192.6" x2="314.6" y2="185.6"/>
</g>
<g id="spaceStation">
	<g class="st11">
		<polygon class="st14" points="194.3,169.6 247.7,171.7 247.7,154 194.3,154 		"/>
		<polygon class="st15" points="247.7,154 247.7,171.7 261.1,172.1 261.1,156.7 		"/>
		<polygon class="st14" points="247.7,154 247.7,140.6 230.8,141.7 230.8,154 		"/>
		<polygon class="st15" points="247.7,140.6 261.1,143.6 261.1,156.7 247.7,154 		"/>
	</g>
	<g>
		<path class="st16" d="M379.2,173.2v-55.6h5.6l0.2,55.3L379.2,173.2z M384.4,172.3l-0.2-54.3h-4.4v54.6L384.4,172.3z"/>
		<polygon class="st16" points="384.8,172.1 379.6,167.2 384.7,162.8 384.7,163.4 380.2,167.2 384.8,171.6 		"/>
		<polygon class="st16" points="379.5,117.8 384.9,117.6 414.5,99.5 448.5,159.7 426.7,203.7 429.5,204.8 450.8,159.7 415.8,96.3 		
			"/>
		<polygon class="st16" points="384.4,163.4 379.2,158.6 384.4,154.2 384.4,154.7 379.9,158.6 384.4,163 		"/>
		<polygon class="st16" points="384.4,154.2 379.2,149.3 384.4,145 384.4,145.5 379.9,149.3 384.4,153.7 		"/>
		<polygon class="st16" points="384.4,144.9 379.2,140 384.4,135.7 384.4,136.2 379.9,140 384.4,144.4 		"/>
		<polygon class="st16" points="384.4,135.8 379.2,131 384.4,126.6 384.4,127.1 379.9,131 384.4,135.4 		"/>
		<polygon class="st16" points="384.4,126.8 379.2,122 384.4,117.6 384.4,118.1 379.9,122 384.4,126.4 		"/>
	</g>
	<polygon class="st17" points="397,188.9 380.1,189.4 380.1,177.6 397,177.6 	"/>
	<polygon class="st18" points="380.1,177.6 380.1,189.4 366.7,189.6 366.7,179.4 	"/>
	<polygon class="st17" points="380.1,177.6 380.1,168.8 397,169.5 397,177.6 	"/>
	<polygon class="st18" points="380.1,168.8 366.7,170.8 366.7,179.4 380.1,177.6 	"/>
</g>
<g id="aerial">
	<g>
		<g id="aerial_1_">
			<polygon class="st19" points="135.2,174 136.9,174 138.6,189.2 133.6,189.2 			"/>
			<g>
				<path class="st19" d="M140.4,150.7L140.4,150.7c-2.8-0.7-6.4-1.6-9.4-2.2c-8-1.8-14.6-3.2-14.6-3.2l5.3,13.8l12.4,8.7l2.1,0.5
					l0,0l2.7,0.6l14.4-2.2l10.9-10c0,0-6.2-1.7-14-3.6C147.3,152.3,143.3,151.3,140.4,150.7z"/>
				<polyline class="st19" points="134.1,167.7 131.2,161.5 131.1,150.1 				"/>
				<polyline class="st19" points="138.9,168.8 144.3,164.6 149.5,154.5 				"/>
				<polyline class="st19" points="116.4,145.2 131.1,150.1 149.5,154.5 164.3,156.6 				"/>
			</g>
			<ellipse class="st19" cx="136.1" cy="172.2" rx="2.1" ry="1.9"/>
			<ellipse class="st19" cx="136.1" cy="169.2" rx="1.3" ry="1.1"/>
			<polygon class="st19" points="133.6,189.2 138.6,189.2 142,192.4 130.2,192.4 			"/>
		</g>
		<line class="st19" x1="136.8" y1="151.5" x2="142" y2="144.5"/>
		<line class="st19" x1="143.2" y1="153" x2="142.2" y2="144.5"/>
		<circle class="st19" cx="142.5" cy="143.5" r="1"/>
		<line class="st19" x1="142" y1="144.5" x2="140.4" y2="150.7"/>
	</g>
</g>
<g id="planet">
	<g>
		<g>
			<path class="st20" d="M72,37.6c0,0-8.8,12.3,1.3,24.2s23.8,4.8,23.8,4.8c8-6.9,8.9-19,1.9-27C92.1,31.6,80,30.7,72,37.6z"/>
			
				<ellipse transform="matrix(0.7558 -0.6548 0.6548 0.7558 -13.4596 68.112)" class="st21" cx="84.6" cy="52.1" rx="19.2" ry="19.2"/>
		</g>
		<path class="st22" d="M89,45.9C71.1,33.2,54.1,26.2,51.1,30.5c-3,4.2,9,18,26.9,30.8s34.8,19.7,37.9,15.5
			C118.9,72.5,106.9,58.7,89,45.9z M78.9,60C64,49.3,53.9,37.8,56.4,34.2c2.5-3.5,16.7,2.3,31.7,12.9s25.1,22.2,22.5,25.7
			C108.1,76.5,93.9,70.7,78.9,60z"/>
		<path class="st23" d="M72,37.6c0,0-1.8,11.3,5.9,20.2s19.2,8.8,19.2,8.8c8-6.9,8.9-19,1.9-27S80,30.7,72,37.6z"/>
	</g>
</g>
</svg>
