<?xml version="1.0" encoding="utf-8"?>
<!-- Generator: Adobe Illustrator 21.0.2, SVG Export Plug-In . SVG Version: 6.00 Build 0)  -->
<svg version="1.1" id="Layer_1" xmlns="http://www.w3.org/2000/svg" xmlns:xlink="http://www.w3.org/1999/xlink" x="0px" y="0px"
	 viewBox="0 0 600 600" style="enable-background:new 0 0 600 600;" xml:space="preserve">
<style type="text/css">
	.st0{display:none;}
	.st1{opacity:0.54;fill:url(#SVGID_1_);enable-background:new    ;}
	.st2{fill:#B5B5B5;stroke:#3E3D3D;stroke-miterlimit:10;}
	.st3{fill:#6B6B6B;stroke:#3E3D3D;stroke-miterlimit:10;}
	.st4{fill:#888888;}
	.st5{fill:#5B5B5B;}
	.st6{fill:none;stroke:#3E3D3D;stroke-miterlimit:10;}
	.st7{fill:#909090;stroke:#3E3D3D;stroke-miterlimit:10;}
	.st8{fill:#A6A6A6;stroke:#3E3D3D;stroke-miterlimit:10;}
	.st9{fill:none;stroke:#7B7979;stroke-miterlimit:10;}
	.st10{fill:#6B6B6B;stroke:#7B7979;stroke-miterlimit:10;}
	.st11{fill:#464646;stroke:#404040;stroke-miterlimit:10;}
	.st12{fill:#FFFFEE;}
	.st13{fill:#60ACBE;}
	.st14{fill:#FD8B4F;}
	.st15{fill:#488CA7;}
	.st16{fill:#D6D6CC;}
	.st17{fill:#C1C1B9;}
	.st18{fill:none;}
	.st19{fill:#FFFFFF;}
	.st20{fill:none;stroke:#FFFFFF;stroke-width:0.5;stroke-miterlimit:10;}
	.st21{opacity:0.2;fill:#D6D6CC;enable-background:new    ;}
	.st22{fill:#0A171D;}
	.st23{fill:#18363D;}
	.st24{display:none;fill:#FFFFFF;}
	.st25{fill:#132930;}
	.st26{fill:#142D33;}
	.st27{fill:#FEE159;}
	.st28{opacity:0.5;fill:#C5572C;enable-background:new    ;}
	.st29{fill:#040A0C;}
	.st30{opacity:0.2;}
	.st31{fill:#F0F0F0;}
	.st32{fill:#FC6E23;}
	.st33{fill:#BDC3C7;}
	.st34{fill:#C5572C;}
	.st35{fill:none;stroke:#D6D6CC;stroke-width:2;stroke-miterlimit:10;}
	.st36{fill:#ECF0F1;}
	.st37{fill:none;stroke:#D6D6CC;stroke-miterlimit:10;}
	.st38{fill:none;stroke:#132930;stroke-width:2;stroke-miterlimit:10;}
	.st39{fill:#262D30;}
	.st40{display:inline;opacity:0.1;fill:#FFFFFF;stroke:#FFFFFF;stroke-width:2;stroke-miterlimit:10;enable-background:new    ;}
</style>
<g id="background" class="st0">
	
		<image style="display:inline;overflow:visible;enable-background:new    ;" width="600" height="450" xlink:href="../../../emerald/design/plans/black_holes.jpg"  transform="matrix(1 0 0 1.1111 0 0)">
	</image>
</g>
<g id="glow">
	<g id="glow_1_">
		
			<radialGradient id="SVGID_1_" cx="-1664.3992" cy="4843.9326" r="256.0572" gradientTransform="matrix(1.2549 0 0 1.0036 2382.9543 -4636.3706)" gradientUnits="userSpaceOnUse">
			<stop  offset="0" style="stop-color:#F1F2F2;stop-opacity:0.5"/>
			<stop  offset="0.1109" style="stop-color:#DEDFDF;stop-opacity:0.4445"/>
			<stop  offset="0.3364" style="stop-color:#ACADAD;stop-opacity:0.3318"/>
			<stop  offset="0.6567" style="stop-color:#5D5D5D;stop-opacity:0.1717"/>
			<stop  offset="1" style="stop-color:#000000;stop-opacity:0"/>
		</radialGradient>
		<ellipse class="st1" cx="294.3" cy="225" rx="321.3" ry="257"/>
	</g>
</g>
<g id="island">
	<g>
		<polygon id="baseRock_2_" class="st2" points="131.9,255 131.9,264.7 161.1,299.9 176.4,292 238.1,359.7 259.3,366.8 266.6,356 
			275.2,384.4 294.1,400.8 296.5,405.9 348.2,335 367.5,349.6 402,310.3 414.6,316.3 423.3,332.9 435.2,293.1 469.2,265.5 
			469.7,255 		"/>
		<polygon class="st3" points="393.5,319.7 405.1,328.3 410.5,314.6 401.7,310.5 		"/>
		<polygon class="st4" points="294.1,400.8 275.2,384.4 260.7,334.6 269.2,353.3 277.4,355.9 281,362.7 284.6,381.3 		"/>
		<polygon class="st4" points="131.9,260.1 153.8,258.4 157,262.5 160.4,258.4 175.3,255.2 193.1,256.8 196.4,265.2 200.1,255 
			228.9,255.2 238,255.2 241.3,265.2 241.3,255.2 274.9,257.2 277.4,260.1 281,260.1 286.6,255.2 314.9,256.8 336.4,255.2 
			338.8,260.1 341.1,260.1 343.5,266.6 354,269.9 358.5,281.2 361.2,277.7 374.6,289 383.3,269.2 395,255 446,255.2 448.5,260.1 
			455.1,256.8 462.1,255.2 469.7,255.2 131.9,255.2 		"/>
		<polygon class="st4" points="196.4,300.8 196.4,303 209.2,319.1 230.7,340.1 		"/>
		<polygon class="st4" points="259.3,366.8 248.3,359 246.1,355.9 235.9,345.2 234.9,346 239.2,352.7 238.1,359.7 		"/>
		<polygon class="st5" points="193.9,330.9 200.1,317.9 190.9,308 		"/>
		<line class="st6" x1="176.3" y1="291.9" x2="160.4" y2="273.4"/>
		<polyline class="st6" points="246.1,273.4 264.3,316.1 276,298.4 288.4,296.5 296.4,277.9 		"/>
		<polygon class="st7" points="190.9,307.9 193.9,330.9 209.2,328 		"/>
		<line class="st6" x1="266.6" y1="355.9" x2="260.7" y2="334.6"/>
		<line class="st6" x1="435.2" y1="293" x2="443.2" y2="266.5"/>
		<line class="st6" x1="348.2" y1="334.9" x2="338.8" y2="328"/>
		<polyline class="st8" points="348.2,254.9 358.5,276.3 363.6,270.8 374.6,282.6 383.3,266.5 395,254.9 348.2,254.9 		"/>
		<line class="st6" x1="363.6" y1="270.8" x2="371.6" y2="263.2"/>
		<polyline class="st6" points="305.2,374.9 301.2,388.9 296.4,405.8 292.3,397.1 284.8,380.9 281,362.7 		"/>
		<line class="st6" x1="196.4" y1="300.8" x2="230.7" y2="340.1"/>
		<line class="st6" x1="200.1" y1="254.9" x2="196.4" y2="263.2"/>
		<line class="st6" x1="343.5" y1="331.4" x2="338.8" y2="340.1"/>
		<line class="st6" x1="402" y1="310.2" x2="407.4" y2="304.1"/>
		<polyline class="st6" points="312,345.2 308.5,334.6 321.3,323.2 318.3,311.2 		"/>
		<line class="st6" x1="276.1" y1="298.4" x2="276.1" y2="287.9"/>
		<line class="st9" x1="118" y1="250.6" x2="140.1" y2="251.6"/>
		<polygon id="top" class="st10" points="478.6,247.9 300.8,251.4 122.5,247.9 118,240.9 300.8,244.6 483.6,240.9 		"/>
		<polygon id="top_1_" class="st11" points="473.5,254.8 300.8,254.8 127.1,254.8 118,250.6 122.5,247.9 300.8,251.4 478.6,247.9 
			483.6,250.6 		"/>
	</g>
</g>
<g id="academy">
	<g>
		<g>
			<rect x="397.9" y="208.7" class="st12" width="59.1" height="34.6"/>
			<path class="st12" d="M457.6,243.9h-60.1v-35.6h60.1V243.9z M398.5,242.9h58.1v-33.6h-58.1V242.9z"/>
		</g>
		<g>
			<rect x="367.4" y="226.5" class="st13" width="30.1" height="17.4"/>
			<rect x="371.6" y="230.3" class="st14" width="2.7" height="2.5"/>
			<rect x="375.4" y="230.3" class="st14" width="2.7" height="2.5"/>
			<rect x="379.3" y="230.2" class="st14" width="2.7" height="2.5"/>
			<rect x="371.5" y="233.9" class="st14" width="2.7" height="2.5"/>
			<rect x="375.3" y="233.9" class="st14" width="2.7" height="2.5"/>
			<rect x="379.2" y="233.8" class="st14" width="2.7" height="2.5"/>
			<rect x="383.3" y="230.3" class="st14" width="2.7" height="2.5"/>
			<rect x="387.1" y="230.2" class="st14" width="2.7" height="2.5"/>
			<rect x="391" y="230.1" class="st14" width="2.7" height="2.5"/>
			<rect x="383.3" y="233.9" class="st14" width="2.7" height="2.5"/>
			<rect x="387.1" y="233.8" class="st14" width="2.7" height="2.5"/>
			<rect x="391" y="233.7" class="st14" width="2.7" height="2.5"/>
		</g>
		<g>
			<rect x="398.9" y="205.6" class="st15" width="57.1" height="2.5"/>
		</g>
		<g id="aerial_1_">
			<g>
				<g id="aerial_2_">
					<g>
						<polygon class="st12" points="384.1,223.8 380.8,223.8 381.9,213.7 383,213.7 						"/>
						<polygon class="st16" points="382.4,223.7 380.8,223.7 381.9,213.6 382.4,213.5 						"/>
						<path d="M384.4,224.1h-3.9l1.2-10.6h1.6v0.2L384.4,224.1z M381.1,223.6h2.8l-1-9.6h-0.7L381.1,223.6z"/>
					</g>
					<g>
						<g>
							<path class="st12" d="M373.1,199.8c-5.2,1.3-9.3,2.4-9.3,2.4l7.3,6.7l9.6,1.5l1.8-0.4l0,0l1.4-0.3l8.3-5.8l3.5-9.2
								c0,0-4.4,0.9-9.7,2.1c-2,0.4-4.4,1-6.3,1.5l0,0C377.7,198.6,375,199.2,373.1,199.8z"/>
							<polygon class="st17" points="363.8,202.3 373.6,201 379.7,199.5 382.4,209.9 380.4,210.4 370.8,208.8 							"/>
							<path d="M380.6,210.6L380.6,210.6l-9.7-1.5l-7.6-7l0.4-0.1c0,0,4.2-1.1,9.3-2.4c1.8-0.5,4.5-1.2,6.5-1.6
								c1.8-0.4,4.2-1.1,6.3-1.5c5.3-1.2,9.7-2.1,9.7-2.1l0.5-0.1l-3.7,9.7l-8.4,5.9L380.6,210.6z M371.1,208.6l9.5,1.4l3.1-0.7
								l8.2-5.7l3.3-8.7c-1.3,0.3-5,1.1-9.3,2c-2,0.4-4.5,1-6.3,1.5c-2,0.4-4.7,1.1-6.5,1.6l0,0c-4.2,1-7.7,2-8.9,2.3L371.1,208.6z"
								/>
						</g>
						<g>
							<polyline class="st12" points="385.8,197.8 385.7,205.4 383.8,209.5 							"/>
							<polygon points="384,209.6 383.6,209.4 385.5,205.3 385.5,197.8 386,197.8 385.9,205.5 							"/>
						</g>
						<g>
							<polygon points="380.4,210.4 376.8,207.6 373.3,200.8 373.8,200.6 377.2,207.3 380.7,210 							"/>
						</g>
						<g>
							<polyline class="st12" points="363.7,202.1 373.5,200.7 385.8,197.8 395.6,194.5 							"/>
							<polygon points="363.7,202.4 363.6,201.9 373.5,200.5 385.7,197.5 395.5,194.3 395.6,194.8 385.9,198 373.6,201 							"/>
						</g>
					</g>
					<g>
						<ellipse class="st12" cx="382.4" cy="212.5" rx="1.4" ry="1.3"/>
						<path class="st16" d="M382.4,211.2v2.5c0,0-1.5-0.4-1.4-1.3C381.1,211.6,382.4,211.2,382.4,211.2z"/>
						<path d="M382.4,214c-0.9,0-1.6-0.7-1.6-1.5s0.7-1.5,1.6-1.5s1.6,0.7,1.6,1.5C384.1,213.3,383.4,214,382.4,214z M382.4,211.5
							c-0.6,0-1.1,0.5-1.1,1s0.5,1,1.1,1s1.1-0.5,1.1-1S383.1,211.5,382.4,211.5z"/>
					</g>
					<g>
						<ellipse class="st12" cx="382.4" cy="210.5" rx="0.9" ry="0.7"/>
						<path class="st16" d="M382.4,209.6v1.7c0,0-0.9-0.2-0.8-0.8S382.4,209.6,382.4,209.6z"/>
						<path d="M382.4,211.5c-0.6,0-1.1-0.4-1.1-1s0.5-1,1.1-1s1.1,0.4,1.1,1S383.1,211.5,382.4,211.5z M382.4,210
							c-0.3,0-0.6,0.2-0.6,0.5s0.3,0.5,0.6,0.5s0.6-0.2,0.6-0.5S382.8,210,382.4,210z"/>
					</g>
					<g>
						<polygon class="st12" points="386.4,225.9 378.5,225.9 380.8,223.8 384.1,223.8 						"/>
						<polygon class="st16" points="382.5,225.9 378.6,225.9 380.9,223.8 382.4,223.8 						"/>
						<path d="M387,226.2h-9.1l2.8-2.6h3.5L387,226.2z M379.2,225.7h6.6l-1.7-1.6H381L379.2,225.7z"/>
					</g>
				</g>
				<g>
					<line class="st18" x1="378.5" y1="194.1" x2="382.3" y2="199.2"/>
					<polygon class="st19" points="382.1,199.3 378.3,194.2 378.7,193.9 382.5,199 					"/>
				</g>
				<g>
					<line class="st18" x1="378.4" y1="194.1" x2="377.7" y2="200.3"/>
					
						<rect x="374.9" y="196.9" transform="matrix(0.1173 -0.9931 0.9931 0.1173 137.9065 549.4201)" class="st19" width="6.3" height="0.5"/>
				</g>
				<g>
					<circle class="st12" cx="378.3" cy="193.3" r="0.8"/>
					<path class="st19" d="M378.3,194.3c-0.6,0-1-0.5-1-1s0.5-1,1-1s1,0.5,1,1S378.9,194.3,378.3,194.3z M378.3,192.7
						c-0.3,0-0.5,0.2-0.5,0.5s0.2,0.5,0.5,0.5s0.5-0.2,0.5-0.5C378.8,193,378.6,192.7,378.3,192.7z"/>
				</g>
				<g>
					<line class="st18" x1="379.7" y1="198.4" x2="378.5" y2="194.1"/>
					
						<rect x="378.8" y="194" transform="matrix(0.9683 -0.2499 0.2499 0.9683 -37.0144 100.9523)" class="st19" width="0.5" height="4.5"/>
				</g>
			</g>
		</g>
		<path class="st20" d="M457.1,202.1"/>
		<g>
			<path class="st16" d="M457.6,205.7h-59.9v-8.4l0.1-0.1L409,182l18.6-7.8l18.3,7.8l0.1,0.1l11.6,15.3L457.6,205.7z M398.4,205
				h58.4l-0.1-7.4l-11.4-15l-17.8-7.6l-18.1,7.6l-11,15V205z"/>
			<g>
				<line class="st18" x1="451.7" y1="205.3" x2="427.5" y2="174.6"/>
				
					<rect x="439.2" y="170.4" transform="matrix(0.7853 -0.6192 0.6192 0.7853 -23.2084 312.9742)" class="st16" width="0.8" height="39.1"/>
			</g>
			<g>
				<line class="st18" x1="427.7" y1="174.6" x2="403.7" y2="205.3"/>
				
					<rect x="396.2" y="189.6" transform="matrix(0.6153 -0.7883 0.7883 0.6153 10.1695 400.8189)" class="st16" width="39" height="0.8"/>
			</g>
			<g>
				<line class="st18" x1="439.5" y1="205.3" x2="418.4" y2="178.6"/>
				
					<rect x="428.6" y="175" transform="matrix(0.7853 -0.6192 0.6192 0.7853 -26.7297 306.8662)" class="st16" width="0.8" height="34"/>
			</g>
			<g>
				<line class="st18" x1="436.5" y1="178.6" x2="415.6" y2="205.1"/>
				
					<rect x="409.2" y="191.5" transform="matrix(0.6186 -0.7857 0.7857 0.6186 11.7018 407.9539)" class="st16" width="33.8" height="0.8"/>
			</g>
			<g>
				<line class="st18" x1="435.8" y1="179.4" x2="415.6" y2="205.1"/>
				
					<rect x="409.3" y="191.9" transform="matrix(0.6182 -0.786 0.786 0.6182 11.3802 408.0438)" class="st16" width="32.8" height="0.8"/>
			</g>
			<g>
				<line class="st18" x1="445.5" y1="182.3" x2="427.4" y2="205.3"/>
				
					<rect x="421.8" y="193.4" transform="matrix(0.6182 -0.786 0.786 0.6182 14.2734 417.0507)" class="st16" width="29.3" height="0.8"/>
			</g>
			<g>
				<line class="st18" x1="451.4" y1="190" x2="439.3" y2="205.3"/>
				
					<rect x="435.6" y="197.3" transform="matrix(0.6186 -0.7857 0.7857 0.6186 14.5006 425.3449)" class="st16" width="19.6" height="0.8"/>
			</g>
			<g>
				<line class="st18" x1="427.4" y1="205.3" x2="409.1" y2="182.3"/>
				
					<rect x="417.9" y="179.1" transform="matrix(0.7838 -0.621 0.621 0.7838 -29.8953 301.6357)" class="st16" width="0.8" height="29.4"/>
			</g>
			<g>
				<line class="st18" x1="415.6" y1="205.1" x2="403.5" y2="190"/>
				
					<rect x="409.2" y="187.9" transform="matrix(0.7824 -0.6228 0.6228 0.7824 -33.9245 298.0768)" class="st16" width="0.7" height="19.4"/>
			</g>
			<g>
				<line class="st18" x1="445.5" y1="182.3" x2="409.1" y2="182.3"/>
				<rect x="409.1" y="181.9" class="st16" width="36.4" height="0.8"/>
			</g>
			<g>
				<line class="st18" x1="451.4" y1="190" x2="403.5" y2="190"/>
				<rect x="403.5" y="189.6" class="st16" width="47.9" height="0.8"/>
			</g>
			<g>
				<line class="st18" x1="457.1" y1="197.5" x2="398" y2="197.5"/>
				<rect x="398" y="197.1" class="st16" width="59.1" height="0.8"/>
			</g>
			<g>
				<line class="st18" x1="398" y1="197.5" x2="398" y2="205.3"/>
				
					<rect x="397.6" y="197.5" transform="matrix(1 -5.455849e-03 5.455849e-03 1 -1.0932 2.1745)" class="st16" width="0.8" height="7.9"/>
			</g>
			<g>
				<line class="st18" x1="457.1" y1="197.5" x2="451.7" y2="205.3"/>
				
					<rect x="449.6" y="201" transform="matrix(0.564 -0.8258 0.8258 0.564 31.7837 462.9932)" class="st16" width="9.5" height="0.7"/>
			</g>
			<g>
				<line class="st18" x1="398" y1="197.5" x2="403.7" y2="205.3"/>
				
					<rect x="400.4" y="196.5" transform="matrix(0.8082 -0.589 0.589 0.8082 -41.7295 274.6682)" class="st16" width="0.7" height="9.7"/>
			</g>
			<path class="st21" d="M457.6,205.7h-59.9v-8.4l0.1-0.1L409,182l18.6-7.8l18.3,7.8l0.1,0.1l11.6,15.3L457.6,205.7z"/>
		</g>
		<g>
			<g>
				
					<rect x="450.7" y="177.7" transform="matrix(0.7998 -0.6003 0.6003 0.7998 -21.2064 310.693)" class="st22" width="8.9" height="18.9"/>
				<path class="st16" d="M457.2,197.9l-11.8-15.7l7.7-5.8l11.8,15.7L457.2,197.9z M446.4,182.3l10.9,14.5l6.5-4.9l-10.9-14.5
					L446.4,182.3z"/>
			</g>
			<g>
				
					<rect x="458.6" y="172.1" transform="matrix(0.7998 -0.6003 0.6003 0.7998 -18.4699 312.6505)" class="st22" width="1.7" height="23.8"/>
				<path class="st16" d="M465.8,194.5l-14.7-19.6l1.9-1.5l14.7,19.6L465.8,194.5z M452,175l13.9,18.8l1.2-0.9l-14.2-18.6L452,175z"
					/>
			</g>
		</g>
		<path class="st22" d="M419.2,231h16.6v11.9h-16.6V231z M420.5,242.9h13.9v-10.6h-13.9V242.9z"/>
		<g>
			<rect x="427.2" y="233" class="st23" width="6.4" height="10.4"/>
			<path class="st24" d="M433.9,243.7h-7.1v-11.1h7.1V243.7z M427.5,243h5.6v-9.6h-5.6V243z"/>
		</g>
		<g>
			<rect x="421.1" y="233" class="st25" width="6.4" height="10.4"/>
			<path class="st24" d="M427.9,243.7h-7.1v-11.1h7.1V243.7z M421.5,243h5.6v-9.6h-5.6V243z"/>
		</g>
		<g>
			<path class="st26" d="M404.6,215C404.6,215,404.6,214.9,404.6,215c0.1-0.1,0.1-0.1,0.1-0.1h0.1h0.1h1.3c0.1,0,0.1,0,0.1,0.1
				l0.1,0.1l0.1,0.3l2.6,6.7c0,0.1,0,0.1,0,0.2c0,0-0.1,0.1-0.2,0.1h-1.4c-0.1,0-0.1,0-0.2,0l-0.1-0.1c-0.1-0.2-0.1-0.3-0.2-0.5
				s-0.1-0.3-0.2-0.5h-2.6c-0.1,0.2-0.1,0.3-0.2,0.5s-0.1,0.3-0.2,0.5c0,0.1-0.1,0.2-0.3,0.2H402c-0.1,0-0.1,0-0.2,0v-0.1L404.6,215
				z M405.5,217.1c-0.1,0.2-0.1,0.4-0.2,0.5c-0.1,0.2-0.1,0.4-0.2,0.6c-0.1,0.2-0.1,0.4-0.2,0.6c-0.1,0.2-0.1,0.4-0.2,0.5h1.5
				L405.5,217.1z"/>
			<path class="st26" d="M415.1,215.3c0.1,0,0.1,0.1,0.1,0.1c0,0.1,0,0.1,0,0.2l-0.8,1.2c0,0.1-0.1,0.1-0.1,0.1s-0.1,0-0.2,0
				c-0.2-0.1-0.3-0.2-0.5-0.3s-0.4-0.1-0.6-0.1c-0.3,0-0.5,0.1-0.7,0.2c-0.2,0.1-0.4,0.2-0.6,0.4s-0.3,0.4-0.4,0.6
				c-0.1,0.2-0.1,0.5-0.1,0.8s0,0.5,0.1,0.8s0.2,0.4,0.4,0.6c0.2,0.2,0.4,0.3,0.6,0.4c0.2,0.1,0.5,0.2,0.7,0.2s0.4,0,0.6-0.1
				s0.4-0.2,0.5-0.3c0.1,0,0.1-0.1,0.1,0c0,0,0.1,0,0.1,0.1l0.8,1.2c0,0.1,0,0.1,0,0.2l-0.1,0.1c-0.3,0.2-0.6,0.4-1,0.5
				s-0.7,0.2-1.1,0.2s-0.7,0-1-0.1s-0.6-0.2-0.9-0.4s-0.5-0.4-0.8-0.6c-0.2-0.2-0.4-0.5-0.6-0.8s-0.3-0.6-0.4-0.9
				c-0.1-0.3-0.1-0.7-0.1-1s0-0.7,0.1-1s0.2-0.6,0.4-0.9c0.2-0.3,0.4-0.5,0.6-0.8c0.2-0.2,0.5-0.4,0.8-0.6c0.3-0.2,0.6-0.3,0.9-0.4
				c0.3-0.1,0.7-0.1,1-0.1c0.4,0,0.8,0.1,1.1,0.2C414.5,214.9,414.8,215.1,415.1,215.3z"/>
			<path class="st26" d="M418.6,215C418.6,215,418.6,214.9,418.6,215c0.1-0.1,0.1-0.1,0.1-0.1h0.1h0.1h1.3c0.1,0,0.1,0,0.1,0.1
				l0.1,0.1l0.1,0.3l2.6,6.7c0,0.1,0,0.1,0,0.2c0,0-0.1,0.1-0.2,0.1h-1.4c-0.1,0-0.1,0-0.2,0l-0.1-0.1c-0.1-0.2-0.1-0.3-0.2-0.5
				s-0.1-0.3-0.2-0.5h-2.6c-0.1,0.2-0.1,0.3-0.2,0.5s-0.1,0.3-0.2,0.5c0,0.1-0.1,0.2-0.3,0.2H416c-0.1,0-0.1,0-0.2,0v-0.1L418.6,215
				z M419.5,217.1c-0.1,0.2-0.1,0.4-0.2,0.5c-0.1,0.2-0.1,0.4-0.2,0.6c-0.1,0.2-0.1,0.4-0.2,0.6c-0.1,0.2-0.1,0.4-0.2,0.5h1.5
				L419.5,217.1z"/>
			<path class="st26" d="M430.5,218.5c0,0.4,0,0.7-0.1,1s-0.2,0.6-0.4,0.9c-0.2,0.3-0.4,0.5-0.6,0.7s-0.5,0.4-0.8,0.6
				c-0.3,0.2-0.6,0.3-0.9,0.4s-0.7,0.1-1,0.1h-2.4c-0.1,0-0.1,0-0.2,0c0,0-0.1-0.1-0.1-0.2v-7c0-0.1,0-0.1,0.1-0.2
				c0,0,0.1-0.1,0.2-0.1h2.4c0.3,0,0.7,0,1,0.1s0.6,0.2,0.9,0.4s0.5,0.3,0.8,0.6c0.2,0.2,0.4,0.5,0.6,0.7c0.2,0.3,0.3,0.6,0.4,0.9
				S430.5,218.1,430.5,218.5z M425.9,216.6v3.8h0.4c0.1,0,0.2,0,0.2,0c0.1,0,0.1,0,0.2,0c0.2,0,0.5-0.1,0.7-0.2
				c0.2-0.1,0.4-0.2,0.6-0.4s0.3-0.4,0.4-0.6s0.1-0.5,0.1-0.7c0-0.3-0.1-0.5-0.2-0.8c-0.1-0.2-0.2-0.4-0.4-0.6
				c-0.2-0.2-0.4-0.3-0.6-0.4c-0.2-0.1-0.5-0.1-0.8-0.1H425.9z"/>
			<path class="st26" d="M431.8,215c0-0.1,0-0.1,0.1-0.2c0,0,0.1-0.1,0.2-0.1h4.9c0.1,0,0.1,0,0.2,0.1c0,0,0.1,0.1,0.1,0.2v1.2
				c0,0.1,0,0.1-0.1,0.2c0,0.1-0.1,0.1-0.2,0.1h-3.2v1.2h2.5c0.1,0,0.1,0,0.2,0l0.1,0.1v1.1c0,0,0,0.1-0.1,0.1c0,0-0.1,0.1-0.2,0.1
				h-2.5v1.3h3.3c0.1,0,0.2,0.1,0.2,0.2v1.2v0.1c0,0.1-0.1,0.1-0.2,0.1h-5c-0.1,0-0.1,0-0.2-0.1c0,0-0.1-0.1-0.1-0.2L431.8,215
				L431.8,215z"/>
			<path class="st26" d="M438.9,215c0-0.1,0-0.1,0.1-0.2c0,0,0.1-0.1,0.2-0.1h1.7c0.1,0,0.2,0.1,0.2,0.2l1.4,4.5l1.4-4.5
				c0-0.1,0.1-0.2,0.3-0.2h1.7c0.1,0,0.1,0,0.2,0.1c0,0,0.1,0.1,0.1,0.2c0.1,1.2,0.2,2.3,0.4,3.5c0.1,1.1,0.2,2.3,0.4,3.5l0,0
				c0,0.1-0.1,0.2-0.2,0.2h-1.4c-0.2,0-0.2-0.1-0.2-0.2l-0.4-3.8l-1.1,3.9c0,0,0,0.1-0.1,0.1l-0.1,0.1h-1.3c0,0-0.1,0-0.1-0.1
				l-0.1-0.1l-1.1-3.9l-0.4,3.8c0,0.1-0.1,0.2-0.2,0.2h-1.4c-0.1,0-0.2-0.1-0.2-0.2L438.9,215z"/>
			<path class="st26" d="M450.7,217.5l1.2-2.6v-0.1l0,0l0,0c0,0,0,0,0.1,0h1.9c0,0,0,0,0.1,0c0,0,0,0,0,0.1c0,0,0,0.1-0.1,0.1
				l-2.4,4.2v2.8c0,0.2-0.1,0.2-0.2,0.2h-1.5c-0.1,0-0.1,0-0.2-0.1c0,0-0.1-0.1-0.1-0.2v-2.8l-2.3-4.2l-0.1-0.1c0,0,0,0,0-0.1
				c0,0,0,0,0.1,0h1.9c0,0,0,0,0.1,0l0,0l0,0c0,0,0,0,0.1,0.1L450.7,217.5z"/>
		</g>
		<g>
			<path class="st15" d="M404.3,214.4C404.3,214.4,404.3,214.3,404.3,214.4c0.1-0.1,0.1-0.1,0.1-0.1h0.1h0.1h1.3
				c0.1,0,0.1,0,0.1,0.1l0.1,0.1l0.1,0.3l2.6,6.7c0,0.1,0,0.1,0,0.2c0,0-0.1,0.1-0.2,0.1h-1.4c-0.1,0-0.1,0-0.2,0l-0.1-0.1
				c-0.1-0.2-0.1-0.3-0.2-0.5s-0.1-0.3-0.2-0.5h-2.6c-0.1,0.2-0.1,0.3-0.2,0.5s-0.1,0.3-0.2,0.5c0,0.1-0.1,0.2-0.3,0.2h-1.5
				c-0.1,0-0.1,0-0.2,0v-0.1L404.3,214.4z M405.2,216.5c-0.1,0.2-0.1,0.4-0.2,0.5s-0.1,0.4-0.2,0.6c-0.1,0.2-0.1,0.4-0.2,0.6
				c-0.1,0.2-0.1,0.4-0.2,0.5h1.5L405.2,216.5z"/>
			<path class="st15" d="M414.8,214.7c0.1,0,0.1,0.1,0.1,0.1c0,0.1,0,0.1,0,0.2l-0.8,1.2c0,0.1-0.1,0.1-0.1,0.1s-0.1,0-0.2,0
				c-0.2-0.1-0.3-0.2-0.5-0.3s-0.4-0.1-0.6-0.1c-0.3,0-0.5,0.1-0.7,0.2c-0.2,0.1-0.4,0.2-0.6,0.4s-0.3,0.4-0.4,0.6
				c-0.1,0.2-0.1,0.5-0.1,0.8s0,0.5,0.1,0.8s0.2,0.4,0.4,0.6c0.2,0.2,0.4,0.3,0.6,0.4s0.5,0.2,0.7,0.2s0.4,0,0.6-0.1
				s0.4-0.2,0.5-0.3c0.1,0,0.1-0.1,0.1,0c0,0,0.1,0,0.1,0.1l0.8,1.2c0,0.1,0,0.1,0,0.2s-0.1,0.1-0.1,0.1c-0.3,0.2-0.6,0.4-1,0.5
				s-0.7,0.2-1.1,0.2s-0.7,0-1-0.1s-0.6-0.2-0.9-0.4s-0.5-0.4-0.8-0.6c-0.2-0.2-0.4-0.5-0.6-0.8s-0.3-0.6-0.4-0.9
				c-0.1-0.3-0.1-0.7-0.1-1s0-0.7,0.1-1s0.2-0.6,0.4-0.9c0.2-0.3,0.4-0.5,0.6-0.8c0.2-0.2,0.5-0.4,0.8-0.6c0.3-0.2,0.6-0.3,0.9-0.4
				c0.3-0.1,0.7-0.1,1-0.1c0.4,0,0.8,0.1,1.1,0.2C414.1,214.4,414.5,214.5,414.8,214.7z"/>
			<path class="st15" d="M418.3,214.4C418.3,214.4,418.3,214.3,418.3,214.4c0.1-0.1,0.1-0.1,0.1-0.1h0.1h0.1h1.3
				c0.1,0,0.1,0,0.1,0.1l0.1,0.1l0.1,0.3l2.6,6.7c0,0.1,0,0.1,0,0.2c0,0-0.1,0.1-0.2,0.1h-1.4c-0.1,0-0.1,0-0.2,0l-0.1-0.1
				c-0.1-0.2-0.1-0.3-0.2-0.5s-0.1-0.3-0.2-0.5h-2.6c-0.1,0.2-0.1,0.3-0.2,0.5s-0.1,0.3-0.2,0.5c0,0.1-0.1,0.2-0.3,0.2h-1.5
				c-0.1,0-0.1,0-0.2,0v-0.1L418.3,214.4z M419.2,216.5c-0.1,0.2-0.1,0.4-0.2,0.5c-0.1,0.2-0.1,0.4-0.2,0.6
				c-0.1,0.2-0.1,0.4-0.2,0.6c-0.1,0.2-0.1,0.4-0.2,0.5h1.5L419.2,216.5z"/>
			<path class="st15" d="M430.1,217.9c0,0.4,0,0.7-0.1,1s-0.2,0.6-0.4,0.9c-0.2,0.3-0.4,0.5-0.6,0.7s-0.5,0.4-0.8,0.6
				c-0.3,0.2-0.6,0.3-0.9,0.4s-0.7,0.1-1,0.1h-2.4c-0.1,0-0.1,0-0.2,0c0,0-0.1-0.1-0.1-0.2v-6.9c0-0.1,0-0.1,0.1-0.2
				c0,0,0.1-0.1,0.2-0.1h2.4c0.3,0,0.7,0,1,0.1s0.6,0.2,0.9,0.4s0.5,0.3,0.8,0.6c0.2,0.2,0.4,0.5,0.6,0.7c0.2,0.3,0.3,0.6,0.4,0.9
				C430.1,217.2,430.1,217.5,430.1,217.9z M425.6,216v3.8h0.4c0.1,0,0.2,0,0.2,0c0.1,0,0.1,0,0.2,0c0.2,0,0.5-0.1,0.7-0.2
				c0.2-0.1,0.4-0.2,0.6-0.4s0.3-0.4,0.4-0.6s0.1-0.5,0.1-0.7c0-0.3-0.1-0.5-0.2-0.8c-0.1-0.2-0.2-0.4-0.4-0.6
				c-0.2-0.2-0.4-0.3-0.6-0.4c-0.2-0.1-0.5-0.1-0.8-0.1H425.6z"/>
			<path class="st15" d="M431.4,214.4c0-0.1,0-0.1,0.1-0.2c0,0,0.1-0.1,0.2-0.1h4.9c0.1,0,0.1,0,0.2,0.1c0,0,0.1,0.1,0.1,0.2v1.2
				c0,0.1,0,0.1-0.1,0.2c0,0.1-0.1,0.1-0.2,0.1h-3.2v1.2h2.5c0.1,0,0.1,0,0.2,0l0.1,0.1v1.1c0,0,0,0.1-0.1,0.1c0,0-0.1,0.1-0.2,0.1
				h-2.5v1.3h3.3c0.1,0,0.2,0.1,0.2,0.2v1.2v0.1c0,0.1-0.1,0.1-0.2,0.1h-5c-0.1,0-0.1,0-0.2-0.1c0,0-0.1-0.1-0.1-0.2L431.4,214.4
				L431.4,214.4z"/>
			<path class="st15" d="M438.5,214.4c0-0.1,0-0.1,0.1-0.2c0,0,0.1-0.1,0.2-0.1h1.7c0.1,0,0.2,0.1,0.2,0.2l1.4,4.5l1.4-4.5
				c0-0.1,0.1-0.2,0.3-0.2h1.7c0.1,0,0.1,0,0.2,0.1c0,0,0.1,0.1,0.1,0.2c0.1,1.2,0.2,2.3,0.4,3.5c0.1,1.1,0.2,2.3,0.4,3.5l0,0
				c0,0.1-0.1,0.2-0.2,0.2H445c-0.2,0-0.2-0.1-0.2-0.2l-0.4-3.8l-1.1,3.9c0,0,0,0.1-0.1,0.1l-0.1,0.1h-1.3c0,0-0.1,0-0.1-0.1
				l-0.1-0.1l-1.1-3.9l-0.4,3.8c0,0.1-0.1,0.2-0.2,0.2H438c-0.1,0-0.2-0.1-0.2-0.2L438.5,214.4z"/>
			<path class="st15" d="M450.4,216.9l1.2-2.6v-0.1l0,0l0,0c0,0,0,0,0.1,0h1.9c0,0,0,0,0.1,0c0,0,0,0,0,0.1c0,0,0,0.1-0.1,0.1
				l-2.4,4.2v2.8c0,0.2-0.1,0.2-0.2,0.2h-1.5c-0.1,0-0.1,0-0.2-0.1c0,0-0.1-0.1-0.1-0.2v-2.8l-2.3-4.2l-0.1-0.1c0,0,0,0,0-0.1
				c0,0,0,0,0.1,0h1.9c0,0,0,0,0.1,0l0,0l0,0c0,0,0,0,0.1,0.1L450.4,216.9z"/>
		</g>
		<g>
			<g>
				<rect x="509.5" y="150.9" class="st27" width="3.3" height="3.3"/>
				<path class="st27" d="M513.1,154.6H509v-4.1h4.1V154.6z M509.8,153.8h2.6v-2.6h-2.6L509.8,153.8L509.8,153.8z"/>
			</g>
			<g>
				<rect x="507.3" y="141.8" class="st27" width="1.2" height="1.2"/>
				<path class="st27" d="M508.8,143.4h-2v-2h2V143.4z M507.6,142.7h0.5v-0.5h-0.5V142.7z"/>
			</g>
			<g>
				<rect x="507" y="163" class="st27" width="1.7" height="1.7"/>
				<path class="st27" d="M509.1,165h-2.4v-2.4h2.4V165z M507.4,164.3h0.9v-0.9h-0.9V164.3z"/>
			</g>
			<g>
				<rect x="491.1" y="147.4" class="st27" width="1.7" height="1.7"/>
				<path class="st27" d="M493.2,149.4h-2.4V147h2.4V149.4z M491.5,148.7h0.9v-0.9h-0.9V148.7z"/>
			</g>
			<g>
				<line class="st18" x1="511.1" y1="152.5" x2="507.6" y2="142.2"/>
				
					<rect x="509" y="142" transform="matrix(0.9476 -0.3194 0.3194 0.9476 -20.4034 170.4292)" class="st27" width="0.8" height="10.9"/>
			</g>
			<g>
				<line class="st18" x1="508.1" y1="163" x2="511.1" y2="152.5"/>
				
					<rect x="504.1" y="157.5" transform="matrix(0.2761 -0.9611 0.9611 0.2761 217.1705 603.9729)" class="st27" width="10.9" height="0.7"/>
			</g>
			<g>
				<line class="st18" x1="511.1" y1="152.5" x2="492" y2="148.2"/>
				
					<rect x="501.2" y="140.5" transform="matrix(0.2208 -0.9753 0.9753 0.2208 244.1801 606.3215)" class="st27" width="0.8" height="19.6"/>
			</g>
			<g>
				<rect x="486.1" y="138.2" class="st27" width="1.7" height="1.7"/>
				<path class="st27" d="M488.1,140.3h-2.4v-2.4h2.4V140.3z M486.4,139.5h0.9v-0.9h-0.9V139.5z"/>
			</g>
			<g>
				<line class="st18" x1="492" y1="148.2" x2="487" y2="139.2"/>
				
					<rect x="489.1" y="138.5" transform="matrix(0.8733 -0.4872 0.4872 0.8733 -8.0022 256.6726)" class="st27" width="0.7" height="10.4"/>
			</g>
		</g>
	</g>
</g>
<g id="spaceStation_1_">
	<g>
		<g>
			<path class="st14" d="M362.6,188.2c0,1.7-22.2,4.9-49.7,4.9s-49.7-3.2-49.7-4.9s22.2-4.3,49.7-4.3S362.6,186.5,362.6,188.2z"/>
			<path class="st28" d="M312.9,184.3c-28.2,0.5-49.4,2.4-49.4,4c0,1.5,21.8,4.2,49.5,4.9L312.9,184.3z"/>
			<path class="st16" d="M312.9,193.7c-16.6,0-29.2-1.1-35.2-1.8c-15-1.7-15-3.1-15-3.6c0-0.6,0-1.9,15-3.3
				c10.1-1,22.6-1.5,35.2-1.5s25,0.5,35.2,1.5c15,1.4,15,2.7,15,3.3c0,0.5,0,1.9-15,3.6C342,192.5,329.5,193.7,312.9,193.7z
				 M263.8,188.2c2.2,1.4,22.1,4.4,49.1,4.4s46.8-3,49.1-4.4c-2.3-1.4-21.9-3.8-49.1-3.8C285.7,184.4,266.1,186.9,263.8,188.2z"/>
		</g>
		<g>
			<g>
				<path class="st25" d="M362.2,187.2c-33-3.8-65.8-3.9-98.8-0.3c-1-7.9-0.9-11.5-0.9-18.9c33.9-4.6,67-4.5,100.9-0.2
					C363.3,175.7,363.2,179.4,362.2,187.2z"/>
				<path class="st29" d="M312.1,183.8c-16.2,0-32.7,0.8-48.8,2.9c-1-7.6-0.9-11.1-0.9-18.3c16.5-2.4,33-3.9,49.6-3.9
					C312.1,172.3,312.1,176.1,312.1,183.8z"/>
				<path class="st16" d="M362.6,187.8c-33.3-3.9-66.4-4.1-99.7-0.3c-1.1-8.3-1-12.1-1-19.9c34.3-4.8,67.7-4.7,102-0.2
					C363.9,175.7,363.7,179.5,362.6,187.8z M263.8,186.3c32.8-3.5,65.2-3.4,97.9,0.3c0.9-7.4,1-10.9,1.1-18.4
					c-33.6-4.3-66.3-4.4-99.8,0.1C263,175.4,262.9,178.9,263.8,186.3z"/>
			</g>
		</g>
		<g class="st30">
			<path class="st31" d="M362.6,167.5c-11.5-11.9-30-21-49.8-21s-37.8,9-49.3,20.9c0,0,38.1-3.1,49.2-3
				C323.7,164.4,362.6,167.5,362.6,167.5z"/>
			<path class="st31" d="M364,168.1l-1.5-0.1c-0.4,0-39-3.1-49.9-3.1s-48.7,3-49.1,3L262,168l1-1.1c12.7-13.2,31.3-21.1,49.7-21.1
				c18.4,0,37.7,8.1,50.2,21.2L364,168.1z M312.4,163.8h0.1c9.7,0,41.3,2.4,48.5,3c-12.4-12.2-30.8-19.8-48.4-19.8
				s-35.4,7.3-47.9,19.7C272,166.1,302.5,163.8,312.4,163.8z"/>
		</g>
		<path class="st16" d="M286,165.5l0.8-0.9c6.9-8.5,17-18.6,25.7-18.6c0.1,0,0.1,0,0.2,0c6.5,0.1,14.3,6,24.7,18.5l0.8,0.9l-1.2-0.1
			c-0.2,0-19-1-24.4-1s-25.1,1.1-25.3,1.1L286,165.5z M312.5,147c-6.3,0-14.8,6.1-24.1,17.3c4.4-0.2,19.1-1,23.9-1
			c0.1,0,0.1,0,0.2,0c4.6,0,18.9,0.7,23.2,0.9c-9.6-11.5-17.2-17.1-23.1-17.2H312.5z"/>
		<g>
			<path class="st16" d="M365.2,182.9c-2.4-1.1-19.1-3.9-51.3-3.9c-0.5,0-0.9,0-1.4,0c-31.8,0.1-48.3,2.5-52.7,4.5
				c-0.6,0.3-0.7,0.7-0.7,0.9c0,0.3,0.1,1,3.6,1.7l0.1-1c-1-0.2-1.9-0.5-2.4-0.7c4.5-2,20.8-4.3,52.2-4.3c33-0.1,49.9,2.8,52.3,3.8
				c0.1,0,0.2,0.1,0.2,0.1c-0.4,0.2-1.2,0.5-2.1,0.7v1c2.1-0.3,3.2-0.9,3.3-1.6C366.3,183.3,365.5,183,365.2,182.9z"/>
			<path class="st16" d="M365.1,177.6c-2.4-1.1-19.1-3.9-51.3-3.9c-0.5,0-0.9,0-1.4,0c-31.8,0.1-48.3,2.5-52.8,4.5
				c-0.6,0.3-0.7,0.7-0.7,0.9c0,0.3-0.1,1,3.4,1.7l-0.1-1.1c-1-0.2-1.6-0.4-2-0.7c4.5-2,20.8-4.3,52.2-4.3c0.5,0,1,0,1.4,0
				c32.1,0,48.6,2.7,50.9,3.7c0.1,0.1,0.4,0.1,0.5,0.3c-0.2,0.2-1.2,0.3-1.8,0.4v1.1c1.2-0.2,2.9-0.6,3-1.4
				C366.5,178.1,365.4,177.7,365.1,177.6z"/>
			<path class="st16" d="M365.8,172.6c-2.3-1-19.6-3.9-52-3.9c-0.5,0-0.9,0-1.4,0c-31.8,0.1-48.3,2.5-52.8,4.5c-0.7,0.3-1,0.7-1,0.9
				s0.1,1,3.4,1.6l-0.2-1.1c-0.9,0-1.5-0.1-1.9-0.5c0-0.8,21.1-4.3,52.4-4.4c33.1-0.1,50.7,2.8,53,3.8c0.1,0,0.2,0.1,0.2,0.1
				c-0.4,0.2-1,0.3-1.8,0.4l-0.1,1.1c2-0.3,3-0.7,3.1-1.4C366.9,173.1,366.1,172.7,365.8,172.6z"/>
			<path class="st16" d="M366.6,167.4c-2.5-1.1-20.2-4-54.3-3.9c-32.8,0.1-49.7,2.5-54.3,4.5c-0.6,0.3-0.7,0.7-0.6,0.9
				c0,0.3-0.2,1.1,4.6,1.8l0.1-1.1c-1.4-0.2-2.5-0.5-3.2-0.8c4.9-1.9,21.7-4.2,53.6-4.3c34-0.1,51.4,2.8,53.9,3.8
				c0.1,0,0.1,0.1,0.2,0.1c-0.5,0.2-1.6,0.6-2.8,0.7l0.2,1c2.4-0.4,3.7-0.9,3.8-1.7C367.7,167.9,366.9,167.6,366.6,167.4z"/>
		</g>
		<path class="st16" d="M364,167.5l-1.5-0.1c-0.4,0-39-3-49.9-3s-48.7,2.9-49.1,2.9l-1.5,0.1l1-1c12.7-12.8,31.3-20.4,49.7-20.4
			c18.4,0,37.7,7.9,50.2,20.5L364,167.5z M312.4,163.2h0.1c9.6,0,40.6,2.4,47.7,2.9C348,154.3,330,147,312.7,147s-34.8,7.1-47,19.1
			C272.6,165.5,302.6,163.2,312.4,163.2z"/>
		<path class="st16" d="M321.7,246.3v0.5c0,0.4-0.8,0.3-1.7,0.3l0,0l0,0c-0.8,0-1.5,0.1-1.7-0.2v-0.1l0,0v-0.6
			c-1.8,0-3.7-0.1-5.7-0.1c-1.9,0-3.6,0-5.3,0v0.6c0,0.4-0.8,0.3-1.7,0.3l0,0l0,0c-0.2,0-0.5,0-0.7,0c-0.6,0-1.1,0-1.1-0.3v-0.5
			c-5.6,0.2-9.4,0.6-9.4,1c0,0.6,8.1,1.1,18.2,1.1c10,0,18.2-0.5,18.2-1.1C330.7,246.8,327.1,246.5,321.7,246.3z"/>
		<g>
			<g>
				<path class="st31" d="M305.1,247.4L305.1,247.4c-1,0-1.8,0.2-1.8-0.8v-56.3c0-1,0.8-1.5,1.8-1.5l0,0c1,0,1.8,0.5,1.8,1.5v56.3
					C306.9,247.6,306.1,247.4,305.1,247.4z"/>
			</g>
			<path class="st16" d="M305.1,188.8c-1,0-1.8,0.5-1.8,1.5v56.3c0,1,0.8,0.8,1.8,0.8l0,0V188.8z"/>
		</g>
		<g>
			<g>
				<path class="st31" d="M320.5,247.6L320.5,247.6c-1,0-1.8,0.2-1.8-0.8v-56.3c0-1,0.8-1.5,1.8-1.5l0,0c1,0,1.8,0.5,1.8,1.5v56.3
					C322.3,247.8,321.5,247.6,320.5,247.6z"/>
			</g>
			<path class="st16" d="M320.5,189c-1,0-1.8,0.5-1.8,1.5v56.3c0,1,0.8,0.8,1.8,0.8l0,0V189z"/>
		</g>
	</g>
	<g>
		<g id="fire1_1_">
			<path id="fire_x5F_orange_2_" class="st32" d="M334.9,223.4c1,0.3,1.2,1.3,1.3,2c0.1,1.8-3.2,3.8-3.2,3.8s-1.4-3.4-0.4-5
				C333.1,223.5,334,223.1,334.9,223.4z"/>
			<path id="fire_x5F_yellow_2_" class="st27" d="M334.9,223.4c0.4,0.1,0.5,0.6,0.6,0.9c0,0.8-1.4,1.7-1.4,1.7s-0.6-1.5-0.2-2.2
				C334.1,223.4,334.5,223.2,334.9,223.4z"/>
		</g>
		<g>
			<path class="st12" d="M336.1,218.4h-1.9c-0.1,0-0.1,0-0.1,0s-0.1,0-0.1,0.1l-3.7,3.7h-0.6c-0.2,0-0.4,0.2-0.4,0.4
				s0.2,0.4,0.4,0.4h1.9c0.2,0,0.4-0.2,0.4-0.4s-0.2-0.4-0.4-0.4h-0.2l3.1-3.1h1.8c0.2,0,0.4-0.2,0.4-0.4S336.3,218.4,336.1,218.4z"
				/>
			<path class="st12" d="M350.4,222.3h-0.6l-3.7-3.7l-0.1-0.1h-0.1H344c-0.2,0-0.4,0.2-0.4,0.4s0.2,0.4,0.4,0.4h1.8l3.1,3.1h-0.2
				c-0.2,0-0.4,0.2-0.4,0.4s0.2,0.4,0.4,0.4h1.9c0.2,0,0.4-0.2,0.4-0.4C350.7,222.4,350.6,222.3,350.4,222.3z"/>
			<path class="st12" d="M340.7,222.3h-0.4v-2.7c0-0.2-0.2-0.4-0.4-0.4s-0.4,0.2-0.4,0.4v2.7h-0.4c-0.2,0-0.4,0.2-0.4,0.4
				s0.2,0.4,0.4,0.4h1.5c0.2,0,0.4-0.2,0.4-0.4C341.1,222.4,340.9,222.3,340.7,222.3z"/>
		</g>
		<rect x="336.1" y="216.5" class="st33" width="7.7" height="1.2"/>
		<path class="st16" d="M339.9,200.3L339.9,200.3c-1,0-2,0.4-2.7,1l0,0c-1.7,1.6-2.7,3.8-2.7,6.1v10.2h1.5v-1.2h7.7v1.2h1.5v-10.2
			c0-2.3-1-4.5-2.7-6.1l0,0C341.9,200.6,340.9,200.3,339.9,200.3z"/>
		<g>
			<polygon class="st13" points="345.3,206.5 334.5,206.5 334.5,207.2 341.9,207.2 341.9,209.2 342.6,209.2 342.6,207.2 
				345.3,207.2 			"/>
			<rect x="341.9" y="213" class="st13" width="0.8" height="3.5"/>
		</g>
		<circle class="st34" cx="336.1" cy="214.9" r="0.4"/>
		<circle class="st34" cx="337.6" cy="214.9" r="0.4"/>
		<circle class="st34" cx="339.2" cy="214.9" r="0.4"/>
		<circle class="st34" cx="340.7" cy="214.9" r="0.4"/>
		<circle class="st34" cx="343.8" cy="214.9" r="0.4"/>
		<polygon class="st13" points="334.5,216.5 332.6,216.1 332.6,215.3 334.5,214.9 		"/>
		<polygon class="st13" points="345.3,214.9 347.3,215.3 347.3,216.1 345.3,216.5 		"/>
		<g>
			<circle class="st25" cx="342.3" cy="211.1" r="1.9"/>
			<path class="st15" d="M342.3,213.4c-1.3,0-2.3-1-2.3-2.3s1-2.3,2.3-2.3s2.3,1,2.3,2.3C344.6,212.4,343.5,213.4,342.3,213.4z
				 M342.3,209.5c-0.9,0-1.5,0.7-1.5,1.5c0,0.9,0.7,1.5,1.5,1.5s1.5-0.7,1.5-1.5S343.1,209.5,342.3,209.5z"/>
		</g>
		<polygon class="st12" points="334.5,209.2 334.5,209.9 337.2,209.9 337.2,210.3 334.5,210.3 334.5,211.1 337.2,211.1 337.2,211.5 
			334.5,211.5 334.5,212.2 337.2,212.2 337.2,212.6 334.5,212.6 334.5,213.4 338,213.4 338,209.2 		"/>
		<rect x="336.1" y="217.6" class="st12" width="7.7" height="1.9"/>
		<g id="fire1_2_">
			<path id="fire_x5F_orange_3_" class="st32" d="M344.5,223.5c-1,0.3-1.2,1.3-1.3,2c-0.1,1.8,3.2,3.8,3.2,3.8s1.4-3.4,0.4-5
				C346.3,223.6,345.4,223.2,344.5,223.5z"/>
			<path id="fire_x5F_yellow_3_" class="st27" d="M344.5,223.5c-0.4,0.1-0.5,0.6-0.6,0.9c0,0.8,1.4,1.7,1.4,1.7s0.6-1.5,0.2-2.2
				C345.3,223.5,344.9,223.3,344.5,223.5z"/>
		</g>
	</g>
	<g>
		<polygon class="st12" points="278.5,228.4 284.9,235.3 284.9,215.3 278.5,215.3 		"/>
		<path class="st12" d="M281.7,209.1c-1.7,1.1-2.8,2.8-3.1,4.8h6.2C284.5,212,283.4,210.2,281.7,209.1z"/>
		<path class="st12" d="M262.4,209.1c-1.7,1.1-2.8,2.8-3.1,4.8h6.2C265.2,212,264.1,210.2,262.4,209.1z"/>
		<polygon class="st12" points="259.2,235.3 265.6,228.4 265.6,215.3 259.2,215.3 		"/>
		<path class="st16" d="M278.6,214c-0.1,0.4-0.1,0.8-0.1,1.3v0.1h6.4v-0.1c0-0.4,0-0.8-0.1-1.3H278.6z"/>
		<path class="st16" d="M259.3,214c-0.1,0.4-0.1,0.8-0.1,1.3v0.1h6.4v-0.1c0-0.4,0-0.8-0.1-1.3H259.3z"/>
		<line class="st35" x1="284.9" y1="216" x2="288.8" y2="216"/>
		<line class="st35" x1="284.9" y1="229.1" x2="288.8" y2="229.1"/>
		<path class="st14" d="M276.6,238.1l-1.3-3.4V225l3.2,3.4v-12c0-4.9-2.3-9.4-6.2-12c-0.2-0.1-0.4-0.1-0.5,0
			c-3.8,2.6-6.2,7.1-6.2,12v12l3.2-3.4v9.6l-1.3,3.4v0.7v1.4l0,0h9l0,0L276.6,238.1L276.6,238.1z"/>
		<path class="st25" d="M285.6,244.3h-7.7c-0.2,0-0.3-0.3-0.2-0.4l0.8-3.7h6.4l0.8,3.7C285.9,244.1,285.8,244.3,285.6,244.3z"/>
		<path class="st25" d="M266.3,244.3h-7.7c-0.2,0-0.3-0.3-0.2-0.4l0.8-3.7h6.4l0.8,3.7C266.6,244.1,266.5,244.3,266.3,244.3z"/>
		<path class="st36" d="M275.3,234.6v-17.9c0-2.2-0.8-4.2-2.2-5.7c-0.6-0.6-1.4-0.6-2,0c-1.4,1.5-2.2,3.6-2.2,5.7v17.9l-1.3,3.4v2.1
			h9V238L275.3,234.6z"/>
		<polygon class="st16" points="276.6,240.2 288.1,240.2 288.1,238.8 275.3,225 275.3,234.6 276.6,238.1 276.6,240.1 		"/>
		<polygon class="st16" points="267.6,240.1 267.6,238.8 267.6,238.1 268.9,234.6 268.9,225 256,238.8 256,240.2 267.6,240.2 		"/>
		<rect x="288.8" y="209.1" class="st37" width="4.5" height="35.2"/>
		<line class="st37" x1="293.3" y1="214.6" x2="288.8" y2="219.5"/>
		<line class="st37" x1="288.8" y1="219.5" x2="293.3" y2="224.3"/>
		<line class="st37" x1="293.3" y1="224.3" x2="288.8" y2="229.1"/>
		<line class="st37" x1="288.8" y1="229.1" x2="293.3" y2="234"/>
		<line class="st37" x1="293.3" y1="233.3" x2="288.8" y2="238.1"/>
		<line class="st37" x1="288.8" y1="238.1" x2="293.3" y2="242.9"/>
		<line class="st37" x1="293.3" y1="214.6" x2="288.8" y2="209.8"/>
		<rect x="289.4" y="205" class="st37" width="3.2" height="4.1"/>
		<polygon class="st15" points="257.3,237.4 256,238.8 256,240.2 267.6,240.2 267.6,240.1 267.6,238.8 267.6,238.1 267.8,237.4 		
			"/>
		<polygon class="st15" points="276.6,238.1 276.6,240.1 276.6,240.2 288.1,240.2 288.1,238.8 286.8,237.4 276.3,237.4 		"/>
		<path class="st25" d="M273.3,217.4h-2.6V216c0-0.8,0.6-1.4,1.3-1.4l0,0c0.7,0,1.3,0.6,1.3,1.4L273.3,217.4L273.3,217.4z"/>
		<line class="st38" x1="270.8" y1="233.3" x2="270.8" y2="235.3"/>
		<line class="st38" x1="273.3" y1="233.3" x2="273.3" y2="235.3"/>
		<polygon class="st25" points="275.3,242.2 268.9,242.2 269.5,240.2 274.6,240.2 		"/>
		<line class="st38" x1="272.1" y1="240.1" x2="272.1" y2="237.4"/>
	</g>
</g>
<g id="factory">
	<g id="factoryGroup">
		<g>
			<path class="st39" d="M155.7,178.2L155.7,178.2c-6,0-10.8,4.8-10.8,10.8v38c0,4,3.8,7.3,8.9,7.9v1.1h4v-1c5-0.7,8.8-4,8.8-7.9
				v-38C166.5,183,161.7,178.2,155.7,178.2z"/>
			<path class="st22" d="M151,226.6v-37.4c0-4.9,3.7-9.1,8.8-10.3c-1-0.2-2-0.4-3.1-0.4l0,0c-6.5,0-11.8,4.8-11.8,10.6v37.4
				c0,3.9,4.2,7.1,9.7,7.8v1.1h4.3v-1.1c0.3,0,0.6-0.1,0.9-0.1C154.8,233.4,151,230.3,151,226.6z"/>
			<path class="st19" d="M158.2,236.5h-4.9v-1.2c-5.2-0.8-8.9-4.3-8.9-8.3v-38c0-6.2,5.1-11.3,11.3-11.3S167,182.8,167,189v38
				c0,4-3.7,7.5-8.8,8.3V236.5z M154.2,235.6h3v-1.1l0.4-0.1c4.9-0.7,8.4-3.8,8.4-7.5v-38c0-5.7-4.6-10.4-10.4-10.4
				s-10.4,4.6-10.4,10.4v38c0,3.7,3.6,6.8,8.5,7.5l0.4,0.1v1.1H154.2z"/>
		</g>
		<path class="st27" d="M189.5,227.1v-43.3c0-2.1,1.4-3.3,3.7-3.3h15.5c2.3,0,3.7,1.2,3.7,3.3v46.5h3.1V181c0-2.1-1.8-3.7-4.1-3.7
			h-21.3c-2.3,0-4.1,1.7-4.1,3.7v46h3.5V227.1z"/>
		<polygon class="st12" points="201.6,241.7 172.3,241 172.3,197.9 201.6,197.9 		"/>
		<g id="tartaly1_2_">
			<circle id="tartaly1_3_" class="st13" cx="214.2" cy="226.3" r="16.7"/>
			<path class="st15" d="M204.6,226.3c0-6.5,2.8-12.4,7.3-16.5c-8.1,1.1-14.3,8.1-14.3,16.5s6.2,15.3,14.3,16.5
				C207.5,238.7,204.6,232.9,204.6,226.3z"/>
		</g>
		<path class="st27" d="M157.2,179v-10.5c0-2.1,1.4-3.3,3.7-3.3h21.5c2.3,0,3.7,1.2,3.7,3.3v11.7l3.1,2.3v-16.8
			c0-2.1-1.8-3.7-4.1-3.7h-27.2c-2.3,0-4.1,1.7-4.1,3.7v13.4L157.2,179z"/>
		<rect x="195.9" y="225.3" class="st27" width="36.7" height="3.6"/>
		<rect x="210" y="208.2" class="st27" width="8.5" height="2"/>
		<g>
			<polygon class="st27" points="195.5,243.5 194.4,243.5 200.2,228.9 201.4,228.9 			"/>
			<rect x="193.2" y="243.1" class="st27" width="3.2" height="0.7"/>
		</g>
		<g>
			<polygon class="st27" points="205.5,243.5 204.4,243.5 210.1,228.9 211.3,228.9 			"/>
			<rect x="203.2" y="243.1" class="st27" width="3.2" height="0.7"/>
		</g>
		<g>
			<polygon class="st27" points="222.9,243.4 224,243.4 218.2,228.8 217,228.8 			"/>
			<rect x="222" y="243" class="st27" width="3.2" height="0.7"/>
		</g>
		<g>
			<polygon class="st27" points="232.7,243.5 233.8,243.5 228.1,228.9 226.9,228.9 			"/>
			<rect x="231.8" y="243" class="st27" width="3.2" height="0.7"/>
		</g>
		<rect x="210" y="242.8" class="st27" width="8.5" height="2"/>
		<rect x="183.7" y="191.8" class="st27" width="8.5" height="6.1"/>
		<g>
			<g>
				<rect x="177" y="202.7" class="st22" width="3.1" height="3.5"/>
				<path class="st14" d="M180.5,206.5h-3.8v-4.2h3.8V206.5z M177.3,205.8h2.4V203h-2.4V205.8z"/>
			</g>
			<g>
				<rect x="182" y="202.7" class="st22" width="3.1" height="3.5"/>
				<path class="st14" d="M185.5,206.5h-3.8v-4.2h3.8V206.5z M182.3,205.8h2.4V203h-2.4V205.8z"/>
			</g>
			<g>
				<rect x="186.9" y="202.7" class="st22" width="3.1" height="3.5"/>
				<path class="st14" d="M190.3,206.5h-3.8v-4.2h3.8V206.5z M187.2,205.8h2.4V203h-2.4V205.8z"/>
			</g>
			<g>
				<rect x="177" y="207.8" class="st22" width="3.1" height="3.5"/>
				<path class="st14" d="M180.5,211.6h-3.8v-4.2h3.8V211.6z M177.3,211h2.4v-2.8h-2.4V211z"/>
			</g>
			<g>
				<rect x="182" y="207.8" class="st22" width="3.1" height="3.5"/>
				<path class="st14" d="M185.5,211.6h-3.8v-4.2h3.8V211.6z M182.3,211h2.4v-2.8h-2.4V211z"/>
			</g>
			<g>
				<rect x="186.9" y="207.8" class="st22" width="3.1" height="3.5"/>
				<path class="st14" d="M190.3,211.6h-3.8v-4.2h3.8V211.6z M187.2,211h2.4v-2.8h-2.4V211z"/>
			</g>
			<g>
				<rect x="177" y="213" class="st22" width="3.1" height="3.5"/>
				<path class="st14" d="M180.5,216.8h-3.8v-4.2h3.8V216.8z M177.3,216.1h2.4v-2.8h-2.4V216.1z"/>
			</g>
			<g>
				<rect x="182" y="213" class="st22" width="3.1" height="3.5"/>
				<path class="st14" d="M185.5,216.8h-3.8v-4.2h3.8V216.8z M182.3,216.1h2.4v-2.8h-2.4V216.1z"/>
			</g>
			<g>
				<rect x="186.9" y="213" class="st22" width="3.1" height="3.5"/>
				<path class="st14" d="M190.3,216.8h-3.8v-4.2h3.8V216.8z M187.2,216.1h2.4v-2.8h-2.4V216.1z"/>
			</g>
			<g>
				<rect x="177" y="218.3" class="st22" width="3.1" height="3.5"/>
				<path class="st14" d="M180.5,222.1h-3.8v-4.2h3.8V222.1z M177.3,221.4h2.4v-2.8h-2.4V221.4z"/>
			</g>
			<g>
				<rect x="182" y="218.3" class="st22" width="3.1" height="3.5"/>
				<path class="st14" d="M185.5,222.1h-3.8v-4.2h3.8V222.1z M182.3,221.4h2.4v-2.8h-2.4V221.4z"/>
			</g>
			<g>
				<rect x="186.9" y="218.3" class="st22" width="3.1" height="3.5"/>
				<path class="st14" d="M190.3,222.1h-3.8v-4.2h3.8V222.1z M187.2,221.4h2.4v-2.8h-2.4V221.4z"/>
			</g>
		</g>
		<polygon points="188.4,241.4 182.4,241.2 182.4,231.7 188.4,231.7 		"/>
		<rect x="151.3" y="176.2" class="st27" width="8.5" height="3.1"/>
		<polygon class="st19" points="168.7,243.9 165.1,230.5 167.6,230.5 167.6,228.5 144,228.5 144,230.5 146,230.5 142.4,244.1 
			141,244.1 141,244.8 144.3,244.8 144.3,244.1 143.5,244.1 147.2,230.5 152.7,230.5 149.1,243.9 147.6,243.9 147.6,244.7 
			151,244.7 151,243.9 150.2,243.9 153.9,230.5 157.5,230.5 161.2,243.9 160.3,243.9 160.3,244.7 163.7,244.7 163.7,243.9 
			162.3,243.9 158.7,230.5 163.9,230.5 167.6,243.9 166.8,243.9 166.8,244.7 170.2,244.7 170.2,243.9 		"/>
		<rect x="144.9" y="216.4" class="st19" width="21.5" height="1.8"/>
		<rect x="144.9" y="203.6" class="st19" width="21.5" height="1.8"/>
		<rect x="144.9" y="191.8" class="st19" width="21.5" height="1.8"/>
	</g>
</g>
<g id="mine_1_">
	<g id="mineGroup">
		<g id="arm_x5F_front">
			
				<rect id="arm2" x="388.2" y="284.8" transform="matrix(0.9312 -0.3646 0.3646 0.9312 -85.8349 163.2273)" class="st16" width="2.3" height="48.2"/>
			
				<rect id="arm1" x="394.7" y="315.5" transform="matrix(0.8127 -0.5827 0.5827 0.8127 -105.6271 304.6841)" class="st16" width="52.8" height="2.2"/>
			<path id="circe2" class="st12" d="M383.2,285.2c0,1.5-1.2,2.7-2.7,2.7s-2.7-1.2-2.7-2.7s1.2-2.7,2.7-2.7
				C382,282.6,383.2,283.8,383.2,285.2z M380.5,284.5c-0.4,0-0.8,0.3-0.8,0.8c0,0.4,0.3,0.8,0.8,0.8s0.8-0.3,0.8-0.8
				C381.2,284.8,380.9,284.5,380.5,284.5z"/>
			<path id="circle1" class="st12" d="M401.8,332.4c0,1.5-1.2,2.7-2.7,2.7s-2.7-1.2-2.7-2.7s1.2-2.7,2.7-2.7
				C400.6,329.7,401.8,330.9,401.8,332.4z M399.1,331.7c-0.4,0-0.8,0.3-0.8,0.8s0.3,0.8,0.8,0.8s0.8-0.3,0.8-0.8
				S399.5,331.7,399.1,331.7z"/>
		</g>
		
			<rect id="arm_x5F_back" x="439.9" y="286.1" transform="matrix(0.4042 -0.9147 0.9147 0.4042 6.2025 583.8652)" class="st16" width="22.7" height="2.2"/>
		<g id="fire1">
			<path id="fire_x5F_orange_1_" class="st13" d="M431.9,406.5c3.2,0,4.9,2.7,5.6,4.8c1.9,5.2-6,14.2-6,14.2s-7.4-8.8-5.7-14.5
				C426.6,408.6,429,406.5,431.9,406.5z"/>
			<path id="fire_x5F_yellow_1_" class="st12" d="M431.8,406.5c1.4,0,2.2,1.2,2.5,2.1c0.9,2.3-2.7,6.3-2.7,6.3s-3.3-3.9-2.5-6.4
				C429.5,407.4,430.5,406.5,431.8,406.5z"/>
		</g>
		<g id="fire2">
			<path id="fire_x5F_orange" class="st13" d="M461.6,407.4c3.2,0,4.9,2.7,5.6,4.8c1.9,5.2-6,14.2-6,14.2s-7.4-8.8-5.7-14.5
				C456.2,409.5,458.6,407.4,461.6,407.4z"/>
			<path id="fire_x5F_yellow" class="st12" d="M461.5,407.4c1.4,0,2.2,1.2,2.5,2.1c0.9,2.3-2.7,6.3-2.7,6.3s-3.3-3.9-2.5-6.4
				C459.1,408.3,460.1,407.4,461.5,407.4z"/>
		</g>
		<g id="mine_x5F_base">
			<g>
				<rect x="456.7" y="391.3" class="st12" width="9.3" height="9.4"/>
				<rect x="456.7" y="391.3" class="st16" width="4.7" height="9.4"/>
				<g>
					<rect x="454.3" y="400.7" class="st12" width="14.2" height="3.1"/>
					<rect x="454.6" y="400.7" class="st16" width="6.7" height="3.1"/>
					<path class="st22" d="M469,404.3h-15.2v-4.1H469V404.3z M454.8,403.3H468v-2.1h-13.2V403.3z"/>
				</g>
			</g>
			<g>
				<rect x="427.1" y="391.3" class="st12" width="9.3" height="9.4"/>
				<rect x="427.1" y="391.3" class="st16" width="4.7" height="9.4"/>
				<g>
					<rect x="424.7" y="400.7" class="st12" width="14.2" height="3.1"/>
					<rect x="425" y="400.7" class="st16" width="6.7" height="3.1"/>
					<path class="st22" d="M439.4,404.3h-15.2v-4.1h15.2V404.3z M425.2,403.3h13.2v-2.1h-13.2V403.3z"/>
				</g>
			</g>
			<g>
				<rect x="434.2" y="314.9" class="st22" width="22.6" height="5.6"/>
				<path class="st16" d="M457.3,321h-23.6v-6.6h23.6V321z M434.7,320h21.6v-4.6h-21.6V320z"/>
			</g>
			<path class="st12" d="M458.8,374.6l-5.2-53.9h-16.3l-5.2,53.9h-2.6v9h2.8v-7.5H459v7.5h2.8v-9H458.8z M455.5,363.2L455.5,363.2
				L455.5,363.2L455.5,363.2z M455.5,362.8l-8.6-4.7v-0.6l7.7-4.2L455.5,362.8z M446.9,342.6h6l-6,3.3V342.6z M446.9,352.2v-3.8
				l6.8,3.8H446.9z M453.8,352.9l-6.9,3.7v-3.7H453.8z M446.9,358.9l7.9,4.3h-7.9V358.9z M446.9,364h8l-8,4V364z M446.9,347.6v-0.8
				l6.8-3.8l0.8,8.8L446.9,347.6z M452.7,332.5L452.7,332.5L452.7,332.5L452.7,332.5z M446.9,322.5h4.2l-4.2,3V322.5z M446.9,326.5
				l4.9-3.5l0.8,8.2l-5.7-3.9L446.9,326.5L446.9,326.5z M446.9,328.2l5,3.5h-5V328.2z M446.9,332.5h5.1l-5.1,3.1V332.5z
				 M446.9,336.5l5.8-3.6l0.8,8.5l-6.6-4.3L446.9,336.5L446.9,336.5z M452.9,341.9h-6V338L452.9,341.9z M437.4,342.6L437.4,342.6
				L437.4,342.6L437.4,342.6z M444.6,341.9h-6.4l6.4-4V341.9z M444.6,332.5v3.2l-4.9-3.2H444.6z M439.6,331.7l5-3.6v3.6H439.6z
				 M444.6,322.5v3.2l-4.6-3.2H444.6z M439.3,323l5.3,3.7v0.6l-6.1,4.4L439.3,323z M438.4,332.5l6.2,4v0.5l-7,4.4L438.4,332.5z
				 M434.4,374.6L434.4,374.6L434.4,374.6L434.4,374.6z M444.6,374.6h-9.3l9.3-4.7V374.6z M444.6,369.1l-10.1,5l0.9-9.9l9.2,4.6
				V369.1z M444.6,368.1l-8.2-4.1h8.2V368.1z M444.6,363.2h-8.3l8.3-4.5V363.2z M444.6,357.9l-9,4.9l0.9-9.6l8.1,4.5V357.9z
				 M444.6,356.8l-7.2-3.9h7.2V356.8z M444.6,352.2h-7.4l7.4-4.1V352.2z M444.6,347.2l-8,4.5l0.8-8.6l7.2,4V347.2z M438.2,342.6h6.4
				v3.6L438.2,342.6z M446.9,374.6v-4.5l8.9,4.5H446.9z M446.9,369.3v-0.5l8.8-4.4l0.9,9.8L446.9,369.3z M456.6,374.6L456.6,374.6
				L456.6,374.6L456.6,374.6z"/>
			<path class="st16" d="M449.6,302.9h-8.2v11.9h8.2V302.9z M448.2,303.9l-2.7,4l-2.7-4H448.2z M442.4,305.1l2.5,3.8l-2.5,3.8V305.1
				z M442.8,313.8l2.7-4l2.7,4H442.8z M448.6,312.6l-2.5-3.8l2.5-3.8V312.6z"/>
			<path class="st16" d="M445.7,320.7h-8.4l-5.2,53.9h-2.6v9h2.8v-7.5h13.3v-55.4H445.7z M437.4,342.6L437.4,342.6L437.4,342.6
				L437.4,342.6z M434.4,374.6L434.4,374.6L434.4,374.6L434.4,374.6z M444.6,374.6h-9.3l9.3-4.7V374.6z M444.6,369.1l-10.1,5
				l0.9-9.9l9.2,4.6V369.1z M444.6,368.1l-8.2-4.1h8.2V368.1z M444.6,363.2h-8.3l8.3-4.5V363.2z M444.6,357.9l-9,4.9l0.9-9.6
				l8.1,4.5V357.9z M444.6,356.8l-7.2-3.9h7.2V356.8z M444.6,352.2h-7.4l7.4-4.1V352.2z M444.6,347.2l-8,4.5l0.8-8.6l7.2,4V347.2z
				 M444.6,346.3l-6.4-3.6h6.4V346.3z M444.6,341.9h-6.4l6.4-4V341.9z M444.6,337l-7,4.4l0.8-8.9l6.2,4V337z M444.6,335.6l-4.9-3.2
				h4.9V335.6z M444.6,331.7h-5l5-3.6V331.7z M444.6,327.2l-6.1,4.4l0.8-8.6l5.3,3.7L444.6,327.2L444.6,327.2z M440,322.5h4.6v3.2
				L440,322.5z"/>
			<path class="st12" d="M450.9,299.7c0,3-2.4,5.4-5.4,5.4s-5.4-2.4-5.4-5.4s2.4-5.4,5.4-5.4S450.9,296.7,450.9,299.7z M445.5,298.2
				c-0.8,0-1.5,0.7-1.5,1.5s0.7,1.5,1.5,1.5s1.5-0.7,1.5-1.5C447,298.9,446.4,298.2,445.5,298.2z"/>
			<g id="minetalp">
				<g>
					<path class="st12" d="M479.4,387.7h-67.1c-1.3,0-2.3-1-2.3-2.3v-1.7h71.7v1.7C481.7,386.6,480.7,387.7,479.4,387.7z"/>
					<rect x="410.5" y="383.6" class="st16" width="35" height="3.5"/>
					<path class="st22" d="M479.4,388.2h-67.1c-1.6,0-2.8-1.3-2.8-2.8v-2.2h72.7v2.2C482.2,386.9,480.9,388.2,479.4,388.2z
						 M410.5,384.1v1.2c0,1,0.8,1.8,1.8,1.8h67.1c1,0,1.8-0.8,1.8-1.8v-1.2H410.5z"/>
				</g>
				<g>
					<path class="st12" d="M481.7,391.7H410V390c0-1.3,1-2.3,2.3-2.3h67c1.3,0,2.3,1,2.3,2.3v1.7H481.7z"/>
					<rect x="410.5" y="388.2" class="st16" width="35" height="3.5"/>
					<path class="st22" d="M482.2,392.2h-72.7V390c0-1.6,1.3-2.8,2.8-2.8h67c1.6,0,2.8,1.3,2.8,2.8v2.2H482.2z M410.5,391.2h70.7
						V390c0-1-0.8-1.8-1.8-1.8h-67c-1,0-1.8,0.8-1.8,1.8v1.2H410.5z"/>
				</g>
			</g>
		</g>
	</g>
</g>
<g id="sphere" class="st0">
	<path id="burok" class="st40" d="M478,244.7c-1.8-100.5-80.7-181.3-177.7-181.3s-175.8,80.9-177.7,181.3H478z"/>
</g>
<g id="planet">
	<g>
		<g>
			<path class="st34" d="M82.5,89.3c0,0-8.8,12.3,1.3,24.2s23.8,4.8,23.8,4.8c8-6.9,8.9-19,1.9-27S90.5,82.3,82.5,89.3z"/>
			
				<ellipse transform="matrix(0.7558 -0.6548 0.6548 0.7558 -44.6931 87.5787)" class="st34" cx="95.1" cy="103.7" rx="19.2" ry="19.2"/>
		</g>
		<path class="st19" d="M99.5,97.6C81.6,84.8,64.6,77.9,61.6,82.1s9,18,26.9,30.8s34.8,19.7,37.9,15.5
			C129.4,124.1,117.4,110.3,99.5,97.6z M89.4,111.6c-15-10.7-25.1-22.2-22.5-25.7c2.5-3.5,16.7,2.3,31.7,12.9s25.1,22.2,22.5,25.7
			C118.6,128.1,104.4,122.3,89.4,111.6z"/>
		<path class="st32" d="M82.5,89.3c0,0-1.8,11.3,5.9,20.2s19.2,8.8,19.2,8.8c8-6.9,8.9-19,1.9-27C102.7,83.2,90.5,82.3,82.5,89.3z"
			/>
	</g>
</g>
</svg>
