<?xml version="1.0" encoding="utf-8"?>
<!-- Generator: Adobe Illustrator 21.0.2, SVG Export Plug-In . SVG Version: 6.00 Build 0)  -->
<svg version="1.1" xmlns="http://www.w3.org/2000/svg" xmlns:xlink="http://www.w3.org/1999/xlink" x="0px" y="0px"
	 viewBox="0 0 600 600" style="enable-background:new 0 0 600 600;" xml:space="preserve">
<style type="text/css">
	.st0{display:none;}
	.st1{display:inline;}
	.st2{fill:url(#SVGID_1_);}
	.st3{fill:#DD6231;stroke:#FC6E23;stroke-miterlimit:10;}
	.st4{fill:#FC6E23;stroke:#FC6E23;stroke-miterlimit:10;}
	.st5{fill:#944121;}
	.st6{fill:#C5572C;}
	.st7{fill:none;}
	.st8{display:inline;fill:#FFFFFF;}
	.st9{font-family:'MyriadPro-Regular';}
	.st10{font-size:24.6025px;}
	.st11{font-size:17.0325px;}
	.st12{fill:#FD8B4F;}
	.st13{opacity:0.5;fill:#C5572C;enable-background:new    ;}
	.st14{fill:#D6D6CC;}
	.st15{fill:#132930;}
	.st16{fill:#040A0C;}
	.st17{opacity:0.2;}
	.st18{fill:#F0F0F0;}
	.st19{fill:#FC6E23;}
	.st20{fill:#FEE159;}
	.st21{fill:#FFFFEE;}
	.st22{fill:#BDC3C7;}
	.st23{fill:#60ACBE;}
	.st24{fill:#488CA7;}
	.st25{fill:#ECF0F1;}
	.st26{fill:none;stroke:#132930;stroke-width:2;stroke-miterlimit:10;}
	.st27{fill:#FFFFFF;}
	.st28{fill:#262D30;}
	.st29{fill:#0A171D;}
	.st30{fill:#C1C1B9;}
	.st31{fill:none;stroke:#FFFFFF;stroke-width:0.5;stroke-miterlimit:10;}
	.st32{opacity:0.2;fill:#D6D6CC;enable-background:new    ;}
	.st33{fill:#18363D;}
	.st34{display:none;fill:#FFFFFF;}
</style>
<g id="Layer_2" class="st0">
	<rect x="-1.4" y="-1.4" class="st1" width="750" height="753"/>
</g>
<g id="Layer_1">
	<g id="island">
		<radialGradient id="SVGID_1_" cx="300" cy="300" r="300" gradientUnits="userSpaceOnUse">
			<stop  offset="0" style="stop-color:#231F20;stop-opacity:0"/>
			<stop  offset="0.3825" style="stop-color:#252122;stop-opacity:0.1147"/>
			<stop  offset="0.5203" style="stop-color:#2C2829;stop-opacity:0.1561"/>
			<stop  offset="0.6185" style="stop-color:#373334;stop-opacity:0.1856"/>
			<stop  offset="0.6979" style="stop-color:#484445;stop-opacity:0.2094"/>
			<stop  offset="0.766" style="stop-color:#5D5A5B;stop-opacity:0.2298"/>
			<stop  offset="0.8262" style="stop-color:#787676;stop-opacity:0.2479"/>
			<stop  offset="0.8807" style="stop-color:#989697;stop-opacity:0.2642"/>
			<stop  offset="0.9308" style="stop-color:#BDBCBC;stop-opacity:0.2792"/>
			<stop  offset="0.9754" style="stop-color:#E5E5E5;stop-opacity:0.2926"/>
			<stop  offset="1" style="stop-color:#FFFFFF;stop-opacity:0.3"/>
		</radialGradient>
		<circle class="st2" cx="300" cy="300" r="300"/>
		<g id="planet">
			<g>
				<ellipse class="st3" cx="300.3" cy="301.1" rx="169.7" ry="168.9"/>
				<path class="st4" d="M462.6,251.3C442,181.2,376.9,130,299.7,130C206,130,130,205.6,130,298.9c0,39,13.3,74.9,35.6,103.5
					c28.2,14.4,60.1,22.6,93.9,22.6C362.5,425,447.7,349.6,462.6,251.3z"/>
			</g>
			<g>
				<path class="st5" d="M448.3,369.4c-3.2,6.6-8,10.8-10.9,9.5s-2.6-7.8,0.6-14.3c3.2-6.6,8-10.8,10.9-9.5
					C451.7,356.4,451.5,362.8,448.3,369.4z"/>
				<path class="st6" d="M349.7,226.3c-1.8,3.5-6.9,4.4-11.5,2.1c-4.6-2.3-6.9-7-5.1-10.5c1.8-3.5,6.9-4.4,11.5-2.1
					C349.1,218.1,351.4,222.8,349.7,226.3z"/>
				<path class="st6" d="M220,276.8c3.7,1.2,5.4,6,3.9,10.8c-1.6,4.7-5.9,7.6-9.6,6.3c-3.7-1.2-5.4-6-3.9-10.8
					C212,278.4,216.3,275.6,220,276.8z"/>
				<path class="st6" d="M352,424.1c4.8,7.7,21.5,5.9,37.2-3.9c15.7-9.8,24.5-24,19.7-31.6c-4.8-7.7-21.5-5.9-37.2,3.9
					C355.9,402.3,347.1,416.5,352,424.1z"/>
				<path class="st5" d="M375,398.3c13.9-8.7,28.6-11,35.1-6.1c-0.1-1.5-0.5-2.8-1.3-4c-4.8-7.7-21.5-5.9-37.2,3.9
					c-15.7,9.8-24.5,24-19.7,31.6c0.5,0.9,1.2,1.6,2,2.2C353.4,418,361.8,406.6,375,398.3z"/>
				<path class="st6" d="M431.9,312.1c-3.6,15.5-15.6,25.9-26.7,23.4s-17.2-17.2-13.5-32.7c3.6-15.5,15.6-25.9,26.7-23.4
					C429.5,282,435.6,296.6,431.9,312.1z"/>
				<path class="st5" d="M391.3,311.7c3.6-15.5,15.6-25.9,26.7-23.4c8.3,1.9,13.7,10.5,14.5,21.1c2.4-14.5-3.6-27.6-14.1-30
					c-11.1-2.6-23.1,7.9-26.7,23.4c-0.9,4-1.2,7.9-1,11.6C390.9,313.4,391.1,312.5,391.3,311.7z"/>
				<path class="st6" d="M264.4,338.6c8.3,18.1,5.3,37.2-6.7,42.6s-28.3-4.9-36.6-23s-5.3-37.2,6.7-42.6
					C239.7,310.1,256.1,320.4,264.4,338.6z"/>
				<path class="st5" d="M229.5,322.7c12-5.4,28.3,4.9,36.6,23c1,2.1,1.8,4.2,2.4,6.3c-0.7-4.4-2.1-9-4.1-13.5
					c-8.3-18.1-24.7-28.4-36.6-23c-10.6,4.8-14.1,20.2-9.1,36.3C216.6,338.5,220.5,326.8,229.5,322.7z"/>
				<path class="st6" d="M277.5,430.7c-2.7,7.8-18.9,9.3-36.2,3.3c-17.3-6-29.1-17.1-26.4-24.9c2.7-7.8,18.9-9.3,36.2-3.3
					S280.2,422.9,277.5,430.7z"/>
				<path class="st5" d="M216.6,416.9c2.7-7.8,18.9-9.3,36.2-3.3c11.9,4.1,21.2,10.6,24.9,16.8c2-7.8-9.7-18.5-26.5-24.3
					c-17.3-6-33.5-4.5-36.2,3.3c-0.8,2.4-0.3,5.2,1.4,8C216.5,417.2,216.6,417.1,216.6,416.9z"/>
				<path class="st6" d="M182.1,232c-7.7,19.2-6.9,37.5,1.8,40.9c8.7,3.4,21.9-9.3,29.6-28.5c7.7-19.2,6.9-37.5-1.8-40.9
					C203,200.1,189.8,212.8,182.1,232z"/>
				<path class="st5" d="M181.6,238.2c7.7-19.2,22-31.5,32-27.6c1.8,0.7,3.3,1.9,4.6,3.5c-0.9-5.5-3.1-9.5-6.7-10.9
					c-8.7-3.4-21.9,9.3-29.6,28.5c-4.3,10.8-6,21.4-5,29.1C176.8,254,178.4,246.2,181.6,238.2z"/>
				<path class="st6" d="M367.1,172.1c-2.7,9.6-20.6,12.9-40.1,7.5c-19.4-5.4-33-17.5-30.3-27.1c2.7-9.6,20.6-12.9,40.1-7.5
					S369.8,162.5,367.1,172.1z"/>
				<path class="st5" d="M336.2,145c-19.4-5.4-37.4-2-40.1,7.5c-0.4,1.4-0.4,2.8-0.2,4.2c5.6-6.9,21.4-8.8,38.3-4.1
					c16.7,4.6,29,14.2,30.5,22.9c0.8-1,1.5-2.2,1.8-3.4C369.2,162.5,355.7,150.4,336.2,145z"/>
				<path class="st6" d="M185.1,321.8c5.5,17.7,3.9,34-3.8,36.4c-7.6,2.4-18.3-10.1-23.8-27.8s-3.9-34,3.8-36.4
					C168.9,291.7,179.5,304.1,185.1,321.8z"/>
				<path class="st5" d="M165.1,334c-5.5-17.7-3.9-34,3.8-36.4c0.7-0.2,1.4-0.3,2.1-0.3c-3.4-3-6.8-4.3-9.8-3.4
					c-7.6,2.4-9.3,18.6-3.8,36.4c5,16.1,14.3,27.9,21.7,28.1C173.8,353.8,168.5,344.9,165.1,334z"/>
				<path class="st6" d="M353.3,447.5c1.2,4-9,10.5-22.7,14.3s-25.7,3.8-26.8-0.3c-1.2-4,9-10.5,22.7-14.3S352.2,443.5,353.3,447.5z
					"/>
				<path class="st5" d="M329.3,451.2c10-2.8,19-3.5,23.7-2.1c0.2-0.5,0.2-1,0.1-1.5c-1.2-4-13.2-4.2-26.8-0.3
					c-13.7,3.9-23.8,10.3-22.7,14.3c0.3,1.1,1.4,1.9,3.2,2.4C307.9,460,317.3,454.6,329.3,451.2z"/>
				<path class="st6" d="M366.3,344.5c2.9,5-0.3,12.2-7,16.1c-6.8,3.9-14.6,3-17.5-2s0.3-12.2,7-16.1
					C355.5,338.6,363.4,339.5,366.3,344.5z"/>
				<path class="st5" d="M350.2,347c6.3-3.6,13.6-3.1,16.8,1.1c0-1.4-0.4-2.7-1.1-3.9c-2.9-5-10.7-5.9-17.5-2
					c-6.8,3.9-9.9,11.1-7,16.1c0.2,0.3,0.4,0.6,0.6,0.9C342,354.8,345,349.9,350.2,347z"/>
				<path class="st6" d="M421.3,220.2c11.5,19.8,14.1,39.7,5.8,44.4c-8.3,4.7-24.3-7.5-35.7-27.2c-11.5-19.8-14.1-39.7-5.8-44.4
					C393.8,188.2,409.8,200.4,421.3,220.2z"/>
				<path class="st5" d="M401.3,245.1c-11.5-19.8-14.1-39.7-5.8-44.4c3.3-1.9,7.8-1.1,12.7,1.8c-8.3-8.1-16.6-11.9-21.8-8.9
					c-8.3,4.7-5.6,24.6,5.8,44.4c6.9,11.9,15.5,21.1,23,25.5C410.4,258.6,405.6,252.4,401.3,245.1z"/>
				<path class="st6" d="M154.1,225.6c-4.2,7.3-5.1,14.6-2,16.4c3.1,1.8,9.1-2.7,13.3-9.9c4.2-7.3,5.1-14.6,2-16.4
					C164.2,213.8,158.3,218.3,154.1,225.6z"/>
				<path class="st5" d="M159.2,229.5c3-5.2,6.9-8.9,10-10c-0.1-2-0.7-3.5-1.8-4.2c-3.1-1.8-9.1,2.7-13.3,9.9
					c-4.2,7.3-5.1,14.6-2,16.4c0.9,0.5,2,0.5,3.3,0.1C155.2,238.5,156.6,234,159.2,229.5z"/>
				<path class="st6" d="M247.4,148.7c2.3,3.5-5.1,12.5-16.7,20.2c-11.6,7.7-22.8,11.1-25.2,7.6c-2.3-3.5,5.1-12.5,16.7-20.2
					C233.8,148.6,245.1,145.3,247.4,148.7z"/>
				<path class="st5" d="M225,161.4c8.9-5.9,17.5-9.2,22.2-8.9c0.7-1.7,0.8-3,0.2-4c-2.3-3.5-13.6-0.1-25.2,7.6
					c-11.6,7.7-19,16.7-16.7,20.2c0.5,0.8,1.6,1.3,3,1.3C210.4,173.3,216.7,167,225,161.4z"/>
				<ellipse class="st6" cx="305.2" cy="282.4" rx="36.2" ry="36"/>
				<path class="st5" d="M272.9,292c0-19.9,16.2-36,36.2-36c13,0,24.4,6.8,30.8,17.1c-4-15.5-18.2-27-35.1-27
					c-20,0-36.2,16.1-36.2,36c0,7,2,13.4,5.4,18.9C273.3,298.2,272.9,295.2,272.9,292z"/>
				<path class="st6" d="M260.3,230c-4,8.3-12.3,12.5-18.5,9.6s-8-12.1-3.9-20.3c4-8.3,12.3-12.5,18.5-9.6
					C262.5,212.6,264.3,221.7,260.3,230z"/>
				<path class="st5" d="M240.1,224.8c4-8.3,12.3-12.5,18.5-9.6c1.2,0.6,2.3,1.4,3.2,2.5c-0.8-3.5-2.7-6.4-5.7-7.8
					c-6.2-3-14.5,1.3-18.5,9.6c-3.2,6.6-2.7,13.8,0.8,17.9C237.6,233.6,238.1,229.1,240.1,224.8z"/>
				<path class="st6" d="M180.8,383.9c9.4,11.2,14.3,22.6,10.9,25.4c-3.4,2.8-13.7-4.1-23.1-15.3c-9.4-11.2-14.3-22.6-10.9-25.4
					C161.1,365.8,171.4,372.7,180.8,383.9z"/>
				<path class="st5" d="M160.5,374.8c3.4-2.8,13.7,4.1,23.1,15.3c3.4,4.1,6.2,8.1,8.2,11.8c-1.7-4.9-5.6-11.5-11-18
					c-9.4-11.2-19.7-18.1-23.1-15.3c-2.2,1.8-0.9,7.1,2.7,13.6C159.2,378.6,159.1,375.9,160.5,374.8z"/>
				<path class="st6" d="M323.1,396.6c1.4,4.3-2.5,9.4-8.6,11.3c-6.1,1.9-12.2-0.1-13.5-4.4s2.5-9.4,8.6-11.3
					C315.7,390.3,321.7,392.3,323.1,396.6z"/>
				<path class="st5" d="M309.7,391.9c-6.1,1.9-10,6.9-8.6,11.3c0.3,0.9,0.8,1.7,1.4,2.4c0.8-3.3,4.1-6.4,8.7-7.8
					c4.8-1.5,9.6-0.6,12.1,2c0.3-1.1,0.3-2.3-0.1-3.4C321.9,391.9,315.8,390,309.7,391.9z"/>
			</g>
		</g>
	</g>
	<g>
		<rect x="223.3" y="16.6" class="st7" width="153.4" height="46.4"/>
		<text transform="matrix(1 0 0 1 253.047 34.0833)" class="st0"><tspan x="0" y="0" class="st8 st9 st10">CicaLand</tspan><tspan x="24.1" y="20.4" class="st8 st9 st11">level 2</tspan></text>
	</g>
	<g id="spaceStation_1_">
		<g>
			<g>
				<path class="st12" d="M331.4,92.2c0,1.2-12.4,3.6-27.8,3.6s-27.8-2.3-27.8-3.6s12.4-3.2,27.8-3.2S331.4,90.9,331.4,92.2z"/>
				<path class="st13" d="M303.6,89.3c-15.8,0.4-27.6,1.8-27.6,2.9c0,1.1,12.2,3.1,27.7,3.6L303.6,89.3z"/>
				<path class="st14" d="M303.6,96.2c-9.3,0-16.3-0.8-19.7-1.3c-8.4-1.2-8.4-2.3-8.4-2.6c0-0.4,0-1.4,8.4-2.4
					c5.6-0.7,12.6-1.1,19.7-1.1s14,0.4,19.7,1.1c8.4,1,8.4,2,8.4,2.4c0,0.4,0,1.4-8.4,2.6C319.9,95.3,312.9,96.2,303.6,96.2z
					 M276.1,92.2c1.2,1,12.4,3.2,27.5,3.2s26.2-2.2,27.5-3.2c-1.3-1-12.2-2.8-27.5-2.8C288.4,89.4,277.4,91.2,276.1,92.2z"/>
			</g>
			<g>
				<g>
					<path class="st15" d="M331.2,91.4c-18.5-2.8-36.8-2.9-55.3-0.2c-0.6-5.8-0.5-8.4-0.5-13.9c19-3.4,37.5-3.3,56.4-0.1
						C331.8,83,331.7,85.7,331.2,91.4z"/>
					<path class="st16" d="M303.1,88.9c-9.1,0-18.3,0.6-27.3,2.1c-0.6-5.6-0.5-8.1-0.5-13.4c9.2-1.8,18.5-2.9,27.7-2.9
						C303.1,80.5,303.1,83.3,303.1,88.9z"/>
					<path class="st14" d="M331.4,91.9c-18.6-2.9-37.1-3-55.8-0.2c-0.6-6.1-0.6-8.9-0.6-14.6c19.2-3.5,37.9-3.4,57-0.1
						C332.1,83,332,85.8,331.4,91.9z M276.1,90.8c18.3-2.6,36.5-2.5,54.7,0.2c0.5-5.4,0.6-8,0.6-13.5c-18.8-3.2-37.1-3.2-55.8,0.1
						C275.7,82.8,275.6,85.3,276.1,90.8z"/>
				</g>
			</g>
			<g class="st17">
				<path class="st18" d="M331.4,77c-6.4-8.7-16.8-15.4-27.8-15.4s-21.1,6.6-27.6,15.3c0,0,21.3-2.3,27.5-2.2
					C309.6,74.7,331.4,77,331.4,77z"/>
				<path class="st18" d="M332.2,77.4l-0.8-0.1c-0.2,0-21.8-2.3-27.9-2.3c-6.1,0-27.2,2.2-27.5,2.2l-0.8,0.1l0.6-0.8
					c7.1-9.7,17.5-15.5,27.8-15.5s21.1,5.9,28.1,15.5L332.2,77.4z M303.3,74.3L303.3,74.3c5.5,0,23.2,1.8,27.2,2.2
					c-6.9-8.9-17.2-14.5-27.1-14.5c-9.8,0-19.8,5.4-26.8,14.4C280.7,76,297.8,74.3,303.3,74.3z"/>
			</g>
			<path class="st14" d="M288.5,75.5l0.4-0.7c3.9-6.2,9.5-13.6,14.4-13.6c0.1,0,0.1,0,0.1,0c3.6,0.1,8,4.4,13.8,13.6l0.4,0.7
				l-0.7-0.1c-0.1,0-10.6-0.7-13.6-0.7s-14,0.8-14.1,0.8L288.5,75.5z M303.4,62c-3.5,0-8.3,4.5-13.5,12.7c2.5-0.1,10.7-0.7,13.4-0.7
				c0.1,0,0.1,0,0.1,0c2.6,0,10.6,0.5,13,0.7C311,66.1,306.7,62,303.4,62L303.4,62z"/>
			<g>
				<path class="st14" d="M332.8,88.3c-1.3-0.8-10.7-2.9-28.7-2.9c-0.3,0-0.5,0-0.8,0c-17.8,0.1-27,1.8-29.5,3.3
					c-0.3,0.2-0.4,0.5-0.4,0.7c0,0.2,0.1,0.7,2,1.2l0.1-0.7c-0.6-0.1-1.1-0.4-1.3-0.5c2.5-1.5,11.6-3.2,29.2-3.2
					c18.5-0.1,27.9,2.1,29.2,2.8c0.1,0,0.1,0.1,0.1,0.1c-0.2,0.1-0.7,0.4-1.2,0.5v0.7c1.2-0.2,1.8-0.7,1.8-1.2
					C333.4,88.6,333,88.4,332.8,88.3z"/>
				<path class="st14" d="M332.8,84.4c-1.3-0.8-10.7-2.9-28.7-2.9c-0.3,0-0.5,0-0.8,0c-17.8,0.1-27,1.8-29.5,3.3
					c-0.3,0.2-0.4,0.5-0.4,0.7c0,0.2-0.1,0.7,1.9,1.2l-0.1-0.8c-0.6-0.1-0.9-0.3-1.1-0.5c2.5-1.5,11.6-3.2,29.2-3.2
					c0.3,0,0.6,0,0.8,0c18,0,27.2,2,28.5,2.7c0.1,0.1,0.2,0.1,0.3,0.2c-0.1,0.1-0.7,0.2-1,0.3v0.8c0.7-0.1,1.6-0.4,1.7-1
					C333.6,84.8,332.9,84.5,332.8,84.4z"/>
				<path class="st14" d="M333.2,80.7c-1.3-0.7-11-2.9-29.1-2.9c-0.3,0-0.5,0-0.8,0c-17.8,0.1-27,1.8-29.5,3.3
					c-0.4,0.2-0.6,0.5-0.6,0.7c0,0.1,0.1,0.7,1.9,1.2l-0.1-0.8c-0.5,0-0.8-0.1-1.1-0.4c0-0.6,11.8-3.2,29.3-3.2
					c18.5-0.1,28.4,2.1,29.6,2.8c0.1,0,0.1,0.1,0.1,0.1c-0.2,0.1-0.6,0.2-1,0.3l-0.1,0.8c1.1-0.2,1.7-0.5,1.7-1
					C333.8,81.1,333.3,80.8,333.2,80.7z"/>
				<path class="st14" d="M333.6,76.9c-1.4-0.8-11.3-2.9-30.4-2.9c-18.3,0.1-27.8,1.8-30.4,3.3c-0.3,0.2-0.4,0.5-0.3,0.7
					c0,0.2-0.1,0.8,2.6,1.3l0.1-0.8c-0.8-0.1-1.4-0.4-1.8-0.6c2.7-1.4,12.1-3.1,30-3.2c19-0.1,28.7,2.1,30.1,2.8
					c0.1,0,0.1,0.1,0.1,0.1c-0.3,0.1-0.9,0.4-1.6,0.5l0.1,0.7c1.3-0.3,2.1-0.7,2.1-1.2C334.2,77.3,333.8,77.1,333.6,76.9z"/>
			</g>
			<path class="st14" d="M332.2,77l-0.8-0.1c-0.2,0-21.8-2.2-27.9-2.2c-6.1,0-27.2,2.1-27.5,2.1l-0.8,0.1l0.6-0.7
				c7.1-9.4,17.5-15,27.8-15s21.1,5.8,28.1,15L332.2,77z M303.3,73.8L303.3,73.8c5.4,0,22.8,1.8,26.7,2.1c-6.8-8.6-16.9-14-26.6-14
				c-9.7,0-19.5,5.2-26.3,14C281,75.5,297.8,73.8,303.3,73.8z"/>
			<path class="st14" d="M308.5,134.7v0.4c0,0.3-0.4,0.2-1,0.2l0,0l0,0c-0.4,0-0.8,0.1-1-0.1v-0.1l0,0v-0.4c-1,0-2.1-0.1-3.2-0.1
				c-1.1,0-2,0-3,0v0.4c0,0.3-0.4,0.2-1,0.2l0,0l0,0c-0.1,0-0.3,0-0.4,0c-0.3,0-0.6,0-0.6-0.2v-0.4c-3.1,0.1-5.3,0.4-5.3,0.7
				c0,0.4,4.5,0.8,10.2,0.8c5.6,0,10.2-0.4,10.2-0.8C313.5,135.1,311.5,134.9,308.5,134.7z"/>
			<g>
				<g>
					<path class="st18" d="M299.2,135.6L299.2,135.6c-0.6,0-1,0.1-1-0.6V93.7c0-0.7,0.4-1.1,1-1.1l0,0c0.6,0,1,0.4,1,1.1V135
						C300.2,135.7,299.8,135.6,299.2,135.6z"/>
				</g>
				<path class="st14" d="M299.2,92.6c-0.6,0-1,0.4-1,1.1V135c0,0.7,0.4,0.6,1,0.6l0,0V92.6z"/>
			</g>
			<g>
				<g>
					<path class="st18" d="M307.8,135.7L307.8,135.7c-0.6,0-1,0.1-1-0.6V93.8c0-0.7,0.4-1.1,1-1.1l0,0c0.6,0,1,0.4,1,1.1v41.3
						C308.8,135.8,308.4,135.7,307.8,135.7z"/>
				</g>
				<path class="st14" d="M307.8,92.7c-0.6,0-1,0.4-1,1.1v41.3c0,0.7,0.4,0.6,1,0.6l0,0V92.7z"/>
			</g>
		</g>
		<g>
			<g id="fire1_7_">
				<path id="fire_x5F_orange_10_" class="st19" d="M319.4,121.9c0.8,0.3,0.8,1.1,0.7,1.6c-0.2,1.3-3.1,2.4-3.1,2.4
					s-0.6-2.6,0.4-3.7C318,121.8,318.7,121.6,319.4,121.9z"/>
				<path id="fire_x5F_yellow_10_" class="st20" d="M319.4,121.9c0.3,0.1,0.3,0.5,0.3,0.7c-0.1,0.6-1.4,1.1-1.4,1.1
					s-0.3-1.2,0.2-1.6C318.8,121.8,319.1,121.7,319.4,121.9z"/>
			</g>
			<g>
				<path class="st21" d="M321.1,118.4l-1.5-0.2c-0.1,0-0.1,0-0.1,0s-0.1,0-0.1,0.1l-3.5,2.3l-0.5-0.1c-0.2,0-0.3,0.1-0.4,0.2
					s0.1,0.3,0.3,0.3l1.5,0.2c0.2,0,0.3-0.1,0.4-0.2c0-0.1-0.1-0.3-0.3-0.3l-0.2,0l2.9-1.9l1.4,0.2c0.2,0,0.3-0.1,0.4-0.2
					C321.5,118.5,321.2,118.4,321.1,118.4z"/>
				<path class="st21" d="M331.9,122.7l-0.5-0.1l-2.4-3.1l-0.1-0.1l-0.1,0l-1.5-0.2c-0.2,0-0.3,0.1-0.4,0.2c0,0.1,0.1,0.3,0.3,0.3
					l1.4,0.2l2,2.6l-0.2,0c-0.2,0-0.3,0.1-0.4,0.2c0,0.1,0.1,0.3,0.3,0.3l1.5,0.2c0.2,0,0.3-0.1,0.4-0.2
					C332.1,122.8,332.1,122.8,331.9,122.7z"/>
				<path class="st21" d="M324.2,121.7l-0.3,0l0.4-2c0-0.1-0.1-0.3-0.3-0.3s-0.3,0.1-0.4,0.2l-0.4,2l-0.3,0c-0.2,0-0.3,0.1-0.4,0.2
					c0,0.1,0.1,0.3,0.3,0.3l1.2,0.2c0.2,0,0.3-0.1,0.4-0.2C324.5,121.8,324.3,121.7,324.2,121.7z"/>
			</g>
			<polygon class="st22" points="321.4,117 327.5,117.8 327.3,118.7 321.2,117.9 			"/>
			<path class="st14" d="M326.7,105.6L326.7,105.6c-0.8-0.1-1.7,0.1-2.3,0.4l0,0c-1.6,1-2.7,2.5-3,4.1l-1.5,7.4l1.2,0.2l0.2-0.9
				l6.1,0.8l-0.2,0.9l1.2,0.2l1.5-7.4c0.3-1.7-0.1-3.4-1.3-4.7l0,0C328.3,106.1,327.5,105.7,326.7,105.6z"/>
			<g>
				<polygon class="st23" points="330.1,110.7 321.5,109.5 321.4,110.1 327.3,110.9 327,112.3 327.6,112.4 327.9,110.9 330,111.2 
									"/>
				<polygon class="st23" points="326.5,115.1 327.1,115.2 326.6,117.7 326,117.6 				"/>
			</g>
			<path class="st6" d="M321.6,115.5c0.2,0,0.3,0.2,0.3,0.3c0,0.2-0.2,0.3-0.4,0.2s-0.3-0.2-0.3-0.3
				C321.3,115.6,321.5,115.5,321.6,115.5z"/>
			<path class="st6" d="M322.8,115.7c0.2,0,0.3,0.2,0.3,0.3c0,0.2-0.2,0.3-0.4,0.2s-0.3-0.2-0.3-0.3
				C322.5,115.8,322.7,115.7,322.8,115.7z"/>
			<path class="st6" d="M324.1,115.9c0.2,0,0.3,0.2,0.3,0.3c0,0.2-0.2,0.3-0.4,0.2c-0.2,0-0.3-0.2-0.3-0.3
				C323.8,116,323.9,115.8,324.1,115.9z"/>
			<path class="st6" d="M325.3,116c0.2,0,0.3,0.2,0.3,0.3c0,0.2-0.2,0.3-0.4,0.2c-0.2,0-0.3-0.2-0.3-0.3
				C325,116.1,325.1,116,325.3,116z"/>
			<path class="st6" d="M327.8,116.4c0.2,0,0.3,0.2,0.3,0.3c0,0.2-0.2,0.3-0.4,0.2c-0.2,0-0.3-0.2-0.3-0.3
				C327.4,116.4,327.6,116.3,327.8,116.4z"/>
			<polygon class="st23" points="320.1,116.8 318.6,116.3 318.7,115.7 320.3,115.7 			"/>
			<polygon class="st23" points="328.9,116.8 330.4,117.3 330.3,117.9 328.7,118 			"/>
			<g>
				<path class="st15" d="M327.3,112.3c0.8,0.1,1.4,0.8,1.2,1.6s-1,1.3-1.8,1.2s-1.4-0.8-1.2-1.6
					C325.7,112.8,326.5,112.2,327.3,112.3z"/>
				<path class="st24" d="M326.7,115.4c-1-0.1-1.7-1-1.5-1.9c0.2-0.9,1.1-1.6,2.2-1.4c1,0.1,1.7,1,1.5,1.9
					C328.7,114.9,327.7,115.5,326.7,115.4z M327.3,112.6c-0.7-0.1-1.3,0.3-1.4,0.9c-0.1,0.7,0.3,1.2,1,1.3c0.6,0.1,1.3-0.3,1.4-0.9
					C328.4,113.2,327.9,112.7,327.3,112.6z"/>
			</g>
			<polygon class="st21" points="321.1,111.5 321,112 323.2,112.3 323.1,112.6 321,112.3 320.9,112.9 323,113.2 323,113.5 
				320.8,113.2 320.7,113.7 322.9,114 322.8,114.3 320.6,114 320.5,114.6 323.3,114.9 323.9,111.9 			"/>
			<polygon class="st21" points="321.2,117.8 327.3,118.6 327.1,120 320.9,119.2 			"/>
			<g id="fire1_2_">
				<path id="fire_x5F_orange_7_" class="st19" d="M327,123c-0.8,0.1-1.1,0.8-1.3,1.3c-0.3,1.3,2,3.1,2,3.1s1.6-2.3,1-3.6
					C328.5,123.2,327.8,122.9,327,123z"/>
				<path id="fire_x5F_yellow_7_" class="st20" d="M327,123c-0.3,0-0.5,0.4-0.6,0.6c-0.1,0.6,0.9,1.4,0.9,1.4s0.7-1,0.5-1.6
					C327.7,123.1,327.4,122.9,327,123z"/>
			</g>
		</g>
		<g>
			<polygon class="st21" points="282.7,123.8 288.3,129.3 286.2,112.4 281.3,112.7 			"/>
			<path class="st21" d="M283.1,107.3c-1.2,1-1.8,2.5-1.9,4.2l4.7-0.3C285.5,109.6,284.5,108.2,283.1,107.3z"/>
			<path class="st21" d="M268.3,108.3c-1.2,1-1.8,2.5-1.9,4.2l4.7-0.3C270.8,110.6,269.7,109.1,268.3,108.3z"/>
			<polygon class="st21" points="268.7,130.6 272.8,124.4 271.4,113.4 266.5,113.7 			"/>
			<path class="st14" d="M281.2,111.6c0,0.3,0,0.7,0.1,1.1l0,0.1l4.9-0.3l0-0.1c0-0.3-0.1-0.7-0.2-1.1L281.2,111.6z"/>
			<path class="st14" d="M266.5,112.6c0,0.3,0,0.7,0.1,1.1l0,0.1l4.9-0.3l0-0.1c0-0.3-0.1-0.7-0.2-1.1L266.5,112.6z"/>
			<path class="st12" d="M282.3,132.1l-1.4-2.8l-1-8.2l2.8,2.7l-1.3-10.1c-0.5-4.1-2.8-7.8-6-9.8c-0.2-0.1-0.3-0.1-0.4,0
				c-2.6,2.4-4,6.3-3.4,10.4l1.3,10.1l2.1-3l1,8.1l-0.6,2.9l0.1,0.6l0.2,1.2l0,0l6.9-0.4l0,0L282.3,132.1L282.3,132.1z"/>
			<path class="st15" d="M289.8,136.8l-5.9,0.4c-0.2,0-0.3-0.2-0.2-0.3l0.2-3.2l4.9-0.3l1,3.1C290,136.7,290,136.8,289.8,136.8z"/>
			<path class="st15" d="M275.1,137.8l-5.9,0.4c-0.2,0-0.3-0.2-0.2-0.3l0.2-3.2l4.9-0.3l1,3.1C275.3,137.6,275.2,137.8,275.1,137.8z
				"/>
			<path class="st25" d="M280.9,129.2l-1.9-15.1c-0.2-1.9-1.1-3.5-2.3-4.7c-0.5-0.5-1.1-0.4-1.5,0.1c-0.9,1.3-1.3,3.1-1.1,4.9
				l1.9,15.1l-0.6,2.9l0.2,1.8l6.9-0.4l-0.2-1.8L280.9,129.2z"/>
			<polygon class="st14" points="282.5,133.8 291.3,133.3 291.2,132.1 279.9,121.1 280.9,129.2 282.3,132.1 282.5,133.7 			"/>
			<polygon class="st14" points="275.6,134.2 275.5,133.1 275.4,132.5 276,129.5 275,121.4 266.6,133.7 266.8,134.9 275.6,134.3 			
				"/>
			<polygon class="st24" points="267.5,132.4 266.6,133.7 266.8,134.9 275.6,134.3 275.6,134.2 275.5,133.1 275.4,132.5 
				275.5,131.9 			"/>
			<polygon class="st24" points="282.3,132.1 282.5,133.7 282.5,133.8 291.3,133.3 291.2,132.1 290,131 282,131.5 			"/>
			<path class="st15" d="M277.5,114.7l-2,0.1l-0.2-1.2c-0.1-0.7,0.3-1.2,0.8-1.2l0,0c0.5,0,1.1,0.4,1.1,1.1L277.5,114.7L277.5,114.7
				z"/>
			<line class="st26" x1="277.3" y1="128.3" x2="277.6" y2="130"/>
			<line class="st26" x1="279.3" y1="128.2" x2="279.5" y2="129.9"/>
			<polygon class="st15" points="281.7,135.6 276.8,135.9 277.1,134.2 281,133.9 			"/>
			<line class="st26" x1="279.1" y1="134" x2="278.8" y2="131.7"/>
		</g>
		<polygon class="st27" points="296.2,41 309.8,41 303,51.4 		"/>
	</g>
	<g id="factory_4_">
		<g id="factoryGroup_4_">
			<g>
				<path class="st28" d="M279.4,81.2L279.4,81.2c-5.6,0-10,4.1-10,9.3l-0.1,32.7c0,3.4,3.5,6.3,8.2,6.8l0,0.9l3.7,0l0-0.9
					c4.6-0.6,8.2-3.4,8.2-6.8l0.1-32.7C289.4,85.3,285,81.2,279.4,81.2z"/>
				<path class="st29" d="M275,122.8l0.1-32.2c0-4.2,3.4-7.8,8.2-8.9c-0.9-0.2-1.9-0.3-2.9-0.3l0,0c-6,0-10.9,4.1-10.9,9.1
					l-0.1,32.2c0,3.4,3.9,6.1,9,6.7l0,0.9l4,0l0-0.9c0.3,0,0.6-0.1,0.8-0.1C278.5,128.7,275,126,275,122.8z"/>
				<path class="st27" d="M281.7,131.4l-4.5,0l0-1c-4.8-0.7-8.2-3.7-8.2-7.2l0.1-32.7c0-5.3,4.7-9.7,10.5-9.7
					c5.7,0,10.5,4.4,10.5,9.7l-0.1,32.7c0,3.4-3.4,6.5-8.2,7.1L281.7,131.4z M278,130.6l2.8,0l0-0.9l0.4-0.1
					c4.5-0.6,7.8-3.3,7.8-6.4l0.1-32.7c0-4.9-4.2-9-9.6-9c-5.4,0-9.6,3.9-9.7,8.9l-0.1,32.7c0,3.2,3.3,5.9,7.9,6.5l0.4,0.1
					L278,130.6L278,130.6z"/>
			</g>
			<path class="st20" d="M281.1,76.8l0-9.7c0-1.8,1.3-2.8,3.4-2.8l25.5,0c2.1,0,3.4,1,3.4,2.8l-0.1,59l2.9,0l0.1-61.4
				c0-1.8-1.7-3.2-3.8-3.2l-30.9,0c-2.1,0-3.8,1.5-3.8,3.2l0,17.2l3.2-0.9L281.1,76.8z"/>
			<g id="tartaly1_9_">
				
					<ellipse id="tartaly1_10_" transform="matrix(1.640822e-03 -1 1 1.640822e-03 191.8916 437.4688)" class="st23" cx="315" cy="122.6" rx="14.4" ry="15.5"/>
				<path class="st24" d="M306.1,122.6c0-5.6,2.6-10.7,6.8-14.2c-7.5,0.9-13.3,7-13.3,14.2s5.7,13.2,13.2,14.2
					C308.8,133.3,306.1,128.3,306.1,122.6z"/>
			</g>
			
				<rect x="313.5" y="106.3" transform="matrix(1.417609e-03 -1 1 1.417609e-03 191.3179 438.2296)" class="st20" width="3.1" height="34"/>
			
				<rect x="314.2" y="104" transform="matrix(1.417609e-03 -1 1 1.417609e-03 206.7611 422.8588)" class="st20" width="1.7" height="7.9"/>
			<g>
				<polygon class="st20" points="297.7,137.4 296.7,137.4 302.1,124.9 303.2,124.9 				"/>
				
					<rect x="296.7" y="135.9" transform="matrix(1.417609e-03 -1 1 1.417609e-03 159.2393 434.2202)" class="st20" width="0.6" height="3"/>
			</g>
			<g>
				<polygon class="st20" points="307,137.4 305.9,137.4 311.2,124.9 312.3,124.9 				"/>
				
					<rect x="306" y="135.9" transform="matrix(1.417609e-03 -1 1 1.417609e-03 168.4797 443.5)" class="st20" width="0.6" height="3"/>
			</g>
			<g>
				<polygon class="st20" points="323.1,137.4 324.1,137.4 318.7,124.8 317.6,124.8 				"/>
				
					<rect x="323.4" y="135.9" transform="matrix(1.417609e-03 -1 1 1.417609e-03 185.9313 460.8669)" class="st20" width="0.6" height="3"/>
			</g>
			<g>
				<polygon class="st20" points="332.2,137.5 333.2,137.5 327.9,124.9 326.8,124.9 				"/>
				
					<rect x="332.5" y="135.9" transform="matrix(1.417609e-03 -1 1 1.417609e-03 194.9498 469.9886)" class="st20" width="0.6" height="3"/>
			</g>
			
				<rect x="314.2" y="133.8" transform="matrix(1.417609e-03 -1 1 1.417609e-03 176.91 452.57)" class="st20" width="1.7" height="7.9"/>
			
				<rect x="277.8" y="76.9" transform="matrix(1.417609e-03 -1 1 1.417609e-03 198.1971 360.154)" class="st20" width="3.3" height="7.9"/>
			<polygon class="st27" points="291.4,137.8 288.1,126.2 290.4,126.2 290.4,124.5 268.5,124.5 268.5,126.2 270.4,126.2 267,137.9 
				265.7,137.9 265.7,138.5 268.8,138.5 268.8,137.9 268,137.9 271.5,126.2 276.6,126.2 273.2,137.7 271.8,137.7 271.8,138.4 
				275,138.4 275,137.7 274.2,137.7 277.7,126.2 281,126.2 284.4,137.7 283.6,137.7 283.6,138.4 286.7,138.4 286.8,137.8 
				285.5,137.7 282.1,126.2 287,126.2 290.4,137.8 289.6,137.8 289.6,138.4 292.8,138.4 292.8,137.8 			"/>
			
				<rect x="278.6" y="104.9" transform="matrix(1.417609e-03 -1 1 1.417609e-03 164.1047 393.9942)" class="st27" width="1.6" height="19.9"/>
			
				<rect x="278.6" y="93.8" transform="matrix(1.417609e-03 -1 1 1.417609e-03 175.1479 383.0028)" class="st27" width="1.6" height="19.9"/>
			
				<rect x="278.6" y="83.7" transform="matrix(1.417609e-03 -1 1 1.417609e-03 185.3283 372.8701)" class="st27" width="1.6" height="19.9"/>
		</g>
	</g>
	<g id="mine_2_">
		<g id="mineGroup_3_">
			<g id="arm_x5F_front_3_">
				<g id="hand">
					<path class="st18" d="M387.5,284.5c0.2,2,0.6,3.6,1.3,4.6c0.3,0.5,0.6,0.8,1.1,1c0.2,0.1,0.4,0.2,0.7,0.4
						c0.3,0.1,0.5,0.3,0.8,0.3c1.1,0.3,1.5,0.5,2.7,0c1.2-0.5,2.5-1.7,4-3c0.3,1,0.2,2,0,3c-0.2,1-0.6,2-1.4,2.9
						c-0.7,0.9-1.8,1.7-3.2,2.1c-1.3,0.3-2.7,0.2-3.8-0.3c-0.6-0.2-1.1-0.5-1.6-0.8c-0.3-0.2-0.5-0.4-0.7-0.6
						c-0.2-0.2-0.5-0.4-0.7-0.6c-0.9-0.9-1.5-2.2-1.6-3.4C384.8,287.7,385.9,285.7,387.5,284.5z"/>
				</g>
				<polygon id="arm2_3_" class="st14" points="381.4,329.3 388.4,296.8 390.1,297.3 383.1,329.8 				"/>
				<polygon id="arm1_3_" class="st14" points="381.5,329.5 414.8,308.7 415.8,309.9 382.5,330.7 				"/>
				<path id="circe2_3_" class="st21" d="M391.4,297.5c-0.6,0.8-1.8,0.9-2.8,0.2s-1.2-1.9-0.6-2.7c0.6-0.8,1.8-0.9,2.8-0.2
					C391.7,295.5,392,296.8,391.4,297.5z M390,295.9c-0.3-0.2-0.6-0.2-0.8,0.1c-0.2,0.2-0.1,0.6,0.2,0.8c0.3,0.2,0.6,0.2,0.8-0.1
					C390.3,296.4,390.3,296.1,390,295.9z"/>
				<path id="circle1_3_" class="st21" d="M383.6,330.4c0,1-0.9,1.8-2.1,1.8c-1.2,0-2.1-0.8-2.1-1.8s0.9-1.8,2.1-1.8
					C382.7,328.5,383.6,329.3,383.6,330.4z M381.5,329.9c-0.3,0-0.6,0.2-0.6,0.5c0,0.3,0.2,0.5,0.6,0.5s0.6-0.2,0.6-0.5
					C382.2,330.1,381.9,329.9,381.5,329.9z"/>
			</g>
			<polygon id="arm_x5F_back_3_" class="st14" points="426.5,293 419.3,307.1 417.8,306.5 424.9,292.4 			"/>
			<g id="fire1_1_">
				<path id="fire_x5F_orange_3_" class="st23" d="M407,380.5c2.5,0,3.8,1.8,4.4,3.2c1.5,3.5-4.7,9.6-4.7,9.6s-5.8-6-4.4-9.8
					C402.9,381.9,404.8,380.5,407,380.5z"/>
				<path id="fire_x5F_yellow_3_" class="st21" d="M407,380.5c1.1,0,1.7,0.8,1.9,1.4c0.7,1.6-2.1,4.3-2.1,4.3s-2.6-2.6-1.9-4.3
					C405.2,381.1,406,380.5,407,380.5z"/>
			</g>
			<g id="fire2_3_">
				<path id="fire_x5F_orange_2_" class="st23" d="M430.1,381.1c2.5,0,3.8,1.8,4.4,3.2c1.5,3.5-4.7,9.6-4.7,9.6s-5.8-6-4.4-9.8
					C425.9,382.5,427.8,381.1,430.1,381.1z"/>
				<path id="fire_x5F_yellow_2_" class="st21" d="M430.1,381.1c1.1,0,1.7,0.8,1.9,1.4c0.7,1.6-2.1,4.3-2.1,4.3s-2.6-2.6-1.9-4.3
					C428.2,381.7,429,381.1,430.1,381.1z"/>
			</g>
			<g id="mine_x5F_base_3_">
				<g>
					<rect x="426.3" y="370.2" class="st21" width="7.2" height="6.4"/>
					<rect x="426.3" y="370.2" class="st14" width="3.7" height="6.4"/>
					<g>
						<rect x="424.5" y="376.5" class="st21" width="11" height="2.1"/>
						<rect x="424.7" y="376.5" class="st14" width="5.2" height="2.1"/>
						<path class="st14" d="M435.9,379h-11.8v-2.8h11.8V379z M424.9,378.3h10.3v-1.4h-10.3V378.3z"/>
					</g>
				</g>
				<g>
					<rect x="403.3" y="370.2" class="st21" width="7.2" height="6.4"/>
					<rect x="403.3" y="370.2" class="st14" width="3.7" height="6.4"/>
					<g>
						<rect x="401.4" y="376.5" class="st21" width="11" height="2.1"/>
						<rect x="401.7" y="376.5" class="st14" width="5.2" height="2.1"/>
						<path class="st14" d="M412.9,379h-11.8v-2.8h11.8V379z M401.8,378.3h10.3v-1.4h-10.3V378.3z"/>
					</g>
				</g>
				<g>
					<rect x="408.9" y="318.4" class="st14" width="8.8" height="4"/>
					<g>
						<rect x="417.7" y="318.4" class="st21" width="8.8" height="4.1"/>
					</g>
				</g>
				<path class="st21" d="M428,358.9l-4-36.5h-12.7l-4,36.5h-2v6.1h2.2v-5.1h20.8v5.1h2.2v-6.1H428z M425.4,351.2L425.4,351.2
					L425.4,351.2L425.4,351.2z M425.4,350.9l-6.7-3.2v-0.4l6-2.8L425.4,350.9z M418.7,337.2h4.7l-4.7,2.2V337.2z M418.7,343.7v-2.6
					l5.3,2.6H418.7z M424.1,344.2l-5.4,2.5v-2.5H424.1z M418.7,348.3l6.1,2.9h-6.1V348.3z M418.7,351.7h6.2l-6.2,2.7V351.7z
					 M418.7,340.6v-0.5l5.3-2.6l0.6,6L418.7,340.6z M423.2,330.4L423.2,330.4L423.2,330.4L423.2,330.4z M418.7,323.7h3.3l-3.3,2
					V323.7z M418.7,326.4l3.8-2.4l0.6,5.5l-4.4-2.6L418.7,326.4L418.7,326.4z M418.7,327.5l3.9,2.4h-3.9V327.5z M418.7,330.4h4
					l-4,2.1V330.4z M418.7,333.1l4.5-2.4l0.6,5.7l-5.1-2.9L418.7,333.1L418.7,333.1z M423.4,336.8h-4.7v-2.6L423.4,336.8z
					 M411.3,337.2L411.3,337.2L411.3,337.2L411.3,337.2z M416.9,336.8h-5l5-2.7V336.8z M416.9,330.4v2.2l-3.8-2.2H416.9z M413,329.9
					l3.9-2.4v2.4H413z M416.9,323.7v2.2l-3.6-2.2H416.9z M412.8,324l4.1,2.5v0.4l-4.7,3L412.8,324z M412.1,330.4l4.8,2.7v0.3l-5.4,3
					L412.1,330.4z M409,358.9L409,358.9L409,358.9L409,358.9z M416.9,358.9h-7.2l7.2-3.2V358.9z M416.9,355.2l-7.9,3.4l0.7-6.7
					l7.2,3.1V355.2z M416.9,354.5l-6.4-2.8h6.4V354.5z M416.9,351.2h-6.5l6.5-3V351.2z M416.9,347.6l-7,3.3l0.7-6.5l6.3,3V347.6z
					 M416.9,346.9l-5.6-2.6h5.6V346.9z M416.9,343.7h-5.8l5.8-2.8V343.7z M416.9,340.4l-6.2,3l0.6-5.8L416.9,340.4L416.9,340.4z
					 M411.9,337.2h5v2.4L411.9,337.2z M418.7,358.9v-3l6.9,3H418.7z M418.7,355.3V355l6.8-3l0.7,6.6L418.7,355.3z M426.3,358.9
					L426.3,358.9L426.3,358.9L426.3,358.9z"/>
				<path class="st14" d="M420.8,310.4h-6.4v8h6.4V310.4z M419.7,311.1l-2.1,2.7l-2.1-2.7H419.7z M415.2,311.9l1.9,2.6l-1.9,2.6
					V311.9z M415.5,317.8l2.1-2.7l2.1,2.7H415.5z M420,317l-1.9-2.6l1.9-2.6V317z"/>
				<path class="st14" d="M417.8,322.4h-6.5l-4,36.5h-2v6.1h2.2v-5.1h10.3L417.8,322.4L417.8,322.4z M411.3,337.2L411.3,337.2
					L411.3,337.2L411.3,337.2z M409,358.9L409,358.9L409,358.9L409,358.9z M416.9,358.9h-7.2l7.2-3.2V358.9z M416.9,355.2l-7.9,3.4
					l0.7-6.7l7.2,3.1V355.2z M416.9,354.5l-6.4-2.8h6.4V354.5z M416.9,351.2h-6.5l6.5-3V351.2z M416.9,347.6l-7,3.3l0.7-6.5l6.3,3
					V347.6z M416.9,346.9l-5.6-2.6h5.6V346.9z M416.9,343.7h-5.8l5.8-2.8V343.7z M416.9,340.4l-6.2,3l0.6-5.8L416.9,340.4
					L416.9,340.4z M416.9,339.8l-5-2.4h5V339.8z M416.9,336.8h-5l5-2.7V336.8z M416.9,333.5l-5.4,3l0.6-6l4.8,2.7V333.5z
					 M416.9,332.5l-3.8-2.2h3.8V332.5z M416.9,329.9H413l3.9-2.4V329.9z M416.9,326.8l-4.7,3l0.6-5.8l4.1,2.5L416.9,326.8
					L416.9,326.8z M413.3,323.7h3.6v2.2L413.3,323.7z"/>
				<path class="st21" d="M421.8,308.2c0,2-1.9,3.7-4.2,3.7s-4.2-1.6-4.2-3.7s1.9-3.7,4.2-3.7S421.8,306.2,421.8,308.2z
					 M417.6,307.2c-0.6,0-1.2,0.5-1.2,1s0.5,1,1.2,1c0.6,0,1.2-0.5,1.2-1C418.8,307.7,418.3,307.2,417.6,307.2z"/>
				<g id="minetalp_3_">
					<g>
						<path class="st21" d="M444,367.8h-52.2c-1,0-1.8-0.7-1.8-1.6V365h55.8v1.1C445.8,367,445,367.8,444,367.8z"/>
						<rect x="390.4" y="365" class="st14" width="27.2" height="2.4"/>
						<path class="st14" d="M444,368.1h-52.2c-1.2,0-2.2-0.9-2.2-1.9v-1.5h56.5v1.5C446.2,367.2,445.2,368.1,444,368.1z
							 M390.4,365.3v0.8c0,0.7,0.6,1.2,1.4,1.2H444c0.8,0,1.4-0.5,1.4-1.2v-0.8H390.4z"/>
					</g>
					<g>
						<path class="st21" d="M445.8,370.5H390v-1.1c0-0.9,0.8-1.6,1.8-1.6h52.1c1,0,1.8,0.7,1.8,1.6L445.8,370.5L445.8,370.5z"/>
						<rect x="390.4" y="368.1" class="st14" width="27.2" height="2.4"/>
						<path class="st14" d="M446.2,370.8h-56.5v-1.5c0-1.1,1-1.9,2.2-1.9h52.1c1.2,0,2.2,0.9,2.2,1.9L446.2,370.8L446.2,370.8z
							 M390.4,370.1h55v-0.8c0-0.7-0.6-1.2-1.4-1.2h-52.1c-0.8,0-1.4,0.5-1.4,1.2L390.4,370.1L390.4,370.1z"/>
					</g>
				</g>
			</g>
		</g>
	</g>
	<g id="academy">
		<g>
			<g>
				<rect x="288.5" y="97.3" class="st21" width="38.8" height="28.8"/>
				<path class="st21" d="M327.7,126.6h-39.5V96.9h39.5V126.6z M288.8,125.7H327v-28h-38.2V125.7z"/>
			</g>
			<g>
				<rect x="268.4" y="115.1" class="st23" width="19.8" height="11.4"/>
				<rect x="271.2" y="117.6" class="st12" width="1.8" height="1.6"/>
				<rect x="273.7" y="117.6" class="st12" width="1.8" height="1.6"/>
				<rect x="276.2" y="117.6" class="st12" width="1.8" height="1.6"/>
				<rect x="271.1" y="120" class="st12" width="1.8" height="1.6"/>
				<rect x="273.6" y="120" class="st12" width="1.8" height="1.6"/>
				<rect x="276.2" y="119.9" class="st12" width="1.8" height="1.6"/>
				<rect x="278.9" y="117.6" class="st12" width="1.8" height="1.6"/>
				<rect x="281.3" y="117.6" class="st12" width="1.8" height="1.6"/>
				<rect x="283.9" y="117.5" class="st12" width="1.8" height="1.6"/>
				<rect x="278.9" y="120" class="st12" width="1.8" height="1.6"/>
				<rect x="281.3" y="119.9" class="st12" width="1.8" height="1.6"/>
				<rect x="283.9" y="119.9" class="st12" width="1.8" height="1.6"/>
			</g>
			<g>
				<rect x="289.1" y="94.7" class="st24" width="37.5" height="2.1"/>
			</g>
			<g id="aerial_1_">
				<g>
					<g id="aerial_2_">
						<g>
							<polygon class="st21" points="279.4,113.4 277.2,113.4 277.9,106.7 278.7,106.7 							"/>
							<polygon class="st14" points="278.3,113.3 277.2,113.3 277.9,106.7 278.3,106.6 							"/>
							<path d="M279.6,113.6H277l0.8-7h1.1v0.1L279.6,113.6z M277.4,113.2h1.8l-0.7-6.3h-0.5L277.4,113.2z"/>
						</g>
						<g>
							<g>
								<path class="st21" d="M272.2,97.6c-3.4,0.9-6.1,1.6-6.1,1.6l4.8,4.4l6.3,1l1.2-0.3l0,0l0.9-0.2l5.5-3.8l2.3-6
									c0,0-2.9,0.6-6.4,1.4c-1.3,0.3-2.9,0.7-4.1,1l0,0C275.2,96.8,273.4,97.2,272.2,97.6z"/>
								<polygon class="st30" points="266,99.3 272.5,98.4 276.5,97.4 278.3,104.2 276.9,104.6 270.6,103.5 								"/>
								<path d="M277.1,104.7L277.1,104.7l-6.4-1l-5-4.6l0.3-0.1c0,0,2.8-0.7,6.1-1.6c1.2-0.3,3-0.8,4.3-1.1c1.2-0.3,2.8-0.7,4.1-1
									c3.5-0.8,6.4-1.4,6.4-1.4l0.3-0.1l-2.4,6.4l-5.5,3.9L277.1,104.7z M270.8,103.4l6.2,0.9l2-0.5l5.4-3.7l2.2-5.7
									c-0.9,0.2-3.3,0.7-6.1,1.3c-1.3,0.3-3,0.7-4.1,1c-1.3,0.3-3.1,0.7-4.3,1.1l0,0c-2.8,0.7-5.1,1.3-5.8,1.5L270.8,103.4z"/>
							</g>
							<g>
								<polyline class="st21" points="280.5,96.3 280.4,101.3 279.2,104 								"/>
								<polygon points="279.3,104.1 279,103.9 280.3,101.2 280.3,96.3 280.6,96.3 280.6,101.4 								"/>
							</g>
							<g>
								<polygon points="276.9,104.6 274.6,102.7 272.3,98.3 272.6,98.1 274.8,102.5 277.1,104.3 								"/>
							</g>
							<g>
								<polyline class="st21" points="266,99.1 272.4,98.2 280.5,96.3 286.9,94.1 								"/>
								<polygon points="266,99.3 265.9,99 272.4,98.1 280.4,96.1 286.9,94 286.9,94.3 280.6,96.4 272.5,98.4 								"/>
							</g>
						</g>
						<g>
							<ellipse class="st21" cx="278.3" cy="106" rx="0.9" ry="0.9"/>
							<path class="st14" d="M278.3,105.1v1.6c0,0-1-0.3-0.9-0.9C277.4,105.4,278.3,105.1,278.3,105.1z"/>
							<path d="M278.3,106.9c-0.6,0-1.1-0.5-1.1-1c0-0.5,0.5-1,1.1-1c0.6,0,1.1,0.5,1.1,1C279.4,106.5,278.9,106.9,278.3,106.9z
								 M278.3,105.3c-0.4,0-0.7,0.3-0.7,0.7s0.3,0.7,0.7,0.7c0.4,0,0.7-0.3,0.7-0.7S278.7,105.3,278.3,105.3z"/>
						</g>
						<g>
							<ellipse class="st21" cx="278.3" cy="104.6" rx="0.6" ry="0.5"/>
							<path class="st14" d="M278.3,104.1v1.1c0,0-0.6-0.1-0.5-0.5C277.8,104.2,278.3,104.1,278.3,104.1z"/>
							<path d="M278.3,105.3c-0.4,0-0.7-0.3-0.7-0.7c0-0.4,0.3-0.7,0.7-0.7c0.4,0,0.7,0.3,0.7,0.7C279,105,278.7,105.3,278.3,105.3z
								 M278.3,104.3c-0.2,0-0.4,0.1-0.4,0.3c0,0.2,0.2,0.3,0.4,0.3c0.2,0,0.4-0.1,0.4-0.3C278.7,104.4,278.5,104.3,278.3,104.3z"/>
						</g>
						<g>
							<polygon class="st21" points="280.9,114.8 275.7,114.8 277.2,113.4 279.4,113.4 							"/>
							<polygon class="st14" points="278.3,114.8 275.8,114.8 277.3,113.4 278.3,113.4 							"/>
							<path d="M281.3,115h-6l1.8-1.7h2.3L281.3,115z M276.2,114.6h4.3l-1.1-1.1h-2L276.2,114.6z"/>
						</g>
					</g>
					<g>
						<line class="st7" x1="275.7" y1="93.9" x2="278.2" y2="97.2"/>
						<polygon class="st27" points="278.1,97.3 275.6,93.9 275.8,93.7 278.3,97.1 						"/>
					</g>
					<g>
						<line class="st7" x1="275.6" y1="93.9" x2="275.2" y2="97.9"/>
						
							<rect x="273.3" y="95.7" transform="matrix(0.1173 -0.9931 0.9931 0.1173 147.8782 358.101)" class="st27" width="4.1" height="0.3"/>
					</g>
					<g>
						<circle class="st21" cx="275.6" cy="93.3" r="0.5"/>
						<path class="st27" d="M275.6,94c-0.4,0-0.7-0.3-0.7-0.7s0.3-0.7,0.7-0.7s0.7,0.3,0.7,0.7S276,94,275.6,94z M275.6,93
							c-0.2,0-0.3,0.1-0.3,0.3c0,0.2,0.1,0.3,0.3,0.3c0.2,0,0.3-0.1,0.3-0.3C275.9,93.1,275.8,93,275.6,93z"/>
					</g>
					<g>
						<line class="st7" x1="276.5" y1="96.7" x2="275.7" y2="93.9"/>
						
							<rect x="275.9" y="93.8" transform="matrix(0.9683 -0.2499 0.2499 0.9683 -15.0516 72.0109)" class="st27" width="0.3" height="3"/>
					</g>
				</g>
			</g>
			<g>
				<path class="st14" d="M327.7,94.6h-39.3v-5.5l0.1-0.1l7.4-10l12.2-5.1l12,5.1l0.1,0.1l7.6,10V94.6z M288.8,94.2h38.4l-0.1-4.9
					l-7.5-9.9l-11.7-5l-11.9,5l-7.2,9.9V94.2z"/>
				<g>
					<line class="st7" x1="323.8" y1="94.4" x2="307.9" y2="74.2"/>
					
						<rect x="315.6" y="71.4" transform="matrix(0.7853 -0.6192 0.6192 0.7853 15.634 213.6503)" class="st14" width="0.5" height="25.7"/>
				</g>
				<g>
					<line class="st7" x1="308" y1="74.2" x2="292.2" y2="94.4"/>
					
						<rect x="287.4" y="84.1" transform="matrix(0.6153 -0.7883 0.7883 0.6153 49.0071 269.0513)" class="st14" width="25.6" height="0.5"/>
				</g>
				<g>
					<line class="st7" x1="315.8" y1="94.4" x2="301.9" y2="76.8"/>
					
						<rect x="308.6" y="74.4" transform="matrix(0.7853 -0.6192 0.6192 0.7853 13.3211 209.6384)" class="st14" width="0.5" height="22.3"/>
				</g>
				<g>
					<line class="st7" x1="313.8" y1="76.8" x2="300.1" y2="94.2"/>
					
						<rect x="295.8" y="85.3" transform="matrix(0.6186 -0.7857 0.7857 0.6186 49.819 273.8013)" class="st14" width="22.2" height="0.5"/>
				</g>
				<g>
					<line class="st7" x1="313.3" y1="77.4" x2="300.1" y2="94.2"/>
					
						<rect x="295.9" y="85.6" transform="matrix(0.6182 -0.786 0.786 0.6182 49.631 273.8528)" class="st14" width="21.5" height="0.5"/>
				</g>
				<g>
					<line class="st7" x1="319.7" y1="79.3" x2="307.8" y2="94.4"/>
					
						<rect x="304.1" y="86.6" transform="matrix(0.6182 -0.786 0.786 0.6182 51.5313 279.7687)" class="st14" width="19.2" height="0.5"/>
				</g>
				<g>
					<line class="st7" x1="323.6" y1="84.3" x2="315.6" y2="94.4"/>
					
						<rect x="313.2" y="89.1" transform="matrix(0.6186 -0.7857 0.7857 0.6186 51.6574 285.224)" class="st14" width="12.9" height="0.5"/>
				</g>
				<g>
					<line class="st7" x1="307.8" y1="94.4" x2="295.8" y2="79.3"/>
					
						<rect x="301.6" y="77.1" transform="matrix(0.7838 -0.621 0.621 0.7838 11.3557 206.194)" class="st14" width="0.5" height="19.3"/>
				</g>
				<g>
					<line class="st7" x1="300.1" y1="94.2" x2="292.1" y2="84.3"/>
					
						<rect x="295.9" y="82.9" transform="matrix(0.7824 -0.6228 0.6228 0.7824 8.8199 203.8474)" class="st14" width="0.5" height="12.7"/>
				</g>
				<g>
					<rect x="295.8" y="79" class="st14" width="23.9" height="0.5"/>
				</g>
				<g>
					<rect x="292.1" y="84.1" class="st14" width="31.5" height="0.5"/>
				</g>
				<g>
					<rect x="288.5" y="89" class="st14" width="38.8" height="0.5"/>
				</g>
				<g>
					
						<rect x="288.2" y="89.2" transform="matrix(1 -5.455849e-03 5.455849e-03 1 -0.4968 1.5754)" class="st14" width="0.5" height="5.2"/>
				</g>
				<g>
					<line class="st7" x1="327.3" y1="89.2" x2="323.8" y2="94.4"/>
					
						<rect x="322.4" y="91.6" transform="matrix(0.564 -0.8258 0.8258 0.564 66.111 308.8274)" class="st14" width="6.2" height="0.5"/>
				</g>
				<g>
					<line class="st7" x1="288.5" y1="89.2" x2="292.2" y2="94.4"/>
					
						<rect x="290.1" y="88.6" transform="matrix(0.8082 -0.589 0.589 0.8082 1.6265 188.5988)" class="st14" width="0.5" height="6.4"/>
				</g>
				<path class="st32" d="M327.7,94.6h-39.3v-5.5l0.1-0.1l7.4-10l12.2-5.1l12,5.1l0.1,0.1l7.6,10V94.6z"/>
			</g>
			<g>
				<g>
					
						<rect x="323.1" y="76.2" transform="matrix(0.7998 -0.6003 0.6003 0.7998 15.7913 212.2283)" class="st29" width="5.8" height="12.4"/>
					<path class="st14" d="M327.4,89.5l-7.8-10.3l5.1-3.8l7.8,10.3L327.4,89.5z M320.3,79.3l7.2,9.5l4.3-3.2l-7.2-9.5L320.3,79.3z"
						/>
				</g>
				<g>
					
						<rect x="328.3" y="72.6" transform="matrix(0.7998 -0.6003 0.6003 0.7998 17.5887 213.514)" class="st29" width="1.1" height="15.6"/>
					<path class="st14" d="M333,87.3l-9.7-12.9l1.2-1l9.7,12.9L333,87.3z M324,74.5l9.1,12.3l0.8-0.6L324.6,74L324,74.5z"/>
				</g>
			</g>
			<path class="st29" d="M302.4,118.1h10.9v7.8h-10.9V118.1z M303.3,125.9h9.1v-7h-9.1V125.9z"/>
			<g>
				<rect x="307.7" y="119.4" class="st33" width="4.2" height="6.8"/>
				<path class="st34" d="M312.1,126.4h-4.7v-7.3h4.7V126.4z M307.9,126h3.7v-6.3h-3.7V126z"/>
			</g>
			<g>
				<rect x="303.7" y="119.4" class="st15" width="4.2" height="6.8"/>
				<path class="st34" d="M308.1,126.4h-4.7v-7.3h4.7V126.4z M303.9,126h3.7v-6.3h-3.7V126z"/>
			</g>
			<g>
				<path class="st24" d="M292.6,103.8C292.6,103.8,292.6,103.7,292.6,103.8C292.7,103.7,292.7,103.7,292.6,103.8l0.1-0.1h0.1h0.9
					c0.1,0,0.1,0,0.1,0.1l0.1,0.1l0.1,0.2l1.7,4.4c0,0.1,0,0.1,0,0.1c0,0-0.1,0.1-0.1,0.1h-0.9c-0.1,0-0.1,0-0.1,0l-0.1-0.1
					c-0.1-0.1-0.1-0.2-0.1-0.3c-0.1-0.1-0.1-0.2-0.1-0.3h-1.7c-0.1,0.1-0.1,0.2-0.1,0.3c-0.1,0.1-0.1,0.2-0.1,0.3
					c0,0.1-0.1,0.1-0.2,0.1h-1c-0.1,0-0.1,0-0.1,0v-0.1L292.6,103.8z M293.2,105.2c-0.1,0.1-0.1,0.3-0.1,0.3
					c-0.1,0.1-0.1,0.3-0.1,0.4c-0.1,0.1-0.1,0.3-0.1,0.4c-0.1,0.1-0.1,0.3-0.1,0.3h1L293.2,105.2z"/>
				<path class="st24" d="M299.5,104C299.6,104,299.6,104,299.5,104c0.1,0.1,0.1,0.1,0.1,0.2l-0.5,0.8c0,0.1-0.1,0.1-0.1,0.1
					s-0.1,0-0.1,0c-0.1-0.1-0.2-0.1-0.3-0.2c-0.1-0.1-0.3-0.1-0.4-0.1c-0.2,0-0.3,0.1-0.5,0.1c-0.1,0.1-0.3,0.1-0.4,0.3
					c-0.1,0.1-0.2,0.3-0.3,0.4c-0.1,0.1-0.1,0.3-0.1,0.5c0,0.2,0,0.3,0.1,0.5c0.1,0.2,0.1,0.3,0.3,0.4c0.1,0.1,0.3,0.2,0.4,0.3
					c0.1,0.1,0.3,0.1,0.5,0.1s0.3,0,0.4-0.1c0.1-0.1,0.3-0.1,0.3-0.2c0.1,0,0.1-0.1,0.1,0c0,0,0.1,0,0.1,0.1l0.5,0.8
					c0,0.1,0,0.1,0,0.1c0,0.1-0.1,0.1-0.1,0.1c-0.2,0.1-0.4,0.3-0.7,0.3c-0.3,0.1-0.5,0.1-0.7,0.1c-0.3,0-0.5,0-0.7-0.1
					c-0.2-0.1-0.4-0.1-0.6-0.3c-0.2-0.1-0.3-0.3-0.5-0.4c-0.1-0.1-0.3-0.3-0.4-0.5c-0.1-0.2-0.2-0.4-0.3-0.6
					c-0.1-0.2-0.1-0.5-0.1-0.7c0-0.2,0-0.5,0.1-0.7c0.1-0.2,0.1-0.4,0.3-0.6c0.1-0.2,0.3-0.3,0.4-0.5c0.1-0.1,0.3-0.3,0.5-0.4
					c0.2-0.1,0.4-0.2,0.6-0.3c0.2-0.1,0.5-0.1,0.7-0.1c0.3,0,0.5,0.1,0.7,0.1C299.1,103.8,299.3,103.8,299.5,104z"/>
				<path class="st24" d="M301.8,103.8C301.8,103.8,301.8,103.7,301.8,103.8C301.9,103.7,301.9,103.7,301.8,103.8l0.1-0.1h0.1h0.9
					c0.1,0,0.1,0,0.1,0.1l0.1,0.1l0.1,0.2l1.7,4.4c0,0.1,0,0.1,0,0.1c0,0-0.1,0.1-0.1,0.1h-0.9c-0.1,0-0.1,0-0.1,0l-0.1-0.1
					c-0.1-0.1-0.1-0.2-0.1-0.3c-0.1-0.1-0.1-0.2-0.1-0.3h-1.7c-0.1,0.1-0.1,0.2-0.1,0.3c-0.1,0.1-0.1,0.2-0.1,0.3
					c0,0.1-0.1,0.1-0.2,0.1h-1c-0.1,0-0.1,0-0.1,0v-0.1L301.8,103.8z M302.4,105.2c-0.1,0.1-0.1,0.3-0.1,0.3
					c-0.1,0.1-0.1,0.3-0.1,0.4c-0.1,0.1-0.1,0.3-0.1,0.4c-0.1,0.1-0.1,0.3-0.1,0.3h1L302.4,105.2z"/>
				<path class="st24" d="M309.6,106.1c0,0.3,0,0.5-0.1,0.7c-0.1,0.2-0.1,0.4-0.3,0.6c-0.1,0.2-0.3,0.3-0.4,0.5
					c-0.1,0.1-0.3,0.3-0.5,0.4c-0.2,0.1-0.4,0.2-0.6,0.3c-0.2,0.1-0.5,0.1-0.7,0.1h-1.6c-0.1,0-0.1,0-0.1,0c0,0-0.1-0.1-0.1-0.1
					v-4.5c0-0.1,0-0.1,0.1-0.1c0,0,0.1-0.1,0.1-0.1h1.6c0.2,0,0.5,0,0.7,0.1c0.2,0.1,0.4,0.1,0.6,0.3c0.2,0.1,0.3,0.2,0.5,0.4
					c0.1,0.1,0.3,0.3,0.4,0.5c0.1,0.2,0.2,0.4,0.3,0.6C309.6,105.6,309.6,105.8,309.6,106.1z M306.6,104.8v2.5h0.3
					c0.1,0,0.1,0,0.1,0c0.1,0,0.1,0,0.1,0c0.1,0,0.3-0.1,0.5-0.1s0.3-0.1,0.4-0.3c0.1-0.1,0.2-0.3,0.3-0.4c0.1-0.1,0.1-0.3,0.1-0.5
					c0-0.2-0.1-0.3-0.1-0.5c-0.1-0.1-0.1-0.3-0.3-0.4c-0.1-0.1-0.3-0.2-0.4-0.3c-0.1-0.1-0.3-0.1-0.5-0.1H306.6z"/>
				<path class="st24" d="M310.4,103.8c0-0.1,0-0.1,0.1-0.1c0,0,0.1-0.1,0.1-0.1h3.2c0.1,0,0.1,0,0.1,0.1c0,0,0.1,0.1,0.1,0.1v0.8
					c0,0.1,0,0.1-0.1,0.1c0,0.1-0.1,0.1-0.1,0.1h-2.1v0.8h1.6c0.1,0,0.1,0,0.1,0l0.1,0.1v0.7c0,0,0,0.1-0.1,0.1c0,0-0.1,0.1-0.1,0.1
					h-1.6v0.9h2.2c0.1,0,0.1,0.1,0.1,0.1v0.8v0.1c0,0.1-0.1,0.1-0.1,0.1h-3.3c-0.1,0-0.1,0-0.1-0.1c0,0-0.1-0.1-0.1-0.1L310.4,103.8
					L310.4,103.8z"/>
				<path class="st24" d="M315.1,103.8c0-0.1,0-0.1,0.1-0.1c0,0,0.1-0.1,0.1-0.1h1.1c0.1,0,0.1,0.1,0.1,0.1l0.9,3l0.9-3
					c0-0.1,0.1-0.1,0.2-0.1h1.1c0.1,0,0.1,0,0.1,0.1c0,0,0.1,0.1,0.1,0.1c0.1,0.8,0.1,1.5,0.3,2.3c0.1,0.7,0.1,1.5,0.3,2.3l0,0
					c0,0.1-0.1,0.1-0.1,0.1h-0.9c-0.1,0-0.1-0.1-0.1-0.1l-0.3-2.5l-0.7,2.6c0,0,0,0.1-0.1,0.1l-0.1,0.1h-0.9c0,0-0.1,0-0.1-0.1
					l-0.1-0.1l-0.7-2.6l-0.3,2.5c0,0.1-0.1,0.1-0.1,0.1h-1.2c-0.1,0-0.1-0.1-0.1-0.1L315.1,103.8z"/>
				<path class="st24" d="M322.9,105.4l0.8-1.7v-0.1l0,0l0,0c0,0,0,0,0.1,0h1.2c0,0,0,0,0.1,0c0,0,0,0,0,0.1c0,0,0,0.1-0.1,0.1
					l-1.6,2.8v1.8c0,0.1-0.1,0.1-0.1,0.1h-1c-0.1,0-0.1,0-0.1-0.1c0,0-0.1-0.1-0.1-0.1v-1.8l-1.5-2.8l-0.1-0.1c0,0,0,0,0-0.1
					c0,0,0,0,0.1,0h1.2c0,0,0,0,0.1,0l0,0l0,0c0,0,0,0,0.1,0.1L322.9,105.4z"/>
			</g>
		</g>
	</g>
</g>
</svg>
