<?xml version="1.0" encoding="utf-8"?>
<!-- Generator: Adobe Illustrator 21.0.2, SVG Export Plug-In . SVG Version: 6.00 Build 0)  -->
<svg version="1.1" xmlns="http://www.w3.org/2000/svg" xmlns:xlink="http://www.w3.org/1999/xlink" x="0px" y="0px"
	 viewBox="0 0 750 750" style="enable-background:new 0 0 750 750;" xml:space="preserve">
<style type="text/css">
	.st0{display:none;}
	.st1{display:inline;}
	.st2{fill:url(#SVGID_1_);}
	.st3{fill:#DD6231;stroke:#FC6E23;stroke-miterlimit:10;}
	.st4{fill:#FC6E23;stroke:#FC6E23;stroke-miterlimit:10;}
	.st5{fill:#944121;}
	.st6{fill:#C5572C;}
	.st7{display:inline;fill:#FFFFFF;}
	.st8{display:inline;fill:none;}
	.st9{fill:#FFFFFF;}
	.st10{font-family:'MyriadPro-Regular';}
	.st11{font-size:24.6025px;}
	.st12{font-size:17.0325px;}
	.st13{fill:#FD8B4F;}
	.st14{opacity:0.5;fill:#C5572C;enable-background:new    ;}
	.st15{fill:#D6D6CC;}
	.st16{fill:#132930;}
	.st17{fill:#040A0C;}
	.st18{opacity:0.2;}
	.st19{fill:#F0F0F0;}
	.st20{fill:#FC6E23;}
	.st21{fill:#FEE159;}
	.st22{fill:#FFFFEE;}
	.st23{fill:#BDC3C7;}
	.st24{fill:#60ACBE;}
	.st25{fill:#488CA7;}
	.st26{fill:#ECF0F1;}
	.st27{fill:none;stroke:#132930;stroke-width:2;stroke-miterlimit:10;}
	.st28{fill:#262D30;}
	.st29{fill:#0A171D;}
	.st30{fill:#C1C1B9;}
	.st31{fill:none;}
	.st32{fill:none;stroke:#FFFFFF;stroke-width:0.5;stroke-miterlimit:10;}
	.st33{opacity:0.2;fill:#D6D6CC;enable-background:new    ;}
	.st34{fill:#18363D;}
	.st35{display:none;fill:#FFFFFF;}
</style>
<g id="Layer_2" class="st0">
	<rect x="-1.4" y="-1.4" class="st1" width="750" height="753"/>
</g>
<g id="Layer_1">
	<g id="island">
		<radialGradient id="SVGID_1_" cx="375" cy="375" r="375" gradientUnits="userSpaceOnUse">
			<stop  offset="0" style="stop-color:#2484C6;stop-opacity:0"/>
			<stop  offset="0.3842" style="stop-color:#2685C6;stop-opacity:0.1921"/>
			<stop  offset="0.5226" style="stop-color:#2D89C8;stop-opacity:0.2613"/>
			<stop  offset="0.6213" style="stop-color:#3890CB;stop-opacity:0.3107"/>
			<stop  offset="0.7011" style="stop-color:#4999D0;stop-opacity:0.3505"/>
			<stop  offset="0.7694" style="stop-color:#5FA5D5;stop-opacity:0.3847"/>
			<stop  offset="0.8299" style="stop-color:#7BB5DD;stop-opacity:0.415"/>
			<stop  offset="0.8847" style="stop-color:#9BC7E5;stop-opacity:0.4423"/>
			<stop  offset="0.935" style="stop-color:#C1DCEF;stop-opacity:0.4675"/>
			<stop  offset="0.9798" style="stop-color:#EAF3F9;stop-opacity:0.4899"/>
			<stop  offset="1" style="stop-color:#FFFFFF;stop-opacity:0.5"/>
		</radialGradient>
		<circle class="st2" cx="375" cy="375" r="375"/>
		<g id="planet">
			<g>
				<ellipse class="st3" cx="375.3" cy="376.3" rx="199.7" ry="198.7"/>
				<path class="st4" d="M566.3,317.7C542,235.2,465.4,175,374.7,175C264.4,175,175,263.9,175,373.7c0,45.9,15.6,88.1,41.9,121.8
					c33.1,17,70.7,26.6,110.5,26.6C448.5,522,548.8,433.4,566.3,317.7z"/>
			</g>
			<g>
				<path class="st5" d="M549.5,456.7c-3.7,7.7-9.4,12.7-12.8,11.1c-3.3-1.6-3.1-9.1,0.7-16.9c3.7-7.7,9.4-12.7,12.8-11.1
					C553.5,441.4,553.2,448.9,549.5,456.7z"/>
				<path class="st6" d="M433.4,288.2c-2.1,4.1-8.1,5.2-13.6,2.5c-5.4-2.7-8.1-8.2-6-12.3c2.1-4.1,8.1-5.2,13.6-2.5
					C432.8,278.6,435.5,284.2,433.4,288.2z"/>
				<path class="st6" d="M280.8,347.7c4.4,1.4,6.4,7.1,4.5,12.7c-1.9,5.6-6.9,8.9-11.2,7.5c-4.4-1.4-6.4-7.1-4.5-12.7
					C271.5,349.6,276.5,346.3,280.8,347.7z"/>
				<path class="st6" d="M436.1,521c5.7,9,25.3,7,43.7-4.6c18.5-11.5,28.8-28.2,23.1-37.2c-5.7-9-25.3-7-43.7,4.6
					C440.8,495.4,430.5,512,436.1,521z"/>
				<path class="st5" d="M463.2,490.7c16.4-10.2,33.7-13,41.3-7.2c-0.1-1.7-0.6-3.3-1.5-4.7c-5.7-9-25.3-7-43.7,4.6
					c-18.5,11.5-28.8,28.2-23.1,37.2c0.6,1,1.4,1.9,2.4,2.6C437.8,513.8,447.6,500.4,463.2,490.7z"/>
				<path class="st6" d="M530.2,389.3c-4.3,18.2-18.3,30.5-31.4,27.5c-13.1-3-20.2-20.3-15.9-38.5c4.3-18.2,18.3-30.5,31.4-27.5
					C527.4,353.8,534.5,371.1,530.2,389.3z"/>
				<path class="st5" d="M482.4,388.7c4.3-18.2,18.3-30.5,31.4-27.5c9.7,2.3,16.2,12.4,17.1,24.9c2.8-17-4.2-32.5-16.6-35.3
					c-13.1-3-27.1,9.3-31.4,27.5c-1.1,4.7-1.4,9.3-1.1,13.6C481.9,390.8,482.1,389.8,482.4,388.7z"/>
				<path class="st6" d="M333.1,420.4c9.7,21.3,6.2,43.8-7.9,50.1c-14.1,6.4-33.4-5.8-43.1-27.1c-9.7-21.3-6.2-43.8,7.9-50.1
					C304.1,386.9,323.4,399,333.1,420.4z"/>
				<path class="st5" d="M292,401.7c14.1-6.4,33.4,5.8,43.1,27.1c1.1,2.5,2.1,5,2.8,7.4c-0.8-5.2-2.4-10.6-4.8-15.9
					c-9.7-21.3-29-33.5-43.1-27.1c-12.4,5.6-16.6,23.8-10.7,42.7C276.9,420.3,281.5,406.5,292,401.7z"/>
				<path class="st6" d="M348.6,528.7c-3.2,9.2-22.2,10.9-42.6,3.9c-20.3-7-34.2-20.1-31-29.3s22.2-10.9,42.6-3.9
					S351.8,519.6,348.6,528.7z"/>
				<path class="st5" d="M276.9,512.5c3.2-9.2,22.2-10.9,42.6-3.9c14,4.8,24.9,12.5,29.3,19.8c2.3-9.1-11.4-21.8-31.2-28.6
					c-20.3-7-39.4-5.3-42.6,3.9c-1,2.9-0.3,6.1,1.7,9.4C276.8,512.9,276.8,512.7,276.9,512.5z"/>
				<path class="st6" d="M236.3,295c-9,22.6-8.1,44.1,2.1,48.2c10.2,4,25.8-11,34.8-33.5c9-22.6,8.1-44.1-2.1-48.2
					C260.9,257.4,245.4,272.4,236.3,295z"/>
				<path class="st5" d="M235.7,302.3c9-22.6,25.9-37.1,37.6-32.4c2.1,0.8,3.9,2.2,5.4,4.1c-1-6.5-3.6-11.1-7.8-12.8
					c-10.2-4-25.8,11-34.8,33.5c-5.1,12.7-7,25.1-5.9,34.3C230.1,320.9,231.9,311.7,235.7,302.3z"/>
				<path class="st6" d="M454,224.5c-3.2,11.3-24.3,15.2-47.1,8.9s-38.8-20.6-35.7-31.9c3.2-11.3,24.3-15.2,47.1-8.9
					S457.1,213.2,454,224.5z"/>
				<path class="st5" d="M417.6,192.6c-22.9-6.4-44-2.4-47.1,8.9c-0.4,1.6-0.5,3.3-0.2,4.9c6.6-8.1,25.1-10.4,45-4.9
					c19.6,5.5,34.2,16.8,35.9,27c1-1.2,1.7-2.6,2.1-4C456.5,213.2,440.5,199,417.6,192.6z"/>
				<path class="st6" d="M239.8,400.7c6.5,20.8,4.5,40-4.4,42.8c-9,2.8-21.5-11.9-28-32.7c-6.5-20.8-4.5-40,4.4-42.8
					C220.7,365.2,233.3,379.8,239.8,400.7z"/>
				<path class="st5" d="M216.3,415.1c-6.5-20.8-4.5-40,4.4-42.8c0.8-0.2,1.6-0.3,2.5-0.3c-4-3.5-8-5.1-11.5-4
					c-9,2.8-10.9,21.9-4.4,42.8c5.9,19,16.9,32.8,25.6,33.1C226.6,438.3,220.3,427.8,216.3,415.1z"/>
				<path class="st6" d="M437.7,548.5c1.4,4.7-10.6,12.3-26.6,16.9c-16.1,4.6-30.2,4.4-31.6-0.3c-1.4-4.7,10.6-12.3,26.6-16.9
					S436.4,543.8,437.7,548.5z"/>
				<path class="st5" d="M409.5,552.8c11.7-3.3,22.4-4.2,27.9-2.5c0.2-0.6,0.2-1.2,0.1-1.8c-1.4-4.7-15.5-4.9-31.6-0.3
					c-16.1,4.6-28,12.1-26.6,16.9c0.4,1.3,1.7,2.2,3.7,2.8C384.4,563.2,395.3,556.9,409.5,552.8z"/>
				<path class="st6" d="M453,427.3c3.4,5.9-0.3,14.3-8.3,18.9c-8,4.6-17.2,3.5-20.6-2.3c-3.4-5.9,0.3-14.3,8.3-18.9
					C440.4,420.4,449.6,421.4,453,427.3z"/>
				<path class="st5" d="M434.1,430.3c7.4-4.3,16-3.6,19.8,1.2c0-1.6-0.4-3.1-1.2-4.5c-3.4-5.9-12.6-6.9-20.6-2.3
					c-8,4.6-11.7,13-8.3,18.9c0.2,0.4,0.5,0.8,0.8,1.1C424.4,439.5,428,433.8,434.1,430.3z"/>
				<path class="st6" d="M517.7,281.1c13.5,23.3,16.6,46.7,6.9,52.3c-9.7,5.6-28.5-8.8-42-32.1c-13.5-23.3-16.6-46.7-6.9-52.3
					C485.4,243.5,504.2,257.8,517.7,281.1z"/>
				<path class="st5" d="M494.2,310.4c-13.5-23.3-16.6-46.7-6.9-52.3c3.8-2.2,9.1-1.3,14.9,2.1c-9.7-9.6-19.5-14-25.6-10.5
					c-9.7,5.6-6.6,29,6.9,52.3c8.2,14.1,18.2,24.8,27.1,30C504.9,326.3,499.2,319,494.2,310.4z"/>
				<path class="st6" d="M203.3,287.4c-5,8.6-6,17.2-2.4,19.3c3.7,2.1,10.7-3.1,15.6-11.7c5-8.6,6-17.2,2.4-19.3
					C215.3,273.6,208.3,278.9,203.3,287.4z"/>
				<path class="st5" d="M209.3,292.1c3.5-6.1,8.1-10.5,11.8-11.8c-0.1-2.3-0.8-4.1-2.2-4.9c-3.7-2.1-10.7,3.1-15.6,11.7
					c-5,8.6-6,17.2-2.4,19.3c1,0.6,2.4,0.6,3.8,0.1C204.7,302.7,206.2,297.4,209.3,292.1z"/>
				<path class="st6" d="M313.1,197.1c2.8,4.1-6,14.8-19.6,23.8s-26.9,13-29.6,8.9c-2.8-4.1,6-14.8,19.6-23.8
					S310.4,192.9,313.1,197.1z"/>
				<path class="st5" d="M286.8,211.9c10.4-6.9,20.6-10.9,26.1-10.5c0.9-2,1-3.6,0.2-4.7c-2.8-4.1-16-0.1-29.6,8.9
					c-13.6,9-22.4,19.7-19.6,23.8c0.6,1,1.9,1.5,3.5,1.6C269.6,225.9,277,218.5,286.8,211.9z"/>
				<ellipse class="st6" cx="381.1" cy="354.3" rx="42.6" ry="42.4"/>
				<path class="st5" d="M343.1,365.6c0-23.4,19.1-42.4,42.6-42.4c15.3,0,28.7,8,36.2,20.1c-4.8-18.2-21.4-31.7-41.2-31.7
					c-23.5,0-42.6,19-42.6,42.4c0,8.2,2.3,15.8,6.4,22.3C343.6,372.9,343.1,369.3,343.1,365.6z"/>
				<path class="st6" d="M328.3,292.6c-4.7,9.7-14.4,14.8-21.7,11.3s-9.4-14.2-4.6-23.9s14.4-14.8,21.7-11.3
					C330.9,272.2,333,282.9,328.3,292.6z"/>
				<path class="st5" d="M304.6,286.6c4.7-9.7,14.4-14.8,21.7-11.3c1.5,0.7,2.7,1.7,3.7,2.9c-0.9-4.1-3.2-7.5-6.7-9.2
					c-7.3-3.5-17,1.5-21.7,11.3c-3.8,7.8-3.2,16.2,0.9,21C301.5,296.9,302.1,291.6,304.6,286.6z"/>
				<path class="st6" d="M234.7,473.7c11,13.2,16.8,26.6,12.8,29.9c-4,3.3-16.1-4.8-27.1-18c-11-13.2-16.8-26.6-12.8-29.9
					C211.6,452.4,223.7,460.5,234.7,473.7z"/>
				<path class="st5" d="M210.9,463c4-3.3,16.1,4.8,27.1,18c4,4.8,7.3,9.6,9.7,13.9c-2-5.8-6.6-13.5-13-21.2
					c-11-13.2-23.2-21.3-27.1-18c-2.5,2.1-1.1,8.3,3.1,16C209.3,467.5,209.3,464.3,210.9,463z"/>
				<path class="st6" d="M402.1,488.7c1.6,5.1-2.9,11-10.1,13.2c-7.2,2.2-14.3-0.1-15.9-5.2s2.9-11,10.1-13.2
					C393.4,481.3,400.5,483.6,402.1,488.7z"/>
				<path class="st5" d="M386.4,483.1c-7.2,2.2-11.7,8.2-10.1,13.2c0.3,1.1,0.9,2,1.7,2.8c1-3.9,4.9-7.6,10.2-9.2
					c5.7-1.8,11.3-0.7,14.2,2.4c0.3-1.3,0.3-2.7-0.1-4C400.7,483.2,393.6,480.8,386.4,483.1z"/>
			</g>
		</g>
	</g>
	<g class="st0">
		<polygon class="st7" points="367.5,64 381.1,64 374.3,74.4 		"/>
		<rect x="298.3" y="16.6" class="st8" width="153.4" height="46.4"/>
		<text transform="matrix(1 0 0 1 328.047 34.0833)" class="st1"><tspan x="0" y="0" class="st9 st10 st11">CicaLand</tspan><tspan x="24.1" y="20.4" class="st9 st10 st12">level 2</tspan></text>
	</g>
	<g id="spaceStation_1_">
		<g>
			<g>
				<path class="st13" d="M411.6,125.5c0,1.5-14.5,4.2-32.4,4.2c-17.9,0-32.4-2.7-32.4-4.2c0-1.5,14.5-3.7,32.4-3.7
					C397.1,121.8,411.6,124,411.6,125.5z"/>
				<path class="st14" d="M379.2,122.1c-18.4,0.4-32.2,2.1-32.2,3.4c0,1.3,14.2,3.6,32.3,4.2L379.2,122.1z"/>
				<path class="st15" d="M379.2,130.2c-10.8,0-19.1-0.9-23-1.5c-9.8-1.5-9.8-2.7-9.8-3.1c0-0.5,0-1.6,9.8-2.8
					c6.6-0.9,14.7-1.3,23-1.3c8.2,0,16.3,0.4,23,1.3c9.8,1.2,9.8,2.3,9.8,2.8c0,0.4,0,1.6-9.8,3.1
					C398.2,129.1,390,130.2,379.2,130.2z M347.1,125.5c1.4,1.2,14.4,3.8,32,3.8s30.5-2.6,32-3.8c-1.5-1.2-14.3-3.2-32-3.2
					S348.6,124.3,347.1,125.5z"/>
			</g>
			<g>
				<g>
					<path class="st16" d="M411.3,124.6c-21.5-3.2-42.9-3.3-64.5-0.3c-0.7-6.8-0.6-9.8-0.6-16.2c22.1-3.9,43.7-3.8,65.8-0.2
						C412.1,114.8,412,117.9,411.3,124.6z"/>
					<path class="st17" d="M378.7,121.7c-10.6,0-21.3,0.7-31.8,2.5c-0.7-6.5-0.6-9.5-0.6-15.6c10.8-2.1,21.5-3.3,32.4-3.3
						C378.7,111.9,378.7,115.1,378.7,121.7z"/>
					<path class="st15" d="M411.6,125.1c-21.7-3.3-43.3-3.5-65-0.3c-0.7-7.1-0.7-10.3-0.7-17c22.4-4.1,44.2-4,66.5-0.2
						C412.5,114.8,412.3,118,411.6,125.1z M347.1,123.8c21.4-3,42.5-2.9,63.9,0.3c0.6-6.3,0.7-9.3,0.7-15.7
						c-21.9-3.7-43.3-3.8-65.1,0.1C346.6,114.5,346.6,117.5,347.1,123.8z"/>
				</g>
			</g>
			<g class="st18">
				<path class="st19" d="M411.6,107.8c-7.5-10.2-19.6-18-32.5-18c-12.9,0-24.7,7.7-32.2,17.9c0,0,24.9-2.7,32.1-2.6
					C386.2,105.1,411.6,107.8,411.6,107.8z"/>
				<path class="st19" d="M412.5,108.3l-1-0.1c-0.3,0-25.4-2.7-32.6-2.7s-31.8,2.6-32,2.6l-1,0.1l0.7-0.9c8.3-11.3,20.4-18,32.4-18
					s24.6,6.9,32.8,18.1L412.5,108.3z M378.9,104.6L378.9,104.6c6.4,0,27,2.1,31.7,2.6c-8.1-10.4-20.1-16.9-31.6-16.9
					s-23.1,6.2-31.3,16.8C352.5,106.6,372.4,104.6,378.9,104.6z"/>
			</g>
			<path class="st15" d="M361.6,106l0.5-0.8c4.5-7.3,11.1-15.9,16.8-15.9c0.1,0,0.1,0,0.1,0c4.2,0.1,9.3,5.1,16.1,15.8l0.5,0.8
				l-0.8-0.1c-0.1,0-12.4-0.9-15.9-0.9c-3.5,0-16.4,0.9-16.5,0.9L361.6,106z M378.9,90.2c-4.1,0-9.7,5.2-15.7,14.8
				c2.9-0.2,12.5-0.9,15.6-0.9c0.1,0,0.1,0,0.1,0c3,0,12.3,0.6,15.1,0.8C387.8,95.1,382.8,90.3,378.9,90.2L378.9,90.2z"/>
			<g>
				<path class="st15" d="M413.3,120.9c-1.6-0.9-12.5-3.3-33.5-3.3c-0.3,0-0.6,0-0.9,0c-20.7,0.1-31.5,2.1-34.4,3.8
					c-0.4,0.3-0.5,0.6-0.5,0.8c0,0.3,0.1,0.9,2.3,1.5l0.1-0.9c-0.7-0.2-1.2-0.4-1.6-0.6c2.9-1.7,13.6-3.7,34.1-3.7
					c21.5-0.1,32.6,2.4,34.1,3.2c0.1,0,0.1,0.1,0.1,0.1c-0.3,0.2-0.8,0.4-1.4,0.6v0.9c1.4-0.3,2.1-0.8,2.2-1.4
					C414,121.3,413.5,121,413.3,120.9z"/>
				<path class="st15" d="M413.2,116.4c-1.6-0.9-12.5-3.3-33.5-3.3c-0.3,0-0.6,0-0.9,0c-20.7,0.1-31.5,2.1-34.4,3.8
					c-0.4,0.3-0.5,0.6-0.5,0.8c0,0.3-0.1,0.9,2.2,1.5l-0.1-0.9c-0.7-0.2-1-0.3-1.3-0.6c2.9-1.7,13.6-3.7,34.1-3.7c0.3,0,0.7,0,0.9,0
					c20.9,0,31.7,2.3,33.2,3.2c0.1,0.1,0.3,0.1,0.3,0.3c-0.1,0.2-0.8,0.3-1.2,0.3v0.9c0.8-0.2,1.9-0.5,2-1.2
					C414.2,116.8,413.4,116.5,413.2,116.4z"/>
				<path class="st15" d="M413.7,112.1c-1.5-0.9-12.8-3.3-33.9-3.3c-0.3,0-0.6,0-0.9,0c-20.7,0.1-31.5,2.1-34.4,3.8
					c-0.5,0.3-0.7,0.6-0.7,0.8c0,0.2,0.1,0.9,2.2,1.4l-0.1-0.9c-0.6,0-1-0.1-1.2-0.4c0-0.7,13.8-3.7,34.2-3.8
					c21.6-0.1,33.1,2.4,34.6,3.2c0.1,0,0.1,0.1,0.1,0.1c-0.3,0.2-0.7,0.3-1.2,0.3l-0.1,0.9c1.3-0.3,2-0.6,2-1.2
					C414.4,112.5,413.9,112.2,413.7,112.1z"/>
				<path class="st15" d="M414.2,107.7c-1.6-0.9-13.2-3.4-35.4-3.3c-21.4,0.1-32.4,2.1-35.4,3.8c-0.4,0.3-0.5,0.6-0.4,0.8
					c0,0.3-0.1,0.9,3,1.5l0.1-0.9c-0.9-0.2-1.6-0.4-2.1-0.7c3.2-1.6,14.2-3.6,35-3.7c22.2-0.1,33.5,2.4,35.2,3.2
					c0.1,0,0.1,0.1,0.1,0.1c-0.3,0.2-1,0.5-1.8,0.6l0.1,0.9c1.6-0.3,2.4-0.8,2.5-1.5C414.9,108.1,414.4,107.8,414.2,107.7z"/>
			</g>
			<path class="st15" d="M412.5,107.8l-1-0.1c-0.3,0-25.4-2.6-32.6-2.6s-31.8,2.5-32,2.5l-1,0.1l0.7-0.9
				c8.3-10.9,20.4-17.4,32.4-17.4s24.6,6.8,32.8,17.5L412.5,107.8z M378.9,104.1L378.9,104.1c6.3,0,26.6,2.1,31.2,2.5
				c-8-10.1-19.7-16.3-31-16.3c-11.3,0-22.7,6.1-30.7,16.3C352.9,106,372.5,104.1,378.9,104.1z"/>
			<path class="st15" d="M384.9,175.1v0.4c0,0.3-0.5,0.3-1.1,0.3l0,0l0,0c-0.5,0-1,0.1-1.1-0.2v-0.1l0,0v-0.5
				c-1.2,0-2.4-0.1-3.7-0.1c-1.2,0-2.3,0-3.5,0v0.5c0,0.3-0.5,0.3-1.1,0.3l0,0l0,0c-0.1,0-0.3,0-0.5,0c-0.4,0-0.7,0-0.7-0.3v-0.4
				c-3.7,0.2-6.1,0.5-6.1,0.9c0,0.5,5.3,0.9,11.9,0.9c6.5,0,11.9-0.4,11.9-0.9C390.8,175.6,388.4,175.3,384.9,175.1z"/>
			<g>
				<g>
					<path class="st19" d="M374.1,176.1L374.1,176.1c-0.7,0-1.2,0.2-1.2-0.7v-48.1c0-0.9,0.5-1.3,1.2-1.3l0,0c0.7,0,1.2,0.4,1.2,1.3
						v48.1C375.3,176.2,374.7,176.1,374.1,176.1z"/>
				</g>
				<path class="st15" d="M374.1,126c-0.7,0-1.2,0.4-1.2,1.3v48.1c0,0.9,0.5,0.7,1.2,0.7l0,0V126z"/>
			</g>
			<g>
				<g>
					<path class="st19" d="M384.1,176.2L384.1,176.2c-0.7,0-1.2,0.2-1.2-0.7v-48.1c0-0.9,0.5-1.3,1.2-1.3l0,0c0.7,0,1.2,0.4,1.2,1.3
						v48.1C385.3,176.4,384.8,176.2,384.1,176.2z"/>
				</g>
				<path class="st15" d="M384.1,126.1c-0.7,0-1.2,0.4-1.2,1.3v48.1c0,0.9,0.5,0.7,1.2,0.7l0,0V126.1z"/>
			</g>
		</g>
		<g>
			<g id="fire1_7_">
				<path id="fire_x5F_orange_10_" class="st20" d="M397.6,160.1c0.9,0.4,0.9,1.3,0.9,1.9c-0.2,1.5-3.6,2.8-3.6,2.8
					s-0.7-3.1,0.5-4.3C396,160,396.9,159.8,397.6,160.1z"/>
				<path id="fire_x5F_yellow_10_" class="st21" d="M397.6,160.1c0.4,0.1,0.4,0.6,0.4,0.8c-0.1,0.7-1.6,1.3-1.6,1.3
					s-0.3-1.3,0.2-1.9C396.9,160,397.3,159.9,397.6,160.1z"/>
			</g>
			<g>
				<path class="st22" d="M399.6,156l-1.8-0.2c-0.1,0-0.1,0-0.1,0s-0.1,0-0.1,0.1l-4.1,2.7l-0.6-0.1c-0.2,0-0.4,0.1-0.4,0.3
					c0,0.2,0.1,0.4,0.3,0.4l1.8,0.2c0.2,0,0.4-0.1,0.4-0.3c0-0.2-0.1-0.4-0.3-0.4l-0.2,0l3.4-2.2l1.7,0.2c0.2,0,0.4-0.1,0.4-0.3
					C400.1,156.2,399.8,156.1,399.6,156z"/>
				<path class="st22" d="M412.2,161.1l-0.6-0.1l-2.8-3.6l-0.1-0.1l-0.1,0l-1.8-0.2c-0.2,0-0.4,0.1-0.4,0.3c0,0.2,0.1,0.4,0.3,0.4
					l1.7,0.2l2.4,3l-0.2,0c-0.2,0-0.4,0.1-0.4,0.3c0,0.2,0.1,0.4,0.3,0.4l1.8,0.2c0.2,0,0.4-0.1,0.4-0.3
					C412.5,161.3,412.4,161.2,412.2,161.1z"/>
				<path class="st22" d="M403.2,159.9l-0.4-0.1l0.5-2.3c0-0.2-0.1-0.4-0.3-0.4c-0.2,0-0.4,0.1-0.4,0.3l-0.5,2.3l-0.4-0.1
					c-0.2,0-0.4,0.1-0.4,0.3c0,0.2,0.1,0.4,0.3,0.4l1.4,0.2c0.2,0,0.4-0.1,0.4-0.3C403.6,160,403.4,159.9,403.2,159.9z"/>
			</g>
			<polygon class="st23" points="399.9,154.4 407.1,155.4 406.9,156.4 399.7,155.4 			"/>
			<path class="st15" d="M406.2,141.2L406.2,141.2c-0.9-0.1-1.9,0.1-2.7,0.5l0,0c-1.8,1.1-3.1,2.9-3.5,4.8l-1.7,8.6l1.4,0.2l0.2-1
				l7.2,1l-0.2,1l1.4,0.2l1.7-8.6c0.4-2-0.2-3.9-1.5-5.5l0,0C408,141.7,407.1,141.3,406.2,141.2z"/>
			<g>
				<polygon class="st24" points="410.1,147.1 400.1,145.7 400,146.3 406.9,147.3 406.5,149 407.2,149 407.5,147.3 410,147.7 				
					"/>
				<polygon class="st24" points="405.9,152.2 406.6,152.3 406,155.2 405.3,155.1 				"/>
			</g>
			<path class="st6" d="M400.3,152.7c0.2,0,0.3,0.2,0.3,0.4c0,0.2-0.2,0.3-0.4,0.3c-0.2,0-0.3-0.2-0.3-0.4
				C399.9,152.8,400,152.7,400.3,152.7z"/>
			<path class="st6" d="M401.6,152.9c0.2,0,0.3,0.2,0.3,0.4c0,0.2-0.2,0.3-0.4,0.3c-0.2,0-0.3-0.2-0.3-0.4
				C401.2,153,401.4,152.9,401.6,152.9z"/>
			<path class="st6" d="M403.1,153.1c0.2,0,0.3,0.2,0.3,0.4c0,0.2-0.2,0.3-0.4,0.3c-0.2,0-0.3-0.2-0.3-0.4
				C402.7,153.2,402.9,153.1,403.1,153.1z"/>
			<path class="st6" d="M404.5,153.3c0.2,0,0.3,0.2,0.3,0.4c0,0.2-0.2,0.3-0.4,0.3c-0.2,0-0.3-0.2-0.3-0.4
				C404.1,153.4,404.3,153.3,404.5,153.3z"/>
			<path class="st6" d="M407.4,153.7c0.2,0,0.3,0.2,0.3,0.4s-0.2,0.3-0.4,0.3s-0.3-0.2-0.3-0.4C407,153.8,407.2,153.7,407.4,153.7z"
				/>
			<polygon class="st24" points="398.4,154.2 396.7,153.6 396.9,153 398.7,152.9 			"/>
			<polygon class="st24" points="408.7,154.2 410.5,154.8 410.4,155.5 408.5,155.6 			"/>
			<g>
				<path class="st16" d="M406.9,149c1,0.1,1.6,1,1.4,1.8c-0.2,0.9-1.1,1.5-2.1,1.4c-1-0.1-1.6-1-1.4-1.8
					C405,149.5,405.9,148.9,406.9,149z"/>
				<path class="st25" d="M406.2,152.6c-1.2-0.2-2-1.1-1.7-2.2c0.2-1.1,1.3-1.8,2.5-1.7c1.2,0.2,2,1.1,1.7,2.2
					S407.3,152.7,406.2,152.6z M406.9,149.3c-0.8-0.1-1.5,0.4-1.6,1.1c-0.2,0.8,0.4,1.4,1.1,1.5s1.5-0.4,1.6-1.1
					C408.1,150,407.6,149.4,406.9,149.3z"/>
			</g>
			<polygon class="st22" points="399.7,148 399.5,148.6 402,149 402,149.3 399.5,149 399.3,149.6 401.8,150 401.8,150.3 399.3,150 
				399.2,150.6 401.7,150.9 401.6,151.3 399.1,150.9 399,151.6 402.2,152 402.9,148.5 			"/>
			<polygon class="st22" points="399.7,155.4 406.9,156.3 406.6,157.9 399.4,157 			"/>
			<g id="fire1_2_">
				<path id="fire_x5F_orange_7_" class="st20" d="M406.5,161.4c-1,0.1-1.3,1-1.5,1.5c-0.4,1.5,2.3,3.6,2.3,3.6s1.9-2.7,1.2-4.2
					C408.2,161.7,407.4,161.3,406.5,161.4z"/>
				<path id="fire_x5F_yellow_7_" class="st21" d="M406.5,161.4c-0.4,0-0.6,0.4-0.7,0.7c-0.1,0.7,1,1.6,1,1.6s0.8-1.2,0.6-1.8
					C407.3,161.5,406.9,161.3,406.5,161.4z"/>
			</g>
		</g>
		<g>
			<polygon class="st22" points="355.1,161.8 362.3,167.6 357.9,148.2 352.3,149.1 			"/>
			<path class="st22" d="M353.8,142.6c-1.3,1.3-1.9,3.1-1.7,5.1l5.5-0.9C356.9,145,355.5,143.5,353.8,142.6z"/>
			<path class="st22" d="M336.7,145.3c-1.3,1.3-1.9,3.1-1.7,5.1l5.5-0.9C339.8,147.8,338.5,146.2,336.7,145.3z"/>
			<polygon class="st22" points="339.6,171.2 343.7,163.6 340.9,150.9 335.2,151.8 			"/>
			<path class="st15" d="M352.1,147.8c0,0.4,0.1,0.8,0.2,1.3l0,0.1l5.6-0.9l0-0.1c-0.1-0.4-0.2-0.8-0.4-1.2L352.1,147.8z"/>
			<path class="st15" d="M335,150.5c0,0.4,0.1,0.8,0.2,1.3l0,0.1l5.6-0.9l0-0.1c-0.1-0.4-0.2-0.8-0.4-1.2L335,150.5z"/>
			<path class="st13" d="M355.5,171.5l-1.9-3.1l-2.1-9.4l3.6,2.8l-2.6-11.6c-1.1-4.7-4.1-8.8-8.1-10.8c-0.2-0.1-0.4,0-0.4,0.1
				c-2.8,3.1-3.9,7.8-2.9,12.5l2.6,11.6l2.1-3.7l2.1,9.3l-0.4,3.5l0.2,0.7l0.3,1.4l0,0l7.9-1.3l0,0L355.5,171.5L355.5,171.5z"/>
			<path class="st16" d="M364.8,176.2l-6.8,1.1c-0.2,0-0.3-0.2-0.3-0.4l-0.1-3.7l5.6-0.9l1.5,3.5C365.1,176,365,176.2,364.8,176.2z"
				/>
			<path class="st16" d="M347.8,178.9L341,180c-0.2,0-0.3-0.2-0.3-0.4l-0.1-3.7l5.6-0.9l1.5,3.5C348,178.7,348,178.9,347.8,178.9z"
				/>
			<path class="st26" d="M353.6,168.2l-3.9-17.3c-0.5-2.1-1.6-4-3.2-5.2c-0.7-0.5-1.4-0.4-1.8,0.3c-0.9,1.7-1.2,3.8-0.7,5.8
				l3.9,17.3l-0.4,3.5l0.5,2l7.9-1.3l-0.5-2L353.6,168.2z"/>
			<polygon class="st15" points="356,173.5 366.2,171.9 365.8,170.5 351.6,158.9 353.6,168.2 355.5,171.5 356,173.4 			"/>
			<polygon class="st15" points="348,174.7 347.8,173.4 347.6,172.7 348,169.1 345.9,159.8 337.5,175 337.8,176.4 348.1,174.8 			
				"/>
			<polygon class="st25" points="338.4,173.5 337.5,175 337.8,176.4 348.1,174.8 348,174.7 347.8,173.4 347.6,172.7 347.6,172 			
				"/>
			<polygon class="st25" points="355.5,171.5 356,173.4 356,173.5 366.2,171.9 365.8,170.5 364.4,169.3 355.1,170.8 			"/>
			<path class="st16" d="M348.1,151.9l-2.3,0.4l-0.3-1.4c-0.2-0.8,0.2-1.4,0.8-1.5l0,0c0.6-0.1,1.3,0.4,1.5,1.2L348.1,151.9
				L348.1,151.9z"/>
			<line class="st27" x1="349.4" y1="167.6" x2="349.8" y2="169.6"/>
			<line class="st27" x1="351.6" y1="167.3" x2="352" y2="169.2"/>
			<polygon class="st16" points="355.3,175.6 349.6,176.5 349.7,174.5 354.2,173.8 			"/>
			<line class="st27" x1="352" y1="174" x2="351.4" y2="171.4"/>
		</g>
	</g>
	<g id="factory_4_">
		<g id="factoryGroup_4_">
			<g>
				<path class="st28" d="M351,113L351,113c-6.5,0-11.7,4.8-11.7,10.8l-0.1,38.2c0,4,4.1,7.3,9.6,8l0,1.1l4.3,0l0-1
					c5.4-0.7,9.5-4,9.5-7.9l0.1-38.2C362.7,117.8,357.5,113,351,113z"/>
				<path class="st29" d="M345.8,161.6l0.1-37.6c0-4.9,4-9.1,9.5-10.3c-1.1-0.2-2.2-0.4-3.4-0.4l0,0c-7,0-12.8,4.8-12.8,10.6
					l-0.1,37.6c0,3.9,4.5,7.1,10.5,7.9l0,1.1l4.6,0l0-1.1c0.3,0,0.6-0.1,1-0.1C349.9,168.5,345.8,165.4,345.8,161.6z"/>
				<path class="st9" d="M353.6,171.6l-5.3,0l0-1.2c-5.6-0.8-9.6-4.3-9.6-8.4l0.1-38.2c0-6.2,5.5-11.3,12.2-11.3
					c6.7,0,12.2,5.1,12.2,11.4l-0.1,38.2c0,4-4,7.5-9.5,8.3L353.6,171.6z M349.3,170.7l3.2,0l0-1.1l0.4-0.1c5.3-0.7,9.1-3.8,9.1-7.5
					l0.1-38.2c0-5.7-5-10.5-11.2-10.5c-6.3,0-11.3,4.6-11.3,10.4l-0.1,38.2c0,3.7,3.9,6.8,9.2,7.5l0.4,0.1l0,1.1L349.3,170.7z"/>
			</g>
			<path class="st21" d="M353,107.9l0-11.4c0-2.1,1.5-3.3,4-3.3l29.7,0c2.5,0,4,1.2,4,3.3l-0.1,68.8l3.4,0l0.1-71.6
				c0-2.1-1.9-3.7-4.4-3.7l-36-0.1c-2.5,0-4.4,1.7-4.4,3.7l0,20.1l3.8-1L353,107.9z"/>
			<g id="tartaly1_9_">
				
					<ellipse id="tartaly1_10_" transform="matrix(1.640822e-03 -1 1 1.640822e-03 230.4992 553.6835)" class="st24" cx="392.5" cy="161.4" rx="16.8" ry="18.1"/>
				<path class="st25" d="M382.2,161.4c0-6.5,3-12.5,7.9-16.6c-8.8,1.1-15.5,8.1-15.5,16.6c0,8.4,6.7,15.4,15.4,16.6
					C385.3,173.9,382.2,168,382.2,161.4z"/>
			</g>
			
				<rect x="390.8" y="142.4" transform="matrix(1.417609e-03 -1 1 1.417609e-03 229.8355 554.5752)" class="st21" width="3.6" height="39.7"/>
			
				<rect x="391.6" y="139.6" transform="matrix(1.417609e-03 -1 1 1.417609e-03 247.8526 536.6426)" class="st21" width="2" height="9.2"/>
			<g>
				<polygon class="st21" points="372.3,178.7 371.1,178.7 377.4,164 378.7,164 				"/>
				
					<rect x="371.2" y="176.9" transform="matrix(1.417609e-03 -1 1 1.417609e-03 192.4104 549.8975)" class="st21" width="0.7" height="3.5"/>
			</g>
			<g>
				<polygon class="st21" points="383.1,178.7 381.9,178.7 388.1,164 389.4,164 				"/>
				
					<rect x="382" y="176.9" transform="matrix(1.417609e-03 -1 1 1.417609e-03 203.1909 560.724)" class="st21" width="0.7" height="3.5"/>
			</g>
			<g>
				<polygon class="st21" points="401.9,178.6 403.1,178.6 396.9,163.9 395.6,163.9 				"/>
				
					<rect x="402.3" y="176.8" transform="matrix(1.417609e-03 -1 1 1.417609e-03 223.5511 580.9853)" class="st21" width="0.7" height="3.5"/>
			</g>
			<g>
				<polygon class="st21" points="412.5,178.7 413.7,178.7 407.6,164 406.3,164 				"/>
				
					<rect x="412.9" y="176.9" transform="matrix(1.417609e-03 -1 1 1.417609e-03 234.0726 591.6274)" class="st21" width="0.7" height="3.5"/>
			</g>
			
				<rect x="391.6" y="174.4" transform="matrix(1.417609e-03 -1 1 1.417609e-03 213.0263 571.3057)" class="st21" width="2" height="9.2"/>
			
				<rect x="349.1" y="108" transform="matrix(1.417609e-03 -1 1 1.417609e-03 237.8612 463.4869)" class="st21" width="3.9" height="9.2"/>
			<polygon class="st9" points="364.9,179 361.1,165.6 363.8,165.6 363.8,163.6 338.3,163.5 338.3,165.5 340.4,165.5 336.5,179.2 
				335,179.2 335,179.9 338.6,179.9 338.6,179.2 337.7,179.2 341.7,165.6 347.7,165.6 343.8,179 342.1,179 342.1,179.8 345.8,179.8 
				345.8,179 344.9,179 349,165.6 352.9,165.6 356.8,179 355.9,179 355.9,179.8 359.5,179.8 359.5,179 358,179 354.2,165.6 
				359.8,165.6 363.8,179 362.9,179 362.9,179.9 366.6,179.9 366.6,179.1 			"/>
			
				<rect x="350" y="140.7" transform="matrix(1.417609e-03 -1 1 1.417609e-03 198.0867 502.9672)" class="st9" width="1.8" height="23.2"/>
			
				<rect x="350" y="127.8" transform="matrix(1.417609e-03 -1 1 1.417609e-03 210.9704 490.1439)" class="st9" width="1.8" height="23.2"/>
			
				<rect x="350" y="116" transform="matrix(1.417609e-03 -1 1 1.417609e-03 222.8476 478.3224)" class="st9" width="1.8" height="23.2"/>
		</g>
	</g>
	<g id="mine_2_">
		<g id="mineGroup_3_">
			<g id="arm_x5F_front_3_">
				<g id="hand">
					<path class="st19" d="M389.6,269.4c0.1,2.2,0.4,4.2,1.2,5.4c0.4,0.6,0.7,1,1.3,1.4c0.1,0.1,0.3,0.2,0.4,0.3
						c0.1,0.1,0.3,0.2,0.4,0.2c0.3,0.1,0.7,0.4,1,0.4c0.2,0.1,0.3,0.1,0.5,0.2c0.2,0.1,0.3,0,0.4,0.1c0.3,0.1,0.5,0,0.8,0.1
						c0.5,0,1.1-0.2,1.8-0.5c0.7-0.3,1.4-0.9,2.1-1.5c0.7-0.6,1.5-1.4,2.3-2.2c0.2,1.1,0.1,2.3-0.1,3.4c-0.3,1.1-0.8,2.2-1.6,3.3
						c-0.8,1-2.1,1.9-3.6,2.3c-1.5,0.3-3,0.2-4.3-0.3c-0.3-0.1-0.6-0.2-0.9-0.4c-0.3-0.2-0.6-0.3-0.9-0.5c-0.3-0.2-0.6-0.4-0.8-0.6
						c-0.3-0.2-0.5-0.4-0.8-0.7c-1-1-1.7-2.4-1.8-3.8c-0.2-1.4,0.1-2.6,0.5-3.7C388,271.1,388.7,270.2,389.6,269.4z"/>
				</g>
				<polygon id="arm2_3_" class="st15" points="382.5,321.7 390.7,283.7 392.6,284.3 384.4,322.3 				"/>
				<polygon id="arm1_3_" class="st15" points="382.5,321.9 421.5,297.6 422.6,299 383.7,323.3 				"/>
				<path id="circe2_3_" class="st22" d="M394.2,284.6c-0.7,1-2.1,1.1-3.2,0.3c-1.1-0.8-1.4-2.2-0.7-3.2s2.1-1.1,3.2-0.3
					C394.5,282.3,394.8,283.7,394.2,284.6z M392.5,282.7c-0.3-0.2-0.7-0.2-1,0.1c-0.2,0.3-0.2,0.7,0.2,0.9c0.4,0.3,0.7,0.2,1-0.1
					C392.9,283.3,392.8,282.9,392.5,282.7z"/>
				<path id="circle1_3_" class="st22" d="M385.1,322.9c0,1.2-1.1,2.1-2.4,2.1s-2.4-0.9-2.4-2.1c0-1.2,1.1-2.1,2.4-2.1
					C384,320.8,385.1,321.7,385.1,322.9z M382.6,322.4c-0.4,0-0.7,0.2-0.7,0.6s0.3,0.6,0.7,0.6s0.7-0.2,0.7-0.6
					S383,322.4,382.6,322.4z"/>
			</g>
			<polygon id="arm_x5F_back_3_" class="st15" points="435,279.4 426.7,295.8 424.9,295.1 433.2,278.7 			"/>
			<g id="fire1_1_">
				<path id="fire_x5F_orange_3_" class="st24" d="M412.4,381.4c2.9,0,4.4,2.1,5.1,3.8c1.7,4.1-5.4,11.2-5.4,11.2s-6.7-6.9-5.2-11.4
					C407.6,383,409.8,381.4,412.4,381.4z"/>
				<path id="fire_x5F_yellow_3_" class="st22" d="M412.3,381.4c1.3,0,2,0.9,2.3,1.7c0.8,1.8-2.4,5-2.4,5s-3-3.1-2.3-5.1
					C410.2,382.1,411.1,381.4,412.3,381.4z"/>
			</g>
			<g id="fire2_3_">
				<path id="fire_x5F_orange_2_" class="st24" d="M439.3,382.1c2.9,0,4.4,2.1,5.1,3.8c1.7,4.1-5.4,11.2-5.4,11.2s-6.7-6.9-5.2-11.4
					C434.4,383.7,436.6,382.1,439.3,382.1z"/>
				<path id="fire_x5F_yellow_2_" class="st22" d="M439.2,382.1c1.3,0,2,0.9,2.3,1.7c0.8,1.8-2.4,5-2.4,5s-3-3.1-2.3-5.1
					C437.1,382.8,438,382.1,439.2,382.1z"/>
			</g>
			<g id="mine_x5F_base_3_">
				<g>
					<rect x="434.9" y="369.4" class="st22" width="8.4" height="7.4"/>
					<rect x="434.9" y="369.4" class="st15" width="4.3" height="7.4"/>
					<g>
						<rect x="432.7" y="376.8" class="st22" width="12.9" height="2.4"/>
						<rect x="433" y="376.8" class="st15" width="6.1" height="2.4"/>
						<path class="st15" d="M446.1,379.6h-13.8v-3.2h13.8V379.6z M433.2,378.9h12v-1.7h-12V378.9z"/>
					</g>
				</g>
				<g>
					<rect x="408" y="369.4" class="st22" width="8.4" height="7.4"/>
					<rect x="408" y="369.4" class="st15" width="4.3" height="7.4"/>
					<g>
						<rect x="405.9" y="376.8" class="st22" width="12.9" height="2.4"/>
						<rect x="406.1" y="376.8" class="st15" width="6.1" height="2.4"/>
						<path class="st15" d="M419.2,379.6h-13.8v-3.2h13.8V379.6z M406.3,378.9h12v-1.7h-12V378.9z"/>
					</g>
				</g>
				<g>
					<rect x="414.6" y="309" class="st15" width="10.3" height="4.7"/>
					<g>
						<rect x="424.8" y="309" class="st22" width="10.3" height="4.7"/>
					</g>
				</g>
				<path class="st22" d="M436.8,356.2l-4.7-42.5h-14.8l-4.7,42.5h-2.4v7.1h2.5v-5.9H437v5.9h2.5v-7.1H436.8z M433.8,347.2
					L433.8,347.2L433.8,347.2L433.8,347.2z M433.8,346.9l-7.8-3.7v-0.5l7-3.3L433.8,346.9z M426,331h5.4l-5.4,2.6V331z M426,338.5
					v-3l6.2,3H426z M432.3,339.1L426,342v-2.9H432.3z M426,343.8l7.2,3.4H426V343.8z M426,347.8h7.3L426,351V347.8z M426,334.9v-0.6
					l6.2-3l0.7,6.9L426,334.9z M431.3,323L431.3,323L431.3,323L431.3,323z M426,315.1h3.8l-3.8,2.4V315.1z M426,318.3l4.4-2.8
					l0.7,6.5l-5.2-3.1L426,318.3L426,318.3z M426,319.6l4.5,2.8H426V319.6z M426,323h4.6l-4.6,2.4V323z M426,326.1l5.3-2.8l0.7,6.7
					l-6-3.4L426,326.1L426,326.1z M431.4,330.4H426v-3.1L431.4,330.4z M417.4,331L417.4,331L417.4,331L417.4,331z M423.9,330.4h-5.8
					l5.8-3.2V330.4z M423.9,323v2.5l-4.4-2.5H423.9z M419.4,322.4l4.5-2.8v2.8H419.4z M423.9,315.1v2.5l-4.2-2.5H423.9z
					 M419.1,315.5l4.8,2.9v0.5l-5.5,3.5L419.1,315.5z M418.3,323l5.6,3.2v0.4l-6.4,3.5L418.3,323z M414.7,356.2L414.7,356.2
					L414.7,356.2L414.7,356.2z M423.9,356.2h-8.4l8.4-3.7V356.2z M423.9,351.9l-9.2,3.9l0.8-7.8l8.3,3.6V351.9z M423.9,351.1
					l-7.4-3.2h7.4V351.1z M423.9,347.2h-7.5l7.5-3.6V347.2z M423.9,343l-8.2,3.9l0.8-7.6l7.3,3.6V343z M423.9,342.2l-6.5-3.1h6.5
					V342.2z M423.9,338.5h-6.7l6.7-3.2V338.5z M423.9,334.6l-7.3,3.6l0.7-6.8L423.9,334.6L423.9,334.6z M418.1,331h5.8v2.8
					L418.1,331z M426,356.2v-3.6l8.1,3.6H426z M426,352v-0.4l8-3.5l0.8,7.7L426,352z M434.8,356.2L434.8,356.2L434.8,356.2
					L434.8,356.2z"/>
				<path class="st15" d="M428.4,299.6H421v9.4h7.4V299.6z M427.2,300.4l-2.4,3.2l-2.4-3.2H427.2z M421.9,301.4l2.3,3l-2.3,3V301.4z
					 M422.3,308.2l2.4-3.2l2.4,3.2H422.3z M427.5,307.3l-2.3-3l2.3-3V307.3z"/>
				<path class="st15" d="M424.9,313.7h-7.6l-4.7,42.5h-2.4v7.1h2.5v-5.9h12.1L424.9,313.7L424.9,313.7z M417.4,331L417.4,331
					L417.4,331L417.4,331z M414.7,356.2L414.7,356.2L414.7,356.2L414.7,356.2z M423.9,356.2h-8.4l8.4-3.7V356.2z M423.9,351.9
					l-9.2,3.9l0.8-7.8l8.3,3.6V351.9z M423.9,351.1l-7.4-3.2h7.4V351.1z M423.9,347.2h-7.5l7.5-3.6V347.2z M423.9,343l-8.2,3.9
					l0.8-7.6l7.3,3.6V343z M423.9,342.2l-6.5-3.1h6.5V342.2z M423.9,338.5h-6.7l6.7-3.2V338.5z M423.9,334.6l-7.3,3.6l0.7-6.8
					L423.9,334.6L423.9,334.6z M423.9,333.9l-5.8-2.8h5.8V333.9z M423.9,330.4h-5.8l5.8-3.2V330.4z M423.9,326.5l-6.4,3.5l0.7-7
					l5.6,3.2V326.5z M423.9,325.4l-4.4-2.5h4.4V325.4z M423.9,322.4h-4.5l4.5-2.8V322.4z M423.9,318.8l-5.5,3.5l0.7-6.8l4.8,2.9
					L423.9,318.8L423.9,318.8z M419.7,315.1h4.2v2.5L419.7,315.1z"/>
				<path class="st22" d="M429.6,297.1c0,2.4-2.2,4.3-4.9,4.3s-4.9-1.9-4.9-4.3c0-2.4,2.2-4.3,4.9-4.3S429.6,294.7,429.6,297.1z
					 M424.7,295.9c-0.7,0-1.4,0.6-1.4,1.2c0,0.6,0.6,1.2,1.4,1.2s1.4-0.6,1.4-1.2C426.1,296.5,425.5,295.9,424.7,295.9z"/>
				<g id="minetalp_3_">
					<g>
						<path class="st22" d="M455.5,366.5h-60.9c-1.2,0-2.1-0.8-2.1-1.8v-1.3h65.1v1.3C457.6,365.7,456.7,366.5,455.5,366.5z"/>
						<rect x="393" y="363.3" class="st15" width="31.8" height="2.8"/>
						<path class="st15" d="M455.5,366.9h-60.9c-1.5,0-2.5-1-2.5-2.2V363h66v1.7C458,365.9,456.8,366.9,455.5,366.9z M393,363.7v0.9
							c0,0.8,0.7,1.4,1.6,1.4h60.9c0.9,0,1.6-0.6,1.6-1.4v-0.9H393z"/>
					</g>
					<g>
						<path class="st22" d="M457.6,369.7h-65.1v-1.3c0-1,0.9-1.8,2.1-1.8h60.8c1.2,0,2.1,0.8,2.1,1.8L457.6,369.7L457.6,369.7z"/>
						<rect x="393" y="366.9" class="st15" width="31.8" height="2.8"/>
						<path class="st15" d="M458,370.1h-66v-1.7c0-1.3,1.2-2.2,2.5-2.2h60.8c1.5,0,2.5,1,2.5,2.2L458,370.1L458,370.1z M393,369.3
							h64.1v-0.9c0-0.8-0.7-1.4-1.6-1.4h-60.8c-0.9,0-1.6,0.6-1.6,1.4L393,369.3L393,369.3z"/>
					</g>
				</g>
			</g>
		</g>
	</g>
	<g id="academy">
		<g>
			<g>
				<rect x="361.5" y="145.8" class="st22" width="45.3" height="33.7"/>
				<path class="st22" d="M407.3,180h-46.1v-34.6h46.1V180z M362,179h44.5v-32.7H362V179z"/>
			</g>
			<g>
				<rect x="338.1" y="166.6" class="st24" width="23.1" height="13.3"/>
				<rect x="341.4" y="169.6" class="st13" width="2.1" height="1.9"/>
				<rect x="344.3" y="169.6" class="st13" width="2.1" height="1.9"/>
				<rect x="347.3" y="169.5" class="st13" width="2.1" height="1.9"/>
				<rect x="341.3" y="172.3" class="st13" width="2.1" height="1.9"/>
				<rect x="344.2" y="172.3" class="st13" width="2.1" height="1.9"/>
				<rect x="347.2" y="172.3" class="st13" width="2.1" height="1.9"/>
				<rect x="350.3" y="169.6" class="st13" width="2.1" height="1.9"/>
				<rect x="353.2" y="169.5" class="st13" width="2.1" height="1.9"/>
				<rect x="356.2" y="169.4" class="st13" width="2.1" height="1.9"/>
				<rect x="350.3" y="172.3" class="st13" width="2.1" height="1.9"/>
				<rect x="353.2" y="172.3" class="st13" width="2.1" height="1.9"/>
				<rect x="356.2" y="172.2" class="st13" width="2.1" height="1.9"/>
			</g>
			<g>
				<rect x="362.3" y="142.8" class="st25" width="43.8" height="2.4"/>
			</g>
			<g id="aerial_1_">
				<g>
					<g id="aerial_2_">
						<g>
							<polygon class="st22" points="350.9,164.6 348.4,164.6 349.3,156.9 350.1,156.9 							"/>
							<polygon class="st15" points="349.6,164.5 348.4,164.5 349.3,156.8 349.6,156.7 							"/>
							<path d="M351.2,164.8h-3l0.9-8.1h1.2v0.2L351.2,164.8z M348.6,164.4h2.1l-0.8-7.4h-0.5L348.6,164.4z"/>
						</g>
						<g>
							<g>
								<path class="st22" d="M342.5,146.2c-4,1-7.1,1.8-7.1,1.8l5.6,5.1l7.4,1.1l1.4-0.3l0,0l1.1-0.2l6.4-4.4l2.7-7
									c0,0-3.4,0.7-7.4,1.6c-1.5,0.3-3.4,0.8-4.8,1.1l0,0C346,145.3,344,145.7,342.5,146.2z"/>
								<polygon class="st30" points="335.4,148.1 342.9,147.1 347.6,146 349.6,153.9 348.1,154.3 340.7,153.1 								"/>
								<path d="M348.3,154.5L348.3,154.5l-7.4-1.1L335,148l0.3-0.1c0,0,3.2-0.8,7.1-1.8c1.4-0.4,3.4-0.9,5-1.2
									c1.4-0.3,3.2-0.8,4.8-1.1c4.1-0.9,7.4-1.6,7.4-1.6l0.4-0.1l-2.8,7.4l-6.4,4.5L348.3,154.5z M341,153l7.3,1.1l2.4-0.5
									l6.3-4.4l2.5-6.7c-1,0.2-3.8,0.8-7.1,1.5c-1.5,0.3-3.4,0.8-4.8,1.1c-1.5,0.3-3.6,0.8-5,1.2l0,0c-3.2,0.8-5.9,1.5-6.8,1.8
									L341,153z"/>
							</g>
							<g>
								<polyline class="st22" points="352.2,144.7 352.2,150.5 350.7,153.6 								"/>
								<polygon points="350.9,153.7 350.6,153.6 352,150.4 352,144.7 352.4,144.7 352.3,150.6 								"/>
							</g>
							<g>
								<polygon points="348.1,154.3 345.3,152.2 342.7,147 343,146.8 345.7,152 348.3,154 								"/>
							</g>
							<g>
								<polyline class="st22" points="335.3,148 342.8,146.9 352.2,144.7 359.8,142.1 								"/>
								<polygon points="335.3,148.2 335.2,147.8 342.8,146.7 352.2,144.4 359.7,142 359.8,142.4 352.3,144.8 342.9,147.1 								
									"/>
							</g>
						</g>
						<g>
							<ellipse class="st22" cx="349.6" cy="155.9" rx="1.1" ry="1"/>
							<path class="st15" d="M349.6,154.9v1.9c0,0-1.1-0.3-1.1-1C348.6,155.2,349.6,154.9,349.6,154.9z"/>
							<path d="M349.6,157.1c-0.7,0-1.2-0.5-1.2-1.1c0-0.6,0.5-1.1,1.2-1.1c0.7,0,1.2,0.5,1.2,1.1
								C350.9,156.6,350.4,157.1,349.6,157.1z M349.6,155.2c-0.5,0-0.8,0.4-0.8,0.8c0,0.4,0.4,0.8,0.8,0.8s0.8-0.4,0.8-0.8
								C350.5,155.6,350.2,155.2,349.6,155.2z"/>
						</g>
						<g>
							<ellipse class="st22" cx="349.6" cy="154.4" rx="0.7" ry="0.5"/>
							<path class="st15" d="M349.6,153.7v1.3c0,0-0.7-0.2-0.6-0.6C349.1,153.9,349.6,153.7,349.6,153.7z"/>
							<path d="M349.6,155.2c-0.5,0-0.8-0.3-0.8-0.8c0-0.5,0.4-0.8,0.8-0.8s0.8,0.3,0.8,0.8C350.5,154.9,350.2,155.2,349.6,155.2z
								 M349.6,154c-0.2,0-0.5,0.2-0.5,0.4s0.2,0.4,0.5,0.4s0.5-0.2,0.5-0.4S349.9,154,349.6,154z"/>
						</g>
						<g>
							<polygon class="st22" points="352.7,166.2 346.6,166.2 348.4,164.6 350.9,164.6 							"/>
							<polygon class="st15" points="349.7,166.2 346.7,166.2 348.5,164.6 349.6,164.6 							"/>
							<path d="M353.2,166.4h-7l2.1-2h2.7L353.2,166.4z M347.2,166.1h5.1l-1.3-1.2h-2.4L347.2,166.1z"/>
						</g>
					</g>
					<g>
						<line class="st31" x1="346.6" y1="141.8" x2="349.6" y2="145.7"/>
						<polygon class="st9" points="349.4,145.8 346.5,141.9 346.8,141.7 349.7,145.6 						"/>
					</g>
					<g>
						<line class="st31" x1="346.6" y1="141.8" x2="346" y2="146.6"/>
						
							<rect x="343.9" y="144" transform="matrix(0.1173 -0.9931 0.9931 0.1173 162.4934 471.1424)" class="st9" width="4.8" height="0.4"/>
					</g>
					<g>
						<circle class="st22" cx="346.5" cy="141.2" r="0.6"/>
						<path class="st9" d="M346.5,142c-0.5,0-0.8-0.4-0.8-0.8s0.4-0.8,0.8-0.8c0.4,0,0.8,0.4,0.8,0.8S347,142,346.5,142z
							 M346.5,140.8c-0.2,0-0.4,0.2-0.4,0.4s0.2,0.4,0.4,0.4c0.2,0,0.4-0.2,0.4-0.4C346.9,141,346.7,140.8,346.5,140.8z"/>
					</g>
					<g>
						<line class="st31" x1="347.6" y1="145.1" x2="346.6" y2="141.8"/>
						
							<rect x="346.9" y="141.8" transform="matrix(0.9683 -0.2499 0.2499 0.9683 -24.8441 91.2856)" class="st9" width="0.4" height="3.4"/>
					</g>
				</g>
			</g>
			<g>
				<path class="st15" d="M407.3,142.7h-45.9v-6.4l0.1-0.1l8.6-11.6l14.3-6l14,6l0.1,0.1l8.9,11.7L407.3,142.7z M361.9,142.2h44.8
					l-0.1-5.7l-8.7-11.5l-13.6-5.8l-13.9,5.8l-8.4,11.5V142.2z"/>
				<g>
					<line class="st31" x1="402.7" y1="142.4" x2="384.2" y2="118.9"/>
					
						<rect x="393.2" y="115.7" transform="matrix(0.7853 -0.6192 0.6192 0.7853 3.5956 271.6786)" class="st15" width="0.6" height="30"/>
				</g>
				<g>
					<line class="st31" x1="384.3" y1="118.9" x2="366" y2="142.4"/>
					
						<rect x="360.2" y="130.4" transform="matrix(0.6153 -0.7883 0.7883 0.6153 41.3133 346.0349)" class="st15" width="29.9" height="0.6"/>
				</g>
				<g>
					<line class="st31" x1="393.4" y1="142.4" x2="377.2" y2="122"/>
					
						<rect x="385.1" y="119.2" transform="matrix(0.7853 -0.6192 0.6192 0.7853 0.8972 266.9982)" class="st15" width="0.6" height="26.1"/>
				</g>
				<g>
					<line class="st31" x1="391.1" y1="122" x2="375.1" y2="142.3"/>
					
						<rect x="370.1" y="131.9" transform="matrix(0.6186 -0.7857 0.7857 0.6186 42.2617 351.4049)" class="st15" width="25.9" height="0.6"/>
				</g>
				<g>
					<line class="st31" x1="390.6" y1="122.6" x2="375.1" y2="142.3"/>
					
						<rect x="370.3" y="132.2" transform="matrix(0.6182 -0.786 0.786 0.6182 42.0421 351.4854)" class="st15" width="25.1" height="0.6"/>
				</g>
				<g>
					<line class="st31" x1="398" y1="124.8" x2="384.1" y2="142.4"/>
					
						<rect x="379.8" y="133.3" transform="matrix(0.6182 -0.786 0.786 0.6182 44.2592 358.3873)" class="st15" width="22.5" height="0.6"/>
				</g>
				<g>
					<line class="st31" x1="402.5" y1="130.7" x2="393.2" y2="142.4"/>
					
						<rect x="390.4" y="136.3" transform="matrix(0.6186 -0.7857 0.7857 0.6186 44.4065 364.7314)" class="st15" width="15" height="0.6"/>
				</g>
				<g>
					<line class="st31" x1="384.1" y1="142.4" x2="370.1" y2="124.8"/>
					
						<rect x="376.8" y="122.3" transform="matrix(0.7838 -0.621 0.621 0.7838 -1.4189 263.0725)" class="st15" width="0.6" height="22.5"/>
				</g>
				<g>
					<line class="st31" x1="375.1" y1="142.3" x2="365.8" y2="130.7"/>
					
						<rect x="370.2" y="129.1" transform="matrix(0.7824 -0.6228 0.6228 0.7824 -4.3995 260.4253)" class="st15" width="0.5" height="14.9"/>
				</g>
				<g>
					<rect x="370.1" y="124.5" class="st15" width="27.9" height="0.6"/>
				</g>
				<g>
					<rect x="365.8" y="130.4" class="st15" width="36.7" height="0.6"/>
				</g>
				<g>
					<rect x="361.6" y="136.1" class="st15" width="45.3" height="0.6"/>
				</g>
				<g>
					
						<rect x="361.3" y="136.4" transform="matrix(1 -5.455849e-03 5.455849e-03 1 -0.7556 1.9749)" class="st15" width="0.6" height="6.1"/>
				</g>
				<g>
					<line class="st31" x1="406.9" y1="136.4" x2="402.7" y2="142.4"/>
					
						<rect x="401.1" y="139.2" transform="matrix(0.564 -0.8258 0.8258 0.564 61.3389 395.0359)" class="st15" width="7.3" height="0.5"/>
				</g>
				<g>
					<line class="st31" x1="361.6" y1="136.4" x2="366" y2="142.4"/>
					
						<rect x="363.4" y="135.7" transform="matrix(0.8082 -0.589 0.589 0.8082 -12.3429 240.9569)" class="st15" width="0.5" height="7.4"/>
				</g>
				<path class="st33" d="M407.3,142.7h-45.9v-6.4l0.1-0.1l8.6-11.6l14.3-6l14,6l0.1,0.1l8.9,11.7L407.3,142.7z"/>
			</g>
			<g>
				<g>
					
						<rect x="402" y="121.3" transform="matrix(0.7998 -0.6003 0.6003 0.7998 4.0261 269.0782)" class="st29" width="6.8" height="14.5"/>
					<path class="st15" d="M407,136.8l-9-12l5.9-4.4l9,12L407,136.8z M398.7,124.8l8.4,11.1l5-3.8l-8.4-11.1L398.7,124.8z"/>
				</g>
				<g>
					
						<rect x="408" y="117" transform="matrix(0.7998 -0.6003 0.6003 0.7998 6.1231 270.5783)" class="st29" width="1.3" height="18.2"/>
					<path class="st15" d="M413.5,134.1l-11.3-15l1.5-1.1l11.3,15L413.5,134.1z M403,119.2l10.7,14.4l0.9-0.7l-10.9-14.3L403,119.2z
						"/>
				</g>
			</g>
			<path class="st29" d="M377.8,170.1h12.7v9.1h-12.7V170.1z M378.8,179.2h10.7v-8.1h-10.7V179.2z"/>
			<g>
				<rect x="383.9" y="171.6" class="st34" width="4.9" height="8"/>
				<path class="st35" d="M389.1,179.8h-5.4v-8.5h5.4V179.8z M384.2,179.3h4.3V172h-4.3V179.3z"/>
			</g>
			<g>
				<rect x="379.3" y="171.6" class="st16" width="4.9" height="8"/>
				<path class="st35" d="M384.5,179.8h-5.4v-8.5h5.4V179.8z M379.6,179.3h4.3V172h-4.3V179.3z"/>
			</g>
			<g>
				<path class="st25" d="M366.4,153.4C366.4,153.4,366.4,153.3,366.4,153.4C366.5,153.3,366.5,153.3,366.4,153.4l0.2-0.1h0.1h1
					c0.1,0,0.1,0,0.1,0.1l0.1,0.1l0.1,0.2l2,5.1c0,0.1,0,0.1,0,0.2c0,0-0.1,0.1-0.2,0.1h-1.1c-0.1,0-0.1,0-0.2,0l-0.1-0.1
					c-0.1-0.2-0.1-0.2-0.2-0.4c-0.1-0.2-0.1-0.2-0.2-0.4h-2c-0.1,0.2-0.1,0.2-0.2,0.4c-0.1,0.2-0.1,0.2-0.2,0.4
					c0,0.1-0.1,0.2-0.2,0.2h-1.1c-0.1,0-0.1,0-0.2,0v-0.1L366.4,153.4z M367.1,155c-0.1,0.2-0.1,0.3-0.2,0.4s-0.1,0.3-0.2,0.5
					c-0.1,0.2-0.1,0.3-0.2,0.5c-0.1,0.2-0.1,0.3-0.2,0.4h1.1L367.1,155z"/>
				<path class="st25" d="M374.5,153.6C374.5,153.6,374.5,153.7,374.5,153.6c0.1,0.2,0.1,0.2,0.1,0.2l-0.6,0.9
					c0,0.1-0.1,0.1-0.1,0.1s-0.1,0-0.2,0c-0.2-0.1-0.2-0.2-0.4-0.2s-0.3-0.1-0.5-0.1c-0.2,0-0.4,0.1-0.5,0.2
					c-0.2,0.1-0.3,0.2-0.5,0.3c-0.2,0.2-0.2,0.3-0.3,0.5c-0.1,0.2-0.1,0.4-0.1,0.6s0,0.4,0.1,0.6c0.1,0.2,0.2,0.3,0.3,0.5
					c0.2,0.2,0.3,0.2,0.5,0.3c0.2,0.1,0.4,0.2,0.5,0.2s0.3,0,0.5-0.1s0.3-0.2,0.4-0.2c0.1,0,0.1-0.1,0.1,0c0,0,0.1,0,0.1,0.1
					l0.6,0.9c0,0.1,0,0.1,0,0.2c0,0.1-0.1,0.1-0.1,0.1c-0.2,0.2-0.5,0.3-0.8,0.4c-0.3,0.1-0.5,0.2-0.8,0.2s-0.5,0-0.8-0.1
					c-0.2-0.1-0.5-0.2-0.7-0.3c-0.2-0.2-0.4-0.3-0.6-0.5c-0.2-0.2-0.3-0.4-0.5-0.6c-0.2-0.2-0.2-0.5-0.3-0.7
					c-0.1-0.2-0.1-0.5-0.1-0.8s0-0.5,0.1-0.8s0.2-0.5,0.3-0.7c0.2-0.2,0.3-0.4,0.5-0.6c0.2-0.2,0.4-0.3,0.6-0.5s0.5-0.2,0.7-0.3
					c0.2-0.1,0.5-0.1,0.8-0.1c0.3,0,0.6,0.1,0.8,0.2C373.9,153.4,374.2,153.5,374.5,153.6z"/>
				<path class="st25" d="M377.1,153.4C377.1,153.4,377.1,153.3,377.1,153.4C377.2,153.3,377.2,153.3,377.1,153.4l0.2-0.1h0.1h1
					c0.1,0,0.1,0,0.1,0.1l0.1,0.1l0.1,0.2l2,5.1c0,0.1,0,0.1,0,0.2c0,0-0.1,0.1-0.2,0.1h-1.1c-0.1,0-0.1,0-0.2,0l-0.1-0.1
					c-0.1-0.2-0.1-0.2-0.2-0.4c-0.1-0.2-0.1-0.2-0.2-0.4h-2c-0.1,0.2-0.1,0.2-0.2,0.4c-0.1,0.2-0.1,0.2-0.2,0.4
					c0,0.1-0.1,0.2-0.2,0.2h-1.1c-0.1,0-0.1,0-0.2,0v-0.1L377.1,153.4z M377.8,155c-0.1,0.2-0.1,0.3-0.2,0.4
					c-0.1,0.2-0.1,0.3-0.2,0.5c-0.1,0.2-0.1,0.3-0.2,0.5c-0.1,0.2-0.1,0.3-0.2,0.4h1.1L377.8,155z"/>
				<path class="st25" d="M386.2,156.1c0,0.3,0,0.5-0.1,0.8s-0.2,0.5-0.3,0.7c-0.2,0.2-0.3,0.4-0.5,0.5c-0.2,0.2-0.4,0.3-0.6,0.5
					c-0.2,0.2-0.5,0.2-0.7,0.3c-0.2,0.1-0.5,0.1-0.8,0.1h-1.8c-0.1,0-0.1,0-0.2,0c0,0-0.1-0.1-0.1-0.2v-5.3c0-0.1,0-0.1,0.1-0.2
					c0,0,0.1-0.1,0.2-0.1h1.8c0.2,0,0.5,0,0.8,0.1c0.2,0.1,0.5,0.2,0.7,0.3c0.2,0.2,0.4,0.2,0.6,0.5c0.2,0.2,0.3,0.4,0.5,0.5
					c0.2,0.2,0.2,0.5,0.3,0.7C386.2,155.5,386.2,155.8,386.2,156.1z M382.7,154.6v2.9h0.3c0.1,0,0.2,0,0.2,0c0.1,0,0.1,0,0.2,0
					c0.2,0,0.4-0.1,0.5-0.2c0.2-0.1,0.3-0.2,0.5-0.3c0.2-0.2,0.2-0.3,0.3-0.5c0.1-0.2,0.1-0.4,0.1-0.5c0-0.2-0.1-0.4-0.2-0.6
					c-0.1-0.2-0.2-0.3-0.3-0.5c-0.2-0.2-0.3-0.2-0.5-0.3c-0.2-0.1-0.4-0.1-0.6-0.1H382.7z"/>
				<path class="st25" d="M387.2,153.4c0-0.1,0-0.1,0.1-0.2c0,0,0.1-0.1,0.2-0.1h3.8c0.1,0,0.1,0,0.2,0.1c0,0,0.1,0.1,0.1,0.2v0.9
					c0,0.1,0,0.1-0.1,0.2c0,0.1-0.1,0.1-0.2,0.1h-2.5v0.9h1.9c0.1,0,0.1,0,0.2,0l0.1,0.1v0.8c0,0,0,0.1-0.1,0.1c0,0-0.1,0.1-0.2,0.1
					h-1.9v1h2.5c0.1,0,0.2,0.1,0.2,0.2v0.9v0.1c0,0.1-0.1,0.1-0.2,0.1h-3.8c-0.1,0-0.1,0-0.2-0.1c0,0-0.1-0.1-0.1-0.2L387.2,153.4
					L387.2,153.4z"/>
				<path class="st25" d="M392.6,153.4c0-0.1,0-0.1,0.1-0.2c0,0,0.1-0.1,0.2-0.1h1.3c0.1,0,0.2,0.1,0.2,0.2l1.1,3.4l1.1-3.4
					c0-0.1,0.1-0.2,0.2-0.2h1.3c0.1,0,0.1,0,0.2,0.1c0,0,0.1,0.1,0.1,0.2c0.1,0.9,0.2,1.8,0.3,2.7c0.1,0.8,0.2,1.8,0.3,2.7l0,0
					c0,0.1-0.1,0.2-0.2,0.2h-1.1c-0.2,0-0.2-0.1-0.2-0.2l-0.3-2.9l-0.8,3c0,0,0,0.1-0.1,0.1l-0.1,0.1h-1c0,0-0.1,0-0.1-0.1l-0.1-0.1
					l-0.8-3l-0.3,2.9c0,0.1-0.1,0.2-0.2,0.2h-1.5c-0.1,0-0.2-0.1-0.2-0.2L392.6,153.4z"/>
				<path class="st25" d="M401.7,155.3l0.9-2v-0.1l0,0l0,0c0,0,0,0,0.1,0h1.5c0,0,0,0,0.1,0c0,0,0,0,0,0.1c0,0,0,0.1-0.1,0.1
					l-1.8,3.2v2.1c0,0.2-0.1,0.2-0.2,0.2h-1.1c-0.1,0-0.1,0-0.2-0.1c0,0-0.1-0.1-0.1-0.2v-2.1l-1.8-3.2l-0.1-0.1c0,0,0,0,0-0.1
					c0,0,0,0,0.1,0h1.5c0,0,0,0,0.1,0l0,0l0,0c0,0,0,0,0.1,0.1L401.7,155.3z"/>
			</g>
		</g>
	</g>
</g>
</svg>
