<?xml version="1.0" encoding="utf-8"?>
<!-- Generator: Adobe Illustrator 21.0.2, SVG Export Plug-In . SVG Version: 6.00 Build 0)  -->
<svg version="1.1" xmlns="http://www.w3.org/2000/svg" xmlns:xlink="http://www.w3.org/1999/xlink" x="0px" y="0px"
	 viewBox="0 0 600 600" style="enable-background:new 0 0 600 600;" xml:space="preserve">
<style type="text/css">
	.st0{display:none;}
	.st1{display:inline;}
	.st2{fill:url(#SVGID_1_);}
	.st3{fill:#DD6231;stroke:#FC6E23;stroke-miterlimit:10;}
	.st4{fill:#FC6E23;stroke:#FC6E23;stroke-miterlimit:10;}
	.st5{fill:#944121;}
	.st6{fill:#C5572C;}
	.st7{fill:none;}
	.st8{display:inline;fill:#FFFFFF;}
	.st9{font-family:'MyriadPro-Regular';}
	.st10{font-size:24.6025px;}
	.st11{font-size:17.0325px;}
	.st12{fill:#FD8B4F;}
	.st13{opacity:0.5;fill:#C5572C;enable-background:new    ;}
	.st14{fill:#D6D6CC;}
	.st15{fill:#132930;}
	.st16{fill:#040A0C;}
	.st17{opacity:0.2;}
	.st18{fill:#F0F0F0;}
	.st19{fill:#FC6E23;}
	.st20{fill:#FEE159;}
	.st21{fill:#FFFFEE;}
	.st22{fill:#BDC3C7;}
	.st23{fill:#60ACBE;}
	.st24{fill:#488CA7;}
	.st25{fill:#ECF0F1;}
	.st26{fill:none;stroke:#132930;stroke-width:2;stroke-miterlimit:10;}
	.st27{fill:#262D30;}
	.st28{fill:#0A171D;}
	.st29{fill:#FFFFFF;}
	.st30{fill:#C1C1B9;}
	.st31{fill:none;stroke:#FFFFFF;stroke-width:0.5;stroke-miterlimit:10;}
	.st32{opacity:0.2;fill:#D6D6CC;enable-background:new    ;}
	.st33{fill:#18363D;}
	.st34{display:none;fill:#FFFFFF;}
</style>
<g id="Layer_2" class="st0">
	<rect x="-1.4" y="-1.4" class="st1" width="750" height="753"/>
</g>
<g id="Layer_1">
	<g id="island">
		<radialGradient id="SVGID_1_" cx="300" cy="300" r="300" gradientUnits="userSpaceOnUse">
			<stop  offset="0" style="stop-color:#231F20;stop-opacity:0"/>
			<stop  offset="0.3825" style="stop-color:#252122;stop-opacity:0.1147"/>
			<stop  offset="0.5203" style="stop-color:#2C2829;stop-opacity:0.1561"/>
			<stop  offset="0.6185" style="stop-color:#373334;stop-opacity:0.1856"/>
			<stop  offset="0.6979" style="stop-color:#484445;stop-opacity:0.2094"/>
			<stop  offset="0.766" style="stop-color:#5D5A5B;stop-opacity:0.2298"/>
			<stop  offset="0.8262" style="stop-color:#787676;stop-opacity:0.2479"/>
			<stop  offset="0.8807" style="stop-color:#989697;stop-opacity:0.2642"/>
			<stop  offset="0.9308" style="stop-color:#BDBCBC;stop-opacity:0.2792"/>
			<stop  offset="0.9754" style="stop-color:#E5E5E5;stop-opacity:0.2926"/>
			<stop  offset="1" style="stop-color:#FFFFFF;stop-opacity:0.3"/>
		</radialGradient>
		<circle class="st2" cx="300" cy="300" r="300"/>
		<g id="planet">
			<g>
				<ellipse class="st3" cx="300.3" cy="301.1" rx="169.7" ry="168.9"/>
				<path class="st4" d="M462.6,251.3C442,181.2,376.9,130,299.7,130C206,130,130,205.6,130,298.9c0,39,13.3,74.9,35.6,103.5
					c28.2,14.4,60.1,22.6,93.9,22.6C362.5,425,447.7,349.6,462.6,251.3z"/>
			</g>
			<g>
				<path class="st5" d="M448.3,369.4c-3.2,6.6-8,10.8-10.9,9.5s-2.6-7.8,0.6-14.3c3.2-6.6,8-10.8,10.9-9.5
					C451.7,356.4,451.5,362.8,448.3,369.4z"/>
				<path class="st6" d="M349.7,226.3c-1.8,3.5-6.9,4.4-11.5,2.1c-4.6-2.3-6.9-7-5.1-10.5c1.8-3.5,6.9-4.4,11.5-2.1
					C349.1,218.1,351.4,222.8,349.7,226.3z"/>
				<path class="st6" d="M220,276.8c3.7,1.2,5.4,6,3.9,10.8c-1.6,4.7-5.9,7.6-9.6,6.3c-3.7-1.2-5.4-6-3.9-10.8
					C212,278.4,216.3,275.6,220,276.8z"/>
				<path class="st6" d="M352,424.1c4.8,7.7,21.5,5.9,37.2-3.9c15.7-9.8,24.5-24,19.7-31.6c-4.8-7.7-21.5-5.9-37.2,3.9
					C355.9,402.3,347.1,416.5,352,424.1z"/>
				<path class="st5" d="M375,398.3c13.9-8.7,28.6-11,35.1-6.1c-0.1-1.5-0.5-2.8-1.3-4c-4.8-7.7-21.5-5.9-37.2,3.9
					c-15.7,9.8-24.5,24-19.7,31.6c0.5,0.9,1.2,1.6,2,2.2C353.4,418,361.8,406.6,375,398.3z"/>
				<path class="st6" d="M431.9,312.1c-3.6,15.5-15.6,25.9-26.7,23.4s-17.2-17.2-13.5-32.7c3.6-15.5,15.6-25.9,26.7-23.4
					C429.5,282,435.6,296.6,431.9,312.1z"/>
				<path class="st5" d="M391.3,311.7c3.6-15.5,15.6-25.9,26.7-23.4c8.3,1.9,13.7,10.5,14.5,21.1c2.4-14.5-3.6-27.6-14.1-30
					c-11.1-2.6-23.1,7.9-26.7,23.4c-0.9,4-1.2,7.9-1,11.6C390.9,313.4,391.1,312.5,391.3,311.7z"/>
				<path class="st6" d="M264.4,338.6c8.3,18.1,5.3,37.2-6.7,42.6s-28.3-4.9-36.6-23s-5.3-37.2,6.7-42.6
					C239.7,310.1,256.1,320.4,264.4,338.6z"/>
				<path class="st5" d="M229.5,322.7c12-5.4,28.3,4.9,36.6,23c1,2.1,1.8,4.2,2.4,6.3c-0.7-4.4-2.1-9-4.1-13.5
					c-8.3-18.1-24.7-28.4-36.6-23c-10.6,4.8-14.1,20.2-9.1,36.3C216.6,338.5,220.5,326.8,229.5,322.7z"/>
				<path class="st6" d="M277.5,430.7c-2.7,7.8-18.9,9.3-36.2,3.3c-17.3-6-29.1-17.1-26.4-24.9c2.7-7.8,18.9-9.3,36.2-3.3
					S280.2,422.9,277.5,430.7z"/>
				<path class="st5" d="M216.6,416.9c2.7-7.8,18.9-9.3,36.2-3.3c11.9,4.1,21.2,10.6,24.9,16.8c2-7.8-9.7-18.5-26.5-24.3
					c-17.3-6-33.5-4.5-36.2,3.3c-0.8,2.4-0.3,5.2,1.4,8C216.5,417.2,216.6,417.1,216.6,416.9z"/>
				<path class="st6" d="M182.1,232c-7.7,19.2-6.9,37.5,1.8,40.9c8.7,3.4,21.9-9.3,29.6-28.5c7.7-19.2,6.9-37.5-1.8-40.9
					C203,200.1,189.8,212.8,182.1,232z"/>
				<path class="st5" d="M181.6,238.2c7.7-19.2,22-31.5,32-27.6c1.8,0.7,3.3,1.9,4.6,3.5c-0.9-5.5-3.1-9.5-6.7-10.9
					c-8.7-3.4-21.9,9.3-29.6,28.5c-4.3,10.8-6,21.4-5,29.1C176.8,254,178.4,246.2,181.6,238.2z"/>
				<path class="st6" d="M367.1,172.1c-2.7,9.6-20.6,12.9-40.1,7.5c-19.4-5.4-33-17.5-30.3-27.1c2.7-9.6,20.6-12.9,40.1-7.5
					S369.8,162.5,367.1,172.1z"/>
				<path class="st5" d="M336.2,145c-19.4-5.4-37.4-2-40.1,7.5c-0.4,1.4-0.4,2.8-0.2,4.2c5.6-6.9,21.4-8.8,38.3-4.1
					c16.7,4.6,29,14.2,30.5,22.9c0.8-1,1.5-2.2,1.8-3.4C369.2,162.5,355.7,150.4,336.2,145z"/>
				<path class="st6" d="M185.1,321.8c5.5,17.7,3.9,34-3.8,36.4c-7.6,2.4-18.3-10.1-23.8-27.8s-3.9-34,3.8-36.4
					C168.9,291.7,179.5,304.1,185.1,321.8z"/>
				<path class="st5" d="M165.1,334c-5.5-17.7-3.9-34,3.8-36.4c0.7-0.2,1.4-0.3,2.1-0.3c-3.4-3-6.8-4.3-9.8-3.4
					c-7.6,2.4-9.3,18.6-3.8,36.4c5,16.1,14.3,27.9,21.7,28.1C173.8,353.8,168.5,344.9,165.1,334z"/>
				<path class="st6" d="M353.3,447.5c1.2,4-9,10.5-22.7,14.3s-25.7,3.8-26.8-0.3c-1.2-4,9-10.5,22.7-14.3S352.2,443.5,353.3,447.5z
					"/>
				<path class="st5" d="M329.3,451.2c10-2.8,19-3.5,23.7-2.1c0.2-0.5,0.2-1,0.1-1.5c-1.2-4-13.2-4.2-26.8-0.3
					c-13.7,3.9-23.8,10.3-22.7,14.3c0.3,1.1,1.4,1.9,3.2,2.4C307.9,460,317.3,454.6,329.3,451.2z"/>
				<path class="st6" d="M366.3,344.5c2.9,5-0.3,12.2-7,16.1c-6.8,3.9-14.6,3-17.5-2s0.3-12.2,7-16.1
					C355.5,338.6,363.4,339.5,366.3,344.5z"/>
				<path class="st5" d="M350.2,347c6.3-3.6,13.6-3.1,16.8,1.1c0-1.4-0.4-2.7-1.1-3.9c-2.9-5-10.7-5.9-17.5-2
					c-6.8,3.9-9.9,11.1-7,16.1c0.2,0.3,0.4,0.6,0.6,0.9C342,354.8,345,349.9,350.2,347z"/>
				<path class="st6" d="M421.3,220.2c11.5,19.8,14.1,39.7,5.8,44.4c-8.3,4.7-24.3-7.5-35.7-27.2c-11.5-19.8-14.1-39.7-5.8-44.4
					C393.8,188.2,409.8,200.4,421.3,220.2z"/>
				<path class="st5" d="M401.3,245.1c-11.5-19.8-14.1-39.7-5.8-44.4c3.3-1.9,7.8-1.1,12.7,1.8c-8.3-8.1-16.6-11.9-21.8-8.9
					c-8.3,4.7-5.6,24.6,5.8,44.4c6.9,11.9,15.5,21.1,23,25.5C410.4,258.6,405.6,252.4,401.3,245.1z"/>
				<path class="st6" d="M154.1,225.6c-4.2,7.3-5.1,14.6-2,16.4c3.1,1.8,9.1-2.7,13.3-9.9c4.2-7.3,5.1-14.6,2-16.4
					C164.2,213.8,158.3,218.3,154.1,225.6z"/>
				<path class="st5" d="M159.2,229.5c3-5.2,6.9-8.9,10-10c-0.1-2-0.7-3.5-1.8-4.2c-3.1-1.8-9.1,2.7-13.3,9.9
					c-4.2,7.3-5.1,14.6-2,16.4c0.9,0.5,2,0.5,3.3,0.1C155.2,238.5,156.6,234,159.2,229.5z"/>
				<path class="st6" d="M247.4,148.7c2.3,3.5-5.1,12.5-16.7,20.2c-11.6,7.7-22.8,11.1-25.2,7.6c-2.3-3.5,5.1-12.5,16.7-20.2
					C233.8,148.6,245.1,145.3,247.4,148.7z"/>
				<path class="st5" d="M225,161.4c8.9-5.9,17.5-9.2,22.2-8.9c0.7-1.7,0.8-3,0.2-4c-2.3-3.5-13.6-0.1-25.2,7.6
					c-11.6,7.7-19,16.7-16.7,20.2c0.5,0.8,1.6,1.3,3,1.3C210.4,173.3,216.7,167,225,161.4z"/>
				<ellipse class="st6" cx="305.2" cy="282.4" rx="36.2" ry="36"/>
				<path class="st5" d="M272.9,292c0-19.9,16.2-36,36.2-36c13,0,24.4,6.8,30.8,17.1c-4-15.5-18.2-27-35.1-27
					c-20,0-36.2,16.1-36.2,36c0,7,2,13.4,5.4,18.9C273.3,298.2,272.9,295.2,272.9,292z"/>
				<path class="st6" d="M260.3,230c-4,8.3-12.3,12.5-18.5,9.6s-8-12.1-3.9-20.3c4-8.3,12.3-12.5,18.5-9.6
					C262.5,212.6,264.3,221.7,260.3,230z"/>
				<path class="st5" d="M240.1,224.8c4-8.3,12.3-12.5,18.5-9.6c1.2,0.6,2.3,1.4,3.2,2.5c-0.8-3.5-2.7-6.4-5.7-7.8
					c-6.2-3-14.5,1.3-18.5,9.6c-3.2,6.6-2.7,13.8,0.8,17.9C237.6,233.6,238.1,229.1,240.1,224.8z"/>
				<path class="st6" d="M180.8,383.9c9.4,11.2,14.3,22.6,10.9,25.4c-3.4,2.8-13.7-4.1-23.1-15.3c-9.4-11.2-14.3-22.6-10.9-25.4
					C161.1,365.8,171.4,372.7,180.8,383.9z"/>
				<path class="st5" d="M160.5,374.8c3.4-2.8,13.7,4.1,23.1,15.3c3.4,4.1,6.2,8.1,8.2,11.8c-1.7-4.9-5.6-11.5-11-18
					c-9.4-11.2-19.7-18.1-23.1-15.3c-2.2,1.8-0.9,7.1,2.7,13.6C159.2,378.6,159.1,375.9,160.5,374.8z"/>
				<path class="st6" d="M323.1,396.6c1.4,4.3-2.5,9.4-8.6,11.3c-6.1,1.9-12.2-0.1-13.5-4.4s2.5-9.4,8.6-11.3
					C315.7,390.3,321.7,392.3,323.1,396.6z"/>
				<path class="st5" d="M309.7,391.9c-6.1,1.9-10,6.9-8.6,11.3c0.3,0.9,0.8,1.7,1.4,2.4c0.8-3.3,4.1-6.4,8.7-7.8
					c4.8-1.5,9.6-0.6,12.1,2c0.3-1.1,0.3-2.3-0.1-3.4C321.9,391.9,315.8,390,309.7,391.9z"/>
			</g>
		</g>
	</g>
	<g>
		<rect x="223.3" y="16.6" class="st7" width="153.4" height="46.4"/>
		<text transform="matrix(1 0 0 1 253.047 34.0833)" class="st0"><tspan x="0" y="0" class="st8 st9 st10">CicaLand</tspan><tspan x="24.1" y="20.4" class="st8 st9 st11">level 2</tspan></text>
	</g>
	<g id="spaceStation_1_">
		<g>
			<g>
				<path class="st12" d="M331.1,87.4c0,1.3-12.4,3.6-27.9,3.6s-27.9-2.4-27.9-3.6c0-1.3,12.4-3.2,27.9-3.2S331.1,86.2,331.1,87.4z"
					/>
				<path class="st13" d="M303.2,84.5c-15.8,0.4-27.7,1.8-27.7,3c0,1.1,12.2,3.1,27.8,3.6L303.2,84.5z"/>
				<path class="st14" d="M303.2,91.5c-9.3,0-16.4-0.8-19.7-1.3c-8.4-1.3-8.4-2.3-8.4-2.7c0-0.4,0-1.4,8.4-2.4
					c5.7-0.7,12.7-1.1,19.7-1.1s14,0.4,19.7,1.1c8.4,1,8.4,2,8.4,2.4c0,0.4,0,1.4-8.4,2.7C319.5,90.6,312.5,91.5,303.2,91.5z
					 M275.7,87.4c1.2,1,12.4,3.3,27.5,3.3s26.2-2.2,27.5-3.3c-1.3-1-12.3-2.8-27.5-2.8C288,84.6,277,86.5,275.7,87.4z"/>
			</g>
			<g>
				<g>
					<path class="st15" d="M330.9,86.7c-18.5-2.8-36.9-2.9-55.4-0.2c-0.6-5.9-0.5-8.5-0.5-14c19-3.4,37.6-3.3,56.6-0.1
						C331.5,78.2,331.4,80.9,330.9,86.7z"/>
					<path class="st16" d="M302.8,84.2c-9.1,0-18.3,0.6-27.4,2.2c-0.6-5.6-0.5-8.2-0.5-13.6c9.3-1.8,18.5-2.9,27.8-2.9
						C302.8,75.6,302.8,78.5,302.8,84.2z"/>
					<path class="st14" d="M331.1,87.1c-18.7-2.9-37.2-3-55.9-0.2c-0.6-6.2-0.6-9-0.6-14.8c19.2-3.6,38-3.5,57.2-0.1
						C331.8,78.2,331.7,81,331.1,87.1z M275.7,86c18.4-2.6,36.6-2.5,54.9,0.2c0.5-5.5,0.6-8.1,0.6-13.6c-18.8-3.2-37.2-3.3-56,0.1
						C275.2,77.9,275.2,80.5,275.7,86z"/>
				</g>
			</g>
			<g class="st17">
				<path class="st18" d="M331.1,72.1c-6.4-8.8-16.8-15.6-27.9-15.6c-11.1,0-21.2,6.7-27.6,15.5c0,0,21.4-2.3,27.6-2.2
					C309.3,69.8,331.1,72.1,331.1,72.1z"/>
				<path class="st18" d="M331.9,72.5l-0.8-0.1c-0.2,0-21.9-2.3-28-2.3s-27.3,2.2-27.5,2.2l-0.8,0.1l0.6-0.8
					c7.1-9.8,17.5-15.6,27.9-15.6c10.3,0,21.1,6,28.1,15.7L331.9,72.5z M302.9,69.3L302.9,69.3c5.5,0,23.2,1.8,27.2,2.2
					c-7-9-17.3-14.7-27.1-14.7s-19.8,5.4-26.9,14.6C280.3,71.1,297.4,69.3,302.9,69.3z"/>
			</g>
			<path class="st14" d="M288.1,70.6l0.4-0.7c3.9-6.3,9.5-13.8,14.4-13.8c0.1,0,0.1,0,0.1,0c3.6,0.1,8,4.4,13.8,13.7l0.4,0.7
				l-0.7-0.1c-0.1,0-10.7-0.7-13.7-0.7s-14.1,0.8-14.2,0.8L288.1,70.6z M303,56.9c-3.5,0-8.3,4.5-13.5,12.8
				c2.5-0.1,10.7-0.7,13.4-0.7c0.1,0,0.1,0,0.1,0c2.6,0,10.6,0.5,13,0.7C310.6,61.1,306.4,57,303,56.9L303,56.9z"/>
			<g>
				<path class="st14" d="M332.5,83.5c-1.3-0.8-10.7-2.9-28.8-2.9c-0.3,0-0.5,0-0.8,0c-17.8,0.1-27.1,1.9-29.5,3.3
					c-0.3,0.2-0.4,0.5-0.4,0.7c0,0.2,0.1,0.7,2,1.3l0.1-0.7c-0.6-0.1-1.1-0.4-1.3-0.5c2.5-1.5,11.7-3.2,29.3-3.2
					c18.5-0.1,28,2.1,29.3,2.8c0.1,0,0.1,0.1,0.1,0.1c-0.2,0.1-0.7,0.4-1.2,0.5v0.7c1.2-0.2,1.8-0.7,1.9-1.2
					C333.2,83.8,332.7,83.6,332.5,83.5z"/>
				<path class="st14" d="M332.5,79.6c-1.3-0.8-10.7-2.9-28.8-2.9c-0.3,0-0.5,0-0.8,0c-17.8,0.1-27.1,1.9-29.6,3.3
					c-0.3,0.2-0.4,0.5-0.4,0.7c0,0.2-0.1,0.7,1.9,1.3l-0.1-0.8c-0.6-0.1-0.9-0.3-1.1-0.5c2.5-1.5,11.7-3.2,29.3-3.2
					c0.3,0,0.6,0,0.8,0c18,0,27.2,2,28.5,2.7c0.1,0.1,0.2,0.1,0.3,0.2c-0.1,0.1-0.7,0.2-1,0.3v0.8c0.7-0.1,1.6-0.4,1.7-1
					C333.3,79.9,332.7,79.7,332.5,79.6z"/>
				<path class="st14" d="M332.9,75.9c-1.3-0.7-11-2.9-29.2-2.9c-0.3,0-0.5,0-0.8,0c-17.8,0.1-27.1,1.9-29.6,3.3
					c-0.4,0.2-0.6,0.5-0.6,0.7c0,0.1,0.1,0.7,1.9,1.2l-0.1-0.8c-0.5,0-0.8-0.1-1.1-0.4c0-0.6,11.8-3.2,29.4-3.3
					c18.6-0.1,28.4,2.1,29.7,2.8c0.1,0,0.1,0.1,0.1,0.1c-0.2,0.1-0.6,0.2-1,0.3l-0.1,0.8c1.1-0.2,1.7-0.5,1.7-1
					C333.5,76.2,333,75.9,332.9,75.9z"/>
				<path class="st14" d="M333.3,72c-1.4-0.8-11.3-3-30.4-2.9c-18.4,0.1-27.9,1.9-30.4,3.3c-0.3,0.2-0.4,0.5-0.3,0.7
					c0,0.2-0.1,0.8,2.6,1.3l0.1-0.8c-0.8-0.1-1.4-0.4-1.8-0.6c2.7-1.4,12.2-3.1,30.1-3.2c19.1-0.1,28.8,2.1,30.2,2.8
					c0.1,0,0.1,0.1,0.1,0.1c-0.3,0.1-0.9,0.4-1.6,0.5l0.1,0.7c1.3-0.3,2.1-0.7,2.1-1.3C333.9,72.4,333.5,72.2,333.3,72z"/>
			</g>
			<path class="st14" d="M331.9,72.1L331,72c-0.2,0-21.9-2.2-28-2.2s-27.3,2.2-27.5,2.2l-0.8,0.1l0.6-0.7
				c7.1-9.5,17.5-15.1,27.9-15.1c10.3,0,21.1,5.9,28.1,15.2L331.9,72.1z M302.9,68.9L302.9,68.9c5.4,0,22.8,1.8,26.8,2.2
				c-6.8-8.7-16.9-14.2-26.6-14.2c-9.7,0-19.5,5.3-26.4,14.2C280.6,70.6,297.4,68.9,302.9,68.9z"/>
			<path class="st14" d="M308.2,130.5v0.4c0,0.3-0.4,0.2-1,0.2l0,0l0,0c-0.4,0-0.8,0.1-1-0.1v-0.1l0,0v-0.4c-1,0-2.1-0.1-3.2-0.1
				c-1.1,0-2,0-3,0v0.4c0,0.3-0.4,0.2-1,0.2l0,0l0,0c-0.1,0-0.3,0-0.4,0c-0.3,0-0.6,0-0.6-0.2v-0.4c-3.1,0.1-5.3,0.4-5.3,0.7
				c0,0.4,4.5,0.8,10.2,0.8c5.6,0,10.2-0.4,10.2-0.8C313.2,130.9,311.2,130.7,308.2,130.5z"/>
			<g>
				<g>
					<path class="st18" d="M298.8,131.3L298.8,131.3c-0.6,0-1,0.1-1-0.6V89c0-0.7,0.4-1.1,1-1.1l0,0c0.6,0,1,0.4,1,1.1v41.7
						C299.9,131.5,299.4,131.3,298.8,131.3z"/>
				</g>
				<path class="st14" d="M298.8,87.9c-0.6,0-1,0.4-1,1.1v41.7c0,0.7,0.4,0.6,1,0.6l0,0V87.9z"/>
			</g>
			<g>
				<g>
					<path class="st18" d="M307.5,131.5L307.5,131.5c-0.6,0-1,0.1-1-0.6V89.1c0-0.7,0.4-1.1,1-1.1l0,0c0.6,0,1,0.4,1,1.1v41.7
						C308.5,131.6,308,131.5,307.5,131.5z"/>
				</g>
				<path class="st14" d="M307.5,88c-0.6,0-1,0.4-1,1.1v41.7c0,0.7,0.4,0.6,1,0.6l0,0V88z"/>
			</g>
		</g>
		<g>
			<g id="fire1_7_">
				<path id="fire_x5F_orange_10_" class="st19" d="M319.1,117.5c0.8,0.3,0.8,1.1,0.7,1.6c-0.2,1.3-3.1,2.4-3.1,2.4
					s-0.6-2.7,0.4-3.7C317.6,117.4,318.4,117.2,319.1,117.5z"/>
				<path id="fire_x5F_yellow_10_" class="st20" d="M319.1,117.5c0.3,0.1,0.3,0.5,0.3,0.7c-0.1,0.6-1.4,1.1-1.4,1.1
					s-0.3-1.2,0.2-1.6C318.4,117.4,318.8,117.3,319.1,117.5z"/>
			</g>
			<g>
				<path class="st21" d="M320.8,113.9l-1.5-0.2c-0.1,0-0.1,0-0.1,0s-0.1,0-0.1,0.1l-3.5,2.3l-0.5-0.1c-0.2,0-0.3,0.1-0.4,0.3
					c0,0.1,0.1,0.3,0.3,0.3l1.5,0.2c0.2,0,0.3-0.1,0.4-0.3c0-0.1-0.1-0.3-0.3-0.3l-0.2,0l2.9-1.9l1.4,0.2c0.2,0,0.3-0.1,0.4-0.3
					C321.2,114.1,320.9,114,320.8,113.9z"/>
				<path class="st21" d="M331.6,118.4l-0.5-0.1l-2.4-3.1l-0.1-0.1l-0.1,0l-1.5-0.2c-0.2,0-0.3,0.1-0.4,0.3c0,0.1,0.1,0.3,0.3,0.3
					l1.4,0.2l2,2.6l-0.2,0c-0.2,0-0.3,0.1-0.4,0.3c0,0.1,0.1,0.3,0.3,0.3l1.5,0.2c0.2,0,0.3-0.1,0.4-0.3
					C331.8,118.5,331.8,118.4,331.6,118.4z"/>
				<path class="st21" d="M323.9,117.3l-0.3,0l0.4-2c0-0.1-0.1-0.3-0.3-0.3c-0.2,0-0.3,0.1-0.4,0.3l-0.4,2l-0.3,0
					c-0.2,0-0.3,0.1-0.4,0.3c0,0.1,0.1,0.3,0.3,0.3l1.2,0.2c0.2,0,0.3-0.1,0.4-0.3C324.2,117.4,324,117.3,323.9,117.3z"/>
			</g>
			<polygon class="st22" points="321,112.6 327.2,113.4 327,114.3 320.9,113.4 			"/>
			<path class="st14" d="M326.4,101.1L326.4,101.1c-0.8-0.1-1.7,0.1-2.3,0.4l0,0c-1.6,1-2.7,2.5-3,4.2l-1.5,7.5l1.2,0.2l0.2-0.9
				l6.1,0.8l-0.2,0.9l1.2,0.2l1.5-7.5c0.3-1.7-0.1-3.4-1.3-4.8l0,0C328,101.5,327.2,101.2,326.4,101.1z"/>
			<g>
				<polygon class="st23" points="329.8,106.2 321.2,105 321.1,105.5 327,106.3 326.7,107.8 327.3,107.9 327.6,106.4 329.7,106.7 
									"/>
				<polygon class="st23" points="326.2,110.6 326.8,110.7 326.3,113.3 325.7,113.2 				"/>
			</g>
			<path class="st6" d="M321.3,111.1c0.2,0,0.3,0.2,0.3,0.3c0,0.2-0.2,0.3-0.4,0.3c-0.2,0-0.3-0.2-0.3-0.3
				C321,111.2,321.2,111.1,321.3,111.1z"/>
			<path class="st6" d="M322.5,111.2c0.2,0,0.3,0.2,0.3,0.3c0,0.2-0.2,0.3-0.4,0.3c-0.2,0-0.3-0.2-0.3-0.3S322.3,111.2,322.5,111.2z
				"/>
			<path class="st6" d="M323.8,111.4c0.2,0,0.3,0.2,0.3,0.3c0,0.2-0.2,0.3-0.4,0.3c-0.2,0-0.3-0.2-0.3-0.3
				C323.5,111.5,323.6,111.4,323.8,111.4z"/>
			<path class="st6" d="M325,111.6c0.2,0,0.3,0.2,0.3,0.3c0,0.2-0.2,0.3-0.4,0.3c-0.2,0-0.3-0.2-0.3-0.3
				C324.7,111.7,324.8,111.6,325,111.6z"/>
			<path class="st6" d="M327.5,111.9c0.2,0,0.3,0.2,0.3,0.3c0,0.2-0.2,0.3-0.4,0.3s-0.3-0.2-0.3-0.3
				C327.1,112,327.3,111.9,327.5,111.9z"/>
			<polygon class="st23" points="319.8,112.4 318.3,111.9 318.4,111.3 320,111.2 			"/>
			<polygon class="st23" points="328.6,112.4 330.2,112.9 330,113.5 328.4,113.6 			"/>
			<g>
				<path class="st15" d="M327,107.9c0.8,0.1,1.4,0.8,1.2,1.6c-0.2,0.8-1,1.3-1.8,1.2c-0.8-0.1-1.4-0.8-1.2-1.6
					S326.2,107.7,327,107.9z"/>
				<path class="st24" d="M326.4,110.9c-1-0.1-1.7-1-1.5-1.9c0.2-1,1.1-1.6,2.2-1.4c1,0.1,1.7,1,1.5,1.9
					C328.4,110.5,327.4,111.1,326.4,110.9z M327,108.1c-0.7-0.1-1.3,0.4-1.4,0.9c-0.1,0.7,0.3,1.2,1,1.3c0.6,0.1,1.3-0.4,1.4-0.9
					S327.6,108.2,327,108.1z"/>
			</g>
			<polygon class="st21" points="320.8,107 320.7,107.5 322.9,107.8 322.8,108.1 320.7,107.8 320.5,108.4 322.7,108.7 322.6,109 
				320.5,108.7 320.4,109.2 322.5,109.5 322.5,109.8 320.3,109.5 320.2,110.1 323,110.5 323.6,107.4 			"/>
			<polygon class="st21" points="320.9,113.4 327,114.2 326.8,115.6 320.6,114.8 			"/>
			<g id="fire1_2_">
				<path id="fire_x5F_orange_7_" class="st19" d="M326.7,118.6c-0.8,0.1-1.1,0.8-1.3,1.3c-0.3,1.3,2,3.1,2,3.1s1.6-2.3,1-3.6
					C328.2,118.9,327.5,118.5,326.7,118.6z"/>
				<path id="fire_x5F_yellow_7_" class="st20" d="M326.7,118.6c-0.3,0-0.5,0.4-0.6,0.6c-0.1,0.6,0.9,1.4,0.9,1.4s0.7-1,0.5-1.6
					C327.4,118.7,327.1,118.5,326.7,118.6z"/>
			</g>
		</g>
		<g>
			<polygon class="st21" points="282.3,119.4 287.9,125 285.8,107.9 280.9,108.2 			"/>
			<path class="st21" d="M282.7,102.8c-1.2,1-1.8,2.5-1.9,4.3l4.8-0.3C285.1,105.1,284.1,103.6,282.7,102.8z"/>
			<path class="st21" d="M267.9,103.7c-1.2,1-1.8,2.5-1.9,4.3l4.8-0.3C270.3,106.1,269.3,104.6,267.9,103.7z"/>
			<polygon class="st21" points="268.2,126.3 272.4,120.1 271,108.9 266.1,109.2 			"/>
			<path class="st14" d="M280.8,107.1c0,0.3,0,0.7,0.1,1.1l0,0.1l4.9-0.3l0-0.1c0-0.3-0.1-0.7-0.2-1.1L280.8,107.1z"/>
			<path class="st14" d="M266,108.1c0,0.3,0,0.7,0.1,1.1l0,0.1l4.9-0.3l0-0.1c0-0.3-0.1-0.7-0.2-1.1L266,108.1z"/>
			<path class="st12" d="M281.9,127.8l-1.4-2.8l-1-8.3l2.8,2.7l-1.3-10.3c-0.5-4.2-2.8-7.9-6-9.9c-0.2-0.1-0.3-0.1-0.4,0
				c-2.6,2.4-4,6.4-3.5,10.6l1.3,10.3l2.1-3.1l1,8.2l-0.6,3l0.1,0.6l0.2,1.2l0,0l6.9-0.5l0,0L281.9,127.8L281.9,127.8z"/>
			<path class="st15" d="M289.4,132.6l-5.9,0.4c-0.2,0-0.3-0.2-0.2-0.3l0.2-3.2l4.9-0.3l1,3.1C289.6,132.5,289.6,132.6,289.4,132.6z
				"/>
			<path class="st15" d="M274.6,133.6l-5.9,0.4c-0.2,0-0.3-0.2-0.2-0.3l0.2-3.2l4.9-0.3l1,3.1C274.9,133.4,274.8,133.6,274.6,133.6z
				"/>
			<path class="st25" d="M280.5,124.9l-1.9-15.3c-0.2-1.9-1.1-3.5-2.3-4.8c-0.5-0.5-1.1-0.4-1.5,0.1c-0.9,1.4-1.3,3.2-1.1,5
				l1.9,15.3l-0.6,3l0.2,1.8l6.9-0.5l-0.2-1.8L280.5,124.9z"/>
			<polygon class="st14" points="282.1,129.6 290.9,129 290.8,127.8 279.5,116.7 280.5,124.9 281.9,127.8 282.1,129.5 			"/>
			<polygon class="st14" points="275.2,130 275.1,128.8 275,128.3 275.6,125.2 274.6,117 266.2,129.4 266.3,130.6 275.2,130 			"/>
			<polygon class="st24" points="267,128.2 266.2,129.4 266.3,130.6 275.2,130 275.2,130 275.1,128.8 275,128.3 275.1,127.6 			"/>
			<polygon class="st24" points="281.9,127.8 282.1,129.5 282.1,129.6 290.9,129 290.8,127.8 289.6,126.7 281.6,127.2 			"/>
			<path class="st15" d="M277.1,110.3l-2,0.1l-0.2-1.2c-0.1-0.7,0.3-1.2,0.8-1.3l0,0c0.5,0,1.1,0.4,1.1,1.1L277.1,110.3L277.1,110.3
				z"/>
			<line class="st26" x1="276.9" y1="124" x2="277.1" y2="125.7"/>
			<line class="st26" x1="278.8" y1="123.9" x2="279" y2="125.6"/>
			<polygon class="st15" points="281.3,131.4 276.4,131.7 276.7,129.9 280.6,129.7 			"/>
			<line class="st26" x1="278.6" y1="129.7" x2="278.3" y2="127.4"/>
		</g>
	</g>
	<g id="factory_4_">
		<g id="factoryGroup_4_">
			<g>
				<path class="st27" d="M279.6,75.9L279.6,75.9c-5.5,0-9.9,4.2-9.9,9.4l-0.1,33.1c0,3.5,3.5,6.4,8.2,6.9l0,1l3.7,0l0-0.9
					c4.6-0.6,8.1-3.5,8.1-6.9l0.1-33.1C289.5,80.1,285.1,75.9,279.6,75.9z"/>
				<path class="st28" d="M275.2,118.1l0.1-32.6c0-4.3,3.4-7.9,8.1-9c-0.9-0.2-1.8-0.4-2.8-0.4l0,0c-6,0-10.9,4.2-10.9,9.2
					l-0.1,32.6c0,3.4,3.8,6.2,8.9,6.8l0,1l4,0l0-1c0.3,0,0.6-0.1,0.8-0.1C278.7,124,275.2,121.3,275.2,118.1z"/>
				<path class="st29" d="M281.8,126.7l-4.5,0l0-1c-4.8-0.7-8.2-3.8-8.2-7.2l0.1-33.1c0-5.4,4.7-9.8,10.4-9.8
					c5.7,0,10.4,4.5,10.4,9.9l-0.1,33.1c0,3.5-3.4,6.5-8.1,7.2L281.8,126.7z M278.1,125.9l2.8,0l0-1l0.4-0.1
					c4.5-0.6,7.7-3.3,7.7-6.5l0.1-33.1c0-5-4.2-9.1-9.5-9.1c-5.3,0-9.6,4-9.6,9l-0.1,33.1c0,3.2,3.3,5.9,7.8,6.5l0.4,0.1
					L278.1,125.9L278.1,125.9z"/>
			</g>
			<path class="st20" d="M281.3,71.5l0-9.8c0-1.8,1.3-2.9,3.4-2.9l25.3,0c2.1,0,3.4,1,3.4,2.9l-0.1,59.7l2.8,0l0.1-62.1
				c0-1.8-1.6-3.2-3.8-3.2l-30.6,0c-2.1,0-3.8,1.5-3.8,3.2l0,17.4l3.2-0.9L281.3,71.5z"/>
			<g id="tartaly1_9_">
				
					<ellipse id="tartaly1_10_" transform="matrix(1.609268e-03 -1 1 1.609268e-03 196.525 432.6064)" class="st23" cx="314.9" cy="117.9" rx="14.5" ry="15.3"/>
				<path class="st24" d="M306.1,117.9c0-5.7,2.6-10.8,6.7-14.4c-7.4,0.9-13.2,7-13.2,14.4s5.7,13.3,13.1,14.4
					C308.7,128.7,306.1,123.6,306.1,117.9z"/>
			</g>
			
				<rect x="313.4" y="101.7" transform="matrix(1.445405e-03 -1 1 1.445405e-03 195.9245 433.3665)" class="st20" width="3.1" height="33.7"/>
			
				<rect x="314.1" y="99.1" transform="matrix(1.445405e-03 -1 1 1.445405e-03 211.5388 417.8248)" class="st20" width="1.7" height="7.8"/>
			<g>
				<polygon class="st20" points="297.7,132.8 296.7,132.8 302,120.1 303.1,120.1 				"/>
				
					<rect x="296.8" y="131.3" transform="matrix(1.445405e-03 -1 1 1.445405e-03 163.8404 429.663)" class="st20" width="0.6" height="2.9"/>
			</g>
			<g>
				<polygon class="st20" points="306.9,132.9 305.9,132.8 311.1,120.1 312.2,120.1 				"/>
				
					<rect x="305.9" y="131.3" transform="matrix(1.445405e-03 -1 1 1.445405e-03 173.0033 438.8657)" class="st20" width="0.6" height="2.9"/>
			</g>
			<g>
				<polygon class="st20" points="322.9,132.8 323.9,132.8 318.6,120.1 317.5,120.1 				"/>
				
					<rect x="323.2" y="131.3" transform="matrix(1.445405e-03 -1 1 1.445405e-03 190.31 456.0868)" class="st20" width="0.6" height="2.9"/>
			</g>
			<g>
				<polygon class="st20" points="331.9,132.9 332.9,132.9 327.7,120.2 326.6,120.2 				"/>
				
					<rect x="332.2" y="131.3" transform="matrix(1.445405e-03 -1 1 1.445405e-03 199.2522 465.1334)" class="st20" width="0.6" height="2.9"/>
			</g>
			
				<rect x="314.1" y="129.2" transform="matrix(1.445405e-03 -1 1 1.445405e-03 181.357 447.8662)" class="st20" width="1.7" height="7.8"/>
			
				<rect x="277.9" y="71.7" transform="matrix(1.445405e-03 -1 1 1.445405e-03 203.5734 355.1177)" class="st20" width="3.4" height="7.8"/>
			<polygon class="st29" points="291.5,133.2 288.2,121.5 290.5,121.5 290.5,119.8 268.8,119.7 268.8,121.5 270.6,121.5 
				267.3,133.3 266,133.3 266,133.9 269,133.9 269,133.3 268.3,133.3 271.7,121.5 276.8,121.5 273.4,133.2 272.1,133.1 272.1,133.8 
				275.2,133.8 275.2,133.2 274.5,133.2 277.9,121.5 281.2,121.5 284.6,133.2 283.7,133.2 283.7,133.9 286.9,133.9 286.9,133.2 
				285.6,133.2 282.3,121.5 287.1,121.5 290.4,133.2 289.7,133.2 289.7,133.9 292.8,133.9 292.8,133.2 			"/>
			
				<rect x="278.7" y="100.1" transform="matrix(1.445405e-03 -1 1 1.445405e-03 169.1042 389.335)" class="st29" width="1.6" height="19.8"/>
			
				<rect x="278.7" y="89" transform="matrix(1.445405e-03 -1 1 1.445405e-03 180.2697 378.2214)" class="st29" width="1.6" height="19.8"/>
			
				<rect x="278.8" y="78.7" transform="matrix(1.445405e-03 -1 1 1.445405e-03 190.5629 367.9761)" class="st29" width="1.6" height="19.8"/>
		</g>
	</g>
	<g id="mine_2_">
		<g id="mineGroup_3_">
			<g id="arm_x5F_front_3_">
				<g id="hand">
					<path class="st18" d="M387.5,284.5c0.2,2,0.6,3.6,1.3,4.6c0.3,0.5,0.6,0.8,1.1,1c0.2,0.1,0.4,0.2,0.7,0.4
						c0.3,0.1,0.5,0.3,0.8,0.3c1.1,0.3,1.5,0.5,2.7,0c1.2-0.5,2.5-1.7,4-3c0.3,1,0.2,2,0,3c-0.2,1-0.6,2-1.4,2.9
						c-0.7,0.9-1.8,1.7-3.2,2.1c-1.3,0.3-2.7,0.2-3.8-0.3c-0.6-0.2-1.1-0.5-1.6-0.8c-0.3-0.2-0.5-0.4-0.7-0.6
						c-0.2-0.2-0.5-0.4-0.7-0.6c-0.9-0.9-1.5-2.2-1.6-3.4C384.8,287.7,385.9,285.7,387.5,284.5z"/>
				</g>
				<polygon id="arm2_3_" class="st14" points="381.4,329.3 388.4,296.8 390.1,297.3 383.1,329.8 				"/>
				<polygon id="arm1_3_" class="st14" points="381.5,329.5 414.8,308.7 415.8,309.9 382.5,330.7 				"/>
				<path id="circe2_3_" class="st21" d="M391.4,297.5c-0.6,0.8-1.8,0.9-2.8,0.2s-1.2-1.9-0.6-2.7c0.6-0.8,1.8-0.9,2.8-0.2
					C391.7,295.5,392,296.8,391.4,297.5z M390,295.9c-0.3-0.2-0.6-0.2-0.8,0.1c-0.2,0.2-0.1,0.6,0.2,0.8c0.3,0.2,0.6,0.2,0.8-0.1
					C390.3,296.4,390.3,296.1,390,295.9z"/>
				<path id="circle1_3_" class="st21" d="M383.6,330.4c0,1-0.9,1.8-2.1,1.8c-1.2,0-2.1-0.8-2.1-1.8s0.9-1.8,2.1-1.8
					C382.7,328.5,383.6,329.3,383.6,330.4z M381.5,329.9c-0.3,0-0.6,0.2-0.6,0.5c0,0.3,0.2,0.5,0.6,0.5s0.6-0.2,0.6-0.5
					C382.2,330.1,381.9,329.9,381.5,329.9z"/>
			</g>
			<polygon id="arm_x5F_back_3_" class="st14" points="426.5,293 419.3,307.1 417.8,306.5 424.9,292.4 			"/>
			<g id="fire1_1_">
				<path id="fire_x5F_orange_3_" class="st23" d="M407,380.5c2.5,0,3.8,1.8,4.4,3.2c1.5,3.5-4.7,9.6-4.7,9.6s-5.8-6-4.4-9.8
					C402.9,381.9,404.8,380.5,407,380.5z"/>
				<path id="fire_x5F_yellow_3_" class="st21" d="M407,380.5c1.1,0,1.7,0.8,1.9,1.4c0.7,1.6-2.1,4.3-2.1,4.3s-2.6-2.6-1.9-4.3
					C405.2,381.1,406,380.5,407,380.5z"/>
			</g>
			<g id="fire2_3_">
				<path id="fire_x5F_orange_2_" class="st23" d="M430.1,381.1c2.5,0,3.8,1.8,4.4,3.2c1.5,3.5-4.7,9.6-4.7,9.6s-5.8-6-4.4-9.8
					C425.9,382.5,427.8,381.1,430.1,381.1z"/>
				<path id="fire_x5F_yellow_2_" class="st21" d="M430.1,381.1c1.1,0,1.7,0.8,1.9,1.4c0.7,1.6-2.1,4.3-2.1,4.3s-2.6-2.6-1.9-4.3
					C428.2,381.7,429,381.1,430.1,381.1z"/>
			</g>
			<g id="mine_x5F_base_3_">
				<g>
					<rect x="426.3" y="370.2" class="st21" width="7.2" height="6.4"/>
					<rect x="426.3" y="370.2" class="st14" width="3.7" height="6.4"/>
					<g>
						<rect x="424.5" y="376.5" class="st21" width="11" height="2.1"/>
						<rect x="424.7" y="376.5" class="st14" width="5.2" height="2.1"/>
						<path class="st14" d="M435.9,379h-11.8v-2.8h11.8V379z M424.9,378.3h10.3v-1.4h-10.3V378.3z"/>
					</g>
				</g>
				<g>
					<rect x="403.3" y="370.2" class="st21" width="7.2" height="6.4"/>
					<rect x="403.3" y="370.2" class="st14" width="3.7" height="6.4"/>
					<g>
						<rect x="401.4" y="376.5" class="st21" width="11" height="2.1"/>
						<rect x="401.7" y="376.5" class="st14" width="5.2" height="2.1"/>
						<path class="st14" d="M412.9,379h-11.8v-2.8h11.8V379z M401.8,378.3h10.3v-1.4h-10.3V378.3z"/>
					</g>
				</g>
				<g>
					<rect x="408.9" y="318.4" class="st14" width="8.8" height="4"/>
					<g>
						<rect x="417.7" y="318.4" class="st21" width="8.8" height="4.1"/>
					</g>
				</g>
				<path class="st21" d="M428,358.9l-4-36.5h-12.7l-4,36.5h-2v6.1h2.2v-5.1h20.8v5.1h2.2v-6.1H428z M425.4,351.2L425.4,351.2
					L425.4,351.2L425.4,351.2z M425.4,350.9l-6.7-3.2v-0.4l6-2.8L425.4,350.9z M418.7,337.2h4.7l-4.7,2.2V337.2z M418.7,343.7v-2.6
					l5.3,2.6H418.7z M424.1,344.2l-5.4,2.5v-2.5H424.1z M418.7,348.3l6.1,2.9h-6.1V348.3z M418.7,351.7h6.2l-6.2,2.7V351.7z
					 M418.7,340.6v-0.5l5.3-2.6l0.6,6L418.7,340.6z M423.2,330.4L423.2,330.4L423.2,330.4L423.2,330.4z M418.7,323.7h3.3l-3.3,2
					V323.7z M418.7,326.4l3.8-2.4l0.6,5.5l-4.4-2.6L418.7,326.4L418.7,326.4z M418.7,327.5l3.9,2.4h-3.9V327.5z M418.7,330.4h4
					l-4,2.1V330.4z M418.7,333.1l4.5-2.4l0.6,5.7l-5.1-2.9L418.7,333.1L418.7,333.1z M423.4,336.8h-4.7v-2.6L423.4,336.8z
					 M411.3,337.2L411.3,337.2L411.3,337.2L411.3,337.2z M416.9,336.8h-5l5-2.7V336.8z M416.9,330.4v2.2l-3.8-2.2H416.9z M413,329.9
					l3.9-2.4v2.4H413z M416.9,323.7v2.2l-3.6-2.2H416.9z M412.8,324l4.1,2.5v0.4l-4.7,3L412.8,324z M412.1,330.4l4.8,2.7v0.3l-5.4,3
					L412.1,330.4z M409,358.9L409,358.9L409,358.9L409,358.9z M416.9,358.9h-7.2l7.2-3.2V358.9z M416.9,355.2l-7.9,3.4l0.7-6.7
					l7.2,3.1V355.2z M416.9,354.5l-6.4-2.8h6.4V354.5z M416.9,351.2h-6.5l6.5-3V351.2z M416.9,347.6l-7,3.3l0.7-6.5l6.3,3V347.6z
					 M416.9,346.9l-5.6-2.6h5.6V346.9z M416.9,343.7h-5.8l5.8-2.8V343.7z M416.9,340.4l-6.2,3l0.6-5.8L416.9,340.4L416.9,340.4z
					 M411.9,337.2h5v2.4L411.9,337.2z M418.7,358.9v-3l6.9,3H418.7z M418.7,355.3V355l6.8-3l0.7,6.6L418.7,355.3z M426.3,358.9
					L426.3,358.9L426.3,358.9L426.3,358.9z"/>
				<path class="st14" d="M420.8,310.4h-6.4v8h6.4V310.4z M419.7,311.1l-2.1,2.7l-2.1-2.7H419.7z M415.2,311.9l1.9,2.6l-1.9,2.6
					V311.9z M415.5,317.8l2.1-2.7l2.1,2.7H415.5z M420,317l-1.9-2.6l1.9-2.6V317z"/>
				<path class="st14" d="M417.8,322.4h-6.5l-4,36.5h-2v6.1h2.2v-5.1h10.3L417.8,322.4L417.8,322.4z M411.3,337.2L411.3,337.2
					L411.3,337.2L411.3,337.2z M409,358.9L409,358.9L409,358.9L409,358.9z M416.9,358.9h-7.2l7.2-3.2V358.9z M416.9,355.2l-7.9,3.4
					l0.7-6.7l7.2,3.1V355.2z M416.9,354.5l-6.4-2.8h6.4V354.5z M416.9,351.2h-6.5l6.5-3V351.2z M416.9,347.6l-7,3.3l0.7-6.5l6.3,3
					V347.6z M416.9,346.9l-5.6-2.6h5.6V346.9z M416.9,343.7h-5.8l5.8-2.8V343.7z M416.9,340.4l-6.2,3l0.6-5.8L416.9,340.4
					L416.9,340.4z M416.9,339.8l-5-2.4h5V339.8z M416.9,336.8h-5l5-2.7V336.8z M416.9,333.5l-5.4,3l0.6-6l4.8,2.7V333.5z
					 M416.9,332.5l-3.8-2.2h3.8V332.5z M416.9,329.9H413l3.9-2.4V329.9z M416.9,326.8l-4.7,3l0.6-5.8l4.1,2.5L416.9,326.8
					L416.9,326.8z M413.3,323.7h3.6v2.2L413.3,323.7z"/>
				<path class="st21" d="M421.8,308.2c0,2-1.9,3.7-4.2,3.7s-4.2-1.6-4.2-3.7s1.9-3.7,4.2-3.7S421.8,306.2,421.8,308.2z
					 M417.6,307.2c-0.6,0-1.2,0.5-1.2,1s0.5,1,1.2,1c0.6,0,1.2-0.5,1.2-1C418.8,307.7,418.3,307.2,417.6,307.2z"/>
				<g id="minetalp_3_">
					<g>
						<path class="st21" d="M444,367.8h-52.2c-1,0-1.8-0.7-1.8-1.6V365h55.8v1.1C445.8,367,445,367.8,444,367.8z"/>
						<rect x="390.4" y="365" class="st14" width="27.2" height="2.4"/>
						<path class="st14" d="M444,368.1h-52.2c-1.2,0-2.2-0.9-2.2-1.9v-1.5h56.5v1.5C446.2,367.2,445.2,368.1,444,368.1z
							 M390.4,365.3v0.8c0,0.7,0.6,1.2,1.4,1.2H444c0.8,0,1.4-0.5,1.4-1.2v-0.8H390.4z"/>
					</g>
					<g>
						<path class="st21" d="M445.8,370.5H390v-1.1c0-0.9,0.8-1.6,1.8-1.6h52.1c1,0,1.8,0.7,1.8,1.6L445.8,370.5L445.8,370.5z"/>
						<rect x="390.4" y="368.1" class="st14" width="27.2" height="2.4"/>
						<path class="st14" d="M446.2,370.8h-56.5v-1.5c0-1.1,1-1.9,2.2-1.9h52.1c1.2,0,2.2,0.9,2.2,1.9L446.2,370.8L446.2,370.8z
							 M390.4,370.1h55v-0.8c0-0.7-0.6-1.2-1.4-1.2h-52.1c-0.8,0-1.4,0.5-1.4,1.2L390.4,370.1L390.4,370.1z"/>
					</g>
				</g>
			</g>
		</g>
	</g>
	<g id="academy">
		<g>
			<g>
				<rect x="288.6" y="104.4" class="st21" width="38.5" height="29.2"/>
				<path class="st21" d="M327.4,134h-39.1v-30h39.1V134z M288.9,133.2h37.8v-28.3h-37.8V133.2z"/>
			</g>
			<g>
				<rect x="268.7" y="122.4" class="st23" width="19.6" height="11.6"/>
				<rect x="271.4" y="125" class="st12" width="1.8" height="1.7"/>
				<rect x="273.9" y="125" class="st12" width="1.8" height="1.7"/>
				<rect x="276.4" y="124.9" class="st12" width="1.8" height="1.7"/>
				<rect x="271.3" y="127.4" class="st12" width="1.8" height="1.7"/>
				<rect x="273.8" y="127.4" class="st12" width="1.8" height="1.7"/>
				<rect x="276.4" y="127.3" class="st12" width="1.8" height="1.7"/>
				<rect x="279" y="125" class="st12" width="1.8" height="1.7"/>
				<rect x="281.5" y="124.9" class="st12" width="1.8" height="1.7"/>
				<rect x="284" y="124.8" class="st12" width="1.8" height="1.7"/>
				<rect x="279" y="127.4" class="st12" width="1.8" height="1.7"/>
				<rect x="281.5" y="127.3" class="st12" width="1.8" height="1.7"/>
				<rect x="284" y="127.2" class="st12" width="1.8" height="1.7"/>
			</g>
			<g>
				<rect x="289.2" y="77.5" class="st24" width="37.2" height="2.1"/>
			</g>
			<g id="aerial_1_">
				<g>
					<g id="aerial_2_">
						<g>
							<polygon class="st21" points="279.5,120.7 277.4,120.7 278.1,113.9 278.8,113.9 							"/>
							<polygon class="st14" points="278.4,120.6 277.4,120.6 278.1,113.9 278.4,113.8 							"/>
							<path d="M279.7,120.9h-2.5l0.8-7h1v0.1L279.7,120.9z M277.6,120.5h1.8l-0.7-6.4h-0.5L277.6,120.5z"/>
						</g>
						<g>
							<g>
								<path class="st21" d="M272.4,104.7c-3.4,0.9-6.1,1.6-6.1,1.6l4.8,4.4l6.3,1l1.2-0.3l0,0l0.9-0.2l5.4-3.9l2.3-6.1
									c0,0-2.9,0.6-6.3,1.4c-1.3,0.3-2.9,0.7-4.1,1l0,0C275.4,103.9,273.6,104.3,272.4,104.7z"/>
								<polygon class="st30" points="266.3,106.4 272.7,105.5 276.7,104.5 278.4,111.4 277.1,111.8 270.9,110.7 								"/>
								<path d="M277.3,111.9L277.3,111.9l-6.3-1l-5-4.6l0.3-0.1c0,0,2.7-0.7,6.1-1.6c1.2-0.3,2.9-0.8,4.2-1.1
									c1.2-0.3,2.7-0.7,4.1-1c3.5-0.8,6.3-1.4,6.3-1.4l0.3-0.1l-2.4,6.4l-5.5,3.9L277.3,111.9z M271.1,110.6l6.2,0.9l2-0.5
									l5.3-3.8l2.1-5.8c-0.8,0.2-3.3,0.7-6.1,1.3c-1.3,0.3-2.9,0.7-4.1,1c-1.3,0.3-3.1,0.7-4.2,1.1l0,0c-2.7,0.7-5,1.3-5.8,1.5
									L271.1,110.6z"/>
							</g>
							<g>
								<polyline class="st21" points="280.7,103.4 280.6,108.4 279.4,111.2 								"/>
								<polygon points="279.5,111.2 279.2,111.1 280.5,108.4 280.5,103.4 280.8,103.4 280.7,108.5 								"/>
							</g>
							<g>
								<polygon points="277.1,111.8 274.8,109.9 272.5,105.4 272.8,105.3 275.1,109.7 277.3,111.5 								"/>
							</g>
							<g>
								<polyline class="st21" points="266.3,106.2 272.6,105.3 280.7,103.4 287,101.2 								"/>
								<polygon points="266.3,106.4 266.2,106.1 272.6,105.2 280.6,103.2 287,101.1 287,101.4 280.7,103.5 272.7,105.5 								"/>
							</g>
						</g>
						<g>
							<ellipse class="st21" cx="278.4" cy="113.2" rx="0.9" ry="0.9"/>
							<path class="st14" d="M278.4,112.3v1.7c0,0-1-0.3-0.9-0.9C277.6,112.6,278.4,112.3,278.4,112.3z"/>
							<path d="M278.4,114.1c-0.6,0-1-0.5-1-1s0.5-1,1-1s1,0.5,1,1C279.5,113.7,279.1,114.1,278.4,114.1z M278.4,112.5
								c-0.4,0-0.7,0.3-0.7,0.7s0.3,0.7,0.7,0.7s0.7-0.3,0.7-0.7S278.9,112.5,278.4,112.5z"/>
						</g>
						<g>
							<ellipse class="st21" cx="278.4" cy="111.8" rx="0.6" ry="0.5"/>
							<path class="st14" d="M278.4,111.2v1.1c0,0-0.6-0.1-0.5-0.5C278,111.4,278.4,111.2,278.4,111.2z"/>
							<path d="M278.4,112.5c-0.4,0-0.7-0.3-0.7-0.7c0-0.4,0.3-0.7,0.7-0.7s0.7,0.3,0.7,0.7C279.2,112.2,278.9,112.5,278.4,112.5z
								 M278.4,111.5c-0.2,0-0.4,0.1-0.4,0.3c0,0.2,0.2,0.3,0.4,0.3s0.4-0.1,0.4-0.3C278.8,111.6,278.7,111.5,278.4,111.5z"/>
						</g>
						<g>
							<polygon class="st21" points="281,122 275.9,122 277.4,120.7 279.5,120.7 							"/>
							<polygon class="st14" points="278.5,122 276,122 277.5,120.7 278.4,120.7 							"/>
							<path d="M281.4,122.2h-5.9l1.8-1.7h2.3L281.4,122.2z M276.4,121.9h4.3l-1.1-1.1h-2L276.4,121.9z"/>
						</g>
					</g>
					<g>
						<line class="st7" x1="275.9" y1="100.9" x2="278.4" y2="104.3"/>
						<polygon class="st29" points="278.2,104.4 275.8,101 276,100.8 278.5,104.2 						"/>
					</g>
					<g>
						<line class="st7" x1="275.8" y1="100.9" x2="275.4" y2="105.1"/>
						<polygon class="st29" points="275.2,105 275.7,100.9 276,100.9 275.5,105 						"/>
					</g>
					<g>
						<ellipse class="st21" cx="275.8" cy="100.4" rx="0.5" ry="0.5"/>
						<path class="st29" d="M275.8,101.1c-0.4,0-0.7-0.3-0.7-0.7c0-0.3,0.3-0.7,0.7-0.7c0.3,0,0.7,0.3,0.7,0.7
							C276.4,100.7,276.2,101.1,275.8,101.1z M275.8,100c-0.2,0-0.3,0.1-0.3,0.3c0,0.2,0.1,0.3,0.3,0.3s0.3-0.1,0.3-0.3
							C276.1,100.2,276,100,275.8,100z"/>
					</g>
					<g>
						<line class="st7" x1="276.7" y1="103.8" x2="275.9" y2="100.9"/>
						<polygon class="st29" points="275.7,101 276.1,100.9 276.8,103.8 276.5,103.8 						"/>
					</g>
				</g>
			</g>
			<g>
				<path class="st14" d="M327.4,77.4h-39v-5.6l0.1-0.1l7.3-10.1l12.1-5.2l11.9,5.2l0.1,0.1l7.6,10.2V77.4z M288.9,77h38l-0.1-4.9
					l-7.4-10l-11.6-5l-11.8,5l-7.2,10V77z"/>
				<g>
					<line class="st7" x1="323.6" y1="77.2" x2="307.8" y2="56.8"/>
					<polygon class="st14" points="307.6,57 308,56.6 323.8,77 323.4,77.3 					"/>
				</g>
				<g>
					<line class="st7" x1="307.9" y1="56.8" x2="292.3" y2="77.2"/>
					<polygon class="st14" points="292.1,77.1 307.8,56.6 308.2,57 292.5,77.4 					"/>
				</g>
				<g>
					<line class="st7" x1="315.6" y1="77.2" x2="301.9" y2="59.5"/>
					<polygon class="st14" points="301.8,59.6 302.2,59.3 315.9,77 315.5,77.4 					"/>
				</g>
				<g>
					<line class="st7" x1="313.7" y1="59.5" x2="300.1" y2="77"/>
					<polygon class="st14" points="299.9,77 313.5,59.3 313.9,59.6 300.3,77.3 					"/>
				</g>
				<g>
					<line class="st7" x1="313.2" y1="60" x2="300.1" y2="77"/>
					<polygon class="st14" points="299.8,76.9 313.1,59.8 313.5,60.2 300.3,77.3 					"/>
				</g>
				<g>
					<line class="st7" x1="319.5" y1="61.9" x2="307.8" y2="77.2"/>
					<polygon class="st14" points="307.5,77 319.3,61.8 319.7,62.1 307.9,77.4 					"/>
				</g>
				<g>
					<line class="st7" x1="323.4" y1="67" x2="315.5" y2="77.2"/>
					<polygon class="st14" points="315.3,77.1 323.2,66.9 323.6,67.2 315.7,77.4 					"/>
				</g>
				<g>
					<line class="st7" x1="307.8" y1="77.2" x2="295.8" y2="61.9"/>
					<polygon class="st14" points="295.7,62 296.1,61.7 308,77 307.5,77.3 					"/>
				</g>
				<g>
					<line class="st7" x1="300.1" y1="77" x2="292.2" y2="67"/>
					<polygon class="st14" points="292,67.2 292.4,66.9 300.3,77 299.9,77.2 					"/>
				</g>
				<g>
					<rect x="295.8" y="61.6" class="st14" width="23.7" height="0.5"/>
				</g>
				<g>
					<rect x="292.2" y="66.8" class="st14" width="31.2" height="0.5"/>
				</g>
				<g>
					<rect x="288.6" y="71.7" class="st14" width="38.5" height="0.5"/>
				</g>
				<g>
					
						<rect x="288.3" y="72" transform="matrix(1 -5.561402e-03 5.561402e-03 1 -0.4106 1.6062)" class="st14" width="0.5" height="5.2"/>
				</g>
				<g>
					<line class="st7" x1="327.1" y1="72" x2="323.6" y2="77.2"/>
					<polygon class="st14" points="323.4,77.1 326.9,71.9 327.2,72.1 323.7,77.3 					"/>
				</g>
				<g>
					<line class="st7" x1="288.6" y1="72" x2="292.3" y2="77.2"/>
					<polygon class="st14" points="288.4,72.1 288.7,71.8 292.4,77 292.1,77.3 					"/>
				</g>
				<path class="st32" d="M327.4,77.4h-39v-5.6l0.1-0.1l7.3-10.1l12.1-5.2l11.9,5.2l0.1,0.1l7.6,10.2V77.4z"/>
			</g>
			<g>
				<g>
					<polygon class="st28" points="319.8,61.9 324.5,58.3 331.8,68.4 327.2,71.9 					"/>
					<path class="st14" d="M327.2,72.3l-7.7-10.4l5-3.9l7.7,10.4L327.2,72.3z M320.1,61.9l7.1,9.6l4.2-3.3l-7.1-9.6L320.1,61.9z"/>
				</g>
				<g>
					<polygon class="st28" points="323.5,57.1 324.4,56.4 333.7,69 332.8,69.7 					"/>
					<path class="st14" d="M332.8,70l-9.6-13l1.2-1l9.6,13L332.8,70z M323.8,57.1l9.1,12.5l0.8-0.6l-9.2-12.3L323.8,57.1z"/>
				</g>
			</g>
			<path class="st28" d="M302.4,120.4h10.8v12.5h-10.8V120.4z M303.3,132.9h9.1v-11.2h-9.1V132.9z"/>
			<g>
				<rect x="307.6" y="122.4" class="st33" width="4.2" height="11"/>
				<path class="st34" d="M312,133.8h-4.6v-11.7h4.6V133.8z M307.8,133h3.6v-10.1h-3.6V133z"/>
			</g>
			<g>
				<rect x="303.7" y="122.4" class="st15" width="4.2" height="11"/>
				<path class="st34" d="M308.1,133.8h-4.6v-11.7h4.6V133.8z M303.9,133h3.6v-10.1h-3.6V133z"/>
			</g>
			<g>
				<rect x="288.6" y="80" class="st21" width="38.5" height="24"/>
				<path class="st21" d="M327.4,104.4h-39.1V79.7h39.1V104.4z M288.9,103.7h37.8V80.4h-37.8V103.7z"/>
			</g>
			<g>
				<path class="st24" d="M292.7,84.7C292.7,84.7,292.7,84.6,292.7,84.7C292.8,84.6,292.8,84.6,292.7,84.7l0.1-0.1h0.1h0.8
					c0.1,0,0.1,0,0.1,0.1l0.1,0.1l0.1,0.2l1.7,4.4c0,0.1,0,0.1,0,0.1c0,0-0.1,0.1-0.1,0.1h-0.9c-0.1,0-0.1,0-0.1,0l-0.1-0.1
					c-0.1-0.1-0.1-0.2-0.1-0.3c-0.1-0.1-0.1-0.2-0.1-0.3h-1.7c-0.1,0.1-0.1,0.2-0.1,0.3c-0.1,0.1-0.1,0.2-0.1,0.3
					c0,0.1-0.1,0.1-0.2,0.1h-1c-0.1,0-0.1,0-0.1,0v-0.1L292.7,84.7z M293.3,86.1c-0.1,0.1-0.1,0.3-0.1,0.3c-0.1,0.1-0.1,0.3-0.1,0.4
					c-0.1,0.1-0.1,0.3-0.1,0.4c-0.1,0.1-0.1,0.3-0.1,0.3h1L293.3,86.1z"/>
				<path class="st24" d="M299.5,84.9C299.6,84.9,299.6,84.9,299.5,84.9c0.1,0.1,0.1,0.1,0.1,0.2l-0.5,0.8c0,0.1-0.1,0.1-0.1,0.1
					s-0.1,0-0.1,0c-0.1-0.1-0.2-0.1-0.3-0.2s-0.3-0.1-0.4-0.1c-0.2,0-0.3,0.1-0.5,0.1c-0.1,0.1-0.3,0.1-0.4,0.3s-0.2,0.3-0.3,0.4
					c-0.1,0.1-0.1,0.3-0.1,0.5c0,0.2,0,0.3,0.1,0.5c0.1,0.2,0.1,0.3,0.3,0.4c0.1,0.1,0.3,0.2,0.4,0.3c0.1,0.1,0.3,0.1,0.5,0.1
					s0.3,0,0.4-0.1s0.3-0.1,0.3-0.2c0.1,0,0.1-0.1,0.1,0c0,0,0.1,0,0.1,0.1l0.5,0.8c0,0.1,0,0.1,0,0.1c0,0.1-0.1,0.1-0.1,0.1
					c-0.2,0.1-0.4,0.3-0.7,0.3c-0.3,0.1-0.5,0.1-0.7,0.1s-0.5,0-0.7-0.1c-0.2-0.1-0.4-0.1-0.6-0.3s-0.3-0.3-0.5-0.4
					c-0.1-0.1-0.3-0.3-0.4-0.5c-0.1-0.2-0.2-0.4-0.3-0.6c-0.1-0.2-0.1-0.5-0.1-0.7c0-0.2,0-0.5,0.1-0.7c0.1-0.2,0.1-0.4,0.3-0.6
					c0.1-0.2,0.3-0.3,0.4-0.5c0.1-0.1,0.3-0.3,0.5-0.4c0.2-0.1,0.4-0.2,0.6-0.3c0.2-0.1,0.5-0.1,0.7-0.1c0.3,0,0.5,0.1,0.7,0.1
					C299.1,84.7,299.3,84.7,299.5,84.9z"/>
				<path class="st24" d="M301.8,84.7C301.8,84.7,301.8,84.6,301.8,84.7C301.9,84.6,301.9,84.6,301.8,84.7l0.1-0.1h0.1h0.8
					c0.1,0,0.1,0,0.1,0.1l0.1,0.1l0.1,0.2l1.7,4.4c0,0.1,0,0.1,0,0.1c0,0-0.1,0.1-0.1,0.1h-0.9c-0.1,0-0.1,0-0.1,0l-0.1-0.1
					c-0.1-0.1-0.1-0.2-0.1-0.3c-0.1-0.1-0.1-0.2-0.1-0.3h-1.7c-0.1,0.1-0.1,0.2-0.1,0.3c-0.1,0.1-0.1,0.2-0.1,0.3
					c0,0.1-0.1,0.1-0.2,0.1h-1c-0.1,0-0.1,0-0.1,0v-0.1L301.8,84.7z M302.4,86.1c-0.1,0.1-0.1,0.3-0.1,0.3c-0.1,0.1-0.1,0.3-0.1,0.4
					c-0.1,0.1-0.1,0.3-0.1,0.4c-0.1,0.1-0.1,0.3-0.1,0.3h1L302.4,86.1z"/>
				<path class="st24" d="M309.5,87c0,0.3,0,0.5-0.1,0.7c-0.1,0.2-0.1,0.4-0.3,0.6c-0.1,0.2-0.3,0.3-0.4,0.5
					c-0.1,0.1-0.3,0.3-0.5,0.4c-0.2,0.1-0.4,0.2-0.6,0.3c-0.2,0.1-0.5,0.1-0.7,0.1h-1.6c-0.1,0-0.1,0-0.1,0c0,0-0.1-0.1-0.1-0.1
					v-4.6c0-0.1,0-0.1,0.1-0.1c0,0,0.1-0.1,0.1-0.1h1.6c0.2,0,0.5,0,0.7,0.1c0.2,0.1,0.4,0.1,0.6,0.3c0.2,0.1,0.3,0.2,0.5,0.4
					c0.1,0.1,0.3,0.3,0.4,0.5c0.1,0.2,0.2,0.4,0.3,0.6C309.5,86.5,309.5,86.7,309.5,87z M306.6,85.7v2.5h0.3c0.1,0,0.1,0,0.1,0
					c0.1,0,0.1,0,0.1,0c0.1,0,0.3-0.1,0.5-0.1c0.1-0.1,0.3-0.1,0.4-0.3c0.1-0.1,0.2-0.3,0.3-0.4c0.1-0.1,0.1-0.3,0.1-0.5
					c0-0.2-0.1-0.3-0.1-0.5c-0.1-0.1-0.1-0.3-0.3-0.4c-0.1-0.1-0.3-0.2-0.4-0.3c-0.1-0.1-0.3-0.1-0.5-0.1H306.6z"/>
				<path class="st24" d="M310.4,84.7c0-0.1,0-0.1,0.1-0.1c0,0,0.1-0.1,0.1-0.1h3.2c0.1,0,0.1,0,0.1,0.1c0,0,0.1,0.1,0.1,0.1v0.8
					c0,0.1,0,0.1-0.1,0.1c0,0.1-0.1,0.1-0.1,0.1h-2.1v0.8h1.6c0.1,0,0.1,0,0.1,0l0.1,0.1v0.7c0,0,0,0.1-0.1,0.1c0,0-0.1,0.1-0.1,0.1
					h-1.6v0.9h2.1c0.1,0,0.1,0.1,0.1,0.1v0.8v0.1c0,0.1-0.1,0.1-0.1,0.1h-3.3c-0.1,0-0.1,0-0.1-0.1c0,0-0.1-0.1-0.1-0.1V84.7
					L310.4,84.7z"/>
				<path class="st24" d="M315,84.7c0-0.1,0-0.1,0.1-0.1c0,0,0.1-0.1,0.1-0.1h1.1c0.1,0,0.1,0.1,0.1,0.1l0.9,3l0.9-3
					c0-0.1,0.1-0.1,0.2-0.1h1.1c0.1,0,0.1,0,0.1,0.1c0,0,0.1,0.1,0.1,0.1c0.1,0.8,0.1,1.5,0.3,2.3c0.1,0.7,0.1,1.5,0.3,2.3l0,0
					c0,0.1-0.1,0.1-0.1,0.1h-0.9c-0.1,0-0.1-0.1-0.1-0.1l-0.3-2.5l-0.7,2.6c0,0,0,0.1-0.1,0.1l-0.1,0.1h-0.8c0,0-0.1,0-0.1-0.1
					l-0.1-0.1l-0.7-2.6l-0.3,2.5c0,0.1-0.1,0.1-0.1,0.1h-1.2c-0.1,0-0.1-0.1-0.1-0.1L315,84.7z"/>
				<path class="st24" d="M322.7,86.3l0.8-1.7v-0.1l0,0l0,0c0,0,0,0,0.1,0h1.2c0,0,0,0,0.1,0c0,0,0,0,0,0.1c0,0,0,0.1-0.1,0.1
					l-1.6,2.8v1.9c0,0.1-0.1,0.1-0.1,0.1h-1c-0.1,0-0.1,0-0.1-0.1c0,0-0.1-0.1-0.1-0.1v-1.9l-1.5-2.8l-0.1-0.1c0,0,0,0,0-0.1
					c0,0,0,0,0.1,0h1.2c0,0,0,0,0.1,0l0,0l0,0c0,0,0,0,0.1,0.1L322.7,86.3z"/>
			</g>
			<rect x="291.3" y="95.8" class="st12" width="4" height="3.8"/>
			<rect x="297" y="95.8" class="st12" width="4" height="3.8"/>
			<rect x="302.8" y="95.7" class="st12" width="4" height="3.8"/>
			<rect x="291.2" y="101.3" class="st12" width="4" height="3.8"/>
			<rect x="296.8" y="101.3" class="st12" width="4" height="3.8"/>
			<rect x="302.6" y="101.1" class="st12" width="4" height="3.8"/>
			<rect x="308.7" y="95.8" class="st12" width="4" height="3.8"/>
			<rect x="314.4" y="95.7" class="st12" width="4" height="3.8"/>
			<rect x="320.2" y="95.5" class="st12" width="4" height="3.8"/>
			<rect x="308.7" y="101.3" class="st12" width="4" height="3.8"/>
			<rect x="314.4" y="101.1" class="st12" width="4" height="3.8"/>
			<rect x="320.2" y="101" class="st12" width="4" height="3.8"/>
			<rect x="291.3" y="106.9" class="st12" width="4" height="3.8"/>
			<rect x="297" y="106.9" class="st12" width="4" height="3.8"/>
			<rect x="302.8" y="106.8" class="st12" width="4" height="3.8"/>
			<rect x="308.7" y="106.9" class="st12" width="4" height="3.8"/>
			<rect x="314.4" y="106.8" class="st12" width="4" height="3.8"/>
			<rect x="320.2" y="106.6" class="st12" width="4" height="3.8"/>
		</g>
	</g>
	<polygon id="nyil" class="st29" points="296.2,44 309.8,44 303,54.4 	"/>
</g>
</svg>
