<?xml version="1.0" encoding="utf-8"?>
<!-- Generator: Adobe Illustrator 21.0.2, SVG Export Plug-In . SVG Version: 6.00 Build 0)  -->
<svg version="1.1" xmlns="http://www.w3.org/2000/svg" xmlns:xlink="http://www.w3.org/1999/xlink" x="0px" y="0px"
	 viewBox="0 0 1920 1080" style="enable-background:new 0 0 1920 1080;" xml:space="preserve">
<style type="text/css">
	.st0{fill:#4FAF98;}
	.st1{fill:#6DBFA9;}
	.st2{fill:#249B8A;}
	.st3{fill:#EAEAE9;}
	.st4{fill:#CCCBCB;}
	.st5{fill:#FFFFFF;}
	.st6{fill:#FFBA00;}
	.st7{fill:#E08A00;}
	.st8{fill:#FFD77D;}
	.st9{display:none;}
	.st10{display:inline;fill:#4FAF98;}
	.st11{display:inline;fill:#FE334F;}
	.st12{display:inline;fill:#014C6D;}
	.st13{display:inline;fill:#FFBA00;}
	.st14{display:inline;fill:#FC607B;}
	.st15{display:inline;fill:#6DBFA9;}
	.st16{display:inline;fill:#036D91;}
	.st17{display:inline;fill:#EFCB7B;}
	.st18{display:inline;fill:#F0F0F0;}
	.st19{display:inline;fill:#AAAAAA;}
	.st20{display:inline;fill:#464646;}
</style>
<g id="ground">
	<g>
		<polygon class="st0" points="1342.4,0 1189.5,88.3 1342.4,176.6 1495.3,88.3 		"/>
		<polygon class="st1" points="1189.5,88.3 1189.6,110.4 1342.4,198.6 1342.4,176.6 		"/>
		<polygon class="st2" points="1495.3,88.3 1495.4,110.4 1342.4,198.6 1342.4,176.6 		"/>
	</g>
	<g>
		<polygon class="st0" points="1495.1,88.3 1342.2,176.6 1495.1,264.9 1648.1,176.6 		"/>
		<polygon class="st1" points="1342.2,176.6 1342.3,198.7 1495.1,286.9 1495.1,264.9 		"/>
		<polygon class="st2" points="1648.1,176.6 1648.1,198.7 1495.1,286.9 1495.1,264.9 		"/>
	</g>
	<g>
		<polygon class="st0" points="1036,0 883.1,88.3 1036,176.6 1188.9,88.3 		"/>
		<polygon class="st1" points="883.1,88.3 883.1,110.4 1036,198.6 1036,176.6 		"/>
		<polygon class="st2" points="1188.9,88.3 1189,110.4 1036,198.6 1036,176.6 		"/>
	</g>
	<g>
		<polygon class="st0" points="1189.2,88.3 1036.3,176.6 1189.2,264.9 1342.1,176.6 		"/>
		<polygon class="st1" points="1036.3,176.6 1036.4,198.6 1189.2,286.9 1189.2,264.9 		"/>
		<polygon class="st2" points="1342.1,176.6 1342.2,198.6 1189.2,286.9 1189.2,264.9 		"/>
	</g>
	<g>
		<polygon class="st0" points="730.8,0 577.9,88.3 730.8,176.6 883.7,88.3 		"/>
		<polygon class="st1" points="577.9,88.3 578,110.4 730.8,198.6 730.8,176.6 		"/>
		<polygon class="st2" points="883.7,88.3 883.8,110.4 730.8,198.6 730.8,176.6 		"/>
	</g>
	<g>
		<polygon class="st0" points="884,88.3 731.1,176.6 884,264.9 1036.9,176.6 		"/>
		<polygon class="st1" points="731.1,176.6 731.2,198.6 884,286.9 884,264.9 		"/>
		<polygon class="st2" points="1036.9,176.6 1037,198.6 884,286.9 884,264.9 		"/>
	</g>
	<g>
		<polygon class="st0" points="424.9,0 271.9,88.3 424.9,176.6 577.8,88.3 		"/>
		<polygon class="st1" points="271.9,88.3 272,110.4 424.9,198.7 424.9,176.6 		"/>
		<polygon class="st2" points="577.8,88.3 577.9,110.4 424.9,198.7 424.9,176.6 		"/>
	</g>
	<g>
		<polygon class="st0" points="271.7,88.3 118.8,176.6 271.7,264.9 424.6,176.6 		"/>
		<polygon class="st1" points="118.8,176.6 118.9,198.7 271.7,286.9 271.7,264.9 		"/>
		<polygon class="st2" points="424.6,176.6 424.7,198.7 271.7,286.9 271.7,264.9 		"/>
	</g>
	<g>
		<polygon class="st0" points="577.9,88.3 424.9,176.6 577.9,264.9 730.8,176.6 		"/>
		<polygon class="st1" points="424.9,176.6 425,198.7 577.9,286.9 577.9,264.9 		"/>
		<polygon class="st2" points="730.8,176.6 730.8,198.7 577.9,286.9 577.9,264.9 		"/>
	</g>
	<g>
		<polygon class="st0" points="730.6,176.6 577.7,264.9 730.6,353.2 883.5,264.9 		"/>
		<polygon class="st1" points="577.7,264.9 577.7,286.9 730.6,375.2 730.6,353.2 		"/>
		<polygon class="st2" points="883.5,264.9 883.6,286.9 730.6,375.2 730.6,353.2 		"/>
	</g>
	<g>
		<polygon class="st0" points="424.7,176.6 271.8,264.9 424.7,353.2 577.7,264.9 		"/>
		<polygon class="st1" points="271.8,264.9 271.9,286.9 424.7,375.2 424.7,353.2 		"/>
		<polygon class="st2" points="577.7,264.9 577.7,286.9 424.7,375.2 424.7,353.2 		"/>
	</g>
	<g>
		<polygon class="st0" points="577.6,264.9 424.7,353.2 577.6,441.4 730.5,353.2 		"/>
		<polygon class="st1" points="424.7,353.2 424.8,375.2 577.6,463.5 577.6,441.4 		"/>
		<polygon class="st2" points="730.5,353.2 730.6,375.2 577.6,463.5 577.6,441.4 		"/>
	</g>
	<g>
		<polygon class="st0" points="271.9,264.9 119,353.2 271.9,441.4 424.8,353.2 		"/>
		<polygon class="st1" points="119,353.2 119,375.2 271.9,463.5 271.9,441.4 		"/>
		<polygon class="st2" points="424.8,353.2 424.9,375.2 271.9,463.5 271.9,441.4 		"/>
	</g>
	<g>
		<polygon class="st0" points="424.7,353.2 271.7,441.4 424.7,529.7 577.6,441.4 		"/>
		<polygon class="st1" points="271.7,441.4 271.8,463.5 424.7,551.8 424.7,529.7 		"/>
		<polygon class="st2" points="577.6,441.4 577.7,463.5 424.7,551.8 424.7,529.7 		"/>
	</g>
	<g>
		<polygon class="st0" points="1036.1,176.6 883.2,264.9 1036.1,353.2 1189.1,264.9 		"/>
		<polygon class="st1" points="883.2,264.9 883.3,286.9 1036.1,375.2 1036.1,353.2 		"/>
		<polygon class="st2" points="1189.1,264.9 1189.1,286.9 1036.1,375.2 1036.1,353.2 		"/>
	</g>
	<g>
		<polygon class="st0" points="883.4,264.9 730.5,353.2 883.4,441.4 1036.4,353.2 		"/>
		<polygon class="st1" points="730.5,353.2 730.6,375.2 883.4,463.5 883.4,441.4 		"/>
		<polygon class="st2" points="1036.4,353.2 1036.4,375.2 883.4,463.5 883.4,441.4 		"/>
	</g>
	<g>
		<polygon class="st0" points="730.5,353.2 577.6,441.4 730.5,529.7 883.4,441.4 		"/>
		<polygon class="st1" points="577.6,441.4 577.7,463.5 730.5,551.8 730.5,529.7 		"/>
		<polygon class="st2" points="883.4,441.4 883.5,463.5 730.5,551.8 730.5,529.7 		"/>
	</g>
	<g>
		<polygon class="st0" points="577.6,441.4 424.7,529.7 577.6,618 730.5,529.7 		"/>
		<polygon class="st1" points="424.7,529.7 424.8,551.8 577.6,640.1 577.6,618 		"/>
		<polygon class="st2" points="730.5,529.7 730.6,551.8 577.6,640.1 577.6,618 		"/>
	</g>
	<g>
		<polygon class="st0" points="1342.1,176.6 1189.2,264.9 1342.1,353.2 1495,264.9 		"/>
		<polygon class="st1" points="1189.2,264.9 1189.2,286.9 1342.1,375.2 1342.1,353.2 		"/>
		<polygon class="st2" points="1495,264.9 1495.1,286.9 1342.1,375.2 1342.1,353.2 		"/>
	</g>
	<g>
		<polygon class="st0" points="1495.3,264.9 1342.4,353.2 1495.3,441.4 1648.2,353.2 		"/>
		<polygon class="st1" points="1342.4,353.2 1342.4,375.2 1495.3,463.5 1495.3,441.4 		"/>
		<polygon class="st2" points="1648.2,353.2 1648.3,375.2 1495.3,463.5 1495.3,441.4 		"/>
	</g>
	<g>
		<polygon class="st0" points="424.7,529.7 271.8,618 424.7,706.3 577.6,618 		"/>
		<polygon class="st1" points="271.8,618 271.8,640.1 424.7,728.4 424.7,706.3 		"/>
		<polygon class="st2" points="577.6,618 577.7,640.1 424.7,728.4 424.7,706.3 		"/>
	</g>
	<g>
		<polygon class="st0" points="1189.3,264.9 1036.4,353.2 1189.3,441.4 1342.2,353.2 		"/>
		<polygon class="st1" points="1036.4,353.2 1036.5,375.2 1189.3,463.5 1189.3,441.4 		"/>
		<polygon class="st2" points="1342.2,353.2 1342.3,375.2 1189.3,463.5 1189.3,441.4 		"/>
	</g>
	<g>
		<polygon class="st0" points="271.7,618 118.8,706.3 271.7,794.6 424.6,706.3 		"/>
		<polygon class="st1" points="118.8,706.3 118.8,728.4 271.7,816.7 271.7,794.6 		"/>
		<polygon class="st2" points="424.6,706.3 424.7,728.4 271.7,816.7 271.7,794.6 		"/>
	</g>
	<g>
		<polygon class="st0" points="1342.3,353.2 1189.4,441.4 1342.3,529.7 1495.2,441.4 		"/>
		<polygon class="st1" points="1189.4,441.4 1189.5,463.5 1342.3,551.8 1342.3,529.7 		"/>
		<polygon class="st2" points="1495.2,441.4 1495.3,463.5 1342.3,551.8 1342.3,529.7 		"/>
	</g>
	<g>
		<polygon class="st0" points="1495.3,441.4 1342.4,529.7 1495.3,618 1648.2,529.7 		"/>
		<polygon class="st1" points="1342.4,529.7 1342.4,551.8 1495.3,640.1 1495.3,618 		"/>
		<polygon class="st2" points="1648.2,529.7 1648.3,551.8 1495.3,640.1 1495.3,618 		"/>
	</g>
	<g>
		<polygon class="st0" points="1036.4,353.2 883.4,441.4 1036.4,529.7 1189.3,441.4 		"/>
		<polygon class="st1" points="883.4,441.4 883.5,463.5 1036.4,551.8 1036.4,529.7 		"/>
		<polygon class="st2" points="1189.3,441.4 1189.4,463.5 1036.4,551.8 1036.4,529.7 		"/>
	</g>
	<g>
		<polygon class="st0" points="1189.3,441.4 1036.4,529.7 1189.3,618 1342.2,529.7 		"/>
		<polygon class="st1" points="1036.4,529.7 1036.5,551.8 1189.3,640.1 1189.3,618 		"/>
		<polygon class="st2" points="1342.2,529.7 1342.3,551.8 1189.3,640.1 1189.3,618 		"/>
	</g>
	<g>
		<polygon class="st0" points="1342.3,529.7 1189.4,618 1342.3,706.3 1495.2,618 		"/>
		<polygon class="st1" points="1189.4,618 1189.4,640.1 1342.3,728.4 1342.3,706.3 		"/>
		<polygon class="st2" points="1495.2,618 1495.3,640.1 1342.3,728.4 1342.3,706.3 		"/>
	</g>
	<g>
		<polygon class="st0" points="883.4,441.4 730.5,529.7 883.4,618 1036.3,529.7 		"/>
		<polygon class="st1" points="730.5,529.7 730.6,551.8 883.4,640.1 883.4,618 		"/>
		<polygon class="st2" points="1036.3,529.7 1036.4,551.8 883.4,640.1 883.4,618 		"/>
	</g>
	<g>
		<polygon class="st0" points="730.5,529.7 577.6,618 730.5,706.3 883.4,618 		"/>
		<polygon class="st1" points="577.6,618 577.6,640.1 730.5,728.4 730.5,706.3 		"/>
		<polygon class="st2" points="883.4,618 883.5,640.1 730.5,728.4 730.5,706.3 		"/>
	</g>
	<g>
		<polygon class="st0" points="577.5,618 424.6,706.3 577.5,794.6 730.4,706.3 		"/>
		<polygon class="st1" points="424.6,706.3 424.7,728.4 577.5,816.7 577.5,794.6 		"/>
		<polygon class="st2" points="730.4,706.3 730.5,728.4 577.5,816.7 577.5,794.6 		"/>
	</g>
	<g>
		<polygon class="st0" points="424.6,706.3 271.7,794.6 424.6,882.9 577.6,794.6 		"/>
		<polygon class="st1" points="271.7,794.6 271.8,816.7 424.6,905 424.6,882.9 		"/>
		<polygon class="st2" points="577.6,794.6 577.6,816.7 424.6,905 424.6,882.9 		"/>
	</g>
	<g>
		<polygon class="st0" points="271.7,794.6 118.8,882.9 271.7,971.2 424.6,882.9 		"/>
		<polygon class="st1" points="118.8,882.9 118.9,905 271.7,993.2 271.7,971.2 		"/>
		<polygon class="st2" points="424.6,882.9 424.7,905 271.7,993.2 271.7,971.2 		"/>
	</g>
	<g>
		<polygon class="st0" points="1036.3,529.7 883.4,618 1036.3,706.3 1189.2,618 		"/>
		<polygon class="st1" points="883.4,618 883.4,640.1 1036.3,728.4 1036.3,706.3 		"/>
		<polygon class="st2" points="1189.2,618 1189.3,640.1 1036.3,728.4 1036.3,706.3 		"/>
	</g>
	<g>
		<polygon class="st0" points="1189.1,618 1036.2,706.3 1189.1,794.6 1342.1,706.3 		"/>
		<polygon class="st1" points="1036.2,706.3 1036.3,728.4 1189.1,816.7 1189.1,794.6 		"/>
		<polygon class="st2" points="1342.1,706.3 1342.1,728.4 1189.1,816.7 1189.1,794.6 		"/>
	</g>
	<g>
		<polygon class="st0" points="883.3,618 730.4,706.3 883.3,794.6 1036.3,706.3 		"/>
		<polygon class="st1" points="730.4,706.3 730.5,728.4 883.3,816.7 883.3,794.6 		"/>
		<polygon class="st2" points="1036.3,706.3 1036.3,728.4 883.3,816.7 883.3,794.6 		"/>
	</g>
	<g>
		<polygon class="st0" points="730.4,706.3 577.5,794.6 730.4,882.9 883.3,794.6 		"/>
		<polygon class="st1" points="577.5,794.6 577.5,816.7 730.4,905 730.4,882.9 		"/>
		<polygon class="st2" points="883.3,794.6 883.4,816.7 730.4,905 730.4,882.9 		"/>
	</g>
	<g>
		<polygon class="st0" points="577.4,794.6 424.5,882.9 577.4,971.2 730.3,882.9 		"/>
		<polygon class="st1" points="424.5,882.9 424.6,905 577.4,993.2 577.4,971.2 		"/>
		<polygon class="st2" points="730.3,882.9 730.4,905 577.4,993.2 577.4,971.2 		"/>
	</g>
	<g>
		<polygon class="st0" points="1036.4,706.3 883.4,794.6 1036.4,882.9 1189.3,794.6 		"/>
		<polygon class="st1" points="883.4,794.6 883.5,816.7 1036.4,905 1036.4,882.9 		"/>
		<polygon class="st2" points="1189.3,794.6 1189.4,816.7 1036.4,905 1036.4,882.9 		"/>
	</g>
	<g>
		<polygon class="st0" points="883.3,794.6 730.3,882.9 883.3,971.2 1036.2,882.9 		"/>
		<polygon class="st1" points="730.3,882.9 730.4,905 883.3,993.2 883.3,971.2 		"/>
		<polygon class="st2" points="1036.2,882.9 1036.3,905 883.3,993.2 883.3,971.2 		"/>
	</g>
	<g>
		<polygon class="st0" points="1495.3,618 1342.4,706.3 1495.3,794.6 1648.2,706.3 		"/>
		<polygon class="st1" points="1342.4,706.3 1342.4,728.4 1495.3,816.7 1495.3,794.6 		"/>
		<polygon class="st2" points="1648.2,706.3 1648.3,728.4 1495.3,816.7 1495.3,794.6 		"/>
	</g>
	<g>
		<polygon class="st0" points="1342.2,706.3 1189.2,794.6 1342.2,882.9 1495.1,794.6 		"/>
		<polygon class="st1" points="1189.2,794.6 1189.3,816.7 1342.2,905 1342.2,882.9 		"/>
		<polygon class="st2" points="1495.1,794.6 1495.2,816.7 1342.2,905 1342.2,882.9 		"/>
	</g>
	<g>
		<polygon class="st0" points="1648,706.3 1495.1,794.6 1648,882.9 1800.9,794.6 		"/>
		<polygon class="st1" points="1495.1,794.6 1495.2,816.7 1648,905 1648,882.9 		"/>
		<polygon class="st2" points="1800.9,794.6 1801,816.7 1648,905 1648,882.9 		"/>
	</g>
	<g id="tile_4_">
		<polygon class="st0" points="1495.1,794.6 1342.1,882.9 1495.1,971.2 1648,882.9 		"/>
		<polygon class="st1" points="1342.1,882.9 1342.2,905 1495.1,993.2 1495.1,971.2 		"/>
		<polygon class="st2" points="1648,882.9 1648,905 1495.1,993.2 1495.1,971.2 		"/>
	</g>
	<g id="tile_3_">
		<polygon class="st0" points="1648.2,882.9 1495.3,971.2 1648.2,1059.5 1801.2,971.2 		"/>
		<polygon class="st1" points="1495.3,971.2 1495.4,993.2 1648.2,1081.5 1648.2,1059.5 		"/>
		<polygon class="st2" points="1801.2,971.2 1801.2,993.2 1648.2,1081.5 1648.2,1059.5 		"/>
	</g>
	<g id="tile_2_">
		<polygon class="st0" points="1189.3,794.6 1036.4,882.9 1189.3,971.2 1342.2,882.9 		"/>
		<polygon class="st1" points="1036.4,882.9 1036.5,905 1189.3,993.2 1189.3,971.2 		"/>
		<polygon class="st2" points="1342.2,882.9 1342.3,905 1189.3,993.2 1189.3,971.2 		"/>
	</g>
	<g id="tile_1_">
		<polygon class="st0" points="1036.4,882.9 883.4,971.2 1036.4,1059.5 1189.3,971.2 		"/>
		<polygon class="st1" points="883.4,971.2 883.5,993.2 1036.4,1081.5 1036.4,1059.5 		"/>
		<polygon class="st2" points="1189.3,971.2 1189.4,993.2 1036.4,1081.5 1036.4,1059.5 		"/>
	</g>
	<g id="tile">
		<polygon class="st0" points="1342.1,882.9 1189.2,971.2 1342.1,1059.5 1495,971.2 		"/>
		<polygon class="st1" points="1189.2,971.2 1189.2,993.2 1342.1,1081.5 1342.1,1059.5 		"/>
		<polygon class="st2" points="1495,971.2 1495.1,993.2 1342.1,1081.5 1342.1,1059.5 		"/>
	</g>
</g>
<g id="city">
	<g id="house_3_">
		<g id="building_8_">
			<polygon class="st3" points="855.1,337.1 855.1,418 836,407 836,326 			"/>
			<polygon class="st4" points="874.2,326 855.1,337.1 855.1,418 874.2,407 			"/>
			<polygon class="st5" points="836,326 855.1,337.1 874.2,326 855.1,315 			"/>
		</g>
		<g id="windows_8_">
			<polygon class="st5" points="858.3,342.6 861.5,340.8 861.5,344.4 858.3,346.3 			"/>
			<polygon class="st5" points="867.8,337.1 871,335.2 871,338.9 867.8,340.8 			"/>
			<polygon class="st5" points="863.1,339.8 866.2,338 866.2,341.7 863.1,343.5 			"/>
			<polygon class="st5" points="858.3,350 861.5,348.1 861.5,351.8 858.3,353.6 			"/>
			<polygon class="st5" points="867.8,344.4 871,342.6 871,346.3 867.8,348.1 			"/>
			<polygon class="st5" points="863.1,347.2 866.2,345.4 866.2,349 863.1,350.9 			"/>
			<polygon class="st5" points="858.3,357.3 861.5,355.5 861.5,359.2 858.3,361 			"/>
			<polygon class="st5" points="867.8,351.8 871,350 871,353.6 867.8,355.5 			"/>
			<polygon class="st5" points="863.1,354.6 866.2,352.7 866.2,356.4 863.1,358.2 			"/>
			<polygon class="st5" points="858.3,364.7 861.5,362.8 861.5,366.5 858.3,368.3 			"/>
			<polygon class="st5" points="867.8,359.2 871,357.3 871,361 867.8,362.8 			"/>
			<polygon class="st5" points="863.1,361.9 866.2,360.1 866.2,363.8 863.1,365.6 			"/>
			<polygon class="st5" points="858.3,372 861.5,370.2 861.5,373.9 858.3,375.7 			"/>
			<polygon class="st5" points="867.8,366.5 871,364.7 871,368.3 867.8,370.2 			"/>
			<polygon class="st5" points="863.1,369.3 866.2,367.4 866.2,371.1 863.1,372.9 			"/>
			<polygon class="st5" points="858.3,379.4 861.5,377.5 861.5,381.2 858.3,383.1 			"/>
			<polygon class="st5" points="867.8,373.9 871,372 871,375.7 867.8,377.5 			"/>
			<polygon class="st5" points="863.1,376.6 866.2,374.8 866.2,378.5 863.1,380.3 			"/>
			<polygon class="st5" points="858.3,386.7 861.5,384.9 861.5,388.6 858.3,390.4 			"/>
			<polygon class="st5" points="867.8,381.2 871,379.4 871,383.1 867.8,384.9 			"/>
			<polygon class="st5" points="863.1,384 866.2,382.1 866.2,385.8 863.1,387.7 			"/>
			<polygon class="st5" points="858.3,394.1 861.5,392.3 861.5,395.9 858.3,397.8 			"/>
			<polygon class="st5" points="867.8,388.6 871,386.7 871,390.4 867.8,392.3 			"/>
			<polygon class="st5" points="863.1,391.3 866.2,389.5 866.2,393.2 863.1,395 			"/>
		</g>
	</g>
	<g id="house_2_">
		<g id="building_7_">
			<polygon class="st6" points="936.8,343.4 936.8,424.4 917.7,413.3 917.7,332.4 			"/>
			<polygon class="st7" points="955.9,332.4 936.8,343.4 936.8,424.4 955.9,413.3 			"/>
			<polygon class="st8" points="917.7,332.4 936.8,343.4 955.9,332.4 936.8,321.4 			"/>
		</g>
		<g id="windows_7_">
			<polygon class="st5" points="940,349 943.2,347.1 943.2,350.8 940,352.6 			"/>
			<polygon class="st5" points="949.6,343.4 952.8,341.6 952.8,345.3 949.6,347.1 			"/>
			<polygon class="st5" points="944.8,346.2 948,344.4 948,348 944.8,349.9 			"/>
			<polygon class="st5" points="940,356.3 943.2,354.5 943.2,358.2 940,360 			"/>
			<polygon class="st5" points="949.6,350.8 952.8,349 952.8,352.6 949.6,354.5 			"/>
			<polygon class="st5" points="944.8,353.6 948,351.7 948,355.4 944.8,357.2 			"/>
			<polygon class="st5" points="940,363.7 943.2,361.8 943.2,365.5 940,367.3 			"/>
			<polygon class="st5" points="949.6,358.2 952.8,356.3 952.8,360 949.6,361.8 			"/>
			<polygon class="st5" points="944.8,360.9 948,359.1 948,362.8 944.8,364.6 			"/>
			<polygon class="st5" points="940,371 943.2,369.2 943.2,372.9 940,374.7 			"/>
			<polygon class="st5" points="949.6,365.5 952.8,363.7 952.8,367.3 949.6,369.2 			"/>
			<polygon class="st5" points="944.8,368.3 948,366.4 948,370.1 944.8,371.9 			"/>
			<polygon class="st5" points="940,378.4 943.2,376.5 943.2,380.2 940,382.1 			"/>
			<polygon class="st5" points="949.6,372.9 952.8,371 952.8,374.7 949.6,376.5 			"/>
			<polygon class="st5" points="944.8,375.6 948,373.8 948,377.5 944.8,379.3 			"/>
			<polygon class="st5" points="940,385.7 943.2,383.9 943.2,387.6 940,389.4 			"/>
			<polygon class="st5" points="949.6,380.2 952.8,378.4 952.8,382.1 949.6,383.9 			"/>
			<polygon class="st5" points="944.8,383 948,381.1 948,384.8 944.8,386.7 			"/>
			<polygon class="st5" points="940,393.1 943.2,391.3 943.2,394.9 940,396.8 			"/>
			<polygon class="st5" points="949.6,387.6 952.8,385.7 952.8,389.4 949.6,391.3 			"/>
			<polygon class="st5" points="944.8,390.3 948,388.5 948,392.2 944.8,394 			"/>
			<polygon class="st5" points="940,400.5 943.2,398.6 943.2,402.3 940,404.1 			"/>
			<polygon class="st5" points="949.6,394.9 952.8,393.1 952.8,396.8 949.6,398.6 			"/>
			<polygon class="st5" points="944.8,397.7 948,395.9 948,399.5 944.8,401.4 			"/>
		</g>
	</g>
	<g id="house_1_">
		<g id="building_6_">
			<polygon class="st3" points="836,348 836,429 816.9,417.9 816.9,337 			"/>
			<polygon class="st4" points="855.1,337 836,348 836,429 855.1,417.9 			"/>
			<polygon class="st5" points="816.9,337 836,348 855.1,337 836,326 			"/>
		</g>
		<g id="windows_6_">
			<polygon class="st5" points="839.2,353.6 842.4,351.7 842.4,355.4 839.2,357.2 			"/>
			<polygon class="st5" points="848.7,348 851.9,346.2 851.9,349.9 848.7,351.7 			"/>
			<polygon class="st5" points="843.9,350.8 847.1,349 847.1,352.6 843.9,354.5 			"/>
			<polygon class="st5" points="839.2,360.9 842.4,359.1 842.4,362.8 839.2,364.6 			"/>
			<polygon class="st5" points="848.7,355.4 851.9,353.6 851.9,357.2 848.7,359.1 			"/>
			<polygon class="st5" points="843.9,358.2 847.1,356.3 847.1,360 843.9,361.8 			"/>
			<polygon class="st5" points="839.2,368.3 842.4,366.4 842.4,370.1 839.2,371.9 			"/>
			<polygon class="st5" points="848.7,362.8 851.9,360.9 851.9,364.6 848.7,366.4 			"/>
			<polygon class="st5" points="843.9,365.5 847.1,363.7 847.1,367.3 843.9,369.2 			"/>
			<polygon class="st5" points="839.2,375.6 842.4,373.8 842.4,377.5 839.2,379.3 			"/>
			<polygon class="st5" points="848.7,370.1 851.9,368.3 851.9,371.9 848.7,373.8 			"/>
			<polygon class="st5" points="843.9,372.9 847.1,371 847.1,374.7 843.9,376.5 			"/>
			<polygon class="st5" points="839.2,383 842.4,381.1 842.4,384.8 839.2,386.7 			"/>
			<polygon class="st5" points="848.7,377.5 851.9,375.6 851.9,379.3 848.7,381.1 			"/>
			<polygon class="st5" points="843.9,380.2 847.1,378.4 847.1,382.1 843.9,383.9 			"/>
			<polygon class="st5" points="839.2,390.3 842.4,388.5 842.4,392.2 839.2,394 			"/>
			<polygon class="st5" points="848.7,384.8 851.9,383 851.9,386.7 848.7,388.5 			"/>
			<polygon class="st5" points="843.9,387.6 847.1,385.7 847.1,389.4 843.9,391.3 			"/>
			<polygon class="st5" points="839.2,397.7 842.4,395.9 842.4,399.5 839.2,401.4 			"/>
			<polygon class="st5" points="848.7,392.2 851.9,390.3 851.9,394 848.7,395.9 			"/>
			<polygon class="st5" points="843.9,394.9 847.1,393.1 847.1,396.8 843.9,398.6 			"/>
			<polygon class="st5" points="839.2,405.1 842.4,403.2 842.4,406.9 839.2,408.7 			"/>
			<polygon class="st5" points="848.7,399.5 851.9,397.7 851.9,401.4 848.7,403.2 			"/>
			<polygon class="st5" points="843.9,402.3 847.1,400.5 847.1,404.1 843.9,406 			"/>
		</g>
	</g>
	<g id="house">
		<g id="building_5_">
			<polygon class="st3" points="917.5,380.2 917.5,435.4 898.4,424.4 898.4,369.1 			"/>
			<polygon class="st4" points="936.6,369.1 917.5,380.2 917.5,435.4 936.6,424.4 			"/>
			<polygon class="st5" points="898.4,369.1 917.5,380.2 936.6,369.1 917.5,358.1 			"/>
		</g>
		<g id="windows_5_">
			<polygon class="st5" points="920.7,382.1 923.9,380.3 923.9,383.9 920.7,385.8 			"/>
			<polygon class="st5" points="930.2,376.6 933.4,374.7 933.4,378.4 930.2,380.3 			"/>
			<polygon class="st5" points="925.4,379.3 928.6,377.5 928.6,381.2 925.4,383 			"/>
			<polygon class="st5" points="920.7,389.5 923.9,387.6 923.9,391.3 920.7,393.1 			"/>
			<polygon class="st5" points="930.2,383.9 933.4,382.1 933.4,385.8 930.2,387.6 			"/>
			<polygon class="st5" points="925.4,386.7 928.6,384.9 928.6,388.5 925.4,390.4 			"/>
			<polygon class="st5" points="920.7,396.8 923.9,395 923.9,398.7 920.7,400.5 			"/>
			<polygon class="st5" points="930.2,391.3 933.4,389.5 933.4,393.1 930.2,395 			"/>
			<polygon class="st5" points="925.4,394.1 928.6,392.2 928.6,395.9 925.4,397.7 			"/>
			<polygon class="st5" points="920.7,404.2 923.9,402.3 923.9,406 920.7,407.9 			"/>
			<polygon class="st5" points="930.2,398.7 933.4,396.8 933.4,400.5 930.2,402.3 			"/>
			<polygon class="st5" points="925.4,401.4 928.6,399.6 928.6,403.3 925.4,405.1 			"/>
			<polygon class="st5" points="920.7,411.5 923.9,409.7 923.9,413.4 920.7,415.2 			"/>
			<polygon class="st5" points="930.2,406 933.4,404.2 933.4,407.9 930.2,409.7 			"/>
			<polygon class="st5" points="925.4,408.8 928.6,406.9 928.6,410.6 925.4,412.5 			"/>
		</g>
	</g>
</g>
<g id="colortheme" class="st9">
	<rect x="2049.6" y="-133.3" class="st10" width="95.6" height="99.3"/>
	<rect x="1954" y="-133.1" class="st11" width="95.6" height="99.3"/>
	<rect x="2145.5" y="-133.3" class="st12" width="95.6" height="99.3"/>
	<rect x="2240.7" y="-133.1" class="st13" width="95.6" height="99.3"/>
	<rect x="1954" y="-33.8" class="st14" width="95.6" height="99.3"/>
	<rect x="2049.6" y="-33.8" class="st15" width="95.6" height="99.3"/>
	<rect x="2145.1" y="-33.8" class="st16" width="95.6" height="99.3"/>
	<rect x="2240.7" y="-33.8" class="st17" width="95.6" height="99.3"/>
	<rect x="2336.3" y="-133.1" class="st18" width="95.6" height="99.3"/>
	<rect x="2335.7" y="-33.8" class="st19" width="95.6" height="99.3"/>
	<rect x="2335.7" y="65.6" class="st20" width="95.6" height="99.3"/>
</g>
</svg>
