<?xml version="1.0" encoding="utf-8"?>
<!-- Generator: Adobe Illustrator 21.0.2, SVG Export Plug-In . SVG Version: 6.00 Build 0)  -->
<svg version="1.0" id="Layer_1" xmlns="http://www.w3.org/2000/svg" xmlns:xlink="http://www.w3.org/1999/xlink" x="0px" y="0px"
	 viewBox="0 0 200 200" style="enable-background:new 0 0 200 200;" xml:space="preserve">
<style type="text/css">
	.st0{fill:#D6D6CC;}
	.st1{fill:#FFFFEE;}
	.st2{fill:#60ACBE;}
	.st3{fill:#0A171D;}
</style>
<g id="mine_1_">
	<g id="mineGroup">
		<g id="arm_x5F_front">
			
				<rect id="arm2" x="44.3" y="11.3" transform="matrix(0.9312 -0.3646 0.3646 0.9312 -12.6833 19.7095)" class="st0" width="3.1" height="64.2"/>
			
				<rect id="arm1" x="53" y="52.2" transform="matrix(0.8127 -0.5827 0.5827 0.8127 -14.7836 61.4201)" class="st0" width="70.4" height="2.9"/>
			<path id="circe2" class="st1" d="M37.6,11.8c0,2-1.6,3.6-3.6,3.6s-3.6-1.6-3.6-3.6S32,8.2,34,8.2C36,8.3,37.6,9.9,37.6,11.8z
				 M34,10.9c-0.5,0-1.1,0.4-1.1,1.1c0,0.5,0.4,1.1,1.1,1.1s1.1-0.4,1.1-1.1C35,11.3,34.6,10.9,34,10.9z"/>
			<path id="circle1" class="st1" d="M62.4,74.7c0,2-1.6,3.6-3.6,3.6c-2,0-3.6-1.6-3.6-3.6s1.6-3.6,3.6-3.6
				C60.8,71.1,62.4,72.7,62.4,74.7z M58.8,73.8c-0.5,0-1.1,0.4-1.1,1.1c0,0.7,0.4,1.1,1.1,1.1s1.1-0.4,1.1-1.1
				C59.9,74.2,59.3,73.8,58.8,73.8z"/>
		</g>
		
			<rect id="arm_x5F_back" x="113.2" y="13" transform="matrix(0.4042 -0.9147 0.9147 0.4042 63.273 125.9953)" class="st0" width="30.3" height="2.9"/>
		<g id="fire1">
			<path id="fire_x5F_orange_1_" class="st2" d="M102.5,173.5c4.3,0,6.5,3.6,7.5,6.4c2.5,6.9-8,18.9-8,18.9s-9.9-11.7-7.6-19.3
				C95.5,176.3,98.7,173.5,102.5,173.5z"/>
			<path id="fire_x5F_yellow_1_" class="st1" d="M102.4,173.5c1.9,0,2.9,1.6,3.3,2.8c1.2,3.1-3.6,8.4-3.6,8.4s-4.4-5.2-3.3-8.5
				C99.3,174.7,100.7,173.5,102.4,173.5z"/>
		</g>
		<g id="fire2">
			<path id="fire_x5F_orange" class="st2" d="M142.1,174.7c4.3,0,6.5,3.6,7.5,6.4c2.5,6.9-8,18.9-8,18.9s-9.9-11.7-7.6-19.3
				C134.9,177.5,138.1,174.7,142.1,174.7z"/>
			<path id="fire_x5F_yellow" class="st1" d="M142,174.7c1.9,0,2.9,1.6,3.3,2.8c1.2,3.1-3.6,8.4-3.6,8.4s-4.4-5.2-3.3-8.5
				C138.8,175.9,140.1,174.7,142,174.7z"/>
		</g>
		<g id="mine_x5F_base">
			<g>
				<rect x="135.6" y="153.2" class="st1" width="12.4" height="12.5"/>
				<rect x="135.6" y="153.2" class="st0" width="6.3" height="12.5"/>
				<g>
					<rect x="132.4" y="165.7" class="st1" width="18.9" height="4.1"/>
					<rect x="132.8" y="165.7" class="st0" width="8.9" height="4.1"/>
					<path class="st3" d="M152,170.5h-20.3v-5.5H152V170.5z M133.1,169.2h17.6v-2.8h-17.6V169.2z"/>
				</g>
			</g>
			<g>
				<rect x="96.1" y="153.2" class="st1" width="12.4" height="12.5"/>
				<rect x="96.1" y="153.2" class="st0" width="6.3" height="12.5"/>
				<g>
					<rect x="92.9" y="165.7" class="st1" width="18.9" height="4.1"/>
					<rect x="93.3" y="165.7" class="st0" width="8.9" height="4.1"/>
					<path class="st3" d="M112.5,170.5H92.3v-5.5h20.3V170.5z M93.6,169.2h17.6v-2.8H93.6V169.2z"/>
				</g>
			</g>
			<g>
				<rect x="105.6" y="51.4" class="st3" width="30.1" height="7.5"/>
				<path class="st0" d="M136.4,59.5h-31.5v-8.8h31.5V59.5z M106.3,58.2h28.8v-6.1h-28.8V58.2z"/>
			</g>
			<path class="st1" d="M138.4,131l-6.9-71.8h-21.7l-6.9,71.8h-3.5v12h3.7v-10h35.6v10h3.7v-12H138.4z M134,115.8L134,115.8
				L134,115.8L134,115.8z M134,115.2l-11.5-6.3v-0.8l10.3-5.6L134,115.2z M122.5,88.3h8l-8,4.4V88.3z M122.5,101.1V96l9.1,5.1H122.5
				z M131.7,102l-9.2,4.9V102H131.7z M122.5,110l10.5,5.7h-10.5V110z M122.5,116.8h10.7l-10.7,5.3V116.8z M122.5,95v-1.1l9.1-5.1
				l1.1,11.7L122.5,95z M130.3,74.8L130.3,74.8L130.3,74.8L130.3,74.8z M122.5,61.5h5.6l-5.6,4V61.5z M122.5,66.8l6.5-4.7l1.1,10.9
				l-7.6-5.2L122.5,66.8L122.5,66.8z M122.5,69.1l6.7,4.7h-6.7V69.1z M122.5,74.8h6.8l-6.8,4.1V74.8z M122.5,80.2l7.7-4.8l1.1,11.3
				l-8.8-5.7L122.5,80.2L122.5,80.2z M130.5,87.4h-8v-5.2L130.5,87.4z M109.9,88.3L109.9,88.3L109.9,88.3L109.9,88.3z M119.5,87.4
				h-8.5l8.5-5.3V87.4z M119.5,74.8v4.3l-6.5-4.3H119.5z M112.8,73.8l6.7-4.8v4.8H112.8z M119.5,61.5v4.3l-6.1-4.3H119.5z
				 M112.4,62.2l7.1,4.9v0.8l-8.1,5.9L112.4,62.2z M111.2,74.8l8.3,5.3v0.7l-9.3,5.9L111.2,74.8z M105.9,131L105.9,131L105.9,131
				L105.9,131z M119.5,131h-12.4l12.4-6.3V131z M119.5,123.6l-13.5,6.7l1.2-13.2l12.3,6.1V123.6z M119.5,122.3l-10.9-5.5h10.9V122.3
				z M119.5,115.8h-11.1l11.1-6V115.8z M119.5,108.7l-12,6.5l1.2-12.8l10.8,6V108.7z M119.5,107.2l-9.6-5.2h9.6V107.2z M119.5,101.1
				h-9.9l9.9-5.5V101.1z M119.5,94.4l-10.7,6l1.1-11.5l9.6,5.3V94.4z M110.9,88.3h8.5v4.8L110.9,88.3z M122.5,131v-6l11.9,6H122.5z
				 M122.5,123.9v-0.7l11.7-5.9l1.2,13.1L122.5,123.9z M135.5,131L135.5,131L135.5,131L135.5,131z"/>
			<path class="st0" d="M126.1,35.4h-10.9v15.9h10.9V35.4z M124.3,36.7l-3.6,5.3l-3.6-5.3H124.3z M116.5,38.3l3.3,5.1l-3.3,5.1V38.3
				z M117.1,49.9l3.6-5.3l3.6,5.3H117.1z M124.8,48.3l-3.3-5.1l3.3-5.1V48.3z"/>
			<path class="st0" d="M120.9,59.1h-11.2l-6.9,71.8h-3.5v12h3.7v-10h17.7V59.1H120.9z M109.9,88.3L109.9,88.3L109.9,88.3
				L109.9,88.3z M105.9,131L105.9,131L105.9,131L105.9,131z M119.5,131h-12.4l12.4-6.3V131z M119.5,123.6l-13.5,6.7l1.2-13.2
				l12.3,6.1V123.6z M119.5,122.3l-10.9-5.5h10.9V122.3z M119.5,115.8h-11.1l11.1-6V115.8z M119.5,108.7l-12,6.5l1.2-12.8l10.8,6
				V108.7z M119.5,107.2l-9.6-5.2h9.6V107.2z M119.5,101.1h-9.9l9.9-5.5V101.1z M119.5,94.4l-10.7,6l1.1-11.5l9.6,5.3V94.4z
				 M119.5,93.2l-8.5-4.8h8.5V93.2z M119.5,87.4h-8.5l8.5-5.3V87.4z M119.5,80.8l-9.3,5.9l1.1-11.9l8.3,5.3V80.8z M119.5,79
				l-6.5-4.3h6.5V79z M119.5,73.8h-6.7l6.7-4.8V73.8z M119.5,67.8l-8.1,5.9l1.1-11.5l7.1,4.9L119.5,67.8L119.5,67.8z M113.3,61.5
				h6.1v4.3L113.3,61.5z"/>
			<path class="st1" d="M127.9,31.1c0,4-3.2,7.2-7.2,7.2c-4,0-7.2-3.2-7.2-7.2s3.2-7.2,7.2-7.2C124.7,23.9,127.9,27.1,127.9,31.1z
				 M120.7,29.1c-1.1,0-2,0.9-2,2c0,1.1,0.9,2,2,2s2-0.9,2-2C122.7,30.1,121.9,29.1,120.7,29.1z"/>
			<g id="minetalp">
				<g>
					<path class="st1" d="M165.8,148.4H76.4c-1.7,0-3.1-1.3-3.1-3.1v-2.3h95.6v2.3C168.9,147,167.6,148.4,165.8,148.4z"/>
					<rect x="74" y="143" class="st0" width="46.6" height="4.7"/>
					<path class="st3" d="M165.8,149.1H76.4c-2.1,0-3.7-1.7-3.7-3.7v-2.9h96.9v2.9C169.6,147.4,167.8,149.1,165.8,149.1z M74,143.6
						v1.6c0,1.3,1.1,2.4,2.4,2.4h89.4c1.3,0,2.4-1.1,2.4-2.4v-1.6H74z"/>
				</g>
				<g>
					<path class="st1" d="M168.9,153.8H73.3v-2.3c0-1.7,1.3-3.1,3.1-3.1h89.3c1.7,0,3.1,1.3,3.1,3.1v2.3H168.9z"/>
					<rect x="74" y="149.1" class="st0" width="46.6" height="4.7"/>
					<path class="st3" d="M169.6,154.4H72.7v-2.9c0-2.1,1.7-3.7,3.7-3.7h89.3c2.1,0,3.7,1.7,3.7,3.7v2.9H169.6z M74,153.1h94.2v-1.6
						c0-1.3-1.1-2.4-2.4-2.4H76.5c-1.3,0-2.4,1.1-2.4,2.4v1.6H74z"/>
				</g>
			</g>
		</g>
	</g>
</g>
</svg>
