<?xml version="1.0" encoding="utf-8"?>
<!-- Generator: Adobe Illustrator 21.0.2, SVG Export Plug-In . SVG Version: 6.00 Build 0)  -->
<svg version="1.0" id="Layer_1" xmlns="http://www.w3.org/2000/svg" xmlns:xlink="http://www.w3.org/1999/xlink" x="0px" y="0px"
	 viewBox="0 0 200 200" style="enable-background:new 0 0 200 200;" xml:space="preserve">
<style type="text/css">
	.st0{fill:#FD8B4F;}
	.st1{opacity:0.5;fill:#C5572C;enable-background:new    ;}
	.st2{fill:#D6D6CC;}
	.st3{fill:#132930;}
	.st4{fill:#040A0C;}
	.st5{opacity:0.2;}
	.st6{fill:#F0F0F0;}
</style>
<g id="spaceStation_1_">
	<g>
		<g>
			<path class="st0" d="M190.7,84.2c0,3-39.7,8.8-88.9,8.8s-88.9-5.7-88.9-8.8s39.7-7.7,88.9-7.7S190.7,81.1,190.7,84.2z"/>
			<path class="st1" d="M101.8,77.2c-50.4,0.9-88.4,4.3-88.4,7.2c0,2.7,39,7.5,88.6,8.8L101.8,77.2z"/>
			<path class="st2" d="M101.8,94c-29.7,0-52.2-2-63-3.2C12,87.7,12,85.2,12,84.3c0-1.1,0-3.4,26.8-5.9c18.1-1.8,40.4-2.7,63-2.7
				s44.7,0.9,63,2.7c26.8,2.5,26.8,4.8,26.8,5.9c0,0.9,0,3.4-26.8,6.4C153.8,91.9,131.5,94,101.8,94z M14,84.2
				c3.9,2.5,39.5,7.9,87.8,7.9s83.7-5.4,87.8-7.9c-4.1-2.5-39.2-6.8-87.8-6.8C53.1,77.4,18.1,81.8,14,84.2z"/>
		</g>
		<g>
			<g>
				<path class="st3" d="M190,82.4c-59-6.8-117.7-7-176.7-0.5c-1.8-14.1-1.6-20.6-1.6-33.8c60.6-8.2,119.9-8.1,180.5-0.4
					C191.9,61.8,191.8,68.4,190,82.4z"/>
				<path class="st4" d="M100.4,76.3c-29,0-58.5,1.4-87.3,5.2c-1.8-13.6-1.6-19.9-1.6-32.7c29.5-4.3,59-7,88.7-7
					C100.4,55.7,100.4,62.5,100.4,76.3z"/>
				<path class="st2" d="M190.7,83.5c-59.6-7-118.8-7.3-178.4-0.5c-2-14.8-1.8-21.6-1.8-35.6C71.9,38.7,131.7,38.9,193,47
					C193,61.8,192.7,68.6,190.7,83.5z M14,80.8c58.7-6.3,116.6-6.1,175.1,0.5c1.6-13.2,1.8-19.5,2-32.9
					c-60.1-7.7-118.6-7.9-178.5,0.2C12.5,61.3,12.3,67.5,14,80.8z"/>
			</g>
		</g>
		<g class="st5">
			<path class="st6" d="M190.7,47.1C170.1,25.8,137,9.6,101.6,9.6S34,25.7,13.4,47c0,0,68.2-5.5,88-5.4
				C121.1,41.6,190.7,47.1,190.7,47.1z"/>
			<path class="st6" d="M193.2,48.2l-2.7-0.2c-0.7,0-69.8-5.5-89.3-5.5s-87.1,5.4-87.8,5.4L10.7,48l1.8-2
				c22.7-23.6,56-37.7,88.9-37.7c32.9,0,67.4,14.5,89.8,37.9L193.2,48.2z M100.9,40.5h0.2c17.4,0,73.9,4.3,86.8,5.4
				c-22.2-21.8-55.1-35.4-86.6-35.4S37.9,23.5,15.6,45.7C28.6,44.6,83.2,40.5,100.9,40.5z"/>
		</g>
		<path class="st2" d="M53.7,43.6l1.4-1.6c12.3-15.2,30.4-33.3,46-33.3c0.2,0,0.2,0,0.4,0c11.6,0.2,25.6,10.7,44.2,33.1l1.4,1.6
			l-2.1-0.2c-0.4,0-34-1.8-43.6-1.8s-44.9,2-45.3,2L53.7,43.6z M101.1,10.5c-11.3,0-26.5,10.9-43.1,30.9c7.9-0.4,34.2-1.8,42.8-1.8
			c0.2,0,0.2,0,0.4,0c8.2,0,33.8,1.3,41.5,1.6c-17.2-20.6-30.8-30.6-41.3-30.8H101.1z"/>
		<g>
			<path class="st2" d="M195.3,74.7c-4.3-2-34.2-7-91.8-7c-0.9,0-1.6,0-2.5,0c-56.9,0.2-86.4,4.5-94.3,8.1c-1.1,0.5-1.3,1.3-1.3,1.6
				c0,0.5,0.2,1.8,6.4,3l0.2-1.8c-1.8-0.4-3.4-0.9-4.3-1.3c8.1-3.6,37.2-7.7,93.4-7.7c59-0.2,89.3,5,93.6,6.8c0.2,0,0.4,0.2,0.4,0.2
				c-0.7,0.4-2.1,0.9-3.8,1.3v1.8c3.8-0.5,5.7-1.6,5.9-2.9C197.3,75.4,195.9,74.9,195.3,74.7z"/>
			<path class="st2" d="M195.2,65.2c-4.3-2-34.2-7-91.8-7c-0.9,0-1.6,0-2.5,0C44,58.4,14.5,62.7,6.4,66.3c-1.1,0.5-1.3,1.3-1.3,1.6
				c0,0.5-0.2,1.8,6.1,3l-0.2-2c-1.8-0.4-2.9-0.7-3.6-1.3c8.1-3.6,37.2-7.7,93.4-7.7c0.9,0,1.8,0,2.5,0c57.4,0,86.9,4.8,91.1,6.6
				c0.2,0.2,0.7,0.2,0.9,0.5c-0.4,0.4-2.1,0.5-3.2,0.7v2c2.1-0.4,5.2-1.1,5.4-2.5C197.7,66.1,195.7,65.4,195.2,65.2z"/>
			<path class="st2" d="M196.4,56.3c-4.1-1.8-35.1-7-93-7c-0.9,0-1.6,0-2.5,0C44,49.5,14.5,53.8,6.4,57.3c-1.3,0.5-1.8,1.3-1.8,1.6
				s0.2,1.8,6.1,2.9l-0.4-2c-1.6,0-2.7-0.2-3.4-0.9c0-1.4,37.7-7.7,93.7-7.9c59.2-0.2,90.7,5,94.8,6.8c0.2,0,0.4,0.2,0.4,0.2
				c-0.7,0.4-1.8,0.5-3.2,0.7l-0.2,2c3.6-0.5,5.4-1.3,5.5-2.5C198.4,57.2,197,56.4,196.4,56.3z"/>
			<path class="st2" d="M197.9,47c-4.5-2-36.1-7.2-97.1-7C42,40.2,11.8,44.5,3.6,48c-1.1,0.5-1.3,1.3-1.1,1.6c0,0.5-0.4,2,8.2,3.2
				l0.2-2c-2.5-0.4-4.5-0.9-5.7-1.4c8.8-3.4,38.8-7.5,95.9-7.7c60.8-0.2,91.9,5,96.4,6.8c0.2,0,0.2,0.2,0.4,0.2
				c-0.9,0.4-2.9,1.1-5,1.3l0.4,1.8c4.3-0.7,6.6-1.6,6.8-3C199.8,47.9,198.4,47.3,197.9,47z"/>
		</g>
		<path class="st2" d="M193.2,47.1l-2.7-0.2c-0.7,0-69.8-5.4-89.3-5.4s-87.1,5.2-87.8,5.2L10.7,47l1.8-1.8
			c22.7-22.9,56-36.5,88.9-36.5c32.9,0,67.4,14.1,89.8,36.7L193.2,47.1z M100.9,39.4h0.2c17.2,0,72.6,4.3,85.3,5.2
			c-21.8-21.1-54-34.2-85-34.2S39.2,23.2,17.4,44.6C29.7,43.6,83.4,39.4,100.9,39.4z"/>
		<path class="st2" d="M117.5,188.1v0.9c0,0.7-1.4,0.5-3,0.5l0,0l0,0c-1.4,0-2.7,0.2-3-0.4V189l0,0v-1.1c-3.2,0-6.6-0.2-10.2-0.2
			c-3.4,0-6.4,0-9.5,0v1.1c0,0.7-1.4,0.5-3,0.5l0,0l0,0c-0.4,0-0.9,0-1.3,0c-1.1,0-2,0-2-0.5v-0.9c-10,0.4-16.8,1.1-16.8,1.8
			c0,1.1,14.5,2,32.6,2c17.9,0,32.6-0.9,32.6-2C133.6,189,127.2,188.5,117.5,188.1z"/>
		<g>
			<g>
				<path class="st6" d="M87.8,190.1L87.8,190.1c-1.8,0-3.2,0.4-3.2-1.4V87.9c0-1.8,1.4-2.7,3.2-2.7l0,0c1.8,0,3.2,0.9,3.2,2.7
					v100.7C91.1,190.4,89.6,190.1,87.8,190.1z"/>
			</g>
			<path class="st2" d="M87.8,85.2c-1.8,0-3.2,0.9-3.2,2.7v100.7c0,1.8,1.4,1.4,3.2,1.4l0,0V85.2z"/>
		</g>
		<g>
			<g>
				<path class="st6" d="M115.4,190.4L115.4,190.4c-1.8,0-3.2,0.4-3.2-1.4V88.3c0-1.8,1.4-2.7,3.2-2.7l0,0c1.8,0,3.2,0.9,3.2,2.7
					V189C118.6,190.8,117.2,190.4,115.4,190.4z"/>
			</g>
			<path class="st2" d="M115.4,85.6c-1.8,0-3.2,0.9-3.2,2.7V189c0,1.8,1.4,1.4,3.2,1.4l0,0V85.6z"/>
		</g>
	</g>
</g>
</svg>
