<?xml version="1.0" encoding="utf-8"?>
<!-- Generator: Adobe Illustrator 21.0.2, SVG Export Plug-In . SVG Version: 6.00 Build 0)  -->
<svg version="1.0" id="townhall" xmlns="http://www.w3.org/2000/svg" xmlns:xlink="http://www.w3.org/1999/xlink" x="0px" y="0px"
	 viewBox="0 0 73.5 144.4" style="enable-background:new 0 0 73.5 144.4;" xml:space="preserve">
<style type="text/css">
	.st0{fill:#FFD666;}
	.st1{fill:#FFBA00;}
	.st2{fill:#FFF1CC;}
	.st3{fill:#FFFFFF;}
</style>
<g id="townhallGroup">
	<g id="townhall_x5F_building">
		<polygon class="st0" points="38.6,49.4 38.6,130.3 19.4,119.3 19.4,38.3 		"/>
		<polygon class="st1" points="57.7,38.3 38.6,49.4 38.6,130.3 57.7,119.3 		"/>
		<polygon class="st2" points="19.4,38.3 38.6,49.4 57.7,38.3 38.6,27.3 		"/>
	</g>
	<g id="townhall_x5F_windows">
		<polygon class="st3" points="41.7,54.9 44.9,53 44.9,56.7 41.7,58.6 		"/>
		<polygon class="st3" points="51.3,49.4 54.5,47.5 54.5,51.2 51.3,53 		"/>
		<polygon class="st3" points="46.5,52.1 49.7,50.3 49.7,54 46.5,55.8 		"/>
		<polygon class="st3" points="41.7,62.2 44.9,60.4 44.9,64.1 41.7,65.9 		"/>
		<polygon class="st3" points="51.3,56.7 54.5,54.9 54.5,58.6 51.3,60.4 		"/>
		<polygon class="st3" points="46.5,59.5 49.7,57.6 49.7,61.3 46.5,63.2 		"/>
		<polygon class="st3" points="41.7,69.6 44.9,67.8 44.9,71.4 41.7,73.3 		"/>
		<polygon class="st3" points="51.3,64.1 54.5,62.2 54.5,65.9 51.3,67.8 		"/>
		<polygon class="st3" points="46.5,66.8 49.7,65 49.7,68.7 46.5,70.5 		"/>
		<polygon class="st3" points="41.7,77 44.9,75.1 44.9,78.8 41.7,80.6 		"/>
		<polygon class="st3" points="51.3,71.4 54.5,69.6 54.5,73.3 51.3,75.1 		"/>
		<polygon class="st3" points="46.5,74.2 49.7,72.4 49.7,76 46.5,77.9 		"/>
		<polygon class="st3" points="41.7,84.3 44.9,82.5 44.9,86.2 41.7,88 		"/>
		<polygon class="st3" points="51.3,78.8 54.5,77 54.5,80.6 51.3,82.5 		"/>
		<polygon class="st3" points="46.5,81.6 49.7,79.7 49.7,83.4 46.5,85.2 		"/>
		<polygon class="st3" points="41.7,91.7 44.9,89.8 44.9,93.5 41.7,95.4 		"/>
		<polygon class="st3" points="51.3,86.2 54.5,84.3 54.5,88 51.3,89.8 		"/>
		<polygon class="st3" points="46.5,88.9 49.7,87.1 49.7,90.8 46.5,92.6 		"/>
		<polygon class="st3" points="41.7,99 44.9,97.2 44.9,100.9 41.7,102.7 		"/>
		<polygon class="st3" points="51.3,93.5 54.5,91.7 54.5,95.4 51.3,97.2 		"/>
		<polygon class="st3" points="46.5,96.3 49.7,94.4 49.7,98.1 46.5,100 		"/>
		<polygon class="st3" points="41.7,106.4 44.9,104.5 44.9,108.2 41.7,110.1 		"/>
		<polygon class="st3" points="51.3,100.9 54.5,99 54.5,102.7 51.3,104.5 		"/>
		<polygon class="st3" points="46.5,103.6 49.7,101.8 49.7,105.5 46.5,107.3 		"/>
	</g>
</g>
</svg>
