<?xml version="1.0" encoding="utf-8"?>
<!-- Generator: Adobe Illustrator 21.0.2, SVG Export Plug-In . SVG Version: 6.00 Build 0)  -->
<svg version="1.1" id="Layer_1" xmlns="http://www.w3.org/2000/svg" xmlns:xlink="http://www.w3.org/1999/xlink" x="0px" y="0px"
	 viewBox="0 0 300 300" style="enable-background:new 0 0 300 300;" xml:space="preserve">
<style type="text/css">
	.st0{fill:#132930;stroke:#000000;stroke-miterlimit:10;}
	.st1{fill:#FFFFFF;}
</style>
<g id="Layer_2">
	<path class="st0" d="M149.5,299L149.5,299C66.9,299,0,232.1,0,149.5l0,0C0,66.9,66.9,0,149.5,0l0,0C232.1,0,299,66.9,299,149.5l0,0
		C299,232.1,232.1,299,149.5,299z"/>
</g>
<g id="Capa_1">
	<path class="st1" d="M252.5,120.4c0-0.1,0-0.3,0-0.4c0-0.2,0-0.3,0-0.5c0-0.1,0-0.3-0.1-0.4c0-0.2-0.1-0.3-0.2-0.5
		c0-0.1,0-0.2-0.1-0.2c0-0.1-0.1-0.1-0.1-0.2s0-0.1-0.1-0.2l-34.2-54.7c-0.2-0.2-0.3-0.5-0.6-0.7l0,0c-0.3-0.3-0.6-0.5-1-0.6
		l-0.1-0.1h-0.1c-0.3-0.1-0.7-0.2-1.1-0.2H85.1c-0.4,0-0.7,0.1-1.1,0.2h-0.1c-0.1,0-0.1,0.1-0.1,0.1c-0.4,0.1-0.7,0.3-1,0.6
		c0,0,0,0-0.1,0c-0.2,0.2-0.4,0.4-0.6,0.7L48,118c0,0.1,0,0.1-0.1,0.2s-0.1,0.1-0.1,0.2s0,0.2-0.1,0.2c-0.1,0.2-0.1,0.3-0.2,0.5
		c0,0.1-0.1,0.3-0.1,0.4c0,0.2,0,0.3,0,0.5c0,0.1,0,0.3,0,0.4c0,0.2,0.1,0.3,0.1,0.5c0,0.1,0.1,0.3,0.2,0.4c0,0.1,0,0.1,0.1,0.2
		s0.1,0.2,0.2,0.3c0,0.1,0.1,0.2,0.1,0.2l99.1,123l0,0l0,0l0,0c0.3,0.3,0.6,0.6,1,0.8c0.1,0.1,0.2,0.1,0.3,0.1
		c0.4,0.2,0.9,0.3,1.3,0.3c0.4,0,0.8-0.1,1.2-0.2c0.1,0,0.1-0.1,0.2-0.1c0.2-0.1,0.3-0.2,0.5-0.3c0.3-0.2,0.5-0.3,0.7-0.6
		c0-0.1,0.1-0.1,0.2-0.1l99.1-123c0.1-0.1,0.1-0.2,0.1-0.2c0.1-0.1,0.1-0.2,0.2-0.3c0-0.1,0-0.1,0.1-0.2s0.1-0.3,0.2-0.4
		C252.4,120.7,252.4,120.6,252.5,120.4z M157.2,68.6H210l-16.6,44.6L157.2,68.6z M187.2,116.4h-74.5L150,70.6L187.2,116.4z
		 M106.4,113.4L90,68.6h52.9L106.4,113.4z M189.6,123.2l-40.2,108l-39.5-108H189.6z M215.7,72.8l27.2,43.6h-43.5L215.7,72.8z
		 M84.3,72.9l15.9,43.5H57.1L84.3,72.9z M102.7,123.2l37,101.4L58,123.2H102.7z M158.2,227.2l38.7-104h45L158.2,227.2z"/>
</g>
</svg>
