<?xml version="1.0" encoding="utf-8"?>
<!-- Generator: Adobe Illustrator 21.0.2, SVG Export Plug-In . SVG Version: 6.00 Build 0)  -->
<svg version="1.1" id="Layer_1" xmlns="http://www.w3.org/2000/svg" xmlns:xlink="http://www.w3.org/1999/xlink" x="0px" y="0px"
	 viewBox="0 0 300 300" style="enable-background:new 0 0 300 300;" xml:space="preserve">
<style type="text/css">
	.st0{fill:#132930;stroke:#000000;stroke-miterlimit:10;}
	.st1{fill:#FFFFFF;}
</style>
<g>
	<path class="st0" d="M81,283.2L81,283.2C7.5,245.1-21.3,154.6,16.8,81l0,0C54.9,7.5,145.4-21.3,219,16.8l0,0
		c73.5,38.1,102.3,128.6,64.2,202.1l0,0C245.1,292.5,154.6,321.3,81,283.2z"/>
	<path class="st1" d="M59.6,188.5c-1.7-0.9-3-1.6-4-2.2c-0.7-0.4-1.4-0.8-2.1-1.3c0,0,0,0,0,0c-0.1-0.1-0.2-0.1-0.3-0.2
		C38.8,174.2,41.5,139.7,60,104c19.3-37.3,47.5-59.8,64.3-51.3c2.3,1,30.4,13.4,42.5,40.3c7.4,16.4,8.5,27.2,9.3,35
		c0.5,5.2,0.9,9,2.8,12.6c2.3,4.6,5.1,8.1,7.6,11.2c3,3.8,5.6,7,6.3,10.9c0.4,2.4,0.4,4.3,0.1,5.9l16.8,8.7c0.4-1.4,0.9-2.8,1.6-4.1
		c5.6-10.8,19-15.1,29.8-9.5c10.8,5.6,15.1,19,9.5,29.8c-3.5,6.7-10,11.1-17.4,11.8c0.6,3.9,0,8-1.9,11.6
		c-4.8,9.3-16.3,12.9-25.6,8.1c-9.3-4.8-12.9-16.3-8.1-25.6c0.2-0.4,0.4-0.8,0.7-1.2l-17.3-10c-0.6,0.3-1.4,0.7-2.2,1
		c-3.3,1.2-7.3,0.7-12,0.1c-3.8-0.5-8.2-1-13-0.7c-3.8,0.2-6.9,1.6-11,3.4c-6.4,2.9-15.1,6.8-31.9,8.5
		C90.3,202.6,69.6,193.7,59.6,188.5z M56.7,180.3c0.3,0.2,0.9,0.5,1.7,1c6.1,2.8,15.4-0.3,25.4-8.7c11.1-9.2,22.1-23.5,30.8-40.3
		s14.1-34,15.2-48.4c1-13.4-1.9-22.9-8-26c-6.1-3.2-15.5-0.1-25.9,8.5c-11.1,9.2-22.1,23.5-30.8,40.3S51,140.6,49.9,155
		C49,167.4,51.4,176.5,56.7,180.3z M133.6,64.4c5.3,15.6,0.5,42.7-13.9,70.5C105.3,162.8,85.9,182.4,70,187
		c10.5,4.5,25.6,9.3,40.3,7.8c15.9-1.6,23.8-5.2,30.1-8c4.4-2,8.2-3.7,13.1-3.9c5.4-0.3,10.2,0.3,14.1,0.8c3.9,0.5,7.3,0.9,9.3,0.2
		c2.1-0.8,3.1-1.7,3.9-2.9c0.2-0.4,0.5-0.9,0.9-1.6c0.1-0.2,0.2-0.4,0.3-0.5c0.2-0.4,0.4-0.9,0.6-1.3l2.3-4.5c0.3-0.7,0.6-1.3,1-1.9
		c1.1-2.1,1.9-3.6,1.3-7.4c-0.4-2.4-2.5-5-5.1-8.3c-2.5-3.1-5.6-7.1-8.2-12.2c-2.4-4.6-2.8-9.2-3.4-14.6c-0.8-7.9-1.8-17.7-8.8-33.2
		C154.9,80.6,142.7,70.4,133.6,64.4z M185.8,184.4l18.2,10.5c0.8,0.4,1.3,1.2,1.4,2c0.1,0.9-0.1,1.7-0.7,2.4
		c-0.8,0.8-1.4,1.8-1.9,2.8c-3.4,6.5-0.8,14.5,5.7,17.8c6.5,3.4,14.5,0.8,17.8-5.7c1.7-3.3,2-7.3,0.6-10.8c-0.3-0.9-0.2-1.9,0.4-2.7
		c0.6-0.8,1.5-1.2,2.5-1.1c6.5,0.5,12.7-3,15.7-8.8c4.2-8,1-17.9-7-22.1c-8-4.2-17.9-1-22.1,7c-1,1.9-1.6,3.9-1.8,6
		c-0.1,1-0.6,1.8-1.5,2.3c-0.8,0.5-1.9,0.5-2.7,0L190.9,174L185.8,184.4z M73.3,144.7c-5.4-2.8-6-11.5-1.5-20.3
		c4.5-8.8,12-13.3,17.4-10.5s6,11.5,1.5,20.3C86.2,142.9,78.7,147.5,73.3,144.7z M86.6,119c-1.7-0.9-6.5,1.9-9.7,8
		c-3.2,6.2-2.7,11.6-1,12.5c1.7,0.9,6.5-1.9,9.7-8S88.3,119.9,86.6,119z M98,78.7c-0.2-0.1-0.4-0.3-0.6-0.5
		c-1.2-1.1-1.2-2.9-0.1-4.1c8.2-8.8,18.7-7.6,19.1-7.6c1.6,0.2,2.7,1.6,2.5,3.2c-0.2,1.6-1.6,2.7-3.2,2.5c-0.4,0-8.1-0.8-14.3,5.8
		C100.5,79.1,99.1,79.3,98,78.7z"/>
</g>
</svg>
