<?xml version="1.0" encoding="utf-8"?>
<!-- Generator: Adobe Illustrator 21.0.2, SVG Export Plug-In . SVG Version: 6.00 Build 0)  -->
<svg version="1.1" xmlns="http://www.w3.org/2000/svg" xmlns:xlink="http://www.w3.org/1999/xlink" x="0px" y="0px"
	 viewBox="0 0 300 300" style="enable-background:new 0 0 300 300;" xml:space="preserve">
<style type="text/css">
	.st0{fill:#132930;}
	.st1{fill:#FFFFFF;}
	.st2{fill:#F9D026;}
	.st3{fill:#E7C224;}
	.st4{fill:#F74D37;}
	.st5{fill:#C43D2C;}
	.st6{fill:#EDEEF0;}
	.st7{fill:#DCDEE2;}
	.st8{fill:#444242;}
	.st9{fill:#3A3839;}
	.st10{fill:#BCE8F7;}
	.st11{fill:#8EC1D6;}
</style>
<g id="Layer_4">
	<rect y="-1" class="st0" width="309" height="307"/>
	<circle class="st1" cx="41.5" cy="31.5" r="3.5"/>
	
		<ellipse transform="matrix(0.4392 -0.8984 0.8984 0.4392 -83.9146 402.5689)" class="st1" cx="280.5" cy="268.5" rx="3.5" ry="3.5"/>
	<circle class="st1" cx="252.5" cy="109.5" r="3.5"/>
	<circle class="st1" cx="65.5" cy="218.5" r="3.5"/>
	<g>
		<g>
			<path class="st1" d="M197,33c3.2,0,3.2-5,0-5C193.8,28,193.8,33,197,33L197,33z"/>
		</g>
	</g>
	<g>
		<g>
			<path class="st1" d="M52,93c3.2,0,3.2-5,0-5C48.8,88,48.8,93,52,93L52,93z"/>
		</g>
	</g>
	<g>
		<g>
			<path class="st1" d="M278.5,21c1.3,0,1.3-2,0-2C277.2,19,277.2,21,278.5,21L278.5,21z"/>
		</g>
	</g>
	<g>
		<g>
			<path class="st1" d="M172.5,265c1.3,0,1.3-2,0-2C171.2,263,171.2,265,172.5,265L172.5,265z"/>
		</g>
	</g>
	<g>
		<g>
			<path class="st1" d="M26,278c1.3,0,1.3-2,0-2C24.7,276,24.7,278,26,278L26,278z"/>
		</g>
	</g>
	<g>
		<g>
			<path class="st1" d="M276.5,189c1.3,0,1.3-2,0-2C275.2,187,275.2,189,276.5,189L276.5,189z"/>
		</g>
	</g>
	<g>
		<g>
			<path class="st1" d="M10.5,149.5c1.3,0,1.3-2,0-2C9.2,147.5,9.2,149.5,10.5,149.5L10.5,149.5z"/>
		</g>
	</g>
	<g>
		<g>
			<path class="st1" d="M125.5,68c1.3,0,1.3-2,0-2C124.2,66,124.2,68,125.5,68L125.5,68z"/>
		</g>
	</g>
	<g>
		<g>
			<path class="st1" d="M90.5,18.5c1.3,0,1.3-2,0-2C89.2,16.5,89.2,18.5,90.5,18.5L90.5,18.5z"/>
		</g>
	</g>
	<g>
		<g>
			<path class="st1" d="M8.5,6c1.3,0,1.3-2,0-2C7.2,4,7.2,6,8.5,6L8.5,6z"/>
		</g>
	</g>
	<g>
		<g>
			<path class="st1" d="M247,225.5c1.3,0,1.3-2,0-2C245.7,223.5,245.7,225.5,247,225.5L247,225.5z"/>
		</g>
	</g>
	<g>
		<g>
			<path class="st1" d="M112,280c1.3,0,1.3-2,0-2C110.7,278,110.7,280,112,280L112,280z"/>
		</g>
	</g>
	<g>
		<g>
			<path class="st1" d="M283,61c2.6,0,2.6-4,0-4C280.4,57,280.4,61,283,61L283,61z"/>
		</g>
	</g>
	<g>
		<g>
			<path class="st1" d="M7.5,200c2.6,0,2.6-4,0-4C4.9,196,4.9,200,7.5,200L7.5,200z"/>
		</g>
	</g>
	<g>
		<g>
			<path class="st1" d="M218.5,284c2.6,0,2.6-4,0-4C215.9,280,215.9,284,218.5,284L218.5,284z"/>
		</g>
	</g>
</g>
<g id="Layer_1">
	<g>
		<path class="st2" d="M101.3,139.5l4.7,2.5l-17.1,1.6l6.6,3.7L75,150.7l20.6,3.1l-6.5,3.8l17.2,1.2l-4.7,2.6
			c0,0,23.8,4.1,23.6-11.3S101.3,139.4,101.3,139.5z"/>
		<path class="st3" d="M101.3,139.5l4.7,2.5L89,143.5l6.6,3.7l-20.5,3.5l50.1-0.6C125.1,134.7,101.3,139.4,101.3,139.5z"/>
		<polygon class="st4" points="164.3,165.2 148.8,187.5 128.9,187.8 144.4,165.4 		"/>
		<polygon class="st5" points="164,134.1 147.9,112.2 128.1,112.4 144,134.4 		"/>
		<path class="st6" d="M182.3,131.1c0,0-39.8,0.5-47,0.5c-7.1,0.1-13.7,6.6-13.5,18.5c0.2,11.9,6.8,18.2,13.9,18.2
			c7.1-0.1,47-0.5,47-0.5c4.3,0,8.4-0.7,12.3-1.8c17-4.7,30-17,30-17s-13.3-11.9-30.4-16.3C190.6,131.7,186.5,131.1,182.3,131.1z"/>
		<path class="st7" d="M182.3,131.2c0,0-39.8,0.5-47,0.5c-7.1,0.1-13.7,6.6-13.5,18.5l13.7-0.2l59.2-0.7L225,149
			c0,0-13.3-11.9-30.4-16.3C190.6,131.7,186.5,131.1,182.3,131.2z"/>
		<path class="st4" d="M194.5,132.8l0.2,16.6l0.2,16.6c17-4.7,30-17,30-17S211.6,137.1,194.5,132.8z"/>
		<path class="st8" d="M135.4,131.7c-7.1,0.1-13.7,6.6-13.5,18.5c0.2,11.9,6.8,18.2,13.9,18.2l-0.2-18.3L135.4,131.7z"/>
		<path class="st9" d="M121.8,150.2l13.7-0.2l-0.2-18.3C128.2,131.8,121.7,138.3,121.8,150.2z"/>
		
			<ellipse transform="matrix(0.699 -0.7152 0.7152 0.699 -53.9177 170.9413)" class="st10" cx="176.1" cy="149.5" rx="8.5" ry="8.5"/>
		<polygon class="st4" points="128.4,145.6 101.9,150.4 101.9,150.4 128.5,154.5 155.1,149.8 155.1,149.8 		"/>
		<g>
			<polygon class="st5" points="101.9,150.4 101.9,150.4 155.1,149.8 155.1,149.8 128.4,145.6 			"/>
			<path class="st5" d="M194.5,132.8l0.2,16.6L225,149C225,149,211.6,137.1,194.5,132.8z"/>
		</g>
		<path class="st11" d="M167.7,149.7l16.9-0.2c-0.1-4.7-3.9-8.4-8.6-8.3C171.3,141.2,167.6,145,167.7,149.7z"/>
	</g>
	<g>
		<g>
			<path class="st1" d="M206,75c2.6,0,2.6-4,0-4C203.4,71,203.4,75,206,75L206,75z"/>
		</g>
	</g>
	<g>
		<g>
			<path class="st1" d="M184,192.5c2.6,0,2.6-4,0-4C181.4,188.5,181.4,192.5,184,192.5L184,192.5z"/>
		</g>
	</g>
	<g>
		<g>
			<path class="st1" d="M111,176.5c2.6,0,2.6-4,0-4C108.4,172.5,108.4,176.5,111,176.5L111,176.5z"/>
		</g>
	</g>
	<g>
		<g>
			<path class="st1" d="M131,236c2.6,0,2.6-4,0-4C128.4,232,128.4,236,131,236L131,236z"/>
		</g>
	</g>
	<g>
		<g>
			<path class="st1" d="M76,293.5c2.6,0,2.6-4,0-4C73.4,289.5,73.4,293.5,76,293.5L76,293.5z"/>
		</g>
	</g>
	<g>
		<g>
			<path class="st1" d="M247,157.5c2.6,0,2.6-4,0-4C244.4,153.5,244.4,157.5,247,157.5L247,157.5z"/>
		</g>
	</g>
	<g>
		<g>
			<path class="st1" d="M182.5,114.5c2.6,0,2.6-4,0-4C179.9,110.5,179.9,114.5,182.5,114.5L182.5,114.5z"/>
		</g>
	</g>
</g>
<g id="Layer_2">
</g>
<g id="Layer_3">
</g>
</svg>
