<?xml version="1.0" encoding="utf-8"?>
<!-- Generator: Adobe Illustrator 21.0.2, SVG Export Plug-In . SVG Version: 6.00 Build 0)  -->
<svg version="1.1" xmlns="http://www.w3.org/2000/svg" xmlns:xlink="http://www.w3.org/1999/xlink" x="0px" y="0px"
	 viewBox="0 0 300 300" style="enable-background:new 0 0 300 300;" xml:space="preserve">
<style type="text/css">
	.st0{fill:#FD8B4F;stroke:#FFFFFF;stroke-miterlimit:10;}
	.st1{fill:#E5C400;}
	.st2{opacity:0.4;fill:#DDC75C;enable-background:new    ;}
	.st3{fill:#FEE159;}
	.st4{fill:#808080;}
	.st5{fill:#464646;}
	.st6{opacity:0.4;fill:#5B5B5F;enable-background:new    ;}
	.st7{opacity:0.4;fill:#FEE159;enable-background:new    ;}
	.st8{opacity:0.3;fill:#464646;enable-background:new    ;}
</style>
<g id="Layer_4">
	<rect x="-6.5" y="-3.5" class="st0" width="313" height="313"/>
</g>
<g id="Layer_1">
	<g>
		<path class="st1" d="M130.4,137.9c-20.6-8.1-29.2-23.1-32.9-34.2c-3.9-12-3-22-3-22.5l0.3-2.9H119v6.5h-18.1
			c0,3.6,0.5,10,2.8,17.1c4.7,14.2,14.5,24.3,29,30L130.4,137.9z"/>
		<path class="st2" d="M130.4,137.9c-20.6-8.1-29.2-23.1-32.9-34.2c-3.9-12-3-22-3-22.5l0.3-2.9H119v6.5h-18.1
			c0,3.6,0.5,10,2.8,17.1c4.7,14.2,14.5,24.3,29,30L130.4,137.9z"/>
		<rect x="144.5" y="144.8" class="st3" width="11" height="27.9"/>
		<path class="st1" d="M177.9,183.8h-55.8v-2.4c0-4.8,3.9-8.7,8.7-8.7h38.3c4.8,0,8.7,3.9,8.7,8.7L177.9,183.8L177.9,183.8z"/>
		<rect x="115.1" y="183.8" class="st4" width="69.9" height="34.4"/>
		<rect x="111.4" y="216.7" class="st5" width="77.3" height="8.3"/>
		<rect x="144.5" y="144.8" class="st6" width="11" height="7.4"/>
		<path class="st3" d="M205.5,81.2l-0.3-2.9h-17.6c0-1.1,0-2.2,0-3.3c-15.5,0-37.6,0-37.6,0s-22.1,0-37.6,0c0,25.3,6.3,73,37.6,73
			c9.4,0,16.6-4.3,22-11.1c18.8-8.3,27-22.5,30.5-33.2C206.4,91.7,205.5,81.7,205.5,81.2z M196.3,101.7
			c-3.3,10.2-9.3,18.3-17.7,24.2c5.6-12.5,8-28.1,8.7-41.1h11.8C199.1,88.3,198.6,94.6,196.3,101.7z"/>
		<path class="st7" d="M177.9,183.8h-55.8v-2.4c0-4.8,3.9-8.7,8.7-8.7h38.3c4.8,0,8.7,3.9,8.7,8.7L177.9,183.8L177.9,183.8z"/>
		<path class="st8" d="M205.5,81.2l-0.3-2.9h-17.6c0-1.1,0-2.2,0-3.3c-15.5,0-37.6,0-37.6,0v150h38.6v-8.3h-3.7v-32.9h-7v-2.4
			c0-4.8-3.9-8.7-8.7-8.7h-13.6v-25.1c6.8-1.4,12.2-5.2,16.5-10.6c18.8-8.3,27-22.5,30.5-33.2C206.4,91.7,205.5,81.7,205.5,81.2z
			 M196.3,101.7c-3.3,10.2-9.3,18.3-17.7,24.2c5.6-12.5,8-28.1,8.7-41.1h11.8C199.1,88.3,198.6,94.6,196.3,101.7z"/>
	</g>
</g>
<g id="Layer_2">
</g>
<g id="Layer_3">
</g>
</svg>
