<?xml version="1.0" encoding="utf-8"?>
<!-- Generator: Adobe Illustrator 21.0.2, SVG Export Plug-In . SVG Version: 6.00 Build 0)  -->
<svg version="1.1" xmlns="http://www.w3.org/2000/svg" xmlns:xlink="http://www.w3.org/1999/xlink" x="0px" y="0px"
	 viewBox="0 0 300 300" style="enable-background:new 0 0 300 300;" xml:space="preserve">
<style type="text/css">
	.st0{fill:#132930;}
	.st1{fill:#FFFFFF;}
	.st2{fill:#DD6231;stroke:#FC6E23;stroke-miterlimit:10;}
	.st3{fill:#FC6E23;stroke:#FC6E23;stroke-miterlimit:10;}
	.st4{fill:#944121;}
	.st5{fill:#C5572C;}
</style>
<g id="Layer_4">
	<rect y="-1" class="st0" width="309" height="307"/>
	<circle class="st1" cx="41.5" cy="31.5" r="3.5"/>
	
		<ellipse transform="matrix(0.4392 -0.8984 0.8984 0.4392 -83.9146 402.5689)" class="st1" cx="280.5" cy="268.5" rx="3.5" ry="3.5"/>
	<circle class="st1" cx="252.5" cy="109.5" r="3.5"/>
	<circle class="st1" cx="65.5" cy="218.5" r="3.5"/>
	<g>
		<g>
			<path class="st1" d="M197,33c3.2,0,3.2-5,0-5C193.8,28,193.8,33,197,33L197,33z"/>
		</g>
	</g>
	<g>
		<g>
			<path class="st1" d="M52,93c3.2,0,3.2-5,0-5C48.8,88,48.8,93,52,93L52,93z"/>
		</g>
	</g>
	<g>
		<g>
			<path class="st1" d="M278.5,21c1.3,0,1.3-2,0-2C277.2,19,277.2,21,278.5,21L278.5,21z"/>
		</g>
	</g>
	<g>
		<g>
			<path class="st1" d="M172.5,265c1.3,0,1.3-2,0-2C171.2,263,171.2,265,172.5,265L172.5,265z"/>
		</g>
	</g>
	<g>
		<g>
			<path class="st1" d="M26,278c1.3,0,1.3-2,0-2C24.7,276,24.7,278,26,278L26,278z"/>
		</g>
	</g>
	<g>
		<g>
			<path class="st1" d="M276.5,189c1.3,0,1.3-2,0-2C275.2,187,275.2,189,276.5,189L276.5,189z"/>
		</g>
	</g>
	<g>
		<g>
			<path class="st1" d="M10.5,149.5c1.3,0,1.3-2,0-2C9.2,147.5,9.2,149.5,10.5,149.5L10.5,149.5z"/>
		</g>
	</g>
	<g>
		<g>
			<path class="st1" d="M125.5,68c1.3,0,1.3-2,0-2C124.2,66,124.2,68,125.5,68L125.5,68z"/>
		</g>
	</g>
	<g>
		<g>
			<path class="st1" d="M90.5,18.5c1.3,0,1.3-2,0-2C89.2,16.5,89.2,18.5,90.5,18.5L90.5,18.5z"/>
		</g>
	</g>
	<g>
		<g>
			<path class="st1" d="M8.5,6c1.3,0,1.3-2,0-2C7.2,4,7.2,6,8.5,6L8.5,6z"/>
		</g>
	</g>
	<g>
		<g>
			<path class="st1" d="M247,225.5c1.3,0,1.3-2,0-2C245.7,223.5,245.7,225.5,247,225.5L247,225.5z"/>
		</g>
	</g>
	<g>
		<g>
			<path class="st1" d="M112,280c1.3,0,1.3-2,0-2C110.7,278,110.7,280,112,280L112,280z"/>
		</g>
	</g>
	<g>
		<g>
			<path class="st1" d="M283,61c2.6,0,2.6-4,0-4C280.4,57,280.4,61,283,61L283,61z"/>
		</g>
	</g>
	<g>
		<g>
			<path class="st1" d="M7.5,200c2.6,0,2.6-4,0-4C4.9,196,4.9,200,7.5,200L7.5,200z"/>
		</g>
	</g>
	<g>
		<g>
			<path class="st1" d="M218.5,284c2.6,0,2.6-4,0-4C215.9,280,215.9,284,218.5,284L218.5,284z"/>
		</g>
	</g>
</g>
<g id="Layer_1">
	<g>
		<g>
			<circle class="st2" cx="150.1" cy="150.5" r="74.9"/>
			<path class="st3" d="M221.7,128.4c-9.1-31.1-37.8-53.8-71.9-53.8c-41.4,0-74.9,33.5-74.9,74.9c0,17.3,5.9,33.2,15.7,45.9
				c12.4,6.4,26.5,10,41.4,10C177.6,205.4,215.2,172,221.7,128.4z"/>
		</g>
		<g>
			
				<ellipse transform="matrix(0.4306 -0.9025 0.9025 0.4306 -40.8027 294.7056)" class="st4" cx="213.2" cy="179.7" rx="5.8" ry="2.5"/>
			
				<ellipse transform="matrix(0.4513 -0.8924 0.8924 0.4513 -10.7071 213.4728)" class="st5" cx="168.2" cy="115.4" rx="3.1" ry="4.1"/>
			<ellipse transform="matrix(0.3148 -0.9491 0.9491 0.3148 -58.49 205.9971)" class="st5" cx="113.4" cy="143.5" rx="4" ry="3.1"/>
			
				<ellipse transform="matrix(0.847 -0.5316 0.5316 0.847 -76.4407 128.7686)" class="st5" cx="185.5" cy="197.2" rx="14.8" ry="7.3"/>
			<path class="st4" d="M183.1,193.6c6.2-3.9,12.6-4.9,15.5-2.7c-0.1-0.6-0.2-1.2-0.6-1.8c-2.1-3.4-9.5-2.6-16.4,1.7
				c-6.9,4.3-10.8,10.6-8.7,14c0.2,0.4,0.5,0.7,0.9,1C173.6,202.3,177.2,197.3,183.1,193.6z"/>
			
				<ellipse transform="matrix(0.2274 -0.9738 0.9738 0.2274 4.7184 312.5516)" class="st5" cx="199.3" cy="153.3" rx="12.8" ry="9.1"/>
			<path class="st4" d="M190.3,155.2c1.6-6.9,6.9-11.5,11.8-10.4c3.6,0.9,6.1,4.7,6.4,9.4c1.1-6.4-1.6-12.2-6.2-13.3
				c-4.9-1.1-10.2,3.5-11.8,10.4c-0.4,1.8-0.5,3.5-0.4,5.1C190.1,156,190.2,155.6,190.3,155.2z"/>
			
				<ellipse transform="matrix(0.9106 -0.4132 0.4132 0.9106 -59.6893 66.8666)" class="st5" cx="124.7" cy="171.4" rx="10.5" ry="16"/>
			<path class="st4" d="M118.9,160.1c5.3-2.4,12.5,2.2,16.2,10.2c0.4,0.9,0.8,1.9,1.1,2.8c-0.3-2-0.9-4-1.8-6
				c-3.6-8-10.9-12.6-16.2-10.2c-4.7,2.1-6.2,9-4,16.1C113.2,167.1,114.9,161.9,118.9,160.1z"/>
			
				<ellipse transform="matrix(0.3273 -0.9449 0.9449 0.3273 -107.015 256.0107)" class="st5" cx="126.3" cy="203.2" rx="6.6" ry="14.6"/>
			<path class="st4" d="M113.2,201.8c1.2-3.5,8.3-4.1,16-1.5c5.2,1.8,9.3,4.7,11,7.5c0.9-3.4-4.3-8.2-11.7-10.8
				c-7.6-2.6-14.8-2-16,1.5c-0.4,1.1-0.1,2.3,0.6,3.6C113.2,202,113.2,201.9,113.2,201.8z"/>
			
				<ellipse transform="matrix(0.3699 -0.9291 0.9291 0.3699 -47.7991 174.7371)" class="st5" cx="104.9" cy="122.6" rx="16.6" ry="7.4"/>
			<path class="st4" d="M97.7,122.6c3.4-8.5,9.7-14,14.1-12.2c0.8,0.3,1.5,0.8,2,1.5c-0.4-2.4-1.4-4.2-2.9-4.8
				c-3.8-1.5-9.7,4.1-13,12.6c-1.9,4.8-2.6,9.5-2.2,12.9C95.7,129.6,96.3,126.1,97.7,122.6z"/>
			
				<ellipse transform="matrix(0.2692 -0.9631 0.9631 0.2692 34.2557 223.0295)" class="st5" cx="164.1" cy="88.9" rx="8" ry="16.1"/>
			<path class="st4" d="M166,81.3c-8.6-2.4-16.5-0.9-17.7,3.3c-0.2,0.6-0.2,1.2-0.1,1.9c2.5-3.1,9.4-3.9,16.9-1.8
				c7.4,2.1,12.8,6.3,13.5,10.2c0.4-0.5,0.6-1,0.8-1.5C180.5,89,174.6,83.7,166,81.3z"/>
			
				<ellipse transform="matrix(0.9549 -0.2971 0.2971 0.9549 -43.7915 34.984)" class="st5" cx="93.2" cy="161.6" rx="6.4" ry="14.9"/>
			<path class="st4" d="M90.5,165.1c-2.4-7.9-1.7-15.1,1.7-16.1c0.3-0.1,0.6-0.1,0.9-0.1c-1.5-1.3-3-1.9-4.3-1.5
				c-3.4,1-4.1,8.3-1.7,16.1c2.2,7.2,6.3,12.4,9.6,12.5C94.3,173.8,92,169.9,90.5,165.1z"/>
			
				<ellipse transform="matrix(0.9615 -0.2747 0.2747 0.9615 -53.7742 53.078)" class="st5" cx="162.6" cy="218.5" rx="11.4" ry="3.4"/>
			<path class="st4" d="M162.9,217c4.4-1.3,8.4-1.6,10.4-1c0.1-0.2,0.1-0.5,0-0.7c-0.5-1.8-5.8-1.8-11.8-0.1c-6,1.7-10.5,4.6-10,6.4
				c0.1,0.5,0.6,0.8,1.4,1.1C153.5,220.9,157.6,218.5,162.9,217z"/>
			<ellipse transform="matrix(0.866 -0.5 0.5 0.866 -63.1252 110.0699)" class="st5" cx="173.8" cy="172.8" rx="6.2" ry="4.6"/>
			<path class="st4" d="M172.1,170.8c2.8-1.6,6-1.4,7.4,0.5c0-0.6-0.2-1.2-0.5-1.7c-1.3-2.2-4.7-2.6-7.7-0.9c-3,1.7-4.4,4.9-3.1,7.1
				c0.1,0.1,0.2,0.3,0.3,0.4C168.5,174.3,169.9,172.1,172.1,170.8z"/>
			<ellipse transform="matrix(0.866 -0.5 0.5 0.866 -32.8311 114.3271)" class="st5" cx="196.9" cy="118.4" rx="7.6" ry="18.3"/>
			<path class="st4" d="M194.7,125.6c-5.1-8.8-6.2-17.6-2.6-19.7c1.4-0.8,3.4-0.5,5.6,0.8c-3.7-3.6-7.3-5.3-9.6-3.9
				c-3.6,2.1-2.5,10.9,2.6,19.7c3.1,5.3,6.8,9.4,10.2,11.3C198.7,131.7,196.6,128.9,194.7,125.6z"/>
			<ellipse transform="matrix(0.5 -0.866 0.866 0.5 -58.5099 135.5135)" class="st5" cx="88.1" cy="118.4" rx="6.7" ry="2.9"/>
			<path class="st4" d="M87.9,118.7c1.3-2.3,3-4,4.4-4.4c0-0.9-0.3-1.5-0.8-1.8c-1.4-0.8-4,1.2-5.9,4.4c-1.9,3.2-2.3,6.5-0.9,7.3
				c0.4,0.2,0.9,0.2,1.4,0C86.1,122.7,86.7,120.7,87.9,118.7z"/>
			
				<ellipse transform="matrix(0.8318 -0.5551 0.5551 0.8318 -29.6862 80.249)" class="st5" cx="117.6" cy="89.1" rx="11.1" ry="3.4"/>
			<path class="st4" d="M116.9,88.5c3.9-2.6,7.7-4.1,9.8-4c0.3-0.7,0.4-1.4,0.1-1.8c-1-1.5-6,0-11.1,3.4c-5.1,3.4-8.4,7.4-7.4,9
				c0.2,0.4,0.7,0.6,1.3,0.6C110.5,93.8,113.2,91,116.9,88.5z"/>
			<circle class="st5" cx="152.3" cy="142.2" r="16"/>
			<path class="st4" d="M138,146.5c0-8.8,7.2-16,16-16c5.7,0,10.8,3,13.6,7.6c-1.8-6.9-8-12-15.5-12c-8.8,0-16,7.2-16,16
				c0,3.1,0.9,6,2.4,8.4C138.2,149.2,138,147.9,138,146.5z"/>
			
				<ellipse transform="matrix(0.4351 -0.9004 0.9004 0.4351 -32.9 180.6712)" class="st5" cx="127.5" cy="116.6" rx="7.4" ry="5.5"/>
			<path class="st4" d="M123.6,116.7c1.8-3.7,5.4-5.6,8.1-4.2c0.5,0.3,1,0.6,1.4,1.1c-0.3-1.6-1.2-2.8-2.5-3.5
				c-2.7-1.3-6.4,0.6-8.1,4.2c-1.4,2.9-1.2,6.1,0.3,7.9C122.5,120.5,122.7,118.6,123.6,116.7z"/>
			
				<ellipse transform="matrix(0.7696 -0.6386 0.6386 0.7696 -99.1408 104.1366)" class="st5" cx="94.7" cy="189.4" rx="3.5" ry="11.7"/>
			<path class="st4" d="M88.5,183.2c1.5-1.2,6,1.8,10.2,6.8c1.5,1.8,2.7,3.6,3.6,5.2c-0.7-2.2-2.5-5.1-4.9-8c-4.1-5-8.7-8-10.2-6.8
				c-0.9,0.8-0.4,3.1,1.2,6C87.9,184.9,87.9,183.7,88.5,183.2z"/>
			
				<ellipse transform="matrix(0.9547 -0.2976 0.2976 0.9547 -50.811 55.0277)" class="st5" cx="155.3" cy="194.4" rx="5.1" ry="3.6"/>
			<path class="st4" d="M154.3,190.7c-2.7,0.8-4.4,3.1-3.8,5c0.1,0.4,0.3,0.8,0.6,1.1c0.4-1.5,1.8-2.9,3.8-3.5
				c2.1-0.7,4.2-0.3,5.3,0.9c0.1-0.5,0.1-1,0-1.5C159.6,190.8,157,189.9,154.3,190.7z"/>
		</g>
	</g>
</g>
<g id="Layer_2">
</g>
<g id="Layer_3">
</g>
</svg>
