<?xml version="1.0" encoding="utf-8"?>
<!-- Generator: Adobe Illustrator 21.0.2, SVG Export Plug-In . SVG Version: 6.00 Build 0)  -->
<svg version="1.0" xmlns="http://www.w3.org/2000/svg" xmlns:xlink="http://www.w3.org/1999/xlink" x="0px" y="0px"
	 viewBox="0 0 500 500" style="enable-background:new 0 0 500 500;" xml:space="preserve">
<style type="text/css">
	.st0{fill:#132930;}
	.st1{fill:#D6D6CC;}
	.st2{fill:#FFFFEE;}
	.st3{fill:#FC6E23;}
	.st4{fill:#FEE159;}
	.st5{fill:#0A171D;}
</style>
<g id="Layer_2">
	<circle class="st0" cx="250" cy="250" r="250"/>
</g>
<g id="Layer_1">
	<g id="mineGroup">
		<g id="arm_x5F_front">
			
				<rect id="arm2" x="66.4" y="217.8" transform="matrix(-4.869972e-02 0.9988 -0.9988 -4.869972e-02 336.7099 120.8911)" class="st1" width="88.8" height="6.1"/>
			
				<rect id="arm1" x="110.9" y="144.9" transform="matrix(0.9332 -0.3593 0.3593 0.9332 -41.0291 74.7947)" class="st1" width="139.5" height="5.7"/>
			<path id="circe2" class="st2" d="M115.4,268.5c-1,3.8-4.9,6.1-8.7,5.1s-6.1-4.9-5.1-8.7c1-3.8,4.9-6.1,8.7-5.1
				C114.1,260.8,116.4,264.7,115.4,268.5z M109,264.8c-1.1-0.3-2.1,0.4-2.4,1.4s0.4,2.1,1.4,2.4s2.1-0.4,2.4-1.4
				C110.7,266.2,110.1,265.1,109,264.8z"/>
			<path id="circle1" class="st2" d="M120.7,175.3c-1,3.8-4.9,6.1-8.7,5.1c-3.8-1-6.1-4.9-5.1-8.7c1-3.8,4.9-6.1,8.7-5.1
				C119.4,167.6,121.7,171.5,120.7,175.3z M114.3,171.6c-1.1-0.3-2.1,0.4-2.4,1.4c-0.3,1.1,0.4,2.1,1.4,2.4c1.1,0.3,2.1-0.4,2.4-1.4
				C116,173,115.4,171.9,114.3,171.6z"/>
		</g>
		
			<rect id="arm_x5F_back" x="255.9" y="137.5" transform="matrix(-0.7966 -0.6045 0.6045 -0.7966 428.6621 425.0414)" class="st1" width="59.9" height="5.7"/>
		<g id="fire1">
			<path id="fire_x5F_orange_1_" class="st3" d="M217,402.1c8.3,0,12.9,7.2,14.9,12.6c5.1,13.6-15.9,37.6-15.9,37.6
				s-19.5-23.2-15-38.3C203,407.6,209.1,402,217,402.1z"/>
			<path id="fire_x5F_yellow_1_" class="st4" d="M216.7,402.1c3.7,0,5.7,3.2,6.6,5.6c2.3,6-7,16.7-7,16.7s-8.7-10.3-6.6-17
				C210.5,404.5,213.3,402.1,216.7,402.1z"/>
		</g>
		<g id="fire2">
			<path id="fire_x5F_orange" class="st3" d="M295.2,404.5c8.3,0,12.9,7.2,14.9,12.6c5.1,13.6-15.9,37.6-15.9,37.6
				s-19.5-23.2-15-38.3C281.2,410,287.3,404.5,295.2,404.5z"/>
			<path id="fire_x5F_yellow" class="st4" d="M294.9,404.5c3.7,0,5.7,3.2,6.6,5.6c2.3,6-7,16.7-7,16.7s-8.7-10.3-6.6-17
				C288.7,406.9,291.4,404.5,294.9,404.5z"/>
		</g>
		<g id="mine_x5F_base">
			<g>
				<rect x="282.4" y="361.9" class="st2" width="24.6" height="24.9"/>
				<rect x="282.4" y="361.9" class="st1" width="12.3" height="24.9"/>
				<g>
					<rect x="276" y="386.8" class="st2" width="37.4" height="8.1"/>
					<rect x="276.9" y="386.8" class="st1" width="17.8" height="8.1"/>
					<path class="st5" d="M314.8,396.3h-40.1v-10.7h40.1V396.3z M277.3,393.6h34.8v-5.5h-34.8V393.6z"/>
				</g>
			</g>
			<g>
				<rect x="204.2" y="361.9" class="st2" width="24.6" height="24.9"/>
				<rect x="204.2" y="361.9" class="st1" width="12.3" height="24.9"/>
				<g>
					<rect x="197.8" y="386.8" class="st2" width="37.4" height="8.1"/>
					<rect x="198.7" y="386.8" class="st1" width="17.8" height="8.1"/>
					<path class="st5" d="M236.6,396.3h-40.1v-10.7h40.1V396.3z M199.1,393.6h34.8v-5.5h-34.8V393.6z"/>
				</g>
			</g>
			<g>
				<rect x="222.9" y="160.1" class="st5" width="59.8" height="14.9"/>
				<path class="st1" d="M284.1,176.3h-62.5v-17.5h62.5V176.3z M224.3,173.7h57.2v-12.2h-57.2V173.7z"/>
			</g>
			<path class="st2" d="M288,317.8l-13.6-142.5h-43l-13.6,142.5h-6.9v23.8h7.4V322h70.4v19.7h7.4v-23.8H288z M279.3,287.7
				L279.3,287.7L279.3,287.7L279.3,287.7z M279.2,286.6l-22.7-12.4v-1.5l20.4-11L279.2,286.6z M256.5,233.4h15.7l-15.7,8.7V233.4z
				 M256.5,258.6v-10l17.8,10H256.5z M274.7,260.6l-18.2,9.8v-9.8H274.7z M256.5,276.3l20.8,11.4h-20.8V276.3z M256.5,289.7h21.2
				l-21.2,10.6V289.7z M256.5,246.4v-2l17.9-9.9l2.2,23.3L256.5,246.4z M271.7,206.5L271.7,206.5L271.7,206.5L271.7,206.5z
				 M256.5,180.3h11.1l-11.1,7.9V180.3z M256.5,190.7l12.9-9.2l2,21.8l-14.9-10.3V190.7z M256.5,195.3l13.3,9.2h-13.3V195.3z
				 M256.5,206.5h13.4l-13.4,8.3V206.5z M256.5,217.2l15.3-9.5l2.1,22.5l-17.5-11.3V217.2z M272.2,231.4h-15.7v-10.2L272.2,231.4z
				 M231.5,233.4L231.5,233.4L231.5,233.4L231.5,233.4z M250.4,231.4h-16.8l16.8-10.4V231.4z M250.4,206.5v8.4l-12.9-8.4H250.4z
				 M237.2,204.5l13.2-9.5v9.5H237.2z M250.4,180.3v8.4l-12.2-8.4H250.4z M236.3,181.4l14,9.7v1.5l-16.2,11.6L236.3,181.4z
				 M234,206.6l16.4,10.6v1.4l-18.6,11.5L234,206.6z M223.6,317.8L223.6,317.8L223.6,317.8L223.6,317.8z M250.4,317.8h-24.6
				l24.6-12.3V317.8z M250.4,303.4l-26.7,13.3l2.4-26.1l24.3,12.3V303.4z M250.4,300.7l-21.6-10.9h21.6V300.7z M250.4,287.7h-21.9
				l21.9-11.8V287.7z M250.4,273.7l-23.9,12.9l2.4-25.4l21.5,11.8V273.7z M250.4,270.9l-18.9-10.3h18.9V270.9z M250.4,258.6h-19.4
				l19.4-10.8V258.6z M250.4,245.5l-21.1,11.8l2.1-22.8l19,10.7V245.5z M233.5,233.4h16.9v9.6L233.5,233.4z M256.5,317.8V306
				l23.5,11.9H256.5z M256.5,303.7v-1.3l23.1-11.6l2.4,25.8L256.5,303.7z M282.1,317.8L282.1,317.8L282.1,317.8L282.1,317.8z"/>
			<path class="st1" d="M263.7,128.5H242v31.3h21.7V128.5z M259.9,131.1l-7.1,10.6l-7.1-10.6H259.9z M244.6,134.2l6.6,10l-6.6,10
				V134.2z M245.8,157.2l7.1-10.6l7.1,10.6H245.8z M261.1,154.1l-6.6-10l6.6-10V154.1z"/>
			<path class="st1" d="M253.4,175.4h-22.1l-13.6,142.5h-6.9v23.8h7.4V322h35.2V175.4z M231.5,233.4L231.5,233.4L231.5,233.4
				L231.5,233.4z M223.6,317.8L223.6,317.8L223.6,317.8L223.6,317.8z M250.4,317.8h-24.6l24.6-12.3V317.8z M250.4,303.4l-26.7,13.3
				l2.4-26.1l24.3,12.3V303.4z M250.4,300.7l-21.6-10.9h21.6V300.7z M250.4,287.7h-21.9l21.9-11.8V287.7z M250.4,273.7l-23.9,12.9
				l2.4-25.4l21.5,11.8V273.7z M250.4,270.9l-18.9-10.3h18.9V270.9z M250.4,258.6h-19.4l19.4-10.8V258.6z M250.4,245.5l-21.1,11.8
				l2.1-22.8l19,10.7V245.5z M250.4,243l-16.9-9.6h16.9V243z M250.4,231.4h-16.8l16.8-10.4V231.4z M250.4,218.6l-18.6,11.5l2.2-23.5
				l16.4,10.6V218.6z M250.4,214.9l-12.9-8.4h12.9V214.9z M250.4,204.5h-13.2l13.2-9.5V204.5z M250.4,192.6l-16.2,11.6l2.1-22.8
				l14,9.7V192.6z M238.2,180.3h12.2v8.4L238.2,180.3z"/>
			<path class="st2" d="M267.1,120c0,7.9-6.4,14.2-14.2,14.2s-14.2-6.4-14.2-14.2s6.4-14.2,14.2-14.2S267.1,112.2,267.1,120z
				 M252.9,116.1c-2.2,0-4,1.8-4,4s1.8,4,4,4c2.2,0,4-1.8,4-4S255,116.1,252.9,116.1z"/>
			<g id="minetalp">
				<g>
					<path class="st2" d="M346.1,352.3H161.3c-1.3,0-2.3-1-2.3-2.3v-8.3h189.5v8.3C348.4,351.3,347.4,352.3,346.1,352.3z"/>
					<rect x="160.5" y="341.7" class="st1" width="92.4" height="9.3"/>
					<path class="st5" d="M342.3,353.6H165.1c-4.1,0-7.5-3.3-7.5-7.5v-5.8h192.1v5.8C349.7,350.3,346.4,353.6,342.3,353.6z
						 M160.3,343v3.2c0,2.7,2.2,4.8,4.8,4.8h177.2c2.7,0,4.8-2.2,4.8-4.8V343H160.3z"/>
				</g>
				<g>
					<path class="st2" d="M348.4,362.9H159.2v-8.3c0-1.3,1-2.3,2.3-2.3h184.6c1.3,0,2.3,1,2.3,2.3V362.9z"/>
					<rect x="160.5" y="353.6" class="st1" width="92.4" height="9.3"/>
					<path class="st5" d="M349.7,364.3H157.8v-5.8c0-4.1,3.3-7.5,7.5-7.5h177c4.1,0,7.5,3.3,7.5,7.5V364.3z M160.5,361.6h186.6v-3.2
						c0-2.7-2.2-4.8-4.8-4.8h-177c-2.7,0-4.8,2.2-4.8,4.8V361.6z"/>
				</g>
			</g>
		</g>
	</g>
	<path class="st2" d="M110,269.9c0,0-6.6,8.9-1.1,18c5.5,9.1,10.9,4.8,10.9,4.8s-14.1-8.8-5.8-16.8c5.3-5.1,9.7,0.3,11.7,15
		c0,0,7.3-9.4-1.5-17.7C119.9,269,113.5,268.5,110,269.9z"/>
</g>
</svg>
