<?xml version="1.0" encoding="utf-8"?>
<!-- Generator: Adobe Illustrator 21.0.2, SVG Export Plug-In . SVG Version: 6.00 Build 0)  -->
<svg version="1.0" xmlns="http://www.w3.org/2000/svg" xmlns:xlink="http://www.w3.org/1999/xlink" x="0px" y="0px"
	 viewBox="0 0 500 500" style="enable-background:new 0 0 500 500;" xml:space="preserve">
<style type="text/css">
	.st0{fill:#132930;stroke:#132930;stroke-width:3;stroke-miterlimit:10;}
	.st1{fill:#464646;}
	.st2{fill:none;stroke:#FFFFFF;stroke-width:3;stroke-miterlimit:10;}
	.st3{fill:#FD8B4F;}
	.st4{opacity:0.5;fill:#C5572C;}
	.st5{fill:#D6D6CC;}
	.st6{fill:#132930;}
	.st7{fill:#040A0C;}
	.st8{opacity:0.2;}
	.st9{fill:#F0F0F0;}
	.st10{fill:#FFFFEE;}
	.st11{fill:#BDC3C7;}
	.st12{fill:#60ACBE;}
	.st13{fill:#C5572C;}
	.st14{fill:#488CA7;}
	.st15{fill:none;stroke:#D6D6CC;stroke-width:5;stroke-miterlimit:10;}
	.st16{fill:#ECF0F1;}
	.st17{fill:none;stroke:#D6D6CC;stroke-width:3;stroke-miterlimit:10;}
	.st18{fill:none;stroke:#132930;stroke-width:2;stroke-miterlimit:10;}
	.st19{fill:#132930;stroke:#132930;stroke-width:2;stroke-miterlimit:10;}
</style>
<g id="Layer_2">
	<circle class="st0" cx="250" cy="250" r="247"/>
	<g>
		<path class="st1" d="M250,500c97.7,0,174.6-59.4,212.8-118.7l-425.6,0C98.6,456,152.3,500,250,500z"/>
	</g>
</g>
<g id="spaceStation">
	<line class="st2" x1="462.8" y1="381.3" x2="37.2" y2="381.3"/>
	<g>
		<g>
			<path class="st3" d="M834.1,280.6c0,2.8-35.5,8.1-79.3,8.1s-79.3-5.2-79.3-8.1s35.5-7.1,79.3-7.1S834.1,277.8,834.1,280.6z"/>
			<path class="st4" d="M754.7,274.1c-45.1,0.7-78.9,4-78.9,6.5c0,2.5,34.8,7,79,8L754.7,274.1z"/>
			<path class="st5" d="M754.8,289.5c-26.5,0-46.6-1.9-56.2-3c-23.9-2.8-23.9-5.1-23.9-5.9c0-0.9,0-3.1,24-5.4
				c16.2-1.6,36.2-2.5,56.2-2.5c20,0,40,0.9,56.2,2.5c24,2.4,24,4.5,24,5.4c0,0.8,0,3.1-23.9,5.9
				C801.4,287.6,781.3,289.5,754.8,289.5z M676.4,280.6c3.6,2.3,35.2,7.3,78.3,7.3c43.1,0,74.7-4.9,78.3-7.3
				c-3.6-2.3-35-6.2-78.3-6.2C711.4,274.4,680.1,278.4,676.4,280.6z"/>
		</g>
		<g>
			<g>
				<path class="st6" d="M834.6,278.7c-53.1-6.6-106.8-6.9-160-0.5c-1.3-10-1.6-20.5-1.5-30.6c54.8-7.8,108.5-7.7,163.4-0.3
					C836.5,257.7,836,268.4,834.6,278.7z"/>
				<path class="st7" d="M753.5,273.1c-26.4,0.3-52.7,1.6-78.9,4.7c-1.2-9.7-1.6-19.8-1.4-29.6c26.8-3.8,53.2-5.9,80.4-6.3
					C753.5,252.4,753.5,262.8,753.5,273.1z"/>
				<path class="st5" d="M835.3,279.6c-53.6-6.8-107.9-7.1-161.5-0.5c-1.1-10.8-1.8-21.3-1.6-32.2c55.4-7.9,109.7-7.9,165.1-0.3
					C837.1,257.8,836.5,268.5,835.3,279.6z M675.3,277.2c52.7-6.2,105.9-5.9,158.5,0.5c1.3-9.8,1.8-19.9,1.7-29.8
					c-54.2-7.2-107.4-7.3-161.6,0.2C673.9,257.8,674.1,267.7,675.3,277.2z"/>
			</g>
		</g>
		<g class="st8">
			<path class="st9" d="M834.1,246.5c-18.3-19.5-47.9-34.4-79.6-34.4c-31.6,0-60.4,14.8-78.7,34.3c0,0,60.8-5,78.5-5
				C772,241.5,834.1,246.5,834.1,246.5z"/>
			<path class="st9" d="M836.4,247.7l-2.3-0.2c-0.6-0.1-62.3-5.1-79.8-5.1c-17.4,0-77.8,4.9-78.4,5l-2.4,0.2l1.6-1.7
				c20.3-21.6,50-34.6,79.4-34.6c29.4,0,60.1,13.3,80.2,34.7L836.4,247.7z M754.1,240.5c0.1,0,0.2,0,0.2,0c15.6,0,65.9,4,77.5,4.9
				C812,225.4,782.7,213,754.6,213c-28.1,0-56.5,12-76.4,32.3C689.5,244.4,738.3,240.5,754.1,240.5z"/>
		</g>
		<path class="st5" d="M711.8,243.3l1.2-1.6c11.1-14,27.2-30.6,41.1-30.6c0.1,0,0.2,0,0.3,0c10.3,0.2,22.9,9.8,39.4,30.4l1.2,1.5
			l-2-0.1c-0.3,0-30.3-1.6-39-1.6c-8.6-0.1-40.1,1.8-40.4,1.8L711.8,243.3z M754.2,213c-10.1,0-23.7,10-38.5,28.4
			c7-0.4,30.5-1.7,38.2-1.7c0.1,0,0.2,0,0.3,0c7.4,0,30.2,1.2,37.1,1.5c-15.4-18.8-27.5-28-36.8-28.2C754.3,213,754.3,213,754.2,213
			z"/>
		<g>
			<path class="st5" d="M838.4,271.8c-3.9-1.7-30.5-6.4-81.9-6.4c-0.8,0-1.5,0-2.3,0c-50.8,0.1-77.1,4.1-84.2,7.4
				c-1,0.5-1.2,1.1-1.1,1.5c0,0.4,0.2,1.7,5.7,2.9l0.1-1.7c-1.6-0.3-3.1-0.8-3.9-1.2c7.2-3.2,33.3-7,83.3-7.1
				c52.7-0.1,79.7,4.5,83.5,6.2c0.2,0.1,0.3,0.1,0.4,0.2c-0.6,0.4-1.8,0.8-3.3,1.1l-0.1,1.7c3.4-0.6,5.1-1.4,5.3-2.6
				C840.1,272.6,838.8,272,838.4,271.8z"/>
			<path class="st5" d="M838.2,263.1c-3.9-1.7-30.5-6.4-81.9-6.4c-0.8,0-1.5,0-2.3,0c-50.8,0.1-77.1,4.1-84.2,7.4
				c-1,0.5-1.2,1.1-1.1,1.5c0,0.4-0.1,1.7,5.4,2.9l-0.1-1.9c-1.6-0.3-2.5-0.7-3.3-1.1c7.2-3.2,33.3-7,83.3-7.1c0.8,0,1.5,0,2.3,0
				c51.2,0,77.5,4.4,81.3,6.1c0.2,0.1,0.6,0.2,0.8,0.5c-0.3,0.4-1.8,0.4-2.9,0.6l0,1.7c1.9-0.3,4.7-0.9,4.8-2.3
				C840.5,264,838.6,263.4,838.2,263.1z"/>
			<path class="st5" d="M839.3,255c-3.7-1.7-31.3-6.4-83.1-6.4c-0.8,0-1.5,0-2.3,0c-50.8,0.1-77.1,4.1-84.2,7.4
				c-1,0.5-1.6,1.1-1.5,1.5c0.1,0.4,0.2,1.7,5.4,2.6l-0.3-1.8c-1.4,0.1-2.4-0.1-3-0.8c0-1.3,33.7-7.1,83.7-7.2
				c52.9-0.1,80.9,4.6,84.6,6.2c0.1,0.1,0.3,0.1,0.4,0.2c-0.6,0.3-1.6,0.6-2.9,0.7l-0.1,1.7c3.1-0.4,4.8-1.2,5-2.3
				C841,255.8,839.7,255.2,839.3,255z"/>
			<path class="st5" d="M840.6,246.5c-4.1-1.8-32.2-6.5-86.7-6.4c-52.3,0.1-79.4,4.1-86.7,7.4c-1,0.5-1.1,1.1-1,1.4
				c0.1,0.5-0.3,1.8,7.3,3l0.1-1.8c-2.2-0.3-4-0.8-5.2-1.3c7.9-3.2,34.7-6.9,85.5-7c54.3-0.1,82.1,4.5,86.1,6.2
				c0.1,0.1,0.2,0.1,0.3,0.1c-0.7,0.4-2.6,0.9-4.4,1.2l0.3,1.7c3.9-0.6,5.9-1.5,6.1-2.8C842.3,247.2,841.1,246.7,840.6,246.5z"/>
		</g>
		<path class="st5" d="M836.4,246.5l-2.3-0.2c-0.6,0-62.3-4.9-79.8-5c-17.4,0-77.8,4.8-78.4,4.8l-2.4,0.2l1.6-1.7
			c20.3-21,50-33.5,79.4-33.5c29.4,0,60.1,12.9,80.2,33.7L836.4,246.5z M754,239.6c0.1,0,0.2,0,0.2,0c15.3,0,64.8,3.9,76.2,4.8
			C810.9,225,782.1,213,754.5,213c-27.6,0-55.5,11.7-75.1,31.3C690.5,243.4,738.4,239.6,754,239.6z"/>
		<path class="st5" d="M768.8,375.9v0.9c0,0.6-1.2,0.5-2.8,0.5h0h0c-1.3,0-2.4,0.1-2.7-0.3c0-0.1-0.1-0.1-0.1-0.2v0v-1.1
			c-2.9-0.1-5.9-0.1-9.1-0.1c-3,0-5.8,0-8.5,0.1v0.9c0,0.6-1.2,0.5-2.8,0.5h0h0c-0.4,0-0.7,0-1.1,0c-1,0-1.7-0.1-1.7-0.5v-0.8
			c-9,0.3-15,0.9-15,1.6c0,1,13,1.8,29.1,1.8c16,0,29.1-0.8,29.1-1.8C783.3,376.8,777.4,376.2,768.8,375.9z"/>
		<g>
			<g>
				<path class="st9" d="M742.3,377.7L742.3,377.7c-1.6,0-2.9,0.3-2.9-1.4V284c0-1.7,1.3-2.4,2.9-2.4l0,0c1.6,0,2.9,0.8,2.9,2.4
					v92.4C745.2,378,743.9,377.7,742.3,377.7z"/>
			</g>
			<path class="st5" d="M742.3,281.5c-1.6,0-2.9,0.8-2.9,2.4v92.4c0,1.7,1.3,1.4,2.9,1.4h0V281.5z"/>
		</g>
		<g>
			<g>
				<path class="st9" d="M767,378.1L767,378.1c-1.6,0-2.9,0.3-2.9-1.4v-92.4c0-1.7,1.3-2.4,2.9-2.4l0,0c1.6,0,2.9,0.8,2.9,2.4v92.4
					C769.9,378.4,768.6,378.1,767,378.1z"/>
			</g>
			<path class="st5" d="M767,281.9c-1.6,0-2.9,0.8-2.9,2.4v92.4c0,1.7,1.3,1.4,2.9,1.4h0V281.9z"/>
		</g>
	</g>
	<g>
		<g>
			<path class="st10" d="M654.2,140.2h-7c-0.2,0-0.4,0-0.5,0.1c-0.2,0.1-0.3,0.2-0.5,0.3l-13.6,13.6h-2.2c-0.8,0-1.4,0.6-1.4,1.4
				c0,0.8,0.6,1.4,1.4,1.4h7c0.8,0,1.4-0.6,1.4-1.4c0-0.8-0.6-1.4-1.4-1.4h-0.8l11.2-11.2h6.4c0.8,0,1.4-0.6,1.4-1.4
				S655,140.2,654.2,140.2z"/>
			<path class="st10" d="M705.9,154.2h-2.2l-13.6-13.6c-0.1-0.1-0.3-0.2-0.5-0.3c-0.2-0.1-0.4-0.1-0.5-0.1h-7
				c-0.8,0-1.4,0.6-1.4,1.4s0.6,1.4,1.4,1.4h6.4l11.2,11.2h-0.8c-0.8,0-1.4,0.6-1.4,1.4c0,0.8,0.6,1.4,1.4,1.4h7
				c0.8,0,1.4-0.6,1.4-1.4C707.3,154.8,706.7,154.2,705.9,154.2z"/>
			<path class="st10" d="M671,154.2h-1.4v-9.8c0-0.8-0.6-1.4-1.4-1.4s-1.4,0.6-1.4,1.4v9.8h-1.4c-0.8,0-1.4,0.6-1.4,1.4
				c0,0.8,0.6,1.4,1.4,1.4h5.6c0.8,0,1.4-0.6,1.4-1.4C672.4,154.8,671.7,154.2,671,154.2z"/>
		</g>
		<rect x="654.2" y="133.2" class="st11" width="27.9" height="4.3"/>
		<path class="st5" d="M668.2,74.5L668.2,74.5c-3.6,0-7.1,1.3-9.7,3.7l0,0c-6.2,5.6-9.8,13.6-9.8,22v37.1h5.6v-4.2h27.9v4.2h5.6
			v-37.1c0-8.4-3.6-16.4-9.8-22l0,0C675.2,75.9,671.8,74.5,668.2,74.5z"/>
		<g>
			<polygon class="st12" points="687.7,96.9 648.6,96.9 648.6,99.7 675.2,99.7 675.2,106.7 678,106.7 678,99.7 687.7,99.7 			"/>
			<rect x="675.2" y="120.6" class="st12" width="2.8" height="12.6"/>
		</g>
		<circle class="st13" cx="654.2" cy="127.6" r="1.4"/>
		<circle class="st13" cx="659.8" cy="127.6" r="1.4"/>
		<circle class="st13" cx="665.4" cy="127.6" r="1.4"/>
		<circle class="st13" cx="671" cy="127.6" r="1.4"/>
		<circle class="st13" cx="682.1" cy="127.6" r="1.4"/>
		<polygon class="st12" points="648.6,133.2 641.6,131.8 641.6,129 648.6,127.6 		"/>
		<polygon class="st12" points="687.7,127.6 694.7,129 694.7,131.8 687.7,133.2 		"/>
		<g>
			<circle class="st6" cx="676.6" cy="113.6" r="7"/>
			<path class="st14" d="M676.6,122c-4.6,0-8.4-3.8-8.4-8.4c0-4.6,3.8-8.4,8.4-8.4s8.4,3.8,8.4,8.4C684.9,118.3,681.2,122,676.6,122
				z M676.6,108.1c-3.1,0-5.6,2.5-5.6,5.6s2.5,5.6,5.6,5.6s5.6-2.5,5.6-5.6S679.6,108.1,676.6,108.1z"/>
		</g>
		<polygon class="st10" points="648.6,106.7 648.6,109.5 658.4,109.5 658.4,110.9 648.6,110.9 648.6,113.6 658.4,113.6 658.4,115 
			648.6,115 648.6,117.8 658.4,117.8 658.4,119.2 648.6,119.2 648.6,122 661.2,122 661.2,106.7 		"/>
		<rect x="654.2" y="137.4" class="st10" width="27.9" height="7"/>
	</g>
	<g>
		<polygon class="st10" points="288.9,272.4 330.2,316.8 330.2,188 288.9,188 		"/>
		<path class="st10" d="M309.5,148c-10.6,6.8-17.8,18.3-19.9,31.1h39.8C327.3,166.3,320.2,154.9,309.5,148z"/>
		<path class="st10" d="M185.4,148c-10.6,6.8-17.8,18.3-19.9,31.1h39.8C203.2,166.3,196.1,154.9,185.4,148z"/>
		<polygon class="st10" points="164.7,316.8 206.1,272.4 206.1,188 164.7,188 		"/>
		<path class="st5" d="M289.6,179.1c-0.4,2.7-0.8,5.4-0.8,8.1v0.8h41.4v-0.8c0-2.8-0.3-5.5-0.8-8.1H289.6z"/>
		<path class="st5" d="M165.5,179.1c-0.4,2.7-0.8,5.4-0.8,8.1v0.8h41.4v-0.8c0-2.8-0.3-5.5-0.8-8.1H165.5z"/>
		<line class="st15" x1="330.2" y1="192.4" x2="355" y2="192.4"/>
		<line class="st15" x1="330.2" y1="276.8" x2="355" y2="276.8"/>
		<path class="st3" d="M276.4,334.3l-8.3-22.2v-62l20.7,22.2v-77c0-31.4-15-60.6-39.7-77.3c-1-0.7-2.3-0.7-3.4,0
			c-24.7,16.7-39.7,45.9-39.7,77.3v77l20.7-22.2v62l-8.3,22.2v4.6v8.7v0.2h57.9v-0.2V334.3z"/>
		<path class="st10" d="M334.4,374.5h-49.6c-1.3,0-2.1-1.6-1.3-2.7l5.4-23.9h41.4l5.4,23.9C336.4,372.9,335.7,374.5,334.4,374.5z"/>
		<path class="st10" d="M210.3,374.5h-49.6c-1.3,0-2.1-1.6-1.3-2.7l5.4-23.9h41.4l5.4,23.9C212.3,372.9,211.6,374.5,210.3,374.5z"/>
		<path class="st16" d="M268.2,312.1V196.7c0-13.9-5.1-27.1-14.3-36.9c-3.6-3.8-9.3-3.8-12.9,0c-9.1,9.8-14.3,23.1-14.3,36.9v115.5
			l-8.3,22.2v13.5h57.9v-13.5L268.2,312.1z"/>
		<polygon class="st5" points="276.4,347.8 350.9,347.8 350.9,339 268.2,250.2 268.2,312.1 276.4,334.3 276.4,347.7 		"/>
		<polygon class="st5" points="218.5,347.7 218.5,339 218.5,334.3 226.8,312.1 226.8,250.2 144.1,339 144.1,347.8 218.5,347.8 		"/>
		<rect x="355" y="148" class="st17" width="29" height="226.5"/>
		<line class="st17" x1="384" y1="183.5" x2="355" y2="214.6"/>
		<line class="st17" x1="355" y1="214.6" x2="384" y2="245.7"/>
		<line class="st17" x1="384" y1="245.7" x2="355" y2="276.8"/>
		<line class="st17" x1="355" y1="276.8" x2="384" y2="307.9"/>
		<line class="st17" x1="384" y1="303.4" x2="355" y2="334.5"/>
		<line class="st17" x1="355" y1="334.5" x2="384" y2="365.6"/>
		<line class="st17" x1="384" y1="183.5" x2="355" y2="152.5"/>
		<rect x="359.2" y="121.4" class="st17" width="20.7" height="26.6"/>
		<polygon class="st12" points="152.3,330.1 144.1,339 144.1,347.8 218.5,347.8 218.5,347.7 218.5,339 218.5,334.3 220.1,330.1 		
			"/>
		<polygon class="st12" points="276.4,334.3 276.4,347.7 276.4,347.8 350.9,347.8 350.9,339 342.6,330.1 274.9,330.1 		"/>
		<path class="st6" d="M255.8,201.3h-16.5v-8.9c0-4.9,3.7-8.9,8.3-8.9l0,0c4.6,0,8.3,4,8.3,8.9V201.3z"/>
		<line class="st18" x1="239.2" y1="303.4" x2="239.2" y2="316.8"/>
		<line class="st19" x1="255.8" y1="303.4" x2="255.8" y2="316.8"/>
		<polygon class="st6" points="268.2,361.2 226.8,361.2 230.9,347.8 264,347.8 		"/>
		<line class="st19" x1="247.5" y1="347.7" x2="247.5" y2="329.9"/>
	</g>
</g>
</svg>
