<?xml version="1.0" encoding="utf-8"?>
<!-- Generator: Adobe Illustrator 21.0.2, SVG Export Plug-In . SVG Version: 6.00 Build 0)  -->
<svg version="1.1" xmlns="http://www.w3.org/2000/svg" xmlns:xlink="http://www.w3.org/1999/xlink" x="0px" y="0px"
	 viewBox="0 0 300 300" style="enable-background:new 0 0 300 300;" xml:space="preserve">
<style type="text/css">
	.st0{fill:#488CA7;stroke:#FFFFFF;stroke-miterlimit:10;}
	.st1{fill:#FF5514;}
	.st2{fill:#FF7743;}
	.st3{fill:#FFF5F5;}
	.st4{fill:#FFFFFF;}
	.st5{fill:#FFDDD0;}
	.st6{fill:none;}
	.st7{fill:#401505;}
</style>
<g id="Layer_4">
	<rect x="-6.5" y="-3.5" class="st0" width="313" height="313"/>
</g>
<g id="Layer_1">
	<g id="fox">
		<polygon class="st1" points="137.5,95.2 162.5,95.2 184.1,159.8 115.9,159.8 		"/>
		<polygon class="st2" points="162.5,95.2 225,148.2 184.1,159.8 		"/>
		<polygon class="st2" points="137.5,95.2 75,148.2 115.9,159.8 		"/>
		<polygon class="st2" points="115.9,158.8 150.7,232.1 184.1,158.8 		"/>
		<polygon class="st1" points="75,148.2 150.7,232.1 115.9,158.8 		"/>
		<polygon class="st1" points="150.7,232.1 225,148.2 184.1,158.8 		"/>
		<polygon class="st3" points="106,182.8 130.2,189.8 151,232.8 		"/>
		<polygon class="st4" points="195,182.8 170.5,190.3 150.7,232.1 		"/>
		<polygon class="st1" points="75,148.2 88.6,67.2 137.5,95.2 		"/>
		<polygon class="st1" points="162.5,95.2 211.4,67.2 225,148.2 		"/>
		<polygon class="st5" points="88.6,67.2 123.5,99.2 88.6,123.2 		"/>
		<polygon class="st5" points="211.4,67.2 211.4,123.2 176.7,96.6 		"/>
		<polygon class="st7" points="137.6,205.1 163.5,205 150.7,232.1 		"/>
		<polygon class="st7" points="99.9,154.6 115.9,158.8 123.5,174.7 		"/>
		<polygon class="st7" points="200.4,154.6 184.1,158.8 176.7,174.7 		"/>
		<polygon class="st7" points="124.6,175.5 108.6,171.4 101,155.5 		"/>
		<polygon class="st7" points="176.2,174.9 192.4,170.5 199.5,154.4 		"/>
	</g>
</g>
<g id="Layer_2">
</g>
<g id="Layer_3">
</g>
</svg>
