<?xml version="1.0" encoding="utf-8"?>
<!-- Generator: Adobe Illustrator 21.0.2, SVG Export Plug-In . SVG Version: 6.00 Build 0)  -->
<svg version="1.1" id="Layer_1" xmlns="http://www.w3.org/2000/svg" xmlns:xlink="http://www.w3.org/1999/xlink" x="0px" y="0px"
	 viewBox="0 0 120 120" style="enable-background:new 0 0 120 120;" xml:space="preserve">
<style type="text/css">
	.st0{fill:#FFFFEE;}
	.st1{fill:#60ACBE;}
	.st2{fill:#FD8B4F;}
	.st3{fill:#488CA7;}
	.st4{fill:#D6D6CC;}
	.st5{fill:#C1C1B9;}
	.st6{fill:none;}
	.st7{fill:#FFFFFF;}
	.st8{opacity:0.2;fill:#D6D6CC;enable-background:new    ;}
	.st9{fill:#0A171D;}
	.st10{fill:#18363D;}
	.st11{fill:#132930;}
</style>
<g id="Layer_2">
	<g id="academy_icon">
		<g id="academy">
			<rect x="48.1" y="81.2" class="st0" width="50.2" height="38.1"/>
			<path class="st0" d="M98.7,119.8h-51V80.7h51V119.8z M48.5,118.8h49.3v-37H48.5L48.5,118.8z"/>
			<rect x="22.2" y="92.4" class="st1" width="25.6" height="27.5"/>
			<rect x="25.7" y="98.5" class="st2" width="2.4" height="4"/>
			<rect x="28.9" y="98.5" class="st2" width="2.4" height="4"/>
			<rect x="32.2" y="98.5" class="st2" width="2.3" height="4"/>
			<rect x="25.5" y="104.2" class="st2" width="2.4" height="4"/>
			<rect x="28.8" y="104.2" class="st2" width="2.4" height="4"/>
			<rect x="32.2" y="104.2" class="st2" width="2.3" height="4"/>
			<rect x="35.6" y="98.5" class="st2" width="2.3" height="4"/>
			<rect x="38.8" y="98.5" class="st2" width="2.3" height="4"/>
			<rect x="42" y="98.5" class="st2" width="2.3" height="4"/>
			<rect x="35.6" y="104.2" class="st2" width="2.3" height="4"/>
			<rect x="38.9" y="104.1" class="st2" width="1.9" height="4"/>
			<rect x="42.1" y="104.1" class="st2" width="2.3" height="4"/>
			<rect x="48.9" y="46.1" class="st3" width="48.5" height="2.7"/>
			<g id="aerial">
				<g id="aerial-2">
					<polygon class="st0" points="36.2,90.7 33.5,90.7 34.4,81.9 35.3,81.9 					"/>
					<polygon class="st4" points="34.8,90.6 33.5,90.6 34.4,81.9 34.8,81.7 					"/>
					<path d="M36.5,91h-3.3l1-9.1h1.3V82L36.5,91z M33.8,90.5h2.3l-0.9-8.3h-0.7L33.8,90.5z"/>
					<path class="st0" d="M27,69.9C22.5,71,19,72,19,72l6.3,5.7l8.2,1.3l1.6-0.4l0,0l1.2-0.3l7-5.1l3-8c0,0-3.8,0.8-8.2,1.8
						c-1.7,0.4-3.8,0.9-5.3,1.3l0,0C30.9,68.8,28.5,69.3,27,69.9z"/>
					<polygon class="st5" points="19,72.1 27.4,70.9 32.6,69.6 34.8,78.6 33.1,79.1 25,77.7 					"/>
					<path d="M33.4,79.3L33.4,79.3L25.2,78l-6.5-6l0.4-0.1c0,0,3.5-0.9,8-2.1c1.6-0.4,3.8-1,5.5-1.4c1.7-0.4,3.5-1,5.3-1.4
						c4.6-1,8.2-1.8,8.2-1.8l0.4-0.1l-3.1,8.3l-7.2,5.1L33.4,79.3z M25.3,77.6l8.1,1.2l2.6-0.6l6.9-5l2.7-7.6c-1,0.3-4.3,0.9-8,1.7
						c-1.7,0.4-3.8,0.9-5.3,1.3c-1.8,0.4-3.7,0.9-5.5,1.5l0,0l-7.6,2L25.3,77.6z"/>
					<polyline class="st0" points="37.8,68.2 37.7,74.7 36.1,78.3 					"/>
					<polygon points="36.2,78.3 35.8,78.2 37.5,74.7 37.5,68.2 37.9,68.2 37.8,74.8 					"/>
					<polygon points="33.1,79.1 30.1,76.7 27.1,70.8 27.5,70.7 30.5,76.4 33.4,78.7 					"/>
					<polyline class="st0" points="19,71.8 27.2,70.7 37.8,68.2 46,65.3 					"/>
					<polygon points="19,72.1 18.9,71.7 27.2,70.5 37.7,67.9 46,65.2 46,65.6 37.8,68.3 27.4,70.9 					"/>
					<circle class="st0" cx="34.8" cy="81" r="1.2"/>
					<path class="st4" d="M34.8,79.8V82c0,0-1.3-0.4-1.2-1.2S34.8,79.8,34.8,79.8z"/>
					<path d="M34.8,82.1c-0.7,0-1.3-0.6-1.3-1.3c0-0.7,0.6-1.3,1.3-1.3s1.3,0.6,1.3,1.3C36.2,81.6,35.7,82.1,34.8,82.1z M34.8,80
						c-0.5,0-0.9,0.4-0.9,0.9c0,0.5,0.4,0.9,0.9,0.9s0.9-0.4,0.9-0.9c0.1-0.4-0.2-0.9-0.7-0.9C35,80,34.9,80,34.8,80L34.8,80z"/>
					<ellipse class="st0" cx="34.8" cy="79.1" rx="0.8" ry="0.7"/>
					<path class="st4" d="M34.8,78.3v1.4c0,0-0.8-0.1-0.7-0.7C34.3,78.8,34.5,78.5,34.8,78.3z"/>
					<path d="M34.8,80c-0.5,0-0.9-0.4-0.9-0.9c0-0.5,0.4-0.9,0.9-0.9s0.9,0.4,0.9,0.9C35.8,79.7,35.5,80,34.8,80z M34.8,78.7
						c-0.3,0-0.5,0.1-0.5,0.4s0.3,0.4,0.5,0.4s0.5-0.1,0.5-0.4S35.2,78.7,34.8,78.7L34.8,78.7z"/>
					<polygon class="st0" points="38.2,92.4 31.5,92.4 33.5,90.7 36.2,90.7 					"/>
					<polygon class="st4" points="34.9,92.4 31.7,92.4 33.6,90.7 34.8,90.7 					"/>
					<path d="M38.7,92.7H31l2.3-2.2h3L38.7,92.7z M32.2,92.3h5.6l-1.4-1.4h-2.6L32.2,92.3z"/>
				</g>
				<line class="st6" x1="31.5" y1="64.9" x2="34.8" y2="69.3"/>
				<polygon class="st7" points="34.5,69.5 31.4,65.1 31.7,64.8 34.9,69.2 				"/>
				<line class="st6" x1="31.4" y1="64.9" x2="30.9" y2="70.4"/>
				<polygon class="st7" points="30.6,70.3 31.3,64.9 31.7,64.9 31,70.3 				"/>
				<circle class="st0" cx="31.4" cy="64.3" r="0.7"/>
				<path class="st7" d="M31.4,65.2c-0.5,0-0.9-0.4-0.9-0.9c0,0,0,0,0,0c0-0.5,0.4-0.9,0.9-0.9c0.5,0,0.9,0.4,0.9,0.9
					C32.2,64.7,31.9,65.2,31.4,65.2z M31.4,63.8c-0.2,0-0.4,0.2-0.4,0.4c0,0.2,0.2,0.4,0.4,0.4s0.4-0.2,0.4-0.4l0,0
					C31.8,63.9,31.6,63.8,31.4,63.8L31.4,63.8z"/>
				<line class="st6" x1="32.6" y1="68.7" x2="31.5" y2="64.9"/>
				<polygon class="st7" points="31.3,65.1 31.8,64.9 32.7,68.7 32.3,68.7 				"/>
			</g>
			<path class="st4" d="M98.7,46H47.8v-7.3l0.1-0.1l9.5-13.2l15.8-6.8l15.5,6.8l0.1,0.1l9.9,13.3V46H98.7z M48.5,45.5h49.6l-0.1-6.4
				L88.3,26l-15.1-6.5L57.8,26l-9.4,13v6.4L48.5,45.5z"/>
			<line class="st6" x1="93.8" y1="45.7" x2="73.2" y2="19.1"/>
			<polygon class="st4" points="72.9,19.4 73.4,18.9 94,45.5 93.5,45.9 			"/>
			<line class="st6" x1="73.3" y1="19.1" x2="52.9" y2="45.7"/>
			<polygon class="st4" points="52.7,45.6 73.2,18.9 73.7,19.4 53.2,46 			"/>
			<line class="st6" x1="83.3" y1="45.7" x2="65.5" y2="22.6"/>
			<polygon class="st4" points="65.3,22.8 65.9,22.4 83.7,45.5 83.2,46 			"/>
			<line class="st6" x1="80.9" y1="22.6" x2="63.1" y2="45.5"/>
			<polygon class="st4" points="62.8,45.5 80.6,22.4 81.1,22.8 63.4,45.9 			"/>
			<line class="st6" x1="80.2" y1="23.3" x2="63.1" y2="45.5"/>
			<polygon class="st4" points="62.7,45.3 80.1,23 80.6,23.6 63.4,45.9 			"/>
			<line class="st6" x1="88.4" y1="25.8" x2="73.2" y2="45.7"/>
			<polygon class="st4" points="72.8,45.5 88.2,25.6 88.7,26 73.3,46 			"/>
			<line class="st6" x1="93.5" y1="32.4" x2="83.2" y2="45.7"/>
			<polygon class="st4" points="82.9,45.6 93.3,32.3 93.8,32.7 83.5,46 			"/>
			<line class="st6" x1="73.2" y1="45.7" x2="57.5" y2="25.8"/>
			<polygon class="st4" points="57.4,25.9 57.9,25.5 73.4,45.5 72.8,45.9 			"/>
			<line class="st6" x1="63.1" y1="45.5" x2="52.8" y2="32.4"/>
			<polygon class="st4" points="52.5,32.7 53.1,32.3 63.4,45.5 62.8,45.7 			"/>
			<rect x="57.5" y="25.4" class="st4" width="30.9" height="0.6"/>
			<rect x="52.8" y="32.2" class="st4" width="40.7" height="0.7"/>
			<rect x="48.1" y="38.6" class="st4" width="50.2" height="0.7"/>
			
				<rect x="47.9" y="38.7" transform="matrix(0.9999 -9.999500e-03 9.999500e-03 0.9999 -0.419 0.4846)" class="st4" width="0.7" height="6.8"/>
			<line class="st6" x1="98.3" y1="39" x2="93.8" y2="45.7"/>
			<polygon class="st4" points="93.5,45.6 98.1,38.8 98.5,39.1 93.9,45.9 			"/>
			<line class="st6" x1="48.1" y1="39" x2="52.9" y2="45.7"/>
			<polygon class="st4" points="47.8,39.1 48.2,38.7 53.1,45.5 52.7,45.9 			"/>
			<path class="st8" d="M98.7,46H47.8v-7.3l0.1-0.1l9.5-13.2l15.8-6.8l15.5,6.8l0.1,0.1l9.9,13.3V46H98.7z"/>
			<polygon class="st9" points="88.8,25.8 94.9,21.1 104.5,34.3 98.5,38.8 			"/>
			<path class="st4" d="M98.5,39.3l-10-13.6l6.5-5.1l10,13.6L98.5,39.3z M89.2,25.8l9.3,12.5l5.5-4.3l-9.3-12.5L89.2,25.8z"/>
			<polygon class="st9" points="93.6,19.5 94.8,18.6 106.9,35 105.8,36 			"/>
			<path class="st4" d="M105.8,36.3l-12.5-17l1.6-1.3l12.5,17L105.8,36.3z M94,19.5l11.9,16.3l1-0.8l-12-16L94,19.5z"/>
			<path class="st9" d="M66.1,102.1h14.1v16.3H66.1V102.1z M67.3,118.4h11.9v-14.6H67.3V118.4z"/>
			<rect x="72.9" y="104.7" class="st10" width="5.5" height="14.3"/>
			<rect x="67.8" y="104.7" class="st11" width="5.5" height="14.3"/>
			<rect x="48.1" y="49.4" class="st0" width="50.2" height="31.3"/>
			<path class="st0" d="M98.7,81.2h-51V49h51V81.2z M48.5,80.3h49.3V49.9H48.5L48.5,80.3z"/>
			<path class="st3" d="M53.5,55.5L53.5,55.5l0.1-0.1h1.2c0.1,0,0.1,0,0.1,0.1l0.1,0.1l0.1,0.3l2.2,5.7v0.1l-0.1,0.1h-1.3l-0.1-0.1
				c-0.1-0.2,0-0.6-0.3-0.8h-2.2c-0.1,0.2-0.6,0.4-0.3,0.8c0,0.1-0.1,0.1-0.3,0.1h-1.4v-0.1L53.5,55.5z M54.2,57.4
				c-0.1,0.1-0.1,0.2-0.1,0.4c-0.1,0.4-0.1,0.6-0.3,1c-0.1,0.1-0.1,0.2-0.1,0.4H55L54.2,57.4z"/>
			<path class="st3" d="M62.3,55.8L62.3,55.8c0.1,0.1,0.1,0.1,0.1,0.3l-0.7,1c0,0.1-0.1,0.1-0.1,0.1c0,0,0,0,0,0h-0.1
				c-0.1-0.1-0.3-0.1-0.4-0.3c-0.2-0.1-0.3-0.1-0.5-0.1c-0.3,0-0.4,0.1-0.7,0.1s-0.4,0.1-0.5,0.4c-0.1,0.2-0.2,0.4-0.4,0.5
				c-0.1,0.2-0.2,0.4-0.1,0.7c0,0.2,0,0.5,0.1,0.7c0.1,0.3,0.1,0.4,0.4,0.5s0.4,0.3,0.5,0.4c0.2,0.1,0.4,0.2,0.7,0.1
				c0.3,0,0.4,0,0.5-0.1s0.4-0.1,0.4-0.3s0.1-0.1,0.1,0c0.1,0,0.1,0.1,0.1,0.1c0,0,0,0,0,0l0.7,1V61c0,0.1-0.1,0.1-0.1,0.1
				c0,0,0,0,0,0c-0.3,0.2-0.6,0.3-0.9,0.4c-0.3,0.1-0.6,0.1-0.9,0.1c-0.3,0-0.6,0-0.9-0.1c-0.3-0.1-0.5-0.1-0.8-0.4
				c-0.2-0.2-0.4-0.4-0.7-0.5c-0.2-0.2-0.4-0.4-0.5-0.7l-0.4-0.8c-0.2-0.6-0.2-1.2,0-1.8c0.1-0.3,0.1-0.5,0.4-0.8s0.4-0.4,0.5-0.7
				c0.2-0.2,0.4-0.4,0.7-0.5l0.8-0.4c0.3-0.1,0.6-0.2,0.9-0.1c0.4,0,0.7,0.1,0.9,0.1C61.8,55.5,62.1,55.5,62.3,55.8z"/>
			<path class="st3" d="M65.3,55.5L65.3,55.5l0.1-0.1h1.2c0.1,0,0.1,0,0.1,0.1l0.1,0.1l0.1,0.3l2.2,5.7v0.1l-0.1,0.1h-1.3l-0.1-0.1
				c-0.1-0.1-0.1-0.2-0.1-0.4c-0.1-0.1-0.1-0.2-0.1-0.4h-2.2c-0.1,0.1-0.1,0.2-0.1,0.4c-0.1,0.1-0.1,0.2-0.1,0.4
				c0,0.1-0.1,0.1-0.3,0.1h-1.4v-0.1L65.3,55.5z M66.1,57.4C66,57.5,66,57.6,66,57.7c-0.1,0.3-0.1,0.7-0.3,1
				c-0.1,0.1-0.1,0.2-0.1,0.4h1.3L66.1,57.4z"/>
			<path class="st3" d="M75.4,58.5c0,0.3,0,0.6-0.1,0.9c-0.1,0.3-0.1,0.5-0.4,0.8s-0.4,0.4-0.5,0.7c-0.2,0.2-0.4,0.4-0.7,0.5
				l-0.8,0.4c-0.3,0.1-0.6,0.2-0.9,0.1h-2.2l-0.1-0.1v-6c0-0.1,0-0.1,0.1-0.1l0.1-0.1H72c0.3,0,0.6,0,0.9,0.1
				c0.3,0.1,0.5,0.1,0.8,0.4c0.2,0.1,0.5,0.3,0.7,0.5c0.2,0.2,0.4,0.4,0.5,0.7l0.4,0.8C75.4,57.9,75.4,58.1,75.4,58.5z M71.6,56.8
				v3.3h0.7c0.2,0,0.4-0.1,0.7-0.1c0.1-0.1,0.4-0.1,0.5-0.4s0.3-0.4,0.4-0.5c0.1-0.2,0.2-0.4,0.1-0.7c0-0.3-0.1-0.4-0.1-0.7
				s-0.1-0.4-0.4-0.5S73,57,72.9,56.8c-0.2-0.1-0.4-0.2-0.7-0.1h-0.7V56.8z"/>
			<path class="st3" d="M76.6,55.5c0-0.1,0-0.1,0.1-0.1l0.1-0.1H81c0.1,0,0.1,0,0.1,0.1l0.1,0.1v1c0,0.1,0,0.1-0.1,0.1
				c0,0.1-0.1,0.1-0.1,0.1h-2.8v1h2.2l0.1,0.1v0.9c0,0.1-0.1,0.1-0.1,0.1l-0.1,0.1h-2.1v1.2H81c0.1,0,0.1,0.1,0.1,0.1v1.2
				c0,0.1-0.1,0.1-0.1,0.1h-4.3c-0.1,0-0.1,0-0.1-0.1l-0.1-0.1v-6L76.6,55.5z"/>
			<path class="st3" d="M82.6,55.5c0-0.1,0-0.1,0.1-0.1l0.1-0.1h1.4c0.1,0,0.1,0.1,0.1,0.1l1.2,3.9l1.2-3.9c0-0.1,0.1-0.1,0.3-0.1
				h1.4c0.1,0,0.1,0,0.1,0.1l0.1,0.1c0.1,1,0.2,2,0.4,3c0.1,1,0.2,2,0.4,3l0,0c0,0.1-0.1,0.1-0.1,0.1h-1.1c-0.1,0-0.1-0.1-0.1-0.1
				l-0.4-3.3l-0.9,3.4c0,0.1-0.1,0.1-0.1,0.1l-0.1,0.1h-1c-0.1,0-0.1-0.1-0.1-0.1l-0.1-0.1l-0.9-3.4l-0.4,3.3c0,0.1-0.1,0.1-0.1,0.1
				h-1.6c-0.1,0-0.1-0.1-0.1-0.1L82.6,55.5z"/>
			<path class="st3" d="M92.6,57.6l1-2.2v-0.1h1.8v0.1c0,0.1-0.1,0.1-0.1,0.1l-2.1,3.7v2.5c0,0.1-0.1,0.1-0.1,0.1h-1.3
				c-0.1,0-0.1,0-0.1-0.1l-0.1-0.1V59l-2-3.7l-0.1-0.1v-0.1h1.8l0.1,0.1L92.6,57.6z"/>
			<rect x="51.6" y="70" width="5.2" height="5"/>
			<rect x="59.1" y="70" width="5.2" height="5"/>
			<rect x="66.6" y="69.9" width="5.2" height="5"/>
			<rect x="51.5" y="77.2" width="5.2" height="5"/>
			<rect x="58.8" y="77.2" width="5.2" height="5"/>
			<rect x="66.4" y="76.9" width="5.2" height="5"/>
			<rect x="74.3" y="70" width="5.2" height="5"/>
			<rect x="81.8" y="69.9" width="5.2" height="5"/>
			<rect x="89.3" y="69.6" width="5.2" height="5"/>
			<rect x="74.3" y="77.2" width="5.2" height="5"/>
			<rect x="81.8" y="76.9" width="5.2" height="5"/>
			<rect x="89.3" y="76.8" width="5.2" height="5"/>
			<rect x="51.6" y="84.5" width="5.2" height="5"/>
			<rect x="59.1" y="84.5" width="5.2" height="5"/>
			<rect x="66.6" y="84.3" width="5.2" height="5"/>
			<rect x="74.3" y="84.5" width="5.2" height="5"/>
			<rect x="81.8" y="84.3" width="5.2" height="5"/>
			<rect x="89.3" y="84.1" width="5.2" height="5"/>
		</g>
	</g>
</g>
</svg>
