<svg xmlns="http://www.w3.org/2000/svg" viewBox="0 0 120 120"><defs><style>.cls-1{fill:#132930;}.cls-2{fill:#ffe;}.cls-3{fill:#60acbe;}.cls-4{fill:#fd8b4f;}.cls-5{fill:#488ca7;}.cls-10,.cls-6{fill:#d6d6cc;}.cls-7{fill:#c1c1b9;}.cls-8{fill:none;}.cls-9{fill:#fff;}.cls-10{opacity:0.2;isolation:isolate;}.cls-11{fill:#0a171d;}.cls-12{fill:#18363d;}</style></defs><title>Asset 5</title><g id="Layer_2" data-name="Layer 2"><g id="academy_icon"><rect class="cls-1" width="120" height="120" rx="12" ry="12"/><g id="academy"><rect class="cls-2" x="48.11" y="81.22" width="50.22" height="38.09"/><path class="cls-2" d="M98.73,119.83h-51V80.7h51Zm-50.22-1H97.81V81.87H48.51Z"/><rect class="cls-3" x="22.16" y="92.37" width="25.57" height="27.46"/><rect class="cls-4" x="25.68" y="98.53" width="2.35" height="4.02"/><rect class="cls-4" x="28.94" y="98.53" width="2.35" height="4.02"/><rect class="cls-4" x="32.2" y="98.53" width="2.35" height="4.02"/><rect class="cls-4" x="25.55" y="104.21" width="2.35" height="4.02"/><rect class="cls-4" x="28.81" y="104.21" width="2.35" height="4.02"/><rect class="cls-4" x="32.2" y="104.22" width="2.35" height="4.02"/><rect class="cls-4" x="35.59" y="98.53" width="2.35" height="4.02"/><rect class="cls-4" x="38.85" y="98.53" width="2.35" height="4.02"/><rect class="cls-4" x="42.03" y="98.46" width="2.35" height="4.02"/><rect class="cls-4" x="35.59" y="104.21" width="2.35" height="4.02"/><rect class="cls-4" x="38.93" y="104.13" width="1.94" height="4.02"/><rect class="cls-4" x="42.11" y="104.06" width="2.35" height="4.02"/><rect class="cls-5" x="48.9" y="46.13" width="48.52" height="2.74"/><g id="aerial"><g id="aerial-2" data-name="aerial"><polygon class="cls-2" points="36.24 90.74 33.51 90.74 34.42 81.87 35.33 81.87 36.24 90.74"/><polygon class="cls-6" points="34.81 90.61 33.51 90.61 34.42 81.87 34.81 81.74 34.81 90.61"/><path d="M36.51,91H33.24l1-9.13h1.3V82Zm-2.74-.52h2.35l-.91-8.35h-.65Z"/><path class="cls-2" d="M27,69.87C22.55,71,19,72,19,72l6.26,5.74L33.51,79l1.57-.39h0l1.17-.26,7-5.09,3-8s-3.78.78-8.22,1.83c-1.7.39-3.78.91-5.35,1.3h0C30.9,68.83,28.55,69.35,27,69.87Z"/><polygon class="cls-7" points="19.03 72.09 27.38 70.92 32.59 69.61 34.81 78.61 33.11 79.13 25.03 77.7 19.03 72.09"/><path d="M33.37,79.26h0L25.16,78l-6.52-6,.39-.13s3.52-.91,8-2.09c1.57-.39,3.78-1,5.48-1.43S36,67.39,37.81,67C42.38,66,46,65.18,46,65.18l.39-.13-3.13,8.35-7.17,5.09Zm-8.09-1.7,8.09,1.17L36,78.09l6.91-5,2.74-7.57c-1,.26-4.3.91-8,1.7-1.7.39-3.78.91-5.35,1.3A55.59,55.59,0,0,0,26.85,70h0l-7.57,2Z"/><polyline class="cls-2" points="37.81 68.17 37.68 74.7 36.11 78.35"/><polygon points="36.24 78.35 35.85 78.22 37.55 74.7 37.55 68.17 37.94 68.17 37.81 74.83 36.24 78.35"/><polygon points="33.11 79.13 30.11 76.65 27.11 70.78 27.5 70.65 30.5 76.39 33.38 78.74 33.11 79.13"/><polyline class="cls-2" points="19.03 71.83 27.24 70.65 37.81 68.17 46.03 65.31"/><polygon points="19.03 72.09 18.9 71.7 27.24 70.52 37.68 67.91 46.03 65.17 46.03 65.57 37.81 68.31 27.38 70.92 19.03 72.09"/><circle class="cls-2" cx="34.81" cy="80.96" r="1.17"/><path class="cls-6" d="M34.81,79.78V82s-1.3-.39-1.17-1.17S34.81,79.78,34.81,79.78Z"/><path d="M34.81,82.13a1.31,1.31,0,0,1-1.3-1.3,1.3,1.3,0,0,1,2.61,0C36.24,81.61,35.72,82.13,34.81,82.13Zm0-2.09a.91.91,0,1,0,.91.91A.82.82,0,0,0,34.81,80Z"/><ellipse class="cls-2" cx="34.81" cy="79.13" rx="0.78" ry="0.65"/><path class="cls-6" d="M34.81,78.35v1.43s-.78-.13-.65-.65A1.35,1.35,0,0,1,34.81,78.35Z"/><path d="M34.81,80a.91.91,0,1,1,.91-.91C35.85,79.65,35.46,80,34.81,80Zm0-1.3c-.26,0-.52.13-.52.39s.26.39.52.39.52-.13.52-.39S35.2,78.74,34.81,78.74Z"/><polygon class="cls-2" points="38.2 92.44 31.55 92.44 33.51 90.74 36.24 90.74 38.2 92.44"/><polygon class="cls-6" points="34.94 92.44 31.68 92.44 33.64 90.74 34.81 90.74 34.94 92.44"/><path d="M38.72,92.7H31l2.35-2.22h3Zm-6.52-.39h5.61l-1.43-1.43H33.77Z"/></g><line class="cls-8" x1="31.55" y1="64.91" x2="34.81" y2="69.35"/><polygon class="cls-9" points="34.55 69.48 31.42 65.05 31.68 64.78 34.94 69.22 34.55 69.48"/><line class="cls-8" x1="31.42" y1="64.91" x2="30.9" y2="70.39"/><polygon class="cls-9" points="30.64 70.26 31.29 64.91 31.68 64.91 31.03 70.26 30.64 70.26"/><circle class="cls-2" cx="31.42" cy="64.26" r="0.65"/><path class="cls-9" d="M31.42,65.18a.89.89,0,0,1-.91-.91.91.91,0,0,1,1.83,0C32.2,64.65,31.94,65.18,31.42,65.18Zm0-1.43a.39.39,0,1,0,.39.39A.42.42,0,0,0,31.42,63.74Z"/><line class="cls-8" x1="32.59" y1="68.7" x2="31.55" y2="64.91"/><polygon class="cls-9" points="31.29 65.05 31.81 64.91 32.72 68.7 32.33 68.7 31.29 65.05"/></g><path class="cls-6" d="M98.73,46H47.85V38.7l.13-.13,9.52-13.17,15.78-6.78,15.52,6.78.13.13,9.91,13.3V46Zm-50.22-.52H98.07l-.13-6.39L88.29,26,73.16,19.52,57.77,26l-9.39,13v6.39Z"/><line class="cls-8" x1="93.77" y1="45.74" x2="73.16" y2="19.13"/><polygon class="cls-6" points="72.9 19.39 73.42 18.87 94.03 45.48 93.51 45.87 72.9 19.39"/><line class="cls-8" x1="73.29" y1="19.13" x2="52.94" y2="45.74"/><polygon class="cls-6" points="52.68 45.61 73.16 18.87 73.68 19.39 53.2 46 52.68 45.61"/><line class="cls-8" x1="83.33" y1="45.74" x2="65.46" y2="22.65"/><polygon class="cls-6" points="65.33 22.78 65.86 22.39 83.72 45.48 83.2 46 65.33 22.78"/><line class="cls-8" x1="80.86" y1="22.65" x2="63.12" y2="45.48"/><polygon class="cls-6" points="62.85 45.48 80.59 22.39 81.12 22.78 63.38 45.87 62.85 45.48"/><line class="cls-8" x1="80.2" y1="23.3" x2="63.12" y2="45.48"/><polygon class="cls-6" points="62.72 45.35 80.07 23.04 80.59 23.56 63.38 45.87 62.72 45.35"/><line class="cls-8" x1="88.42" y1="25.78" x2="73.16" y2="45.74"/><polygon class="cls-6" points="72.77 45.48 88.16 25.65 88.68 26.04 73.29 46 72.77 45.48"/><line class="cls-8" x1="93.51" y1="32.43" x2="83.2" y2="45.74"/><polygon class="cls-6" points="82.94 45.61 93.25 32.3 93.77 32.7 83.46 46 82.94 45.61"/><line class="cls-8" x1="73.16" y1="45.74" x2="57.51" y2="25.78"/><polygon class="cls-6" points="57.38 25.91 57.9 25.52 73.42 45.48 72.77 45.87 57.38 25.91"/><line class="cls-8" x1="63.12" y1="45.48" x2="52.81" y2="32.43"/><polygon class="cls-6" points="52.55 32.7 53.07 32.3 63.38 45.48 62.85 45.74 52.55 32.7"/><rect class="cls-6" x="57.51" y="25.39" width="30.91" height="0.65"/><rect class="cls-6" x="52.81" y="32.17" width="40.7" height="0.65"/><rect class="cls-6" x="48.11" y="38.57" width="50.22" height="0.65"/><rect class="cls-6" x="47.73" y="38.96" width="0.65" height="6.78" transform="matrix(1, -0.01, 0.01, 1, -0.23, 0.27)"/><line class="cls-8" x1="98.33" y1="38.96" x2="93.77" y2="45.74"/><polygon class="cls-6" points="93.51 45.61 98.07 38.83 98.47 39.09 93.9 45.87 93.51 45.61"/><line class="cls-8" x1="48.11" y1="38.96" x2="52.94" y2="45.74"/><polygon class="cls-6" points="47.85 39.09 48.24 38.7 53.07 45.48 52.68 45.87 47.85 39.09"/><path class="cls-10" d="M98.73,46H47.85V38.7l.13-.13,9.52-13.17,15.78-6.78,15.52,6.78.13.13,9.91,13.3V46Z"/><polygon class="cls-11" points="88.81 25.78 94.94 21.09 104.47 34.26 98.47 38.83 88.81 25.78"/><path class="cls-6" d="M98.46,39.35l-10-13.57,6.52-5.09,10,13.57ZM89.2,25.78,98.46,38.3l5.48-4.3L94.68,21.48Z"/><polygon class="cls-11" points="93.64 19.52 94.81 18.61 106.94 35.04 105.77 35.96 93.64 19.52"/><path class="cls-6" d="M105.77,36.35l-12.52-17,1.57-1.3,12.52,17ZM94,19.52,105.9,35.83l1-.78-12-16Z"/><path class="cls-11" d="M66.12,102.09H80.2V118.4H66.12Zm1.17,16.31H79.16V103.79H67.29Z"/><rect class="cls-12" x="72.9" y="104.7" width="5.48" height="14.35"/><rect class="cls-1" x="67.81" y="104.7" width="5.48" height="14.35"/><rect class="cls-2" x="48.11" y="49.39" width="50.22" height="31.31"/><path class="cls-2" d="M98.73,81.22h-51V49h51Zm-50.22-.91H97.81V49.91H48.51Z"/><path class="cls-5" d="M53.46,55.52h0l.13-.13h1.17c.13,0,.13,0,.13.13l.13.13.13.26,2.22,5.74v.13l-.13.13h-1.3l-.13-.13a17935909.95,17935909.95,0,0,1-.26-.78H53.33a17935934.88,17935934.88,0,0,0-.26.78c0,.13-.13.13-.26.13H51.38v-.13Zm.78,1.83a.64.64,0,0,0-.13.39,39755531.61,39755531.61,0,0,0-.26,1,.64.64,0,0,0-.13.39H55Z"/><path class="cls-5" d="M62.33,55.78h0c.13.13.13.13.13.26l-.65,1a.13.13,0,0,1-.13.13h-.13c-.13-.13-.26-.13-.39-.26a.78.78,0,0,0-.52-.13c-.26,0-.39.13-.65.13s-.39.13-.52.39a1.8,1.8,0,0,1-.39.52,1,1,0,0,0-.13.65,1.18,1.18,0,0,0,.13.65c.13.26.13.39.39.52s.39.26.52.39a1,1,0,0,0,.65.13c.26,0,.39,0,.52-.13s.39-.13.39-.26.13-.13.13,0a.13.13,0,0,1,.13.13l.65,1v.13a.13.13,0,0,1-.13.13,2,2,0,0,1-.91.39,2.55,2.55,0,0,1-.91.13,2.22,2.22,0,0,1-.91-.13c-.26-.13-.52-.13-.78-.39a2.29,2.29,0,0,0-.65-.52,2.85,2.85,0,0,1-.52-.65l-.39-.78a3.26,3.26,0,0,1,0-1.83c.13-.26.13-.52.39-.78s.39-.39.52-.65a2.85,2.85,0,0,1,.65-.52l.78-.39a2.22,2.22,0,0,1,.91-.13c.39,0,.65.13.91.13C61.81,55.52,62.07,55.52,62.33,55.78Z"/><path class="cls-5" d="M65.33,55.52h0l.13-.13h1.17c.13,0,.13,0,.13.13l.13.13.13.26,2.22,5.74v.13l-.13.13h-1.3l-.13-.13a.48.48,0,0,1-.13-.39.48.48,0,0,1-.13-.39H65.2a.48.48,0,0,0-.13.39.48.48,0,0,0-.13.39c0,.13-.13.13-.26.13H63.25v-.13Zm.78,1.83a.64.64,0,0,0-.13.39,23852557.27,23852557.27,0,0,1-.26,1,.64.64,0,0,0-.13.39h1.3Z"/><path class="cls-5" d="M75.38,58.52a1.93,1.93,0,0,1-.13.91c-.13.26-.13.52-.39.78s-.39.39-.52.65a2.85,2.85,0,0,1-.65.52l-.78.39a2.22,2.22,0,0,1-.91.13H69.77l-.13-.13v-6c0-.13,0-.13.13-.13l.13-.13H72a2.22,2.22,0,0,1,.91.13c.26.13.52.13.78.39a2.29,2.29,0,0,1,.65.52,2.85,2.85,0,0,1,.52.65l.39.78C75.38,57.87,75.38,58.13,75.38,58.52Zm-3.78-1.7v3.26h.65A5.65,5.65,0,0,1,72.9,60c.13-.13.39-.13.52-.39s.26-.39.39-.52a1,1,0,0,0,.13-.65c0-.26-.13-.39-.13-.65s-.13-.39-.39-.52S73,57,72.9,56.83a1,1,0,0,0-.65-.13h-.65Z"/><path class="cls-5" d="M76.55,55.52c0-.13,0-.13.13-.13l.13-.13H81c.13,0,.13,0,.13.13l.13.13v1c0,.13,0,.13-.13.13a.13.13,0,0,1-.13.13H78.25v1h2.22l.13.13v.91a.13.13,0,0,1-.13.13l-.13.13H78.25v1.17H81a.13.13,0,0,1,.13.13v1.17a.13.13,0,0,1-.13.13h-4.3c-.13,0-.13,0-.13-.13l-.13-.13v-6Z"/><path class="cls-5" d="M82.55,55.52c0-.13,0-.13.13-.13l.13-.13h1.43a.13.13,0,0,1,.13.13l1.17,3.91,1.17-3.91c0-.13.13-.13.26-.13h1.43c.13,0,.13,0,.13.13l.13.13a23.62,23.62,0,0,0,.39,3,27.12,27.12,0,0,0,.39,3h0a.13.13,0,0,1-.13.13H88.16a.13.13,0,0,1-.13-.13l-.39-3.26-.91,3.39a.13.13,0,0,1-.13.13l-.13.13h-1a.13.13,0,0,1-.13-.13l-.13-.13-.91-3.39-.39,3.26a.13.13,0,0,1-.13.13H82.16a.13.13,0,0,1-.13-.13Z"/><path class="cls-5" d="M92.6,57.61l1-2.22v-.13h1.83v.13a.13.13,0,0,1-.13.13l-2.09,3.65v2.48a.13.13,0,0,1-.13.13h-1.3c-.13,0-.13,0-.13-.13l-.13-.13V59l-2-3.65-.13-.13v-.13h1.83l.13.13Z"/><rect x="51.64" y="70" width="5.22" height="4.96"/><rect x="59.07" y="70" width="5.22" height="4.96"/><rect x="66.64" y="69.87" width="5.22" height="4.96"/><rect x="51.51" y="77.18" width="5.22" height="4.96"/><rect x="58.81" y="77.18" width="5.22" height="4.96"/><rect x="66.38" y="76.91" width="5.22" height="4.96"/><rect x="74.33" y="70" width="5.22" height="4.96"/><rect x="81.77" y="69.87" width="5.22" height="4.96"/><rect x="89.33" y="69.61" width="5.22" height="4.96"/><rect x="74.33" y="77.18" width="5.22" height="4.96"/><rect x="81.77" y="76.91" width="5.22" height="4.96"/><rect x="89.33" y="76.78" width="5.22" height="4.96"/><rect x="51.64" y="84.48" width="5.22" height="4.96"/><rect x="59.07" y="84.48" width="5.22" height="4.96"/><rect x="66.64" y="84.35" width="5.22" height="4.96"/><rect x="74.33" y="84.48" width="5.22" height="4.96"/><rect x="81.77" y="84.35" width="5.22" height="4.96"/><rect x="89.33" y="84.09" width="5.22" height="4.96"/></g></g></g></svg>