<svg xmlns="http://www.w3.org/2000/svg" viewBox="0 0 120 120.53"><defs><style>.cls-1{fill:#132930;}.cls-2{fill:#ffe;}.cls-3{fill:#60acbe;}.cls-4{fill:#fd8b4f;}.cls-5{fill:#488ca7;}.cls-10,.cls-6{fill:#d6d6cc;}.cls-7{fill:#c1c1b9;}.cls-8{fill:none;}.cls-9{fill:#fff;}.cls-10{opacity:0.2;isolation:isolate;}.cls-11{fill:#0a171d;}.cls-12{fill:#18363d;}</style></defs><title>Asset 10</title><g id="Layer_2" data-name="Layer 2"><g id="addAcademy"><circle class="cls-1" cx="60" cy="60" r="60"/><g id="academy"><rect class="cls-2" x="46.58" y="69.26" width="42.48" height="32.22"/><path class="cls-2" d="M89.39,101.92H46.25V68.82H89.39ZM46.91,101h41.7V69.81H46.91Z"/><rect class="cls-3" x="24.62" y="78.7" width="21.62" height="23.22"/><rect class="cls-4" x="27.6" y="83.9" width="1.99" height="3.4"/><rect class="cls-4" x="30.36" y="83.9" width="1.99" height="3.4"/><rect class="cls-4" x="33.12" y="83.91" width="1.99" height="3.4"/><rect class="cls-4" x="27.49" y="88.71" width="1.99" height="3.4"/><rect class="cls-4" x="30.25" y="88.71" width="1.99" height="3.4"/><rect class="cls-4" x="33.12" y="88.71" width="1.99" height="3.4"/><rect class="cls-4" x="35.99" y="83.9" width="1.99" height="3.4"/><rect class="cls-4" x="38.75" y="83.91" width="1.99" height="3.4"/><rect class="cls-4" x="41.44" y="83.85" width="1.99" height="3.4"/><rect class="cls-4" x="35.99" y="88.71" width="1.99" height="3.4"/><rect class="cls-4" x="38.81" y="88.64" width="1.64" height="3.4"/><rect class="cls-4" x="41.5" y="88.58" width="1.99" height="3.4"/><rect class="cls-5" x="47.24" y="39.58" width="41.04" height="2.32"/><g id="aerial"><g id="aerial-2" data-name="aerial"><polygon class="cls-2" points="36.54 77.32 34.22 77.32 34.99 69.81 35.77 69.81 36.54 77.32"/><polygon class="cls-6" points="35.33 77.21 34.22 77.21 34.99 69.81 35.33 69.7 35.33 77.21"/><path d="M36.76,77.54H34l.88-7.72H36v.11Zm-2.32-.44h2L35.66,70H35.1Z"/><path class="cls-2" d="M28.71,59.66,22,61.43l5.3,4.85,7,1.1,1.32-.33h0l1-.22,6-4.3L45,55.8s-3.2.66-7,1.54c-1.43.33-3.2.77-4.52,1.1h0C32,58.78,30,59.22,28.71,59.66Z"/><polygon class="cls-7" points="21.98 61.54 29.04 60.55 33.45 59.44 35.33 67.06 33.89 67.5 27.05 66.28 21.98 61.54"/><path d="M34.11,67.61h0l-7-1.1-5.52-5.08.33-.11,6.73-1.77c1.32-.33,3.2-.88,4.63-1.21s3-.77,4.52-1.1c3.86-.88,7-1.54,7-1.54l.33-.11L42.5,62.64l-6.07,4.3Zm-6.84-1.43,6.84,1,2.21-.55,5.85-4.19L44.48,56c-.88.22-3.64.77-6.73,1.43-1.43.33-3.2.77-4.52,1.1a47,47,0,0,0-4.63,1.21h0l-6.4,1.65Z"/><polyline class="cls-2" points="37.86 58.23 37.75 63.75 36.43 66.83"/><polygon points="36.54 66.83 36.21 66.72 37.64 63.75 37.64 58.23 37.97 58.23 37.86 63.86 36.54 66.83"/><polygon points="33.89 67.5 31.35 65.4 28.82 60.44 29.15 60.33 31.68 65.18 34.11 67.17 33.89 67.5"/><polyline class="cls-2" points="21.98 61.32 28.93 60.33 37.86 58.23 44.81 55.8"/><polygon points="21.98 61.54 21.87 61.21 28.93 60.22 37.75 58.01 44.81 55.69 44.81 56.02 37.86 58.34 29.04 60.55 21.98 61.54"/><circle class="cls-2" cx="35.33" cy="69.04" r="0.99"/><path class="cls-6" d="M35.33,68v1.88s-1.1-.33-1-1S35.33,68,35.33,68Z"/><path d="M35.33,70a1.11,1.11,0,0,1-1.1-1.1,1.1,1.1,0,1,1,2.21,0C36.54,69.59,36.1,70,35.33,70Zm0-1.77a.77.77,0,1,0,.77.77A.7.7,0,0,0,35.33,68.27Z"/><ellipse class="cls-2" cx="35.33" cy="67.5" rx="0.66" ry="0.55"/><path class="cls-6" d="M35.33,66.84V68s-.66-.11-.55-.55A1.14,1.14,0,0,1,35.33,66.84Z"/><path d="M35.33,68.27a.77.77,0,1,1,.77-.77C36.21,67.94,35.88,68.27,35.33,68.27Zm0-1.1c-.22,0-.44.11-.44.33s.22.33.44.33.44-.11.44-.33S35.66,67.17,35.33,67.17Z"/><polygon class="cls-2" points="38.19 78.75 32.57 78.75 34.22 77.32 36.54 77.32 38.19 78.75"/><polygon class="cls-6" points="35.44 78.75 32.68 78.75 34.33 77.32 35.33 77.32 35.44 78.75"/><path d="M38.64,79H32.13l2-1.88h2.54Zm-5.52-.33h4.74l-1.21-1.21H34.44Z"/></g><line class="cls-8" x1="32.57" y1="55.47" x2="35.33" y2="59.22"/><polygon class="cls-9" points="35.1 59.33 32.46 55.58 32.68 55.36 35.44 59.11 35.1 59.33"/><line class="cls-8" x1="32.46" y1="55.47" x2="32.02" y2="60.11"/><polygon class="cls-9" points="31.8 59.99 32.35 55.47 32.68 55.47 32.13 59.99 31.8 59.99"/><circle class="cls-2" cx="32.46" cy="54.92" r="0.55"/><path class="cls-9" d="M32.46,55.69a.75.75,0,0,1-.77-.77.77.77,0,0,1,1.54,0C33.12,55.25,32.9,55.69,32.46,55.69Zm0-1.21a.33.33,0,1,0,.33.33A.35.35,0,0,0,32.46,54.48Z"/><line class="cls-8" x1="33.45" y1="58.67" x2="32.57" y2="55.47"/><polygon class="cls-9" points="32.35 55.58 32.79 55.47 33.56 58.67 33.23 58.67 32.35 55.58"/></g><path class="cls-6" d="M89.39,39.47h-43V33.3l.11-.11L54.52,22l13.35-5.74L81,22l.11.11L89.5,33.41v6.07ZM46.91,39H88.83l-.11-5.41-8.16-11-12.8-5.52-13,5.52-7.94,11V39Z"/><line class="cls-8" x1="85.19" y1="39.25" x2="67.76" y2="16.75"/><polygon class="cls-6" points="67.54 16.97 67.98 16.53 85.41 39.03 84.97 39.36 67.54 16.97"/><line class="cls-8" x1="67.87" y1="16.75" x2="50.66" y2="39.25"/><polygon class="cls-6" points="50.44 39.14 67.76 16.53 68.2 16.97 50.88 39.47 50.44 39.14"/><line class="cls-8" x1="76.37" y1="39.25" x2="61.25" y2="19.73"/><polygon class="cls-6" points="61.14 19.84 61.58 19.5 76.7 39.03 76.26 39.47 61.14 19.84"/><line class="cls-8" x1="74.27" y1="19.73" x2="59.27" y2="39.03"/><polygon class="cls-6" points="59.05 39.03 74.05 19.5 74.49 19.84 59.49 39.36 59.05 39.03"/><line class="cls-8" x1="73.72" y1="20.28" x2="59.27" y2="39.03"/><polygon class="cls-6" points="58.94 38.92 73.61 20.06 74.05 20.5 59.49 39.36 58.94 38.92"/><line class="cls-8" x1="80.67" y1="22.37" x2="67.76" y2="39.25"/><polygon class="cls-6" points="67.43 39.03 80.45 22.26 80.89 22.59 67.87 39.47 67.43 39.03"/><line class="cls-8" x1="84.97" y1="28" x2="76.26" y2="39.25"/><polygon class="cls-6" points="76.04 39.14 84.75 27.89 85.19 28.22 76.48 39.47 76.04 39.14"/><line class="cls-8" x1="67.76" y1="39.25" x2="54.52" y2="22.37"/><polygon class="cls-6" points="54.41 22.48 54.85 22.15 67.98 39.03 67.43 39.36 54.41 22.48"/><line class="cls-8" x1="59.27" y1="39.03" x2="50.55" y2="28"/><polygon class="cls-6" points="50.33 28.22 50.77 27.89 59.49 39.03 59.05 39.25 50.33 28.22"/><rect class="cls-6" x="54.52" y="22.04" width="26.15" height="0.55"/><rect class="cls-6" x="50.55" y="27.78" width="34.42" height="0.55"/><rect class="cls-6" x="46.58" y="33.19" width="42.48" height="0.55"/><rect class="cls-6" x="46.25" y="33.52" width="0.55" height="5.74" transform="translate(-0.2 0.26) rotate(-0.32)"/><line class="cls-8" x1="89.05" y1="33.52" x2="85.19" y2="39.25"/><polygon class="cls-6" points="84.97 39.14 88.83 33.41 89.17 33.63 85.3 39.36 84.97 39.14"/><line class="cls-8" x1="46.58" y1="33.52" x2="50.66" y2="39.25"/><polygon class="cls-6" points="46.36 33.63 46.69 33.3 50.77 39.03 50.44 39.36 46.36 33.63"/><path class="cls-10" d="M89.39,39.47h-43V33.3l.11-.11L54.52,22l13.35-5.74L81,22l.11.11L89.5,33.41v6.07Z"/><polygon class="cls-11" points="81 22.37 86.19 18.4 94.24 29.55 89.17 33.41 81 22.37"/><path class="cls-6" d="M89.17,33.85l-8.5-11.47,5.52-4.3,8.5,11.47ZM81.33,22.37,89.17,33l4.63-3.64L86,18.73Z"/><polygon class="cls-11" points="85.08 17.08 86.08 16.31 96.34 30.21 95.34 30.98 85.08 17.08"/><path class="cls-6" d="M95.34,31.31,84.75,17l1.32-1.1L96.67,30.21ZM85.41,17.08l10,13.79.88-.66L86.19,16.64Z"/><path class="cls-11" d="M61.8,86.91H73.72v13.79H61.8Zm1,13.79h10V88.35h-10Z"/><rect class="cls-12" x="67.54" y="89.12" width="4.63" height="12.14"/><rect class="cls-1" x="63.24" y="89.12" width="4.63" height="12.14"/><rect class="cls-2" x="46.58" y="42.34" width="42.48" height="26.48"/><path class="cls-2" d="M89.39,69.26H46.25V42H89.39Zm-42.48-.77h41.7V42.78H46.91Z"/><path class="cls-5" d="M51.1,47.53h0l.11-.11h1c.11,0,.11,0,.11.11l.11.11.11.22,1.88,4.85v.11l-.11.11H53.2l-.11-.11a13639554256290.84,13639554256290.84,0,0,0-.22-.66H51a54558217025166.85,54558217025166.85,0,0,0-.22.66c0,.11-.11.11-.22.11H49.34v-.11Zm.66,1.54a.54.54,0,0,0-.11.33,85313736.51,85313736.51,0,0,1-.22.88.54.54,0,0,0-.11.33h1.1Z"/><path class="cls-5" d="M58.6,47.75h0c.11.11.11.11.11.22l-.55.88a.11.11,0,0,1-.11.11h-.11c-.11-.11-.22-.11-.33-.22a.66.66,0,0,0-.44-.11c-.22,0-.33.11-.55.11s-.33.11-.44.33a1.52,1.52,0,0,1-.33.44.83.83,0,0,0-.11.55,1,1,0,0,0,.11.55c.11.22.11.33.33.44s.33.22.44.33a.83.83,0,0,0,.55.11c.22,0,.33,0,.44-.11s.33-.11.33-.22.11-.11.11,0a.11.11,0,0,1,.11.11l.55.88v.11a.11.11,0,0,1-.11.11,1.65,1.65,0,0,1-.77.33,2.15,2.15,0,0,1-.77.11,1.88,1.88,0,0,1-.77-.11c-.22-.11-.44-.11-.66-.33a1.94,1.94,0,0,0-.55-.44,2.41,2.41,0,0,1-.44-.55l-.33-.66a2.76,2.76,0,0,1,0-1.54c.11-.22.11-.44.33-.66s.33-.33.44-.55a2.41,2.41,0,0,1,.55-.44l.66-.33a1.88,1.88,0,0,1,.77-.11c.33,0,.55.11.77.11C58.16,47.53,58.38,47.53,58.6,47.75Z"/><path class="cls-5" d="M61.14,47.53h0l.11-.11h1c.11,0,.11,0,.11.11l.11.11.11.22,1.88,4.85v.11l-.11.11h-1.1l-.11-.11a27279108512616.6,27279108512616.6,0,0,0-.22-.66H61a54558217025166.74,54558217025166.74,0,0,0-.22.66c0,.11-.11.11-.22.11H59.38v-.11Zm.66,1.54a.54.54,0,0,0-.11.33,85313950.52,85313950.52,0,0,1-.22.88.54.54,0,0,0-.11.33h1.1Z"/><path class="cls-5" d="M69.64,50.07a1.64,1.64,0,0,1-.11.77c-.11.22-.11.44-.33.66s-.33.33-.44.55a2.41,2.41,0,0,1-.55.44l-.66.33a1.88,1.88,0,0,1-.77.11H64.89l-.11-.11V47.75c0-.11,0-.11.11-.11l.11-.11h1.77a1.88,1.88,0,0,1,.77.11c.22.11.44.11.66.33a1.94,1.94,0,0,1,.55.44,2.41,2.41,0,0,1,.44.55l.33.66C69.64,49.51,69.64,49.73,69.64,50.07Zm-3.2-1.43v2.76H67a4.78,4.78,0,0,1,.55-.11c.11-.11.33-.11.44-.33s.22-.33.33-.44a.83.83,0,0,0,.11-.55c0-.22-.11-.33-.11-.55S68.2,49.07,68,49s-.33-.22-.44-.33a.83.83,0,0,0-.55-.11h-.55Z"/><path class="cls-5" d="M70.63,47.53c0-.11,0-.11.11-.11l.11-.11h3.53c.11,0,.11,0,.11.11l.11.11v.88c0,.11,0,.11-.11.11a.11.11,0,0,1-.11.11H72.06v.88h1.88l.11.11v.77a.11.11,0,0,1-.11.11l-.11.11H72.06v1h2.32a.11.11,0,0,1,.11.11v1a.11.11,0,0,1-.11.11H70.74c-.11,0-.11,0-.11-.11l-.11-.11V47.53Z"/><path class="cls-5" d="M75.71,47.53c0-.11,0-.11.11-.11l.11-.11h1.21a.11.11,0,0,1,.11.11l1,3.31,1-3.31c0-.11.11-.11.22-.11h1.21c.11,0,.11,0,.11.11l.11.11a20,20,0,0,0,.33,2.54,22.94,22.94,0,0,0,.33,2.54h0a.11.11,0,0,1-.11.11h-1a.11.11,0,0,1-.11-.11L80,49.85l-.77,2.87a.11.11,0,0,1-.11.11l-.11.11h-.88a.11.11,0,0,1-.11-.11l-.11-.11-.77-2.87-.33,2.76a.11.11,0,0,1-.11.11H75.37a.11.11,0,0,1-.11-.11Z"/><path class="cls-5" d="M84.2,49.29l.88-1.88v-.11h1.54v.11a.11.11,0,0,1-.11.11l-1.77,3.09v2.1a.11.11,0,0,1-.11.11h-1.1c-.11,0-.11,0-.11-.11l-.11-.11v-2.1l-1.65-3.09-.11-.11V47.2H83.1l.11.11Z"/><rect x="49.56" y="59.77" width="4.41" height="4.19"/><rect x="55.85" y="59.77" width="4.41" height="4.19"/><rect x="62.25" y="59.66" width="4.41" height="4.19"/><rect x="49.45" y="65.84" width="4.41" height="4.19"/><rect x="55.63" y="65.84" width="4.41" height="4.19"/><rect x="62.02" y="65.62" width="4.41" height="4.19"/><rect x="68.75" y="59.77" width="4.41" height="4.19"/><rect x="75.04" y="59.66" width="4.41" height="4.19"/><rect x="81.44" y="59.44" width="4.41" height="4.19"/><rect x="68.75" y="65.84" width="4.41" height="4.19"/><rect x="75.04" y="65.62" width="4.41" height="4.19"/><rect x="81.44" y="65.51" width="4.41" height="4.19"/><rect x="49.56" y="72.02" width="4.41" height="4.19"/><rect x="55.85" y="72.02" width="4.41" height="4.19"/><rect x="62.25" y="71.91" width="4.41" height="4.19"/><rect x="68.75" y="72.02" width="4.41" height="4.19"/><rect x="75.04" y="71.91" width="4.41" height="4.19"/><rect x="81.44" y="71.69" width="4.41" height="4.19"/></g><g id="add-circle"><path class="cls-9" d="M94.38,71.76a12.4,12.4,0,1,0,12.4,12.4A12.44,12.44,0,0,0,94.38,71.76Z"/></g><g id="add-circle-2" data-name="add-circle"><path class="cls-5" d="M94,70.42a13.69,13.69,0,1,0,13.69,13.69A13.73,13.73,0,0,0,94,70.42Zm6.84,15.06H95.36V91H92.63V85.48H87.15V82.74h5.48V77.27h2.74v5.48h5.48Z"/></g><path class="cls-4" d="M59.73,120.53a59.81,59.81,0,0,0,43.48-18.68h-87A59.81,59.81,0,0,0,59.73,120.53Z"/></g></g></svg>