<svg xmlns="http://www.w3.org/2000/svg" viewBox="0 0 120 120"><defs><style>.cls-1{fill:#132930;}.cls-2{fill:#262d30;}.cls-3{fill:#0a171d;}.cls-4{fill:#fff;}.cls-5{fill:#fee159;}.cls-6{fill:#60acbe;}.cls-7{fill:#488ca7;}.cls-8{fill:#fc6e23;}.cls-9{fill:#7c932c;stroke:#7c932c;stroke-miterlimit:10;}</style></defs><title>Asset 11</title><g id="Layer_2" data-name="Layer 2"><g id="addFactory_icon"><circle class="cls-1" cx="60" cy="60" r="60"/><g id="factory"><g id="factoryGroup"><path class="cls-2" d="M40.6,38.72h0a10.18,10.18,0,0,0-10.46,9.93l-.11,35c0,3.7,3.7,6.76,8.66,7.29V92h3.91V91c4.86-.63,8.56-3.7,8.56-7.29l.11-35A10.52,10.52,0,0,0,40.6,38.72Z"/><path class="cls-3" d="M36,83.29l.11-34.43c0-4.54,3.59-8.34,8.56-9.51a13.31,13.31,0,0,0-3-.42h0c-6.34,0-11.51,4.44-11.51,9.72L30,83.08c0,3.59,4,6.55,9.4,7.18v1.06h4.22V90.26c.32,0,.63-.11.84-.11C39.65,89.52,36,86.67,36,83.29Z"/><path class="cls-4" d="M42.92,92.38H38.17V91.32c-5.07-.74-8.66-4-8.66-7.6l.11-35c0-5.7,5-10.35,11-10.35s11,4.75,11,10.46l-.11,35c0,3.7-3.59,6.87-8.56,7.6ZM39,91.53h3V90.48l.42-.11c4.75-.63,8.13-3.49,8.13-6.87l.11-35a9.81,9.81,0,0,0-10-9.61c-5.6,0-10.14,4.22-10.14,9.51l-.11,35c0,3.38,3.49,6.23,8.24,6.87l.42.11v1.16Z"/><path class="cls-5" d="M42.4,34.08V23.72c0-1.9,1.37-3.06,3.59-3.06H72.71c2.22,0,3.59,1.06,3.59,3.06l-.11,63.05h3l.11-65.59c0-1.9-1.69-3.38-4-3.38H42.92c-2.22,0-4,1.58-4,3.38V39.57l3.38-1Z"/><g id="tartaly1"><ellipse id="tartaly1-2" data-name="tartaly1" class="cls-6" cx="77.92" cy="83.08" rx="15.31" ry="16.16" transform="translate(-5.29 160.86) rotate(-89.91)"/><path class="cls-7" d="M68.59,83.08a20.2,20.2,0,0,1,7.08-15.21A15.59,15.59,0,0,0,61.72,83.08c0,7.82,6,14,13.84,15.21A20.47,20.47,0,0,1,68.59,83.08Z"/></g><rect class="cls-5" x="76.28" y="67.01" width="3.27" height="35.59" transform="translate(-7.01 162.6) rotate(-89.92)"/><rect class="cls-5" x="77.08" y="63.25" width="1.8" height="8.24" transform="matrix(0, -1, 1, 0, 10.5, 145.25)"/><polygon class="cls-5" points="59.72 99.82 58.66 99.82 64.26 86.41 65.42 86.41 59.72 99.82"/><rect class="cls-5" x="58.68" y="98.24" width="0.63" height="3.06" transform="translate(-40.86 158.63) rotate(-89.92)"/><polygon class="cls-5" points="69.43 99.92 68.38 99.82 73.87 86.41 75.03 86.41 69.43 99.92"/><rect class="cls-5" x="68.37" y="98.35" width="0.63" height="3.06" transform="translate(-31.29 168.43) rotate(-89.92)"/><polygon class="cls-5" points="86.33 99.82 87.39 99.82 81.79 86.41 80.63 86.41 86.33 99.82"/><rect class="cls-5" x="86.68" y="98.27" width="0.63" height="3.06" transform="translate(-12.93 186.65) rotate(-89.92)"/><polygon class="cls-5" points="95.84 99.92 96.89 99.92 91.4 86.51 90.24 86.51 95.84 99.92"/><rect class="cls-5" x="96.14" y="98.31" width="0.63" height="3.06" transform="translate(-3.53 196.16) rotate(-89.92)"/><rect class="cls-5" x="77" y="95.03" width="1.8" height="8.24" transform="matrix(0, -1, 1, 0, -21.36, 176.9)"/><rect class="cls-5" x="38.78" y="34.31" width="3.59" height="8.24" transform="translate(2.08 78.95) rotate(-89.92)"/><polygon class="cls-4" points="53.17 99.24 49.68 86.88 52.11 86.88 52.11 85.09 29.19 84.98 29.19 86.88 31.09 86.88 27.61 99.35 26.24 99.35 26.24 99.98 29.4 99.98 29.4 99.35 28.66 99.35 32.26 86.88 37.64 86.88 34.05 99.24 32.68 99.14 32.68 99.88 35.95 99.88 35.95 99.24 35.21 99.24 38.8 86.88 42.29 86.88 45.88 99.24 44.93 99.24 44.93 99.98 48.31 99.98 48.31 99.24 46.94 99.24 43.45 86.88 48.52 86.88 52.01 99.24 51.27 99.24 51.27 99.98 54.54 99.98 54.54 99.24 53.17 99.24"/><rect class="cls-4" x="39.66" y="64.28" width="1.69" height="20.91" transform="matrix(0, -1, 1, 0, -34.29, 115.13)"/><rect class="cls-4" x="39.73" y="52.52" width="1.69" height="20.91" transform="translate(-22.46 103.46) rotate(-89.92)"/><rect class="cls-4" x="39.72" y="41.58" width="1.69" height="20.91" transform="matrix(0, -1, 1, 0, -11.53, 92.52)"/></g></g><g id="add-circle"><path class="cls-4" d="M77,11.43a12.4,12.4,0,1,0,12.4,12.4A12.44,12.44,0,0,0,77,11.43Z"/></g><g id="add-circle-2" data-name="add-circle"><path class="cls-8" d="M77.41,10.43A13.69,13.69,0,1,0,91.1,24.12,13.73,13.73,0,0,0,77.41,10.43Zm6.84,15.06H78.78V31H76V25.49H70.57V22.75H76V17.28h2.74v5.48h5.48Z"/></g><path class="cls-9" d="M60.06,119.37a59.81,59.81,0,0,0,43.48-18.68h-87A59.81,59.81,0,0,0,60.06,119.37Z"/></g></g></svg>