<svg xmlns="http://www.w3.org/2000/svg" viewBox="0 0 120 120"><defs><style>.cls-1{fill:#132930;}.cls-2{fill:#f0f0f0;}.cls-3{fill:#d6d6cc;}.cls-4{fill:#ffe;}.cls-5{fill:#60acbe;}.cls-6{fill:#fff;}.cls-7{fill:#488ca7;}</style></defs><title>Asset 12</title><g id="Layer_2" data-name="Layer 2"><g id="addMine_icon"><circle class="cls-1" cx="60" cy="60" r="60"/><g id="mine"><g id="mineGroup"><g id="arm_front"><g id="hand"><path class="cls-2" d="M34,11a9.08,9.08,0,0,0,1.17,4.14,1.92,1.92,0,0,0,1,.9,5.17,5.17,0,0,1,.63.36c.27.09.45.27.72.27a2.87,2.87,0,0,0,2.43,0,16.2,16.2,0,0,0,3.6-2.7,5.49,5.49,0,0,1,0,2.7,5.42,5.42,0,0,1-1.26,2.61,5.6,5.6,0,0,1-2.88,1.89A5.5,5.5,0,0,1,36,20.93a7.18,7.18,0,0,1-1.44-.72,3.92,3.92,0,0,1-.63-.54c-.18-.18-.45-.36-.63-.54a5.12,5.12,0,0,1-1.44-3.06A5.39,5.39,0,0,1,34,11Z"/></g><polygon id="arm2" class="cls-3" points="28.49 51.36 34.8 22.1 36.33 22.55 30.02 51.81 28.49 51.36"/><polygon id="arm1" class="cls-3" points="28.58 51.54 58.57 32.81 59.47 33.9 29.48 52.62 28.58 51.54"/><path id="circe2" class="cls-4" d="M37.5,22.73a1.8,1.8,0,0,1-2.52.18,1.71,1.71,0,0,1-.54-2.43,1.92,1.92,0,0,1,3.06,2.25Zm-1.26-1.44a.47.47,0,0,0-.72.09.5.5,0,0,0,.18.72.47.47,0,0,0,.72-.09A.56.56,0,0,0,36.24,21.29Z"/><path id="circle1" class="cls-4" d="M30.47,52.35A1.75,1.75,0,0,1,28.58,54a1.64,1.64,0,1,1,0-3.24A1.64,1.64,0,0,1,30.47,52.35Zm-1.89-.45a.5.5,0,0,0-.54.45c0,.27.18.45.54.45s.54-.18.54-.45S28.94,51.9,28.58,51.9Z"/></g><polygon id="arm_back" class="cls-3" points="69.1 18.68 62.62 31.37 61.27 30.83 67.66 18.14 69.1 18.68"/><g id="fire1"><path id="fire_orange" class="cls-5" d="M51.54,97.46a4.3,4.3,0,0,1,4,2.88c1.35,3.15-4.23,8.64-4.23,8.64s-5.22-5.4-4-8.82A4.58,4.58,0,0,1,51.54,97.46Z"/><path id="fire_yellow" class="cls-4" d="M51.54,97.46a1.8,1.8,0,0,1,1.71,1.26c.63,1.44-1.89,3.87-1.89,3.87s-2.34-2.34-1.71-3.87A2,2,0,0,1,51.54,97.46Z"/></g><g id="fire2"><path id="fire_orange-2" data-name="fire_orange" class="cls-5" d="M72.34,98a4.3,4.3,0,0,1,4,2.88c1.35,3.15-4.23,8.64-4.23,8.64s-5.22-5.4-4-8.82A4.39,4.39,0,0,1,72.34,98Z"/><path id="fire_yellow-2" data-name="fire_yellow" class="cls-4" d="M72.34,98a1.8,1.8,0,0,1,1.71,1.26c.63,1.44-1.89,3.87-1.89,3.87s-2.34-2.34-1.71-3.87A1.83,1.83,0,0,1,72.34,98Z"/></g><g id="mine_base"><rect class="cls-4" x="68.92" y="88.19" width="6.48" height="5.76"/><rect class="cls-3" x="68.92" y="88.19" width="3.33" height="5.76"/><rect class="cls-4" x="67.3" y="93.86" width="9.9" height="1.89"/><rect class="cls-3" x="67.48" y="93.86" width="4.68" height="1.89"/><path class="cls-3" d="M77.56,96.11H66.94V93.59H77.56Zm-9.9-.63h9.27V94.22H67.66Z"/><rect class="cls-4" x="48.21" y="88.19" width="6.48" height="5.76"/><rect class="cls-3" x="48.21" y="88.19" width="3.33" height="5.76"/><rect class="cls-4" x="46.5" y="93.86" width="9.9" height="1.89"/><rect class="cls-3" x="46.77" y="93.86" width="4.68" height="1.89"/><path class="cls-3" d="M56.86,96.11H46.23V93.59H56.86Zm-10-.63h9.27V94.22H46.86Z"/><rect class="cls-3" x="53.25" y="41.55" width="7.92" height="3.6"/><rect class="cls-4" x="61.18" y="41.55" width="7.92" height="3.69"/><path class="cls-4" d="M70.45,78l-3.6-32.86H55.42L51.81,78H50v5.49h2V78.91H70.72v4.59h2V78Zm-2.34-6.93Zm0-.27-6-2.88v-.36L67.48,65Zm-6-12.33h4.23l-4.23,2Zm0,5.85V62l4.77,2.34Zm4.86.45L62.08,67V64.78Zm-4.86,3.69,5.49,2.61H62.08Zm0,3.06h5.58L62.08,74Zm0-10v-.45l4.77-2.34.54,5.4Zm4.05-9.18Zm-4.05-6h3l-3,1.8Zm0,2.43,3.42-2.16.54,5-4-2.34v-.45Zm0,1,3.51,2.16H62.08Zm0,2.61h3.6l-3.6,1.89Zm0,2.43,4.05-2.16.54,5.13-4.59-2.61v-.36Zm4.23,3.33H62.08V55.77Zm-10.89.36Zm5-.36H56l4.5-2.43Zm0-5.76v2l-3.42-2Zm-3.51-.45,3.51-2.16V51.9Zm3.51-5.58v2l-3.24-2Zm-3.69.27,3.69,2.25v.36l-4.23,2.7Zm-.63,5.76,4.32,2.43v.27l-4.86,2.7ZM53.34,78Zm7.11,0H54l6.48-2.88Zm0-3.33-7.11,3.06.63-6,6.48,2.79v.18Zm0-.63-5.76-2.52h5.76Zm0-3H54.6l5.85-2.7Zm0-3.24-6.3,3L54.78,65l5.67,2.7Zm0-.63-5-2.34h5Zm0-2.88H55.23l5.22-2.52Zm0-3-5.58,2.7.54-5.22,5,2.52ZM56,58.48h4.5v2.16ZM62.08,78v-2.7L68.29,78Zm0-3.24V74.5l6.12-2.7.63,5.94ZM68.92,78Z"/><path class="cls-3" d="M64,34.35H58.21v7.2H64ZM63,35l-1.89,2.43L59.2,35Zm-4.05.72L60.64,38l-1.71,2.34ZM59.2,41l1.89-2.43L63,41Zm4.05-.72-1.71-2.34,1.71-2.34Z"/><path class="cls-3" d="M61.27,45.15H55.42L51.81,78H50v5.49h2V78.91h9.27V45.15ZM55.42,58.48ZM53.34,78Zm7.11,0H54l6.48-2.88Zm0-3.33-7.11,3.06.63-6,6.48,2.79v.18Zm0-.63-5.76-2.52h5.76Zm0-3H54.6l5.85-2.7Zm0-3.24-6.3,3L54.78,65l5.67,2.7Zm0-.63-5-2.34h5Zm0-2.88H55.23l5.22-2.52Zm0-3-5.58,2.7.54-5.22,5,2.52Zm0-.54L56,58.66h4.5Zm0-2.7H56l4.5-2.43Zm0-3-4.86,2.7.54-5.4,4.32,2.43Zm0-.9-3.42-2h3.42Zm0-2.34H56.95l3.51-2.16Zm0-2.79-4.23,2.7.54-5.22,3.69,2.25v.27Zm-3.24-2.79h3.24v2Z"/><path class="cls-4" d="M64.87,32.36a3.62,3.62,0,0,1-3.78,3.33,3.56,3.56,0,0,1-3.78-3.33A3.56,3.56,0,0,1,61.09,29,3.62,3.62,0,0,1,64.87,32.36Zm-3.78-.9a1.08,1.08,0,0,0-1.08.9,1,1,0,0,0,1.08.9,1.08,1.08,0,0,0,1.08-.9A1,1,0,0,0,61.09,31.46Z"/><g id="minetalp"><path class="cls-4" d="M84.86,86h-47a1.53,1.53,0,0,1-1.62-1.44V83.51H86.48v1A1.6,1.6,0,0,1,84.86,86Z"/><rect class="cls-3" x="36.6" y="83.51" width="24.49" height="2.16"/><path class="cls-3" d="M84.86,86.3h-47a1.9,1.9,0,0,1-2-1.71V83.24H86.75v1.35A1.76,1.76,0,0,1,84.86,86.3ZM36.6,83.78v.72a1.14,1.14,0,0,0,1.26,1.08h47a1.14,1.14,0,0,0,1.26-1.08v-.72Z"/><path class="cls-4" d="M86.48,88.46H36.24v-1A1.53,1.53,0,0,1,37.86,86H84.77a1.53,1.53,0,0,1,1.62,1.44l.09,1Z"/><rect class="cls-3" x="36.6" y="86.3" width="24.49" height="2.16"/><path class="cls-3" d="M86.84,88.73H36V87.38a1.84,1.84,0,0,1,2-1.71H84.86a1.9,1.9,0,0,1,2,1.71v1.35ZM36.6,88.1H86.12v-.72a1.14,1.14,0,0,0-1.26-1.08H37.95a1.14,1.14,0,0,0-1.26,1.08l-.09.72Z"/></g></g></g></g><g id="add-circle"><path class="cls-6" d="M94.45,47.63A12.4,12.4,0,1,0,106.85,60,12.44,12.44,0,0,0,94.45,47.63Z"/></g><g id="add-circle-2" data-name="add-circle"><path class="cls-7" d="M94.9,46.63a13.69,13.69,0,1,0,13.69,13.69A13.73,13.73,0,0,0,94.9,46.63Zm6.84,15.06H96.27v5.48H93.53V61.69H88.05V59h5.48V53.48h2.74V59h5.48Z"/></g></g></g></svg>