<svg xmlns="http://www.w3.org/2000/svg" viewBox="0 0 120 120.83"><defs><style>.cls-1{fill:#132930;}.cls-2{fill:#e5e5e5;}.cls-3{fill:#244654;}.cls-4{fill:#60acbe;}.cls-5{fill:#ff5514;}.cls-6{fill:#ff7743;}.cls-7{fill:#fff5f5;}.cls-8{fill:#fff;}.cls-9{fill:#ffddd0;}.cls-10{fill:#401505;}.cls-11{fill:#dd6231;}.cls-12{fill:#fc6e23;}.cls-13{fill:#944121;}.cls-14{fill:#c5572c;}.cls-15{fill:none;stroke:#944121;stroke-linecap:round;stroke-linejoin:round;stroke-width:0;}</style></defs><title>Asset 6</title><g id="Layer_2" data-name="Layer 2"><g id="addTroop"><circle class="cls-1" cx="60" cy="60" r="60"/><path class="cls-2" d="M80.3,92.66v24.53a59.62,59.62,0,0,0,6.9-3.05v-26A32,32,0,0,1,80.3,92.66Z"/><path class="cls-2" d="M66.5,95.77H55.1a32.16,32.16,0,0,1-7.9-1v24.74a60,60,0,0,0,8.32,1.15,5.77,5.77,0,0,1-.62-2.6s0,0,0-.06,0,0,0,0a5.8,5.8,0,0,1,5.8-5.8,5.67,5.67,0,0,1,4.29,2,5.77,5.77,0,0,1,1,6.32,59.71,59.71,0,0,0,9.64-1.83V94.46A32.08,32.08,0,0,1,66.5,95.77Z"/><path class="cls-2" d="M35.6,89.16V115.8a59.54,59.54,0,0,0,6.9,2.53V93.2A31.91,31.91,0,0,1,35.6,89.16Z"/><path class="cls-3" d="M75.6,94.46v24.22c1.59-.44,3.16-.92,4.7-1.49V92.66A31.78,31.78,0,0,1,75.6,94.46Z"/><path class="cls-3" d="M42.5,93.2v25.12c1.54.46,3.11.86,4.7,1.2V94.79A31.76,31.76,0,0,1,42.5,93.2Z"/><path class="cls-4" d="M30,53.37v9.3a26.1,26.1,0,0,0,8.31,19.12v0c5.45.93,7.4-1.21,10.21-3.51L45.1,75.47l3.1.73L36,64.67l1.57-8.55a2.21,2.21,0,0,1-.87.35h-.3a2.44,2.44,0,0,1-2.6-2.2,20.93,20.93,0,0,1,12.6-21.1,2.44,2.44,0,0,1,1.9,4.5A16.37,16.37,0,0,0,43.36,41L57.1,48.27h8.4L82,39.57l4.6,25.1L74.52,76.27l3.08-.79-3,2.47c1.92,1.61,4,3.1,9.38,3.23A26.16,26.16,0,0,0,91.6,62.67v-9.3a26.27,26.27,0,0,0-26.1-26.2H56.2A26.23,26.23,0,0,0,30,53.37Zm22.4-21.8,2.3-.5A2.4,2.4,0,0,1,57.6,33a2.56,2.56,0,0,1-1.9,2.9l-2.3.5a2.45,2.45,0,0,1-1-4.8Z"/><path class="cls-3" d="M61.5,88.77l-.06-.06h0l.17.25L48.51,78.27c-2.81,2.3-4.76,4.44-10.21,3.51v0c.08.16,1.83,3.66,11.79,6.68,9.8,3,19,.4,21.3-.1a27.14,27.14,0,0,0,12.8-7.2H84c-5.35-.12-7.46-1.61-9.38-3.23Z"/><polygon class="cls-5" points="72.65 67.87 65.5 48.27 57.1 48.27 49.98 67.78 72.65 67.87"/><polygon class="cls-6" points="73.24 67.87 77.73 66.8 78 66.57 77.92 66.75 86.6 64.67 65.5 48.27 72.65 67.87 73.24 67.87"/><polygon class="cls-6" points="44.4 66.67 48.98 67.78 49.98 67.78 57.1 48.27 36 64.67 44.42 66.69 44.4 66.67"/><polygon class="cls-6" points="72.8 67.97 73.24 67.87 72.65 67.87 49.98 67.78 48.98 67.78 49.8 67.97 57.9 82.37 64.98 82.37 72.8 67.97"/><polygon class="cls-6" points="61.45 88.69 61.5 88.77 61.88 88.08 61.45 88.69"/><polygon class="cls-5" points="54 77.57 57.2 82.37 57.9 82.37 49.8 67.97 52.4 72.87 45.82 67.78 52.7 73.17 47.3 71.87 44.81 66.99 44.42 66.69 36 64.67 48.2 76.21 54 77.57"/><polygon class="cls-5" points="61.44 88.72 61.5 88.77 61.45 88.69 61.44 88.72"/><polygon class="cls-5" points="61.88 88.08 61.5 88.77 63.49 85.74 61.88 88.08"/><polygon class="cls-5" points="77.91 66.77 78.3 66.67 77.75 67.1 75.6 71.57 70.1 72.97 70.35 72.77 72.8 67.97 64.98 82.37 65.69 82.37 68.7 77.77 74.52 76.27 86.6 64.67 77.92 66.75 77.91 66.77"/><polygon class="cls-5" points="77.7 66.82 77.73 66.8 73.24 67.87 72.8 67.97 77.7 66.82"/><polygon class="cls-7" points="61.6 88.97 61.43 88.72 61.4 88.77 57.1 82.37 57.2 82.37 54 77.57 48.2 76.21 45.1 75.47 48.51 78.27 61.6 88.97"/><polygon class="cls-8" points="68.7 77.77 65.69 82.37 65.8 82.37 63.49 85.74 61.5 88.77 74.61 77.94 77.6 75.47 74.52 76.27 68.7 77.77"/><path class="cls-5" d="M43.36,41l-.46.47,9.5,8-11.8,7.4V44.65a16,16,0,0,0-2,9.23,2.44,2.44,0,0,1-1,2.25L36,64.67l21.1-16.4Z"/><polygon class="cls-5" points="82 39.57 82 56.87 70.3 48.67 82 39.57 65.5 48.27 86.6 64.67 82 39.57"/><path class="cls-9" d="M40.6,56.87l11.8-7.4-9.5-8a16.21,16.21,0,0,0-2.3,3.15Z"/><polygon class="cls-9" points="70.3 48.67 82 56.87 82 39.57 70.3 48.67"/><polygon class="cls-10" points="61.45 88.69 61.88 88.08 63.49 85.74 65.8 82.37 65.69 82.37 64.98 82.37 57.9 82.37 57.2 82.37 57.1 82.37 61.4 88.77 61.43 88.72 61.44 88.72 61.45 88.69"/><polygon class="cls-10" points="44.4 66.67 44.42 66.69 44.81 66.99 44.8 66.97 45.82 67.78 52.4 72.87 49.8 67.97 48.98 67.78 44.4 66.67"/><path class="cls-8" d="M35.6,82.77H35a8.69,8.69,0,0,0-4.61,1.36C27,86.23,24.7,90.54,24.7,95.57v14a59.9,59.9,0,0,0,10.9,6.22v-33Z"/><polygon class="cls-10" points="77.7 66.82 72.8 67.97 70.35 72.77 77.7 66.82"/><polygon class="cls-10" points="77.75 67.1 78.3 66.67 77.91 66.77 77.75 67.1"/><polygon class="cls-10" points="44.81 66.99 47.3 71.87 52.7 73.17 45.82 67.78 44.8 66.97 44.81 66.99"/><polygon class="cls-10" points="70.35 72.77 70.1 72.97 75.6 71.57 77.75 67.1 77.91 66.77 77.92 66.75 78 66.57 77.73 66.8 77.7 66.82 70.35 72.77"/><path class="cls-8" d="M91.57,83.67a8.57,8.57,0,0,0-3.77-.89h-.6v31.36a60.08,60.08,0,0,0,10.9-7.24V95.57C98.1,90.14,95.4,85.53,91.57,83.67Z"/><path class="cls-11" d="M65,114.18a5.89,5.89,0,0,1,1.21,2.19,6.94,6.94,0,0,1-2.48,4.31l1.56-.12a.87.87,0,0,1,.1-.39c.12-.25.3-.41.4-.37s.08.29,0,.54a1.12,1.12,0,0,1-.11.19l.34,0a5.77,5.77,0,0,0-1-6.32Z"/><path class="cls-11" d="M54.9,118.07a5.77,5.77,0,0,0,.62,2.6h.07A5.9,5.9,0,0,1,54.9,118S54.9,118.05,54.9,118.07Z"/><path class="cls-12" d="M66.2,116.37A5.89,5.89,0,0,0,65,114.18a5.67,5.67,0,0,0-4.29-2,5.8,5.8,0,0,0-5.8,5.8s0,0,0,0a5.9,5.9,0,0,0,.69,2.67l.24,0c-.07-.17-.11-.25,0-.32s.1,0,.18,0l.09,0,.06,0a1.67,1.67,0,0,1,.39.31c.77,0,1.55.05,2.33.06A1.32,1.32,0,0,1,58,120a1.24,1.24,0,0,1,0-1.25.67.67,0,0,1,.29-.3c.4-.2.9.2,1.2.8,0,.2.1.3.1.5,0-.1-.1-.1-.1-.2h0c.16.53.06,1-.3,1.21a.56.56,0,0,1-.25,0l.72,0c1.37,0,2.72-.06,4.06-.15A6.94,6.94,0,0,0,66.2,116.37Zm-3.27-2.78,0,0a.39.39,0,0,1,0,.05s0,0,0,0a.36.36,0,0,1-.05.07h0a1.43,1.43,0,0,1-1.18.08c-.61-.17-1-.55-1-.86a.62.62,0,0,0-.13.08V113c.1-.4.7-.5,1.4-.3s1.11.53,1,.9C62.93,113.58,62.94,113.59,62.93,113.6Zm-.52,1.9c0,.1-.21.12-.36,0s-.23-.22-.18-.31.21-.12.36,0S62.46,115.39,62.41,115.49Zm-6.81.58h-.1a.48.48,0,0,1,.1-.6c.17-.17.34-.34.45-.31a.13.13,0,0,1,.11,0l0,0h0a.59.59,0,0,1-.1.49c-.14.24-.33.39-.42.33h0Zm1.06,4s-.07,0-.1,0l0,.06a.38.38,0,0,1-.22-.13,1.82,1.82,0,0,1-.56-.91c-.2-.63-.14-1.21.12-1.29s.64.36.83,1S56.92,119.95,56.66,120Zm.06-2.92c-.31-.12-.34-.76-.08-1.43s.61-1,.9-1a.35.35,0,0,1,.25,0,.52.52,0,0,1,.2.4.14.14,0,0,1-.11-.05,1.9,1.9,0,0,1-.14,1.1C57.49,116.79,57,117.23,56.72,117.11Zm1.32.42c-.05.16-.18.26-.28.22s-.15-.19-.1-.35.18-.26.28-.22S58.09,117.38,58,117.53Zm-.5-3.7,0,0h-.1a.27.27,0,0,1,0-.1c-.09-.14.17-.47.58-.75s.82-.39.92-.25-.17.47-.58.75A1.37,1.37,0,0,1,57.53,113.83Zm1.76,1.71c-.14.3-.42.46-.62.37a.28.28,0,0,1-.07-.07s0,0,0,0a.24.24,0,0,1,0-.08h0v0a.67.67,0,0,1,0-.56c.14-.3.42-.46.62-.37a.39.39,0,0,1,.18.39s0,0,0,.06,0,0,0,0A.8.8,0,0,1,59.3,115.54Zm1.6,3a1.2,1.2,0,0,1-1.1-.72v.22a1.07,1.07,0,0,1-.2-.6,1.21,1.21,0,0,1,.4-.87,1.18,1.18,0,0,1,.9-.43,1.2,1.2,0,1,1,0,2.4Zm2.1,1-.06,0a.51.51,0,1,1-.63-.1h0l.08-.06c.2-.1.5-.1.6.1Zm.46-5s0,0,0-.07a.36.36,0,0,1,.09-.14h0a.22.22,0,0,1,.16,0,1.69,1.69,0,0,1,1,.93c.39.67.47,1.35.18,1.51a.47.47,0,0,1-.44-.08l0,.06-.11-.09a1.76,1.76,0,0,1-.25-.21l-.1-.1a2.94,2.94,0,0,1-.36-.49,2.7,2.7,0,0,1-.3-.76A1,1,0,0,1,63.46,114.58Zm.36,3.74,0,.05v-.3c.1-.5.5-.9.9-.8a.65.65,0,0,1,.28.16l0,0a.68.68,0,0,1,.13.2s0,.06,0,.09a.89.89,0,0,1,0,.18,1.3,1.3,0,0,1,0,.48c-.13.54-.53.9-.91.81S63.78,118.77,63.82,118.32Z"/><path class="cls-13" d="M65.78,119.81c-.1,0-.28.12-.4.37a.87.87,0,0,0-.1.39l.34,0a1.12,1.12,0,0,0,.11-.19C65.86,120.1,65.88,119.86,65.78,119.81Z"/><ellipse class="cls-14" cx="62.14" cy="115.36" rx="0.2" ry="0.3" transform="translate(-68.85 118.76) rotate(-63.18)"/><ellipse class="cls-14" cx="57.85" cy="117.47" rx="0.3" ry="0.2" transform="translate(-71.86 135.39) rotate(-71.65)"/><path class="cls-14" d="M65,117.43l0,0Z"/><path class="cls-14" d="M65.2,118.43a1.3,1.3,0,0,0,0-.48,1.19,1.19,0,0,1,0,.32.75.75,0,0,0-.5-.7c-.38-.1-.76.27-.88.75s.15.85.47.93S65.08,119,65.2,118.43Z"/><path class="cls-14" d="M65.15,117.68a.85.85,0,0,1,0,.09S65.17,117.71,65.15,117.68Z"/><path class="cls-15" d="M63.8,118.37v.08"/><path class="cls-13" d="M64.7,117.57a.75.75,0,0,1,.5.7,1.19,1.19,0,0,0,0-.32.89.89,0,0,0,0-.18.85.85,0,0,0,0-.09.68.68,0,0,0-.13-.2l0,0a.65.65,0,0,0-.28-.16c-.4-.1-.8.3-.9.8v.3l0-.05C63.94,117.85,64.32,117.48,64.7,117.57Z"/><path class="cls-14" d="M59.5,119.57c-.2-.6-.8-1-1.2-.8s-.4.5-.3.9a1.06,1.06,0,0,1,0-.9A1.24,1.24,0,0,0,58,120a1.32,1.32,0,0,0,.87.79H59a.56.56,0,0,0,.25,0C59.56,120.62,59.66,120.11,59.5,119.57Z"/><path class="cls-13" d="M58,119.67c-.1-.4,0-.8.3-.9s1,.2,1.2.8h0c0,.1.1.1.1.2,0-.2-.1-.3-.1-.5-.3-.6-.8-1-1.2-.8a.67.67,0,0,0-.29.3A1.06,1.06,0,0,0,58,119.67Z"/><path class="cls-14" d="M57.89,115a.12.12,0,0,0-.09,0c-.36-.18-.72.14-1,.72a4.29,4.29,0,0,0-.2,1,1.18,1.18,0,0,1,.1-.8c0-.07.06-.12.1-.18v0a1.85,1.85,0,0,1,.75-1c-.3,0-.67.4-.9,1s-.23,1.31.08,1.43.77-.32,1-1A1.9,1.9,0,0,0,57.89,115Z"/><path class="cls-13" d="M56.6,116.67a4.29,4.29,0,0,1,.2-1c0,.06-.07.11-.1.18A1.18,1.18,0,0,0,56.6,116.67Z"/><path class="cls-13" d="M56.8,115.67v0c.29-.57.64-.9,1-.72a.12.12,0,0,1,.09,0,.14.14,0,0,0,.11.05.52.52,0,0,0-.2-.4.35.35,0,0,0-.25,0A1.85,1.85,0,0,0,56.8,115.67Z"/><path class="cls-14" d="M62.93,113.6s0,0,0,0v0Z"/><path class="cls-14" d="M62.8,113.77a.36.36,0,0,0,.05-.07A.13.13,0,0,0,62.8,113.77Z"/><path class="cls-14" d="M61.8,113a1.49,1.49,0,0,0-1.17,0c0,.31.38.69,1,.86a1.43,1.43,0,0,0,1.18-.08C62.8,113.47,62.4,113.17,61.8,113Z"/><path class="cls-13" d="M61.9,112.67c-.7-.2-1.3-.1-1.4.3v.1a.62.62,0,0,1,.13-.08,1.49,1.49,0,0,1,1.17,0c.6.2,1,.5,1,.8h0a.13.13,0,0,1,.05-.07s0,0,0,0a.39.39,0,0,0,0-.05v0C63,113.21,62.54,112.86,61.9,112.67Z"/><path class="cls-14" d="M55.94,117.74c-.26.08-.32.66-.12,1.29a1.82,1.82,0,0,0,.56.91,2.25,2.25,0,0,1-.48-.87c-.2-.6-.2-1.1.1-1.2a.37.37,0,0,1,.3.1h-.1c-.2,0-.3.6-.1,1.2a1.91,1.91,0,0,0,.45.84s.07,0,.1,0c.26-.08.32-.66.12-1.29S56.21,117.65,55.94,117.74Z"/><path class="cls-13" d="M56.2,118h.1a.37.37,0,0,0-.3-.1c-.3.1-.3.6-.1,1.2a2.25,2.25,0,0,0,.48.87.38.38,0,0,0,.22.13l0-.06a1.91,1.91,0,0,1-.45-.84C55.9,118.57,56,118,56.2,118Z"/><path class="cls-14" d="M62.4,119.57a.45.45,0,0,0-.23.23.15.15,0,0,0,0,.07s0,0,0-.07a.42.42,0,0,1,.15-.37h0a.41.41,0,1,0,.63.1A.69.69,0,0,0,62.4,119.57Z"/><path class="cls-13" d="M62.4,119.37l-.08.06a.42.42,0,0,0-.15.37.45.45,0,0,1,.23-.23.69.69,0,0,1,.54,0l.06,0v-.1C62.9,119.27,62.6,119.27,62.4,119.37Z"/><path class="cls-13" d="M62.2,119.87a.15.15,0,0,1,0-.07S62.16,119.87,62.2,119.87Z"/><path class="cls-14" d="M63.9,114.57c-.3.1-.2.8.2,1.5.18.27.35.46.46.64a.47.47,0,0,0,.44.08c.29-.17.21-.84-.18-1.51a1.69,1.69,0,0,0-1-.93,1.1,1.1,0,0,1,.52.32C64.2,114.57,64,114.47,63.9,114.57Z"/><path class="cls-14" d="M64.15,116.37a2.28,2.28,0,0,1-.34-.5,3,3,0,0,1-.31-.75,2.7,2.7,0,0,0,.3.76A2.94,2.94,0,0,0,64.15,116.37Z"/><path class="cls-14" d="M64.49,116.68a2.38,2.38,0,0,1-.25-.21A1.76,1.76,0,0,0,64.49,116.68Z"/><path class="cls-14" d="M63.46,114.58s0,0,0-.07S63.47,114.55,63.46,114.58Z"/><path class="cls-14" d="M63.61,114.37h0Z"/><path class="cls-13" d="M64.15,116.37l.1.1a2.38,2.38,0,0,0,.25.21l.11.09,0-.06c-.11-.18-.28-.37-.46-.64-.4-.7-.5-1.4-.2-1.5.1-.1.3,0,.4.1a1.1,1.1,0,0,0-.52-.32.22.22,0,0,0-.16,0h0a.36.36,0,0,0-.09.14s0,0,0,.07a1,1,0,0,0,0,.54,3,3,0,0,0,.31.75A2.28,2.28,0,0,0,64.15,116.37Z"/><path class="cls-14" d="M56.09,115.69a.59.59,0,0,0,.1-.49.15.15,0,0,1,0,.08q-.15,0-.3.3a1.59,1.59,0,0,1-.24.44h0C55.76,116.08,55.95,115.93,56.09,115.69Z"/><path class="cls-14" d="M56.18,115.19l0,0a.13.13,0,0,0-.11,0h.13Z"/><path class="cls-13" d="M56.2,115.27a.15.15,0,0,0,0-.08h-.14c-.11,0-.28.14-.45.31a.48.48,0,0,0-.1.6h.1l.06-.06a1.59,1.59,0,0,0,.24-.44Q56.05,115.27,56.2,115.27Z"/><path class="cls-14" d="M58.93,112.78c-.09-.14-.5,0-.92.25s-.67.61-.58.75a2,2,0,0,1,.57-.6c.4-.3.8-.4.9-.3v.1a1.6,1.6,0,0,0-.8.3,4.57,4.57,0,0,0-.57.55,1.37,1.37,0,0,0,.81-.3C58.76,113.25,59,112.92,58.93,112.78Z"/><path class="cls-13" d="M58.1,113.27a1.6,1.6,0,0,1,.8-.3v-.1c-.1-.1-.5,0-.9.3a2,2,0,0,0-.57.6.27.27,0,0,0,0,.1h.1l0,0A4.57,4.57,0,0,1,58.1,113.27Z"/><path class="cls-14" d="M60.9,116.17a1.18,1.18,0,0,0-.9.43,1.16,1.16,0,0,1,.8-.33,1.2,1.2,0,0,1,1.2.9,1.1,1.1,0,0,0-1-.6,1.22,1.22,0,0,0-1.2,1.2v.08a1.2,1.2,0,1,0,1.1-1.68Z"/><path class="cls-13" d="M61,116.57a1.1,1.1,0,0,1,1,.6,1.2,1.2,0,0,0-1.2-.9,1.16,1.16,0,0,0-.8.33,1.21,1.21,0,0,0-.4.87,1.07,1.07,0,0,0,.2.6v-.3A1.22,1.22,0,0,1,61,116.57Z"/><path class="cls-14" d="M58.6,115.27a.45.45,0,0,1,.6-.3.72.72,0,0,1,.17.24.39.39,0,0,0-.18-.39c-.2-.1-.48.07-.62.37a.67.67,0,0,0,0,.56A.76.76,0,0,1,58.6,115.27Z"/><path class="cls-14" d="M59.3,115.17a.45.45,0,0,0-.6.3.53.53,0,0,0-.1.36.28.28,0,0,0,.07.07c.2.1.48-.07.62-.37a.8.8,0,0,0,.08-.31A.16.16,0,0,0,59.3,115.17Z"/><path class="cls-14" d="M58.56,115.8h0Z"/><path class="cls-13" d="M59.37,115.21a.72.72,0,0,0-.17-.24.45.45,0,0,0-.6.3.76.76,0,0,0-.06.47v0h0a.24.24,0,0,0,0,.08s0,0,0,0a.53.53,0,0,1,.1-.36.45.45,0,0,1,.6-.3.16.16,0,0,1,.07.05s0,0,0,0S59.38,115.23,59.37,115.21Z"/><path class="cls-14" d="M56.13,120.44a1.65,1.65,0,0,1,.35.31h0A1.67,1.67,0,0,0,56.13,120.44Z"/><path class="cls-14" d="M56,120.38l.09,0Z"/><path class="cls-14" d="M55.9,120.57v.13l.46,0C56.16,120.58,56,120.51,55.9,120.57Z"/><path class="cls-13" d="M56.13,120.44l-.06,0-.09,0c-.08,0-.15,0-.18,0s0,.16,0,.32h.07v-.13c.06-.06.26,0,.46.16h.12A1.65,1.65,0,0,0,56.13,120.44Z"/><path class="cls-8" d="M53.4,36.37l2.3-.5A2.56,2.56,0,0,0,57.6,33a2.4,2.4,0,0,0-2.9-1.9l-2.3.5a2.45,2.45,0,0,0,1,4.8Z"/><path class="cls-8" d="M38.6,53.87a16,16,0,0,1,2-9.23,16.21,16.21,0,0,1,2.3-3.15l.46-.47a16.37,16.37,0,0,1,4.94-3.35,2.44,2.44,0,0,0-1.9-4.5,20.93,20.93,0,0,0-12.6,21.1,2.44,2.44,0,0,0,2.6,2.2h.3a2.21,2.21,0,0,0,.87-.35A2.44,2.44,0,0,0,38.6,53.87Z"/><path class="cls-8" d="M23.1,63.77a31.88,31.88,0,0,0,7.29,20.36A8.69,8.69,0,0,1,35,82.77h.6v6.38a31.89,31.89,0,0,0,19.5,6.62H66.5a31.84,31.84,0,0,0,20.7-7.59V82.77h.6a8.57,8.57,0,0,1,3.77.89A31.87,31.87,0,0,0,98.5,63.77V52.37a32,32,0,0,0-32-32H55.1a32,32,0,0,0-32,32Zm33.1-36.6h9.3a26.27,26.27,0,0,1,26.1,26.2v9.3A26.16,26.16,0,0,1,84,81.17h.21a27.14,27.14,0,0,1-12.8,7.2c-2.3.5-11.5,3.1-21.3.1-10-3-11.72-6.52-11.79-6.68A26.1,26.1,0,0,1,30,62.67v-9.3A26.23,26.23,0,0,1,56.2,27.17Z"/><circle class="cls-8" cx="91.13" cy="89.31" r="13"/><g id="add-circle"><path class="cls-12" d="M91.18,75.31A13.69,13.69,0,1,0,104.87,89,13.73,13.73,0,0,0,91.18,75.31ZM98,90.37H92.55v5.48H89.81V90.37H84.34V87.63h5.48V82.15h2.74v5.48H98Z"/></g></g></g></svg>