<?xml version="1.0" encoding="utf-8"?>
<!-- Generator: Adobe Illustrator 21.0.2, SVG Export Plug-In . SVG Version: 6.00 Build 0)  -->
<svg version="1.1" id="Capa_1" xmlns="http://www.w3.org/2000/svg" xmlns:xlink="http://www.w3.org/1999/xlink" x="0px" y="0px"
	 viewBox="0 0 579.1 579.1" style="enable-background:new 0 0 579.1 579.1;" xml:space="preserve">
<style type="text/css">
	.st0{fill:#60ACBE;}
</style>
<g>
	<path class="st0" d="M492.6,389.6c31.8-21.4,101-64.9,83.8-112c-19.6-52.6-90-94.2-134-124.2c-25.1-17.1-110.8-78.3-140.8-41
		c-1.8,1.8-2.4,4.9-1.8,7.3c-12.2,25.1-4.9,64.3-4.9,91.2c0,4.9,0,9.8,0,14.7c-90-0.6-187.9-30-275.4-4.3c-5.5,1.8-8,5.5-8.6,9.2
		c-0.6,0-1.2,0.6-1.8,0.6c-13.5,8-8,38.6-8,52c0,23.3-0.6,47.7,3.7,70.4c1.2,5.5,4.9,8.6,9.2,9.2c2.4,3.1,4.9,4.3,8.6,4.3
		c92.4-1.2,183-12.2,275.4-6.7c0,29.4-1.2,58.8-5.5,88.1c-0.6,3.7,0.6,6.7,1.8,9.2c-6.1,7.3,0.6,22.6,13.5,20.8
		C372.6,469.2,439.3,425.1,492.6,389.6z"/>
</g>
</svg>
