<svg xmlns="http://www.w3.org/2000/svg" viewBox="0 0 99.1 120.5"><defs><style>.cls-1{fill:#fd8b4f;}.cls-2{fill:#e5e5e5;}.cls-3{fill:#244654;}.cls-4{fill:#fff;}.cls-5{fill:#60acbe;}.cls-6{fill:#ff5514;}.cls-7{fill:#ff7743;}.cls-8{fill:#fff5f5;}.cls-9{fill:#ffddd0;}.cls-10{fill:#401505;}.cls-11{fill:#488ca7;}.cls-12{fill:#dd6231;}.cls-12,.cls-13{stroke:#fc6e23;stroke-miterlimit:10;}.cls-13{fill:#fc6e23;}.cls-14{fill:#944121;}.cls-15{fill:#c5572c;}.cls-16{opacity:0.54;}</style></defs><title>Asset 8</title><g id="Layer_2" data-name="Layer 2"><g id="astronautFox_icon"><path class="cls-1" d="M99,102a17.54,17.54,0,0,1-17.6,17.5H17.6A17.54,17.54,0,0,1,0,102V42.3A17.54,17.54,0,0,1,17.6,24.8H81.5A17.54,17.54,0,0,1,99.1,42.3V102Z"/><path class="cls-2" d="M80.5,119.4a8.52,8.52,0,0,0,.3-2.3V70.4c0-4.9-4.3-8.9-9.5-8.9H27.4a9.19,9.19,0,0,0-9.5,8.9v46.7a8.52,8.52,0,0,0,.3,2.3H80.5Z"/><rect class="cls-3" x="64.2" y="64.2" width="4.7" height="55.2"/><rect class="cls-3" x="31.1" y="64.2" width="4.7" height="55.2"/><path class="cls-4" d="M87.1,43.4a32,32,0,0,1-32,32H43.7a32,32,0,0,1-32-32V32a32,32,0,0,1,32-32H55.1a32,32,0,0,1,32,32Z"/><path class="cls-5" d="M80.2,42.3A26.14,26.14,0,0,1,54.1,68.5H44.8A26.23,26.23,0,0,1,18.6,42.3V33A26.23,26.23,0,0,1,44.8,6.8h9.3A26.27,26.27,0,0,1,80.2,33Z"/><path class="cls-3" d="M26.9,61.4c10.5,1.8,8-7.8,23.7-8,14.5-.2,9.8,7.2,22.2,7.4A27.14,27.14,0,0,1,60,68c-2.3.5-11.5,3.1-21.3.1C28.5,65,26.9,61.4,26.9,61.4Z"/><g id="Layer_1-2" data-name="Layer 1"><g id="fox"><polygon class="cls-6" points="45.7 27.9 54.1 27.9 61.4 47.9 38.4 47.9 45.7 27.9"/><polygon class="cls-7" points="54.1 27.9 75.2 44.3 61.4 47.9 54.1 27.9"/><polygon class="cls-7" points="45.7 27.9 24.6 44.3 38.4 47.9 45.7 27.9"/><polygon class="cls-7" points="37.1 47.4 50.1 68.4 62.9 47.5 37.1 47.4"/><polygon class="cls-6" points="24.6 44.3 50.1 68.4 38.4 47.6 24.6 44.3"/><polygon class="cls-6" points="50.1 68.4 75.2 44.3 61.4 47.6 50.1 68.4"/><polygon class="cls-8" points="33.7 55.1 42.6 57.2 50.2 68.6 33.7 55.1"/><polygon class="cls-4" points="66.2 55.1 57.3 57.4 50.1 68.4 66.2 55.1"/><polygon class="cls-6" points="24.6 44.3 29.2 19.2 45.7 27.9 24.6 44.3"/><polygon class="cls-6" points="54.1 27.9 70.6 19.2 75.2 44.3 54.1 27.9"/><polygon class="cls-9" points="29.2 19.2 41 29.1 29.2 36.5 29.2 19.2"/><polygon class="cls-9" points="70.6 19.2 70.6 36.5 58.9 28.3 70.6 19.2"/><polygon class="cls-10" points="45.7 62 54.4 62 50 68.4 45.7 62"/><polygon class="cls-10" points="33 46.3 38.4 47.6 41 52.5 33 46.3"/><polygon class="cls-10" points="66.9 46.3 61.4 47.6 58.9 52.5 66.9 46.3"/><polygon class="cls-10" points="41.3 52.8 35.9 51.5 33.4 46.6 41.3 52.8"/><polygon class="cls-10" points="58.7 52.6 64.2 51.2 66.6 46.2 58.7 52.6"/></g></g><path class="cls-4" d="M24.2,62.4h-.6c-5.7,0-10.3,5.7-10.3,12.8v37.3H24.2Z"/><ellipse class="cls-11" cx="18.8" cy="112.7" rx="7.7" ry="7.8"/><path class="cls-4" d="M75.8,62.4h.6c5.7,0,10.3,5.7,10.3,12.8v37.3H75.8Z"/><ellipse class="cls-11" cx="81.1" cy="112.7" rx="7.7" ry="7.8"/><circle class="cls-12" cx="49.3" cy="97.7" r="5.8"/><path class="cls-13" d="M54.8,96a5.76,5.76,0,0,0-11.3,1.6,5.91,5.91,0,0,0,1.2,3.5,6.9,6.9,0,0,0,3.2.8A7,7,0,0,0,54.8,96Z"/><ellipse class="cls-14" cx="54.16" cy="99.89" rx="0.5" ry="0.2" transform="translate(-59.32 105.76) rotate(-64.49)"/><ellipse class="cls-15" cx="50.74" cy="94.98" rx="0.2" ry="0.3" transform="translate(-56.92 97.4) rotate(-63.17)"/><ellipse class="cls-15" cx="46.45" cy="97.1" rx="0.3" ry="0.2" transform="matrix(0.31, -0.95, 0.95, 0.31, -60.33, 110.61)"/><ellipse class="cls-15" cx="52.02" cy="101.32" rx="1.1" ry="0.6" transform="translate(-45.9 43.15) rotate(-32.11)"/><path class="cls-14" d="M51.9,101c.5-.3,1-.4,1.2-.2v-.1c-.2-.3-.7-.2-1.3.1s-.8.8-.7,1.1a.1.1,0,0,0,.1.1C51.1,101.7,51.4,101.3,51.9,101Z"/><ellipse class="cls-15" cx="53.12" cy="97.9" rx="1" ry="0.7" transform="translate(-54.29 127.36) rotate(-76.86)"/><path class="cls-14" d="M52.4,98c.1-.5.5-.9.9-.8a.75.75,0,0,1,.5.7.78.78,0,0,0-.5-1c-.4-.1-.8.3-.9.8V98Z"/><ellipse class="cls-15" cx="47.31" cy="99.31" rx="0.8" ry="1.2" transform="translate(-36.81 28.42) rotate(-24.41)"/><path class="cls-14" d="M46.9,98.4c.4-.2,1,.2,1.2.8,0,.1.1.1.1.2,0-.2-.1-.3-.1-.5-.3-.6-.8-1-1.2-.8a.9.9,0,0,0-.3,1.2C46.5,98.9,46.6,98.5,46.9,98.4Z"/><ellipse class="cls-15" cx="47.44" cy="101.7" rx="0.5" ry="1.1" transform="translate(-64.18 113.24) rotate(-70.89)"/><path class="cls-14" d="M46.5,101.6c.1-.3.6-.3,1.2-.1a1.31,1.31,0,0,1,.8.6c.1-.3-.3-.6-.9-.8s-1.1-.2-1.2.1c0,.1,0,.2.1.2Z"/><ellipse class="cls-15" cx="45.8" cy="95.53" rx="1.3" ry="0.6" transform="translate(-59.89 102.74) rotate(-68.29)"/><path class="cls-14" d="M45.3,95.5c.3-.7.7-1.1,1.1-.9.1,0,.1.1.2.1a.52.52,0,0,0-.2-.4c-.3-.1-.7.3-1,1a4.4,4.4,0,0,0-.2,1A1.18,1.18,0,0,1,45.3,95.5Z"/><ellipse class="cls-15" cx="50.38" cy="92.9" rx="0.6" ry="1.2" transform="translate(-52.66 116.41) rotate(-74.38)"/><path class="cls-14" d="M50.5,92.3c-.7-.2-1.3-.1-1.4.3v.1a1.35,1.35,0,0,1,1.3-.1c.6.2,1,.5,1,.8a.1.1,0,0,1,.1-.1C51.7,92.9,51.2,92.5,50.5,92.3Z"/><ellipse class="cls-15" cx="44.9" cy="98.51" rx="0.5" ry="1.2" transform="translate(-27.24 17.79) rotate(-17.28)"/><path class="cls-14" d="M44.7,98.8c-.2-.6-.1-1.2.1-1.2h.1a.37.37,0,0,0-.3-.1c-.3.1-.3.6-.1,1.2s.5,1,.7,1A1.93,1.93,0,0,1,44.7,98.8Z"/><ellipse class="cls-15" cx="50.29" cy="102.89" rx="0.9" ry="0.3" transform="translate(-26.33 17.77) rotate(-15.94)"/><path class="cls-14" d="M50.3,102.8a2.49,2.49,0,0,1,.8-.1v-.1c0-.1-.4-.1-.9,0a1.05,1.05,0,0,0-.8.5.1.1,0,0,0,.1.1A1.91,1.91,0,0,1,50.3,102.8Z"/><ellipse class="cls-15" cx="51.11" cy="99.42" rx="0.5" ry="0.4" transform="translate(-42.86 38.87) rotate(-30)"/><path class="cls-14" d="M51,99.2a.63.63,0,0,1,.6,0v-.1c-.1-.2-.4-.2-.6-.1s-.3.4-.2.5h0C50.7,99.5,50.8,99.3,51,99.2Z"/><ellipse class="cls-15" cx="52.9" cy="95.21" rx="0.6" ry="1.4" transform="translate(-40.52 39.21) rotate(-30)"/><path class="cls-14" d="M52.7,95.7c-.4-.7-.5-1.4-.2-1.5.1-.1.3,0,.4.1-.3-.3-.6-.4-.7-.3-.3.2-.2.8.2,1.5a2.36,2.36,0,0,0,.8.9C53.1,96.2,52.9,96,52.7,95.7Z"/><ellipse class="cls-15" cx="44.51" cy="95.21" rx="0.5" ry="0.2" transform="translate(-60.2 86.15) rotate(-60)"/><path class="cls-14" d="M44.5,95.2q.15-.3.3-.3c0-.1,0-.1-.1-.1s-.3.1-.5.3a.48.48,0,0,0-.1.6h.1A1.33,1.33,0,0,0,44.5,95.2Z"/><ellipse class="cls-15" cx="46.78" cy="92.91" rx="0.9" ry="0.3" transform="translate(-43.7 41.6) rotate(-33.72)"/><path class="cls-14" d="M46.7,92.9a1.6,1.6,0,0,1,.8-.3v-.1c-.1-.1-.5,0-.9.3a1.49,1.49,0,0,0-.6.7h.1C46.2,93.3,46.5,93.1,46.7,92.9Z"/><circle class="cls-15" cx="49.5" cy="97" r="1.2"/><path class="cls-14" d="M48.4,97.4a1.22,1.22,0,0,1,1.2-1.2,1.1,1.1,0,0,1,1,.6,1.2,1.2,0,0,0-1.2-.9,1.22,1.22,0,0,0-1.2,1.2,1.07,1.07,0,0,0,.2.6Z"/><ellipse class="cls-15" cx="47.54" cy="94.99" rx="0.6" ry="0.4" transform="translate(-58.67 96.46) rotate(-64.21)"/><path class="cls-14" d="M47.3,95.1a.45.45,0,0,1,.6-.3.1.1,0,0,1,.1.1c0-.1-.1-.2-.2-.3a.45.45,0,0,0-.6.3.63.63,0,0,0,0,.6A.6.6,0,0,1,47.3,95.1Z"/><ellipse class="cls-15" cx="45.03" cy="100.72" rx="0.3" ry="0.9" transform="translate(-53.94 51.96) rotate(-39.69)"/><path class="cls-14" d="M44.5,100.2c.1-.1.5.1.8.5.1.1.2.3.3.4a2.09,2.09,0,0,0-.4-.6c-.3-.4-.7-.6-.8-.5s0,.2.1.5Z"/><ellipse class="cls-15" cx="49.71" cy="101.1" rx="0.4" ry="0.3" transform="translate(-27.84 19.37) rotate(-17.31)"/><path class="cls-14" d="M49.6,100.8c-.2.1-.3.2-.3.4v.1q0-.15.3-.3c.2-.1.3,0,.4.1V101C50,100.8,49.8,100.7,49.6,100.8Z"/><g class="cls-16"><path class="cls-4" d="M44.3,15.5,42,16a2.45,2.45,0,1,1-1-4.8l2.3-.5a2.4,2.4,0,0,1,2.9,1.9A2.56,2.56,0,0,1,44.3,15.5Z"/><path class="cls-4" d="M25.3,36.1H25a2.44,2.44,0,0,1-2.6-2.2A20.93,20.93,0,0,1,35,12.8a2.44,2.44,0,1,1,1.9,4.5,16.17,16.17,0,0,0-9.7,16.2A2.35,2.35,0,0,1,25.3,36.1Z"/></g></g></g></svg>