<svg xmlns="http://www.w3.org/2000/svg" viewBox="0 0 120 120.5"><defs><style>.cls-1{fill:#132930;}.cls-17,.cls-2{fill:none;}.cls-3{fill:#fd8b4f;}.cls-4{fill:#e5e5e5;}.cls-5{fill:#244654;}.cls-6{fill:#fff;}.cls-7{fill:#60acbe;}.cls-8{fill:#ff5514;}.cls-9{fill:#ff7743;}.cls-10{fill:#fff5f5;}.cls-11{fill:#ffddd0;}.cls-12{fill:#401505;}.cls-13{fill:#dd6231;}.cls-14{fill:#fc6e23;}.cls-15{fill:#944121;}.cls-16{fill:#c5572c;}.cls-17{stroke:#944121;stroke-linecap:round;stroke-linejoin:round;stroke-width:0;}</style></defs><title>Asset 7</title><g id="Layer_2" data-name="Layer 2"><g id="astronautFox_icon"><circle class="cls-1" cx="60" cy="60" r="60"/><path class="cls-2" d="M11.73,62.34a17.5,17.5,0,0,1,12.34-16.7A32,32,0,0,1,55.43,20h11.4A32,32,0,0,1,98.18,45.55a17.5,17.5,0,0,1,12.66,16.79v30a60,60,0,1,0-99.1,3.78Z"/><path class="cls-3" d="M98.18,45.55A32.25,32.25,0,0,1,98.83,52v11.4a31.87,31.87,0,0,1-6.93,19.89c3.82,1.86,6.53,6.47,6.53,11.91v11.33a60.3,60.3,0,0,0,12.4-14.21v-30A17.5,17.5,0,0,0,98.18,45.55Z"/><path class="cls-3" d="M30.72,83.8a31.88,31.88,0,0,1-7.29-20.36V52a32.26,32.26,0,0,1,.64-6.4,17.5,17.5,0,0,0-12.34,16.7v33.8A60.33,60.33,0,0,0,25,109.24v-14C25,90.21,27.35,85.89,30.72,83.8Z"/><path class="cls-4" d="M80.63,92.33v24.53a59.62,59.62,0,0,0,6.9-3.05v-26A32,32,0,0,1,80.63,92.33Z"/><path class="cls-4" d="M66.83,95.44H55.43a32.16,32.16,0,0,1-7.9-1v24.74a60,60,0,0,0,8.32,1.15,5.77,5.77,0,0,1-.62-2.6s0,0,0-.06,0,0,0,0a5.8,5.8,0,0,1,5.8-5.8,5.67,5.67,0,0,1,4.29,2,5.77,5.77,0,0,1,1,6.32,59.71,59.71,0,0,0,9.64-1.83V94.13A32.08,32.08,0,0,1,66.83,95.44Z"/><path class="cls-4" d="M35.93,88.82v26.64a59.54,59.54,0,0,0,6.9,2.53V92.87A31.91,31.91,0,0,1,35.93,88.82Z"/><path class="cls-5" d="M75.93,94.13v24.22c1.59-.44,3.16-.92,4.7-1.49V92.33A31.78,31.78,0,0,1,75.93,94.13Z"/><path class="cls-5" d="M42.83,92.87V118c1.54.46,3.11.86,4.7,1.2V94.46A31.76,31.76,0,0,1,42.83,92.87Z"/><path class="cls-6" d="M23.43,63.44A31.88,31.88,0,0,0,30.72,83.8a8.69,8.69,0,0,1,4.61-1.36h.6v6.38a31.89,31.89,0,0,0,19.5,6.62h11.4a31.84,31.84,0,0,0,20.7-7.59V82.44h.6a8.57,8.57,0,0,1,3.77.89,31.87,31.87,0,0,0,6.93-19.89V52a32,32,0,0,0-32-32H55.43a32,32,0,0,0-32,32Zm33.1-36.6h9.3A26.27,26.27,0,0,1,91.93,53v9.3a26.16,26.16,0,0,1-7.61,18.49h.21A27.14,27.14,0,0,1,71.73,88c-2.3.5-11.5,3.1-21.3.1-10-3-11.72-6.52-11.79-6.68a26.1,26.1,0,0,1-8.31-19.12V53A26.23,26.23,0,0,1,56.53,26.84Z"/><path class="cls-7" d="M30.33,53v9.3a26.1,26.1,0,0,0,8.31,19.12v0c5.45.93,7.4-1.21,10.21-3.51l-3.41-2.79,3.1.73L36.33,64.34,37.9,55.8a2.21,2.21,0,0,1-.87.35h-.3a2.44,2.44,0,0,1-2.6-2.2,20.93,20.93,0,0,1,12.6-21.1,2.44,2.44,0,1,1,1.9,4.5,16.37,16.37,0,0,0-4.94,3.35l13.74,7.25h8.4l16.5-8.7,4.6,25.1L74.86,75.94l3.08-.79-3,2.47c1.92,1.61,4,3.1,9.38,3.23a26.16,26.16,0,0,0,7.61-18.49V53a26.27,26.27,0,0,0-26.1-26.2h-9.3A26.23,26.23,0,0,0,30.33,53Zm22.4-21.8,2.3-.5a2.4,2.4,0,0,1,2.9,1.9,2.56,2.56,0,0,1-1.9,2.9l-2.3.5a2.45,2.45,0,0,1-1-4.8Z"/><path class="cls-5" d="M61.83,88.44l-.06-.06h0l.17.25L48.85,77.93c-2.81,2.3-4.76,4.44-10.21,3.51v0c.08.16,1.83,3.66,11.79,6.68,9.8,3,19,.4,21.3-.1a27.14,27.14,0,0,0,12.8-7.2h-.21c-5.35-.12-7.46-1.61-9.38-3.23Z"/><polygon class="cls-8" points="72.98 67.53 65.83 47.94 57.43 47.94 50.31 67.45 72.98 67.53"/><polygon class="cls-9" points="73.57 67.54 78.06 66.46 78.33 66.24 78.25 66.42 86.93 64.34 65.83 47.94 72.98 67.53 73.57 67.54"/><polygon class="cls-9" points="44.73 66.34 49.31 67.44 50.31 67.45 57.43 47.94 36.33 64.34 44.75 66.35 44.73 66.34"/><polygon class="cls-9" points="73.13 67.64 73.57 67.54 72.98 67.53 50.31 67.45 49.31 67.44 50.13 67.64 58.23 82.04 65.31 82.04 73.13 67.64"/><polygon class="cls-9" points="61.79 88.36 61.83 88.44 62.21 87.75 61.79 88.36"/><polygon class="cls-8" points="54.33 77.24 57.53 82.04 58.23 82.04 50.13 67.64 52.73 72.54 46.16 67.44 53.03 72.84 47.63 71.54 45.14 66.66 44.75 66.35 36.33 64.34 48.54 75.87 54.33 77.24"/><polygon class="cls-8" points="61.77 88.38 61.83 88.44 61.79 88.36 61.77 88.38"/><polygon class="cls-8" points="62.21 87.75 61.83 88.44 63.82 85.41 62.21 87.75"/><polygon class="cls-8" points="78.24 66.43 78.63 66.34 78.08 66.77 75.93 71.24 70.43 72.64 70.69 72.44 73.13 67.64 65.31 82.04 66.02 82.04 69.03 77.44 74.86 75.94 86.93 64.34 78.25 66.42 78.24 66.43"/><polygon class="cls-8" points="78.04 66.48 78.06 66.46 73.57 67.54 73.13 67.64 78.04 66.48"/><polygon class="cls-10" points="61.93 88.64 61.77 88.39 61.73 88.44 57.43 82.04 57.53 82.04 54.33 77.24 48.54 75.87 45.43 75.14 48.85 77.93 61.93 88.64"/><polygon class="cls-6" points="69.03 77.44 66.02 82.04 66.13 82.04 63.82 85.41 61.83 88.44 74.95 77.61 77.93 75.14 74.86 75.94 69.03 77.44"/><path class="cls-8" d="M43.69,40.7l-.46.47,9.5,8-11.8,7.4V44.31a16,16,0,0,0-2,9.23,2.44,2.44,0,0,1-1,2.25l-1.57,8.55,21.1-16.4Z"/><polygon class="cls-8" points="82.33 39.24 82.33 56.54 70.63 48.34 82.33 39.24 65.83 47.94 86.93 64.34 82.33 39.24"/><path class="cls-11" d="M40.93,56.54l11.8-7.4-9.5-8a16.21,16.21,0,0,0-2.3,3.15Z"/><polygon class="cls-11" points="70.63 48.34 82.33 56.54 82.33 39.24 70.63 48.34"/><polygon class="cls-12" points="61.79 88.36 62.21 87.75 63.82 85.41 66.13 82.04 66.02 82.04 65.31 82.04 58.23 82.04 57.53 82.04 57.43 82.04 61.73 88.44 61.77 88.39 61.77 88.38 61.79 88.36"/><polygon class="cls-12" points="44.73 66.34 44.75 66.35 45.14 66.66 45.13 66.64 46.16 67.44 52.73 72.54 50.13 67.64 49.31 67.44 44.73 66.34"/><polygon class="cls-12" points="78.04 66.48 73.13 67.64 70.69 72.44 78.04 66.48"/><polygon class="cls-12" points="78.08 66.77 78.63 66.34 78.24 66.43 78.08 66.77"/><polygon class="cls-12" points="45.14 66.66 47.63 71.54 53.03 72.84 46.16 67.44 45.13 66.64 45.14 66.66"/><polygon class="cls-12" points="70.69 72.44 70.43 72.64 75.93 71.24 78.08 66.77 78.24 66.43 78.25 66.42 78.33 66.24 78.06 66.46 78.04 66.48 70.69 72.44"/><path class="cls-6" d="M35.93,82.44h-.6a8.69,8.69,0,0,0-4.61,1.36C27.35,85.89,25,90.21,25,95.24v14a59.9,59.9,0,0,0,10.9,6.22v-33Z"/><path class="cls-6" d="M91.91,83.33a8.57,8.57,0,0,0-3.77-.89h-.6V113.8a60.08,60.08,0,0,0,10.9-7.24V95.24C98.43,89.8,95.73,85.2,91.91,83.33Z"/><path class="cls-13" d="M65.32,113.85A5.89,5.89,0,0,1,66.53,116a6.94,6.94,0,0,1-2.48,4.31l1.56-.12a.87.87,0,0,1,.1-.39c.12-.25.3-.41.4-.37s.08.29,0,.54a1.12,1.12,0,0,1-.11.19l.34,0a5.77,5.77,0,0,0-1-6.32Z"/><path class="cls-13" d="M55.23,117.74a5.77,5.77,0,0,0,.62,2.6h.07a5.9,5.9,0,0,1-.69-2.67S55.23,117.72,55.23,117.74Z"/><path class="cls-14" d="M66.53,116a5.89,5.89,0,0,0-1.21-2.19,5.67,5.67,0,0,0-4.29-2,5.8,5.8,0,0,0-5.8,5.8s0,0,0,0a5.9,5.9,0,0,0,.69,2.67l.24,0c-.07-.17-.11-.25,0-.32s.1,0,.18,0l.09,0,.06,0a1.67,1.67,0,0,1,.39.31c.77,0,1.55.05,2.33.06a1.32,1.32,0,0,1-.87-.79,1.24,1.24,0,0,1,0-1.25.67.67,0,0,1,.29-.3c.4-.2.9.2,1.2.8,0,.2.1.3.1.5,0-.1-.1-.1-.1-.2h0c.16.53.06,1-.3,1.21a.56.56,0,0,1-.25,0l.72,0c1.37,0,2.72-.06,4.06-.15A6.94,6.94,0,0,0,66.53,116Zm-3.27-2.78,0,0a.39.39,0,0,1,0,.05s0,0,0,0a.36.36,0,0,1-.05.07h0a1.43,1.43,0,0,1-1.18.08c-.61-.17-1-.55-1-.86a.62.62,0,0,0-.13.08v-.1c.1-.4.7-.5,1.4-.3s1.11.53,1,.9C63.26,113.25,63.27,113.26,63.27,113.26Zm-.52,1.9c0,.1-.21.12-.36,0s-.23-.22-.18-.31.21-.12.36,0S62.79,115.06,62.74,115.16Zm-6.81.58h-.1a.48.48,0,0,1,.1-.6c.17-.17.34-.34.45-.31a.13.13,0,0,1,.11,0l0,0h0a.59.59,0,0,1-.1.49c-.14.24-.33.39-.42.33h0Zm1.06,4s-.07,0-.1,0l0,.06a.38.38,0,0,1-.22-.13,1.82,1.82,0,0,1-.56-.91c-.2-.63-.14-1.21.12-1.29s.64.36.83,1S57.25,119.61,57,119.69Zm.06-2.92c-.31-.12-.34-.76-.08-1.43s.61-1,.9-1a.35.35,0,0,1,.25,0,.52.52,0,0,1,.2.4.14.14,0,0,1-.11-.05,1.9,1.9,0,0,1-.14,1.1C57.83,116.46,57.36,116.9,57.05,116.78Zm1.32.42c-.05.16-.18.26-.28.22s-.15-.19-.1-.35.18-.26.28-.22S58.42,117,58.37,117.2Zm-.5-3.7,0,0h-.1a.27.27,0,0,1,0-.1c-.09-.14.17-.47.58-.75s.82-.39.92-.25-.17.47-.58.75A1.37,1.37,0,0,1,57.87,113.49Zm1.76,1.71c-.14.3-.42.46-.62.37a.28.28,0,0,1-.07-.07s0,0,0,0a.24.24,0,0,1,0-.08h0v0a.67.67,0,0,1,0-.56c.14-.3.42-.46.62-.37a.39.39,0,0,1,.18.39s0,0,0,.06,0,0,0,0A.8.8,0,0,1,59.63,115.2Zm1.6,3a1.2,1.2,0,0,1-1.1-.72v.22a1.07,1.07,0,0,1-.2-.6,1.21,1.21,0,0,1,.4-.87,1.18,1.18,0,0,1,.9-.43,1.2,1.2,0,1,1,0,2.4Zm2.1,1-.06,0a.51.51,0,1,1-.63-.1h0l.08-.06c.2-.1.5-.1.6.1Zm.46-5s0,0,0-.07a.36.36,0,0,1,.09-.14h0a.22.22,0,0,1,.16,0,1.69,1.69,0,0,1,1,.93c.39.67.47,1.35.18,1.51a.47.47,0,0,1-.44-.08l0,.06-.11-.09a1.76,1.76,0,0,1-.25-.21l-.1-.1a2.94,2.94,0,0,1-.36-.49,2.7,2.7,0,0,1-.3-.76A1,1,0,0,1,63.79,114.25Zm.36,3.74,0,.05v-.3c.1-.5.5-.9.9-.8a.65.65,0,0,1,.28.16l0,0a.68.68,0,0,1,.13.2s0,.06,0,.09a.89.89,0,0,1,0,.18,1.3,1.3,0,0,1,0,.48c-.13.54-.53.9-.91.81S64.12,118.44,64.15,118Z"/><path class="cls-15" d="M66.11,119.48c-.1,0-.28.12-.4.37a.87.87,0,0,0-.1.39l.34,0a1.12,1.12,0,0,0,.11-.19C66.19,119.77,66.21,119.53,66.11,119.48Z"/><ellipse class="cls-16" cx="62.47" cy="115.02" rx="0.2" ry="0.3" transform="translate(-68.37 118.87) rotate(-63.18)"/><ellipse class="cls-16" cx="58.18" cy="117.14" rx="0.3" ry="0.2" transform="translate(-71.32 135.48) rotate(-71.65)"/><path class="cls-16" d="M65.32,117.1l0,0Z"/><path class="cls-16" d="M65.54,118.1a1.3,1.3,0,0,0,0-.48,1.19,1.19,0,0,1,0,.32.75.75,0,0,0-.5-.7c-.38-.1-.76.27-.88.75s.15.85.47.93S65.41,118.64,65.54,118.1Z"/><path class="cls-16" d="M65.49,117.35a.85.85,0,0,1,0,.09S65.5,117.38,65.49,117.35Z"/><path class="cls-17" d="M64.13,118v.08"/><path class="cls-15" d="M65,117.24a.75.75,0,0,1,.5.7,1.19,1.19,0,0,0,0-.32.89.89,0,0,0,0-.18.85.85,0,0,0,0-.09.68.68,0,0,0-.13-.2l0,0a.65.65,0,0,0-.28-.16c-.4-.1-.8.3-.9.8v.3l0-.05C64.27,117.51,64.65,117.14,65,117.24Z"/><path class="cls-16" d="M59.83,119.24c-.2-.6-.8-1-1.2-.8s-.4.5-.3.9a1.06,1.06,0,0,1,0-.9,1.24,1.24,0,0,0,0,1.25,1.32,1.32,0,0,0,.87.79h.1a.56.56,0,0,0,.25,0C59.89,120.29,60,119.77,59.83,119.24Z"/><path class="cls-15" d="M58.33,119.34c-.1-.4,0-.8.3-.9s1,.2,1.2.8h0c0,.1.1.1.1.2,0-.2-.1-.3-.1-.5-.3-.6-.8-1-1.2-.8a.67.67,0,0,0-.29.3A1.06,1.06,0,0,0,58.33,119.34Z"/><path class="cls-16" d="M58.23,114.69a.12.12,0,0,0-.09,0c-.36-.18-.72.14-1,.72a4.29,4.29,0,0,0-.2,1,1.18,1.18,0,0,1,.1-.8c0-.07.06-.12.1-.18v0a1.85,1.85,0,0,1,.75-1c-.3,0-.67.4-.9,1s-.23,1.31.08,1.43.77-.32,1-1A1.9,1.9,0,0,0,58.23,114.69Z"/><path class="cls-15" d="M56.93,116.34a4.29,4.29,0,0,1,.2-1c0,.06-.07.11-.1.18A1.18,1.18,0,0,0,56.93,116.34Z"/><path class="cls-15" d="M57.13,115.34v0c.29-.57.64-.9,1-.72a.12.12,0,0,1,.09,0,.14.14,0,0,0,.11.05.52.52,0,0,0-.2-.4.35.35,0,0,0-.25,0A1.85,1.85,0,0,0,57.13,115.34Z"/><path class="cls-16" d="M63.27,113.26s0,0,0,0v0Z"/><path class="cls-16" d="M63.14,113.43a.36.36,0,0,0,.05-.07A.13.13,0,0,0,63.14,113.43Z"/><path class="cls-16" d="M62.13,112.64a1.49,1.49,0,0,0-1.17,0c0,.31.38.69,1,.86a1.43,1.43,0,0,0,1.18-.08C63.13,113.14,62.73,112.84,62.13,112.64Z"/><path class="cls-15" d="M62.23,112.34c-.7-.2-1.3-.1-1.4.3v.1a.62.62,0,0,1,.13-.08,1.49,1.49,0,0,1,1.17,0c.6.2,1,.5,1,.8h0a.13.13,0,0,1,.05-.07s0,0,0,0a.39.39,0,0,0,0-.05v0C63.34,112.87,62.87,112.52,62.23,112.34Z"/><path class="cls-16" d="M56.28,117.4c-.26.08-.32.66-.12,1.29a1.82,1.82,0,0,0,.56.91,2.25,2.25,0,0,1-.48-.87c-.2-.6-.2-1.1.1-1.2a.37.37,0,0,1,.3.1h-.1c-.2,0-.3.6-.1,1.2a1.91,1.91,0,0,0,.45.84s.07,0,.1,0c.26-.08.32-.66.12-1.29S56.54,117.32,56.28,117.4Z"/><path class="cls-15" d="M56.53,117.64h.1a.37.37,0,0,0-.3-.1c-.3.1-.3.6-.1,1.2a2.25,2.25,0,0,0,.48.87.38.38,0,0,0,.22.13l0-.06a1.91,1.91,0,0,1-.45-.84C56.23,118.24,56.33,117.64,56.53,117.64Z"/><path class="cls-16" d="M62.73,119.24a.45.45,0,0,0-.23.23.15.15,0,0,0,0,.07s0,0,0-.07a.42.42,0,0,1,.15-.37h0a.41.41,0,1,0,.63.1A.69.69,0,0,0,62.73,119.24Z"/><path class="cls-15" d="M62.73,119l-.08.06a.42.42,0,0,0-.15.37.45.45,0,0,1,.23-.23.69.69,0,0,1,.54,0l.06,0v-.1C63.23,118.94,62.93,118.94,62.73,119Z"/><path class="cls-15" d="M62.53,119.54a.15.15,0,0,1,0-.07S62.5,119.54,62.53,119.54Z"/><path class="cls-16" d="M64.23,114.24c-.3.1-.2.8.2,1.5.18.27.35.46.46.64a.47.47,0,0,0,.44.08c.29-.17.21-.84-.18-1.51a1.69,1.69,0,0,0-1-.93,1.1,1.1,0,0,1,.52.32C64.53,114.24,64.33,114.14,64.23,114.24Z"/><path class="cls-16" d="M64.48,116a2.28,2.28,0,0,1-.34-.5,3,3,0,0,1-.31-.75,2.7,2.7,0,0,0,.3.76A2.94,2.94,0,0,0,64.48,116Z"/><path class="cls-16" d="M64.82,116.35a2.38,2.38,0,0,1-.25-.21A1.76,1.76,0,0,0,64.82,116.35Z"/><path class="cls-16" d="M63.79,114.25s0,0,0-.07S63.8,114.22,63.79,114.25Z"/><path class="cls-16" d="M63.94,114h0Z"/><path class="cls-15" d="M64.48,116l.1.1a2.38,2.38,0,0,0,.25.21l.11.09,0-.06c-.11-.18-.28-.37-.46-.64-.4-.7-.5-1.4-.2-1.5.1-.1.3,0,.4.1a1.1,1.1,0,0,0-.52-.32.22.22,0,0,0-.16,0h0a.36.36,0,0,0-.09.14s0,0,0,.07a1,1,0,0,0,0,.54,3,3,0,0,0,.31.75A2.28,2.28,0,0,0,64.48,116Z"/><path class="cls-16" d="M56.42,115.35a.59.59,0,0,0,.1-.49.15.15,0,0,1,0,.08q-.15,0-.3.3a1.59,1.59,0,0,1-.24.44h0C56.09,115.74,56.28,115.59,56.42,115.35Z"/><path class="cls-16" d="M56.52,114.85l0,0a.13.13,0,0,0-.11,0h.13Z"/><path class="cls-15" d="M56.53,114.94a.15.15,0,0,0,0-.08h-.14c-.11,0-.28.14-.45.31a.48.48,0,0,0-.1.6h.1l.06-.06a1.59,1.59,0,0,0,.24-.44Q56.38,114.94,56.53,114.94Z"/><path class="cls-16" d="M59.26,112.45c-.09-.14-.5,0-.92.25s-.67.61-.58.75a2,2,0,0,1,.57-.6c.4-.3.8-.4.9-.3v.1a1.6,1.6,0,0,0-.8.3,4.57,4.57,0,0,0-.57.55,1.37,1.37,0,0,0,.81-.3C59.1,112.92,59.36,112.59,59.26,112.45Z"/><path class="cls-15" d="M58.43,112.94a1.6,1.6,0,0,1,.8-.3v-.1c-.1-.1-.5,0-.9.3a2,2,0,0,0-.57.6.27.27,0,0,0,0,.1h.1l0,0A4.57,4.57,0,0,1,58.43,112.94Z"/><path class="cls-16" d="M61.23,115.84a1.18,1.18,0,0,0-.9.43,1.16,1.16,0,0,1,.8-.33,1.2,1.2,0,0,1,1.2.9,1.1,1.1,0,0,0-1-.6,1.22,1.22,0,0,0-1.2,1.2v.08a1.2,1.2,0,1,0,1.1-1.68Z"/><path class="cls-15" d="M61.33,116.24a1.1,1.1,0,0,1,1,.6,1.2,1.2,0,0,0-1.2-.9,1.16,1.16,0,0,0-.8.33,1.21,1.21,0,0,0-.4.87,1.07,1.07,0,0,0,.2.6v-.3A1.22,1.22,0,0,1,61.33,116.24Z"/><path class="cls-16" d="M58.93,114.94a.45.45,0,0,1,.6-.3.72.72,0,0,1,.17.24.39.39,0,0,0-.18-.39c-.2-.1-.48.07-.62.37a.67.67,0,0,0,0,.56A.76.76,0,0,1,58.93,114.94Z"/><path class="cls-16" d="M59.63,114.84a.45.45,0,0,0-.6.3.53.53,0,0,0-.1.36.28.28,0,0,0,.07.07c.2.1.48-.07.62-.37a.8.8,0,0,0,.08-.31A.16.16,0,0,0,59.63,114.84Z"/><path class="cls-16" d="M58.89,115.46h0Z"/><path class="cls-15" d="M59.71,114.88a.72.72,0,0,0-.17-.24.45.45,0,0,0-.6.3.76.76,0,0,0-.06.47v0h0a.24.24,0,0,0,0,.08s0,0,0,0a.53.53,0,0,1,.1-.36.45.45,0,0,1,.6-.3.16.16,0,0,1,.07.05s0,0,0,0S59.72,114.9,59.71,114.88Z"/><path class="cls-16" d="M56.46,120.11a1.65,1.65,0,0,1,.35.31h0A1.67,1.67,0,0,0,56.46,120.11Z"/><path class="cls-16" d="M56.32,120l.09,0Z"/><path class="cls-16" d="M56.23,120.24v.13l.46,0C56.49,120.25,56.3,120.18,56.23,120.24Z"/><path class="cls-15" d="M56.46,120.11l-.06,0-.09,0c-.08,0-.15,0-.18,0s0,.16,0,.32h.07v-.13c.06-.06.26,0,.46.16h.12A1.65,1.65,0,0,0,56.46,120.11Z"/><path class="cls-6" d="M53.73,36l2.3-.5a2.56,2.56,0,0,0,1.9-2.9,2.4,2.4,0,0,0-2.9-1.9l-2.3.5a2.45,2.45,0,0,0,1,4.8Z"/><path class="cls-6" d="M38.93,53.54a16,16,0,0,1,2-9.23,16.21,16.21,0,0,1,2.3-3.15l.46-.47a16.37,16.37,0,0,1,4.94-3.35,2.44,2.44,0,1,0-1.9-4.5,20.93,20.93,0,0,0-12.6,21.1,2.44,2.44,0,0,0,2.6,2.2H37a2.21,2.21,0,0,0,.87-.35A2.44,2.44,0,0,0,38.93,53.54Z"/></g></g></svg>