<?xml version="1.0" encoding="utf-8"?>
<!-- Generator: Adobe Illustrator 21.0.2, SVG Export Plug-In . SVG Version: 6.00 Build 0)  -->
<svg version="1.1" id="Layer_1" xmlns="http://www.w3.org/2000/svg" xmlns:xlink="http://www.w3.org/1999/xlink" x="0px" y="0px"
	 viewBox="0 0 512 512" style="enable-background:new 0 0 512 512;" xml:space="preserve">
<style type="text/css">
	.st0{fill:#7F4628;}
	.st1{fill:#488CA7;}
	.st2{fill:#60ACBE;}
	.st3{fill:#FD8B4F;}
	.st4{fill:#BE683B;}
	.st5{fill:#36697D;}
	.st6{fill:#3F2314;}
	.st7{fill:#B6D1DC;}
	.st8{fill:#91BACA;}
</style>
<rect x="401.6" y="395.7" transform="matrix(0.7071 -0.7071 0.7071 0.7071 -179.7737 434.7269)" class="st0" width="66.5" height="77.4"/>
<path class="st1" d="M4.6,4.1c3.2-3.2,7.8-4.7,12.3-3.9l93,16.4c11.5,2,22,7.9,29.8,16.6l261.9,292.9
	c-12.9,12.9-25.7,25.7-38.6,38.6L3.5,5.3C3.9,4.9,4.2,4.5,4.6,4.1z"/>
<path class="st2" d="M33.8,139.2c-8.7-7.8-14.6-18.3-16.6-29.8l-16.4-93c-0.7-4,0.4-8,2.8-11.1L363,364.7
	c-12.3,12.3-24.6,24.6-36.9,36.9L33.8,139.2z"/>
<path class="st3" d="M325.3,398.6l73.8-73.8c12.6-11.2,31.9-10.8,44,1.3c12.5,12.5,12.5,32.8,0,45.3l-71.1,71.1
	c-6.3,6.3-14.5,9.4-22.7,9.4s-16.4-3.1-22.7-9.4C314.5,430.5,314.1,411.2,325.3,398.6z"/>
<path class="st4" d="M432.8,479l45.7-45.7c7.8-6.9,19.7-6.7,27.2,0.8c7.7,7.7,7.7,20.3,0,28l-44,44c-3.9,3.9-8.9,5.8-14,5.8
	c-5.1,0-10.1-1.9-14-5.8C426.2,498.7,425.9,486.8,432.8,479z"/>
<polygon class="st5" points="275.5,356 224.6,310.3 310.2,224.5 356.1,275.4 "/>
<rect x="38.5" y="401.1" transform="matrix(0.7071 -0.7071 0.7071 0.7071 -284.5518 181.7685)" class="st0" width="77.4" height="66.5"/>
<g>
	<path class="st6" d="M113.9,444.6l14.1-14.1l-47-47l-14.1,14.1C82.6,413.2,98.3,428.9,113.9,444.6z"/>
	<path class="st6" d="M397.9,444.6l-14.1-14.1l47-47l14.1,14.1C429.2,413.2,413.6,428.9,397.9,444.6z"/>
</g>
<path class="st7" d="M507.4,4.1c-3.2-3.2-7.8-4.7-12.3-3.9l-93,16.4c-11.5,2-22,7.9-29.8,16.6L110.4,326.1
	c12.9,12.9,25.7,25.7,38.6,38.6L508.5,5.3C508.1,4.9,507.8,4.5,507.4,4.1z"/>
<path class="st8" d="M478.3,139.2c8.7-7.8,14.6-18.3,16.6-29.8l16.4-93c0.7-4-0.4-8-2.8-11.1L149,364.7
	c12.3,12.3,24.6,24.6,36.9,36.9L478.3,139.2z"/>
<path class="st3" d="M186.7,398.6l-73.8-73.8c-12.6-11.2-31.9-10.8-44,1.3c-12.5,12.5-12.5,32.8,0,45.3l71.1,71.1
	c6.3,6.3,14.5,9.4,22.7,9.4s16.4-3.1,22.7-9.4C197.5,430.5,197.9,411.2,186.7,398.6z"/>
<path class="st4" d="M79.2,479l-45.7-45.7c-7.8-6.9-19.7-6.7-27.2,0.8c-7.7,7.7-7.7,20.3,0,28l44,44c3.9,3.9,8.9,5.8,14,5.8
	s10.1-1.9,14-5.8C85.8,498.7,86.1,486.8,79.2,479z"/>
</svg>
