<?xml version="1.0" encoding="utf-8"?>
<!-- Generator: Adobe Illustrator 21.0.2, SVG Export Plug-In . SVG Version: 6.00 Build 0)  -->
<svg version="1.1" id="Capa_1" xmlns="http://www.w3.org/2000/svg" xmlns:xlink="http://www.w3.org/1999/xlink" x="0px" y="0px"
	 viewBox="0 0 54 54" style="enable-background:new 0 0 54 54;" xml:space="preserve">
<style type="text/css">
	.st0{fill:#132930;}
	.st1{fill:#FFFFFF;}
</style>
<g>
	<g>
		<path class="st0" d="M27,53L27,53C12.6,53,1,41.4,1,27l0,0C1,12.6,12.6,1,27,1l0,0c14.4,0,26,11.6,26,26l0,0
			C53,41.4,41.4,53,27,53z"/>
		<path class="st0" d="M27,54C12.1,54,0,41.9,0,27S12.1,0,27,0s27,12.1,27,27S41.9,54,27,54z M27,2C13.2,2,2,13.2,2,27
			s11.2,25,25,25s25-11.2,25-25S40.8,2,27,2z"/>
	</g>
	<path class="st1" d="M40,28H14c-0.6,0-1-0.4-1-1s0.4-1,1-1h26c0.6,0,1,0.4,1,1S40.6,28,40,28z"/>
	<polygon class="st1" points="22.3,37.7 11.6,27 22.3,16.3 23.7,17.7 14.4,27 23.7,36.3 	"/>
</g>
</svg>
