<svg xmlns="http://www.w3.org/2000/svg" viewBox="0 0 120 120"><defs><style>.cls-1{fill:#132930;}.cls-2{fill:#fd8b4f;}.cls-3{fill:#c5572c;opacity:0.5;isolation:isolate;}.cls-4{fill:#d6d6cc;}.cls-5{fill:#040a0c;}.cls-6{opacity:0.2;}.cls-7{fill:#f0f0f0;}</style></defs><title>Asset 1</title><g id="Layer_2" data-name="Layer 2"><g id="buildings_icon"><circle class="cls-1" cx="60" cy="60" r="60"/><g id="spaceStation"><path class="cls-2" d="M92.49,54.23c0,1.52-14.53,4.22-32.69,4.22s-32.69-2.81-32.69-4.22,14.53-3.75,32.69-3.75S92.49,52.83,92.49,54.23Z"/><path class="cls-3" d="M59.8,50.84c-18.51.47-32.45,2.11-32.45,3.51S41.64,58,59.92,58.57Z"/><path class="cls-4" d="M59.8,59a161.78,161.78,0,0,1-23.08-1.52c-9.84-1.52-9.84-2.69-9.84-3.16s0-1.64,9.84-2.81A196.82,196.82,0,0,1,59.8,50.25a196.82,196.82,0,0,1,23.08,1.29c9.84,1.17,9.84,2.34,9.84,2.81s0,1.64-9.84,3.16A183.88,183.88,0,0,1,59.8,59Zm-32.22-4.8C29,55.4,42.11,58.1,59.8,58.1S90.5,55.52,92,54.23C90.5,53.06,77.61,51,59.8,51S29.1,53.18,27.58,54.23Z"/><path class="cls-1" d="M92.25,53.41a219.15,219.15,0,0,0-64.91-.23,131,131,0,0,1-.59-16.4,191,191,0,0,1,66.31-.12C93,43.45,92.84,46.62,92.25,53.41Z"/><path class="cls-5" d="M59.33,50.48a185.38,185.38,0,0,0-32.1,2.58,122.24,122.24,0,0,1-.59-15.93,170.82,170.82,0,0,1,32.57-3.4C59.33,40.41,59.33,43.81,59.33,50.48Z"/><path class="cls-4" d="M92.49,53.88A215.36,215.36,0,0,0,27,53.65a147,147,0,0,1-.7-17.34,184.08,184.08,0,0,1,67-.12A147.89,147.89,0,0,1,92.49,53.88ZM27.58,52.59a223.25,223.25,0,0,1,64.32.23,145,145,0,0,0,.7-15.93A187,187,0,0,0,27,37,141.72,141.72,0,0,0,27.58,52.59Z"/><g class="cls-6"><path class="cls-7" d="M92.49,36.31C85,26,72.8,18,59.8,18S35,25.88,27.46,36.19c0,0,25.07-2.69,32.34-2.58S92.49,36.31,92.49,36.31Z"/><path class="cls-7" d="M93.42,36.78l-.94-.12c-.23,0-25.66-2.69-32.81-2.69s-32,2.58-32.22,2.58l-.94.12.7-.94c8.32-11.48,20.5-18.28,32.69-18.28s24.72,7,32.92,18.39ZM59.45,33h0c6.44,0,27.18,2.11,31.87,2.58C83.11,25.06,71,18.38,59.56,18.38S36.37,24.71,28,35.49C33,35.14,53,33,59.45,33Z"/></g><path class="cls-4" d="M42.11,34.55l.47-.82c4.57-7.38,11.13-16.17,16.87-16.17h.12c4.22.12,9.37,5.16,16.17,16.05l.47.82-.82-.12c-.12,0-12.54-.82-16.05-.82s-16.52.94-16.64.94ZM59.56,18.5c-4.1,0-9.72,5.27-15.82,15,2.93-.12,12.54-.82,15.7-.82h.12c3,0,12.42.59,15.23.82-6.33-10.08-11.25-14.88-15.23-15Z"/><path class="cls-4" d="M94.13,49.66c-1.52-.94-12.54-3.4-33.74-3.4h-.94c-20.86.12-31.75,2.23-34.56,3.87a1,1,0,0,0-.47.82c0,.23.12.82,2.34,1.52l.12-.82a5.1,5.1,0,0,1-1.52-.59c2.93-1.76,13.71-3.75,34.33-3.75C81.36,47.2,92.49,49.78,94,50.6a.11.11,0,0,1,.12.12,5.6,5.6,0,0,1-1.41.59v.82c1.41-.23,2.11-.82,2.23-1.41A1.17,1.17,0,0,0,94.13,49.66Z"/><path class="cls-4" d="M94.13,45.09c-1.52-.94-12.54-3.4-33.74-3.4h-.94c-20.86.12-31.75,2.23-34.68,3.87a1,1,0,0,0-.47.82c0,.23-.12.82,2.23,1.52L26.41,47a2.19,2.19,0,0,1-1.29-.59c2.93-1.76,13.71-3.75,34.33-3.75h.94c21.09,0,31.87,2.34,33.39,3.16.12.12.23.12.35.23a7.28,7.28,0,0,1-1.17.35v.94c.82-.12,1.87-.47,2-1.17S94.36,45.21,94.13,45.09Z"/><path class="cls-4" d="M94.6,40.76c-1.52-.82-12.89-3.4-34.21-3.4h-.94c-20.86.12-31.75,2.23-34.68,3.87a1.12,1.12,0,0,0-.7.82c0,.12.12.82,2.23,1.41l-.12-.94A1.6,1.6,0,0,1,24.88,42c0-.7,13.83-3.75,34.45-3.87,21.79-.12,33.27,2.46,34.8,3.28a.11.11,0,0,1,.12.12,7.28,7.28,0,0,1-1.17.35l-.12.94c1.29-.23,2-.59,2-1.17A.61.61,0,0,0,94.6,40.76Z"/><path class="cls-4" d="M95.06,36.19c-1.64-.94-13.24-3.51-35.62-3.4-21.56.12-32.69,2.23-35.62,3.87a.69.69,0,0,0-.35.82c0,.23-.12.94,3,1.52l.12-.94a6.28,6.28,0,0,1-2.11-.7c3.16-1.64,14.29-3.63,35.27-3.75,22.38-.12,33.74,2.46,35.38,3.28a.11.11,0,0,1,.12.12,9,9,0,0,1-1.87.59l.12.82c1.52-.35,2.46-.82,2.46-1.52C95.77,36.66,95.3,36.42,95.06,36.19Z"/><path class="cls-4" d="M93.42,36.31l-1.05-.12c-.23,0-25.66-2.58-32.81-2.58s-32,2.58-32.22,2.58l-.94.12.7-.82c8.32-11.13,20.5-17.69,32.69-17.69S84.52,24.71,92.72,35.6Zm-34-3.75h0c6.33,0,26.71,2.11,31.4,2.58C82.88,24.94,71,18.5,59.68,18.5S36.83,24.71,28.75,35.14C33.32,34.55,53,32.56,59.45,32.56Z"/><path class="cls-4" d="M65.66,104.73v.47c0,.35-.47.23-1.17.23h0c-.47,0-.94.12-1.17-.12v-.12h0v-.47c-1.17,0-2.46-.12-3.75-.12H56v.47c0,.35-.47.23-1.17.23h-.47c-.35,0-.7,0-.7-.23v-.47c-3.63.12-6.21.47-6.21.82s5.27.94,12,.94,12-.47,12-.94C71.52,105.2,69.17,105,65.66,104.73Z"/><path class="cls-7" d="M54.64,105.67h0c-.7,0-1.17.12-1.17-.7V56.11a1.14,1.14,0,0,1,1.17-1.29h0a1.14,1.14,0,0,1,1.17,1.29V105C55.93,105.9,55.35,105.67,54.64,105.67Z"/><path class="cls-4" d="M54.64,54.82a1.14,1.14,0,0,0-1.17,1.29V105c0,.82.47.7,1.17.7h0Z"/><path class="cls-7" d="M64.84,105.9h0c-.7,0-1.17.12-1.17-.7v-49a1.14,1.14,0,0,1,1.17-1.29h0A1.14,1.14,0,0,1,66,56.22v48.86C66,106,65.42,105.9,64.84,105.9Z"/><path class="cls-4" d="M64.84,54.94a1.14,1.14,0,0,0-1.17,1.29v48.86c0,.82.47.7,1.17.7h0Z"/></g></g></g></svg>