<?xml version="1.0" encoding="utf-8"?>
<!-- Generator: Adobe Illustrator 21.0.2, SVG Export Plug-In . SVG Version: 6.00 Build 0)  -->
<svg version="1.1" id="Capa_1" xmlns="http://www.w3.org/2000/svg" xmlns:xlink="http://www.w3.org/1999/xlink" x="0px" y="0px"
	 viewBox="0 0 58 58" style="enable-background:new 0 0 58 58;" xml:space="preserve">
<style type="text/css">
	.st0{fill:#60ACBE;}
	.st1{fill:#488CA7;}
</style>
<path class="st0" d="M29,0c0,0-6.7,8-22,8v19.1c0,10,4.3,19.6,12.2,25.7c2.8,2.2,6,4.1,9.8,5.2c3.8-1.1,7.1-3,9.8-5.2
	C46.7,46.7,51,37.1,51,27.1V8C35.7,8,29,0,29,0z"/>
<path class="st1" d="M7,8v19.1c0,10,4.3,19.6,12.2,25.7c2.8,2.2,6,4.1,9.8,5.2V0C29,0,22.3,8,7,8z"/>
<path class="st1" d="M29,51.7c-2.1-0.8-4.2-2-6.1-3.6c-6.2-4.9-9.9-12.7-9.9-21V13.6c7.4-0.9,12.6-3.5,16-5.8
	c3.4,2.3,8.6,4.9,16,5.8v13.5c0,8.3-3.7,16.2-9.9,21C33.2,49.6,31.1,50.8,29,51.7z"/>
<path class="st0" d="M13,13.6v13.5c0,8.3,3.7,16.2,9.9,21c2,1.5,4,2.7,6.1,3.6V7.8C25.6,10.1,20.4,12.7,13,13.6z"/>
</svg>
