<?xml version="1.0" encoding="utf-8"?>
<!-- Generator: Adobe Illustrator 21.0.2, SVG Export Plug-In . SVG Version: 6.00 Build 0)  -->
<svg version="1.1" id="Layer_1" xmlns="http://www.w3.org/2000/svg" xmlns:xlink="http://www.w3.org/1999/xlink" x="0px" y="0px"
	 viewBox="0 0 120 120" style="enable-background:new 0 0 120 120;" xml:space="preserve">
<style type="text/css">
	.st0{fill:#262D30;}
	.st1{fill:#0A171D;}
	.st2{fill:#FFFFFF;}
	.st3{fill:#FEE159;}
	.st4{fill:#60ACBE;}
	.st5{fill:#488CA7;}
</style>
<g id="Layer_2">
	<g id="factory_icon">
		<g id="factory">
			<g id="factoryGroup">
				<path class="st0" d="M34.7,46.5L34.7,46.5c-6.9,0-12.4,5.3-12.4,11.8l-0.1,41.5c0,4.4,4.4,8,10.3,8.7v1.3h4.6v-1.1
					c5.8-0.8,10.2-4.4,10.2-8.7l0.1-41.5C47.1,51.7,41.5,46.4,34.7,46.5z"/>
				<path class="st1" d="M29.2,99.4l0.1-40.9c0-5.4,4.3-9.9,10.2-11.3c-1.1-0.3-2.3-0.5-3.5-0.5l0,0c-7.5,0-13.7,5.3-13.7,11.5
					l-0.1,40.9c0,4.3,4.8,7.8,11.2,8.5v1.3h5v-1.3c0.4,0,0.8-0.1,1-0.1C33.6,106.8,29.2,103.4,29.2,99.4z"/>
				<path class="st2" d="M37.5,110.2h-5.6v-1.3c-6-0.9-10.3-4.8-10.3-9l0.1-41.5c0-6.8,5.9-12.3,13-12.3s13,5.6,13,12.4L47.6,100
					c0,4.4-4.3,8.2-10.2,9L37.5,110.2z M32.8,109.2h3.5v-1.3l0.5-0.1c5.6-0.8,9.7-4.1,9.7-8.2l0.1-41.5c-0.1-6.4-5.4-11.5-11.9-11.4
					c0,0,0,0,0,0c-6.6,0-12,5-12,11.3l-0.1,41.5c0,4,4.1,7.4,9.8,8.2l0.5,0.1L32.8,109.2L32.8,109.2z"/>
				<path class="st3" d="M36.8,41V28.7c0-2.3,1.6-3.6,4.3-3.6h31.7c2.6,0,4.3,1.3,4.3,3.6L77,103.5h3.5l0.1-77.9c0-2.3-2-4-4.8-4
					H37.5c-2.6,0-4.8,1.9-4.8,4v21.8l4-1.1L36.8,41z"/>
				<g id="tartaly1">
					
						<ellipse id="tartaly1-2" transform="matrix(1.570732e-03 -1 1 1.570732e-03 -20.2558 178.004)" class="st4" cx="79" cy="99.1" rx="18.2" ry="19.2"/>
					<path class="st5" d="M67.9,99.2c0.1-7,3.1-13.5,8.4-18.1c-9.3,1.1-16.5,8.8-16.5,18.1s7.1,16.7,16.4,18.1
						C71,112.7,68,106.1,67.9,99.2z"/>
				</g>
				
					<rect x="77.1" y="78.9" transform="matrix(1.396295e-03 -1 1 1.396295e-03 -21.1047 178.8952)" class="st3" width="3.9" height="42.3"/>
				
					<rect x="78" y="75.6" transform="matrix(1.396295e-03 -1 1 1.396295e-03 -1.5175 159.4754)" class="st3" width="2.1" height="9.8"/>
				<polygon class="st3" points="57.4,117.8 56.2,117.8 62.8,101.9 64.2,101.9 				"/>
				
					<rect x="56.2" y="115.9" transform="matrix(1.396295e-03 -1 1 1.396295e-03 -61.2895 174.1639)" class="st3" width="0.8" height="3.6"/>
				<polygon class="st3" points="68.9,118 67.7,117.8 74.2,101.9 75.6,101.9 				"/>
				
					<rect x="67.7" y="116.1" transform="matrix(1.396295e-03 -1 1 1.396295e-03 -49.9397 185.8099)" class="st3" width="0.8" height="3.6"/>
				<polygon class="st3" points="89,117.8 90.3,117.8 83.6,101.9 82.2,101.9 				"/>
				
					<rect x="89.4" y="116" transform="matrix(1.396295e-03 -1 1 1.396295e-03 -28.1396 207.4403)" class="st3" width="0.8" height="3.6"/>
				<polygon class="st3" points="100.3,118 101.6,118 95,102 93.7,102 				"/>
				
					<rect x="100.6" y="116" transform="matrix(1.396295e-03 -1 1 1.396295e-03 -16.9897 218.7259)" class="st3" width="0.8" height="3.6"/>
				
					<rect x="77.9" y="113.3" transform="matrix(1.396295e-03 -1 1 1.396295e-03 -39.3401 197.0452)" class="st3" width="2.1" height="9.8"/>
				
					<rect x="32.6" y="41.3" transform="matrix(1.396295e-03 -1 1 1.396295e-03 -11.5145 80.7784)" class="st3" width="4.3" height="9.8"/>
				<polygon class="st2" points="49.6,118.3 45.5,103.7 48.4,103.7 48.4,101.5 21.2,101.4 21.2,103.7 23.4,103.7 19.3,118.5 
					17.7,118.5 17.7,119.2 21.4,119.2 21.4,118.5 20.5,118.5 24.8,103.7 31.2,103.7 27,118.3 25.3,118.2 25.3,119.1 29.2,119.1 
					29.2,118.3 28.3,118.3 32.6,103.7 36.7,103.7 41,118.3 39.9,118.3 39.9,119.2 43.9,119.2 43.9,118.3 42.2,118.3 38.1,103.7 
					44.1,103.7 48.3,118.3 47.4,118.3 47.4,119.2 51.3,119.2 51.3,118.3 				"/>
				
					<rect x="33.6" y="76.8" transform="matrix(1.396295e-03 -1 1 1.396295e-03 -54.6846 123.7182)" class="st2" width="2" height="24.8"/>
				
					<rect x="33.7" y="62.9" transform="matrix(1.396295e-03 -1 1 1.396295e-03 -40.6452 109.8584)" class="st2" width="2" height="24.8"/>
				
					<rect x="33.7" y="49.9" transform="matrix(1.396295e-03 -1 1 1.396295e-03 -27.667 96.8784)" class="st2" width="2" height="24.8"/>
			</g>
		</g>
	</g>
</g>
</svg>
