<svg xmlns="http://www.w3.org/2000/svg" viewBox="0 0 120 120"><defs><style>.cls-1{fill:#132930;}.cls-2{fill:#262d30;}.cls-3{fill:#0a171d;}.cls-4{fill:#fff;}.cls-5{fill:#fee159;}.cls-6{fill:#60acbe;}.cls-7{fill:#488ca7;}</style></defs><title>Asset 4</title><g id="Layer_2" data-name="Layer 2"><g id="factory_icon"><rect class="cls-1" width="120" height="120" rx="12" ry="12"/><g id="factory"><g id="factoryGroup"><path class="cls-2" d="M34.72,46.49h0c-6.9,0-12.41,5.27-12.41,11.79l-.13,41.5c0,4.39,4.39,8,10.28,8.65v1.25H37.1v-1.13c5.77-.75,10.16-4.39,10.16-8.65l.13-41.5A12.49,12.49,0,0,0,34.72,46.49Z"/><path class="cls-3" d="M29.2,99.41l.13-40.88c0-5.39,4.26-9.91,10.16-11.28a15.81,15.81,0,0,0-3.51-.5h0c-7.52,0-13.67,5.27-13.67,11.54l-.13,40.88c0,4.26,4.76,7.77,11.16,8.53v1.25h5v-1.25c.38,0,.75-.13,1-.13C33.59,106.8,29.2,103.42,29.2,99.41Z"/><path class="cls-4" d="M37.48,110.19H31.84v-1.25c-6-.88-10.28-4.76-10.28-9l.13-41.5c0-6.77,5.89-12.29,13-12.29s13,5.64,13,12.41L47.63,100c0,4.39-4.26,8.15-10.16,9Zm-4.64-1h3.51v-1.25l.5-.13c5.64-.75,9.65-4.14,9.65-8.15l.13-41.5A11.65,11.65,0,0,0,34.72,46.74c-6.65,0-12,5-12,11.28l-.13,41.5c0,4,4.14,7.4,9.78,8.15l.5.13v1.38Z"/><path class="cls-5" d="M36.85,41V28.69c0-2.26,1.63-3.64,4.26-3.64H72.84c2.63,0,4.26,1.25,4.26,3.64L77,103.54h3.51l.13-77.86c0-2.26-2-4-4.76-4H37.48c-2.63,0-4.76,1.88-4.76,4V47.5l4-1.13Z"/><g id="tartaly1"><ellipse id="tartaly1-2" data-name="tartaly1" class="cls-6" cx="79.02" cy="99.15" rx="18.18" ry="19.18" transform="translate(-20.26 178.01) rotate(-89.91)"/><path class="cls-7" d="M67.95,99.16a24,24,0,0,1,8.4-18.06C67.07,82.23,59.8,89.88,59.8,99.16s7.15,16.68,16.43,18.06A24.3,24.3,0,0,1,67.95,99.16Z"/></g><rect class="cls-5" x="77.07" y="78.89" width="3.89" height="42.26" transform="translate(-21.11 178.89) rotate(-89.92)"/><rect class="cls-5" x="78.03" y="75.61" width="2.13" height="9.78" transform="translate(-1.52 159.48) rotate(-89.92)"/><polygon class="cls-5" points="57.41 117.84 56.16 117.84 62.81 101.91 64.19 101.91 57.41 117.84"/><rect class="cls-5" x="56.19" y="115.96" width="0.75" height="3.64" transform="translate(-61.3 174.17) rotate(-89.92)"/><polygon class="cls-5" points="68.95 117.96 67.7 117.84 74.22 101.91 75.59 101.91 68.95 117.96"/><rect class="cls-5" x="67.69" y="116.09" width="0.75" height="3.64" transform="translate(-49.94 185.81) rotate(-89.92)"/><polygon class="cls-5" points="89.01 117.84 90.27 117.84 83.62 101.91 82.24 101.91 89.01 117.84"/><rect class="cls-5" x="89.42" y="115.99" width="0.75" height="3.64" transform="translate(-28.14 207.44) rotate(-89.92)"/><polygon class="cls-5" points="100.3 117.96 101.55 117.96 95.03 102.04 93.65 102.04 100.3 117.96"/><rect class="cls-5" x="100.65" y="116.05" width="0.75" height="3.64" transform="translate(-16.99 218.73) rotate(-89.92)"/><rect class="cls-5" x="77.93" y="113.33" width="2.13" height="9.78" transform="translate(-39.34 197.05) rotate(-89.92)"/><rect class="cls-5" x="32.56" y="41.26" width="4.26" height="9.78" transform="translate(-11.51 80.78) rotate(-89.92)"/><polygon class="cls-4" points="49.64 118.34 45.5 103.67 48.39 103.67 48.39 101.54 21.18 101.41 21.18 103.67 23.43 103.67 19.3 118.47 17.67 118.47 17.67 119.22 21.43 119.22 21.43 118.47 20.55 118.47 24.81 103.67 31.21 103.67 26.95 118.34 25.32 118.21 25.32 119.09 29.2 119.09 29.2 118.34 28.32 118.34 32.59 103.67 36.73 103.67 40.99 118.34 39.86 118.34 39.86 119.22 43.87 119.22 43.87 118.34 42.24 118.34 38.1 103.67 44.12 103.67 48.26 118.34 47.38 118.34 47.38 119.22 51.27 119.22 51.27 118.34 49.64 118.34"/><rect class="cls-4" x="33.6" y="76.83" width="2.01" height="24.83" transform="translate(-54.69 123.72) rotate(-89.92)"/><rect class="cls-4" x="33.68" y="62.87" width="2.01" height="24.83" transform="translate(-40.65 109.86) rotate(-89.92)"/><rect class="cls-4" x="33.67" y="49.88" width="2.01" height="24.83" transform="translate(-27.67 96.88) rotate(-89.92)"/></g></g></g></g></svg>