<svg xmlns="http://www.w3.org/2000/svg" viewBox="0 0 120 120"><defs><style>.cls-1{fill:#132930;}.cls-2{fill:#f9d026;}.cls-3{fill:#e7c224;}.cls-4{fill:#f74d37;}.cls-5{fill:#c43d2c;}.cls-6{fill:#edeef0;}.cls-7{fill:#dcdee2;}.cls-8{fill:#444242;}.cls-9{fill:#3a3839;}.cls-10{fill:#bce8f7;}.cls-11{fill:#8ec1d6;}</style></defs><title>Asset 18</title><g id="Layer_2" data-name="Layer 2"><g id="history"><circle class="cls-1" cx="60" cy="60" r="60"/><path class="cls-2" d="M28.86,53.77l3,1.57L21,56.34l4.18,2.33-13,2.23,13,1.95-4.14,2.42L32,66l-2.95,1.62s15.07,2.62,15-7.13S28.91,53.73,28.86,53.77Z"/><path class="cls-3" d="M28.91,53.77l3,1.57-10.84,1,4.18,2.33-13,2.23L44,60.53C43.94,50.78,28.91,53.73,28.91,53.77Z"/><polygon class="cls-4" points="68.81 70.08 59.01 84.21 46.36 84.4 56.2 70.23 68.81 70.08"/><polygon class="cls-5" points="68.61 50.4 58.44 36.52 45.84 36.66 55.97 50.54 68.61 50.4"/><path class="cls-6" d="M80.22,48.5l-29.77.33c-4.52,0-8.65,4.18-8.56,11.7S46.17,72.08,50.69,72l29.77-.33a28.11,28.11,0,0,0,7.8-1.14c10.75-3,19-10.75,19-10.75S98.86,52.25,88,49.5A32.75,32.75,0,0,0,80.22,48.5Z"/><path class="cls-7" d="M80.22,48.54l-29.77.33c-4.52,0-8.65,4.18-8.56,11.7l8.7-.1,37.52-.43,19.16-.24S98.86,52.25,88,49.5A30.46,30.46,0,0,0,80.22,48.54Z"/><path class="cls-4" d="M88,49.54l.14,10.51.14,10.51c10.75-3,19-10.75,19-10.75S98.81,52.25,88,49.54Z"/><path class="cls-8" d="M50.5,48.88c-4.52,0-8.65,4.18-8.56,11.7s4.28,11.55,8.8,11.51l-.14-11.6Z"/><path class="cls-9" d="M41.89,60.57l8.7-.1-.14-11.6C45.93,48.92,41.85,53,41.89,60.57Z"/><circle class="cls-10" cx="76.27" cy="60.14" r="5.37" transform="translate(-20.05 72.65) rotate(-45.66)"/><polygon class="cls-4" points="46.08 57.67 29.29 60.72 29.29 60.72 46.13 63.33 62.96 60.34 62.96 60.34 46.08 57.67"/><polygon class="cls-5" points="29.29 60.72 29.29 60.72 62.96 60.34 62.96 60.34 46.08 57.67 29.29 60.72"/><path class="cls-5" d="M88,49.54l.14,10.51,19.16-.24S98.81,52.25,88,49.54Z"/><path class="cls-11" d="M70.95,60.24l10.7-.14a5.35,5.35,0,1,0-10.7.14Z"/></g></g></svg>