<?xml version="1.0" encoding="utf-8"?>
<!-- Generator: Adobe Illustrator 21.0.2, SVG Export Plug-In . SVG Version: 6.00 Build 0)  -->
<svg version="1.1" id="Layer_1" xmlns="http://www.w3.org/2000/svg" xmlns:xlink="http://www.w3.org/1999/xlink" x="0px" y="0px"
	 viewBox="0 0 279.9 253" style="enable-background:new 0 0 279.9 253;" xml:space="preserve">
<style type="text/css">
	.st0{fill:#FFFFFF;}
</style>
<g>
	<path class="st0" d="M255.4,27.8c-41.4-41.5-82.5-23.3-115.4,6.2C107,4.5,66.3-13.9,24.5,27.8c-32.6,32.6-32.7,84.9,0,117.2
		c115.1,103.5,115.1,103.3,115.1,103.3s0.2,0.3,115.8-103.3C288.1,112.7,287.9,60.4,255.4,27.8z"/>
	<path class="st0" d="M139.9,34.1L139.9,34.1l-0.1,214.1c1.8-1.6,15.4-13.3,115.5-103.1c32.7-32.4,32.6-84.7,0-117.2
		C213.9-13.6,172.8,4.5,139.9,34.1z"/>
</g>
</svg>
