<svg xmlns="http://www.w3.org/2000/svg" viewBox="0 0 120 120"><defs><style>.cls-1{fill:#132930;}.cls-2{fill:#e5c400;}.cls-3{fill:#ddc75c;}.cls-3,.cls-7,.cls-8{opacity:0.4;}.cls-3,.cls-7,.cls-8,.cls-9{isolation:isolate;}.cls-4,.cls-8{fill:#fee159;}.cls-5{fill:gray;}.cls-6,.cls-9{fill:#464646;}.cls-7{fill:#5b5b5f;}.cls-9{opacity:0.3;}</style></defs><title>Asset 19</title><g id="Layer_2" data-name="Layer 2"><g id="leadreboard"><circle class="cls-1" cx="60" cy="60" r="60"/><g id="Layer_1-2" data-name="Layer 1"><path class="cls-2" d="M50.29,57.19A26,26,0,0,1,34.5,40.77,30,30,0,0,1,33.06,30l.14-1.39H44.82V31.7H36.13a27.58,27.58,0,0,0,1.34,8.21,22.67,22.67,0,0,0,13.92,14.4Z"/><path class="cls-3" d="M50.29,57.19A26,26,0,0,1,34.5,40.77,30,30,0,0,1,33.06,30l.14-1.39H44.82V31.7H36.13a27.58,27.58,0,0,0,1.34,8.21,22.67,22.67,0,0,0,13.92,14.4Z"/><rect class="cls-4" x="57.06" y="60.5" width="5.28" height="13.39"/><path class="cls-2" d="M73.09,79.22H46.31V78.07a4.18,4.18,0,0,1,4.18-4.18H68.87A4.18,4.18,0,0,1,73,78.07l0,1.15Z"/><rect class="cls-5" x="42.95" y="79.22" width="33.55" height="16.51"/><rect class="cls-6" x="41.17" y="95.01" width="37.1" height="3.98"/><rect class="cls-7" x="57.06" y="60.5" width="5.28" height="3.55"/><path class="cls-4" d="M86.34,30l-.14-1.39H77.75V27H41.65c0,12.14,3,35,18,35a13,13,0,0,0,10.56-5.33A25.92,25.92,0,0,0,84.9,40.77,30,30,0,0,0,86.34,30Zm-4.42,9.84a22.21,22.21,0,0,1-8.5,11.62c2.69-6,3.84-13.49,4.18-19.73h5.66A27.27,27.27,0,0,1,81.92,39.81Z"/><path class="cls-8" d="M73.09,79.22H46.31V78.07a4.18,4.18,0,0,1,4.18-4.18H68.87A4.18,4.18,0,0,1,73,78.07l0,1.15Z"/><path class="cls-9" d="M86.34,30l-.14-1.39H77.75V27h-18V99H78.23V95H76.45V79.22H73.09V78.07a4.18,4.18,0,0,0-4.18-4.18H62.39v-12a13.47,13.47,0,0,0,7.92-5.09A25.92,25.92,0,0,0,84.95,40.82,30.87,30.87,0,0,0,86.34,30Zm-4.42,9.84a22.21,22.21,0,0,1-8.5,11.62c2.69-6,3.84-13.49,4.18-19.73h5.66A27.27,27.27,0,0,1,81.92,39.81Z"/></g></g></g></svg>