<?xml version="1.0" encoding="utf-8"?>
<!-- Generator: Adobe Illustrator 21.0.2, SVG Export Plug-In . SVG Version: 6.00 Build 0)  -->
<svg version="1.1" id="Layer_1" xmlns="http://www.w3.org/2000/svg" xmlns:xlink="http://www.w3.org/1999/xlink" x="0px" y="0px"
	 viewBox="0 0 75 75" style="enable-background:new 0 0 75 75;" xml:space="preserve">
<style type="text/css">
	.st0{fill:#0A171D;}
	.st1{fill:#BBBBBB;}
	.st2{fill:#AAAAAA;}
	.st3{fill:#C5572C;}
	.st4{fill:#FFFFEE;}
</style>
<circle class="st0" cx="37.5" cy="37.5" r="37.5"/>
<g>
	<rect x="13.7" y="51.1" class="st1" width="49.3" height="6.6"/>
	<rect x="17.6" y="46.5" class="st2" width="41.4" height="4.6"/>
	<path class="st3" d="M54.2,24.9c0-7.2-5.8-12.9-12.9-12.9h-5.8c-7.2,0-12.9,5.8-12.9,12.9v21.6h31.6L54.2,24.9L54.2,24.9z"/>
	<g>
		<path class="st4" d="M30.5,32.4V36h-1.7v-9.1h2.8c0.7,0,1.2,0,1.6,0.1c0.4,0.1,0.8,0.3,1.1,0.5c0.3,0.3,0.5,0.5,0.7,0.8
			c0.1,0.3,0.1,0.7,0.1,1.1c0,0.3,0,0.5-0.1,0.8c-0.1,0.3-0.3,0.5-0.4,0.8c-0.1,0.3-0.4,0.4-0.7,0.5c-0.1,0.3-0.4,0.4-0.8,0.4
			c0.3,0.1,0.4,0.3,0.5,0.5l2.3,3.4h-1.5c-0.1,0-0.3,0-0.4-0.1c-0.1,0-0.1-0.1-0.3-0.3l-1.9-3c-0.1-0.1-0.1-0.1-0.3-0.3
			c-0.1,0-0.3-0.1-0.4-0.1L30.5,32.4L30.5,32.4z M30.5,31.2h1.1c0.3,0,0.5,0,0.8-0.1c0.3-0.1,0.4-0.1,0.5-0.3
			c0.1-0.1,0.3-0.3,0.4-0.5c0.1-0.1,0.1-0.4,0.1-0.7c0-0.4-0.1-0.8-0.4-1.1c-0.3-0.3-0.8-0.4-1.3-0.4h-1.1v3.1H30.5z"/>
		<path class="st4" d="M39,35.9h-1.7v-9.1H39V35.9z"/>
		<path class="st4" d="M42.8,32.6v3.2H41v-9.1h3c0.7,0,1.1,0.1,1.6,0.3c0.4,0.1,0.8,0.4,1.1,0.5c0.3,0.3,0.5,0.5,0.7,0.9
			c0.1,0.4,0.3,0.8,0.3,1.2c0,0.4-0.1,0.8-0.3,1.2c-0.1,0.4-0.4,0.7-0.7,0.9c-0.3,0.3-0.7,0.4-1.1,0.7c-0.4,0.3-0.9,0.3-1.6,0.3
			C44.1,32.6,42.8,32.6,42.8,32.6z M42.8,31.4H44c0.3,0,0.5,0,0.8-0.1c0.3-0.1,0.4-0.1,0.5-0.3s0.3-0.3,0.4-0.5
			c0.1-0.3,0.1-0.4,0.1-0.7c0-0.3,0-0.4-0.1-0.7c-0.1-0.1-0.1-0.4-0.4-0.5c-0.1-0.1-0.4-0.3-0.5-0.3c-0.3-0.1-0.5-0.1-0.8-0.1h-1.2
			V31.4z"/>
	</g>
</g>
</svg>
