<?xml version="1.0" encoding="utf-8"?>
<!-- Generator: Adobe Illustrator 21.0.2, SVG Export Plug-In . SVG Version: 6.00 Build 0)  -->
<svg version="1.1" id="Layer_1" xmlns="http://www.w3.org/2000/svg" xmlns:xlink="http://www.w3.org/1999/xlink" x="0px" y="0px"
	 viewBox="0 0 75 75" style="enable-background:new 0 0 75 75;" xml:space="preserve">
<style type="text/css">
	.st0{fill:#F0F0F0;}
	.st1{fill:#7C932C;}
	.st2{fill:#132930;}
	.st3{fill:#0A1518;}
	.st4{fill:#FC6E23;}
	.st5{fill:#FFFFEE;}
</style>
<circle class="st0" cx="37.5" cy="37.5" r="37.5"/>
<path class="st1" d="M5.8,57.6C12.5,68,24.2,75,37.5,75s25-7,31.7-17.4H5.8z"/>
<g>
	<rect x="13.7" y="51.1" class="st2" width="49.3" height="6.8"/>
	<rect x="17.6" y="46.5" class="st3" width="41.4" height="4.9"/>
	<path class="st4" d="M54.2,24.9c0-7.2-5.8-12.9-12.9-12.9h-5.8c-7.2,0-12.9,5.8-12.9,12.9v21.6h31.6L54.2,24.9L54.2,24.9z"/>
	<g>
		<path class="st5" d="M33.1,31.3v2.7h-1.3v-6.8h2.1c0.5,0,0.9,0,1.2,0.1c0.3,0.1,0.6,0.2,0.8,0.4c0.2,0.2,0.4,0.4,0.5,0.6
			c0.1,0.2,0.1,0.5,0.1,0.8c0,0.2,0,0.4-0.1,0.6c-0.1,0.2-0.2,0.4-0.3,0.6c-0.1,0.2-0.3,0.3-0.5,0.4C35.5,30.9,35.3,31,35,31
			c0.2,0.1,0.3,0.2,0.4,0.4l1.7,2.5H36c-0.1,0-0.2,0-0.3-0.1c-0.1,0-0.1-0.1-0.2-0.2l-1.4-2.2c-0.1-0.1-0.1-0.1-0.2-0.2
			c-0.1,0-0.2-0.1-0.3-0.1L33.1,31.3L33.1,31.3z M33.1,30.4h0.8c0.2,0,0.4,0,0.6-0.1c0.2-0.1,0.3-0.1,0.4-0.2s0.2-0.2,0.3-0.4
			c0.1-0.1,0.1-0.3,0.1-0.5c0-0.3-0.1-0.6-0.3-0.8c-0.2-0.2-0.6-0.3-1-0.3h-0.8V30.4z"/>
		<path class="st5" d="M39.4,33.9h-1.3v-6.8h1.3V33.9z"/>
		<path class="st5" d="M42.2,31.5v2.4h-1.3v-6.8h2.2c0.5,0,0.8,0.1,1.2,0.2c0.3,0.1,0.6,0.3,0.8,0.4c0.2,0.2,0.4,0.4,0.5,0.7
			c0.1,0.3,0.2,0.6,0.2,0.9c0,0.3-0.1,0.6-0.2,0.9s-0.3,0.5-0.5,0.7c-0.2,0.2-0.5,0.3-0.8,0.5s-0.7,0.2-1.2,0.2
			C43.2,31.5,42.2,31.5,42.2,31.5z M42.2,30.6h0.9c0.2,0,0.4,0,0.6-0.1c0.2-0.1,0.3-0.1,0.4-0.2c0.1-0.1,0.2-0.2,0.3-0.4
			c0.1-0.2,0.1-0.3,0.1-0.5c0-0.2,0-0.3-0.1-0.5c-0.1-0.1-0.1-0.3-0.3-0.4c-0.1-0.1-0.3-0.2-0.4-0.2c-0.2-0.1-0.4-0.1-0.6-0.1h-0.9
			V30.6z"/>
	</g>
</g>
</svg>
