<?xml version="1.0" encoding="utf-8"?>
<!-- Generator: Adobe Illustrator 21.0.2, SVG Export Plug-In . SVG Version: 6.00 Build 0)  -->
<svg version="1.1" id="Layer_1" xmlns="http://www.w3.org/2000/svg" xmlns:xlink="http://www.w3.org/1999/xlink" x="0px" y="0px"
	 viewBox="0 0 120 120" style="enable-background:new 0 0 120 120;" xml:space="preserve">
<style type="text/css">
	.st0{fill:#132930;}
	.st1{fill:#DD6231;stroke:#FC6E23;stroke-miterlimit:10;}
	.st2{fill:#FC6E23;stroke:#FC6E23;stroke-miterlimit:10;}
	.st3{fill:#944121;}
	.st4{fill:#C5572C;}
</style>
<g id="Layer_2">
	<g id="leadreboard">
		<circle class="st0" cx="60" cy="60" r="60"/>
		<g id="Layer_1_1_">
			<g>
				<g>
					<ellipse class="st1" cx="60.1" cy="60.2" rx="37.4" ry="37.3"/>
					<path class="st2" d="M95.9,49.3C91.3,33.8,77,22.5,59.9,22.5c-20.7,0-37.4,16.7-37.4,37.3c0,8.6,2.9,16.5,7.8,22.8
						c6.2,3.2,13.2,5,20.7,5C73.8,87.6,92.6,70.9,95.9,49.3z"/>
				</g>
				<g>
					<path class="st3" d="M90.5,74.2c0.7-1.4,1.8-2.4,2.4-2.1c0.6,0.3,0.6,1.7-0.1,3.1c-0.7,1.4-1.8,2.4-2.4,2.1
						C89.7,77.1,89.8,75.7,90.5,74.2z"/>
					<path class="st4" d="M67.3,41.9c0.4-0.8,1.5-1,2.5-0.5c1,0.5,1.5,1.5,1.1,2.3c-0.4,0.8-1.5,1-2.5,0.5S66.9,42.7,67.3,41.9z"/>
					
						<ellipse transform="matrix(0.3135 -0.9496 0.9496 0.3135 -25.2718 78.6205)" class="st4" cx="41.7" cy="56.8" rx="2" ry="1.5"/>
					<path class="st4" d="M75.8,80.4c3.5-2.2,7.1-2.5,8.2-0.8s-0.9,4.8-4.3,7s-7.1,2.5-8.2,0.8C70.4,85.7,72.4,82.6,75.8,80.4z"/>
					<path class="st3" d="M76.6,81.7c3.1-1.9,6.3-2.4,7.7-1.3c0-0.3-0.1-0.6-0.3-0.9c-1-1.7-4.7-1.3-8.2,0.8s-5.4,5.3-4.3,7
						c0.1,0.2,0.2,0.3,0.4,0.5C71.8,86,73.6,83.5,76.6,81.7z"/>
					<path class="st4" d="M80.2,60.6c0.8-3.4,3.4-5.7,5.9-5.2s3.8,3.8,3,7.2s-3.4,5.7-5.9,5.2S79.4,64.1,80.2,60.6z"/>
					<path class="st3" d="M80.2,62.6c0.8-3.4,3.4-5.7,5.9-5.2c1.8,0.4,3,2.3,3.2,4.7c0.5-3.2-0.8-6.1-3.1-6.6
						c-2.4-0.5-5.1,1.7-5.9,5.2c-0.2,0.9-0.2,1.7-0.2,2.5C80.1,63,80.1,62.8,80.2,62.6z"/>
					<path class="st4" d="M44.1,63.4c2.6-1.2,6.3,1.1,8.1,5.1s1.2,8.2-1.5,9.4c-2.6,1.2-6.3-1.1-8.1-5.1S41.4,64.6,44.1,63.4z"/>
					<path class="st3" d="M44.5,65c2.6-1.2,6.2,1.1,8.1,5.1c0.2,0.4,0.4,0.9,0.5,1.4c-0.1-1-0.4-2-0.9-3c-1.8-4-5.4-6.3-8.1-5.1
						c-2.3,1-3.1,4.5-2,8C41.6,68.5,42.5,65.9,44.5,65z"/>
					<path class="st4" d="M41.3,84.1c0.6-1.7,4.2-2,8-0.7c3.8,1.3,6.4,3.8,5.8,5.5c-0.6,1.7-4.2,2-8,0.7
						C43.3,88.2,40.7,85.8,41.3,84.1z"/>
					<path class="st3" d="M41.6,85.8c0.6-1.7,4.1-2,8-0.7c2.6,0.9,4.6,2.3,5.5,3.7c0.4-1.7-2.1-4.1-5.8-5.4c-3.8-1.3-7.4-1-8,0.7
						c-0.2,0.5,0,1.1,0.3,1.8C41.6,85.9,41.6,85.8,41.6,85.8z"/>
					<path class="st4" d="M34.1,45c1.7-4.2,4.6-7.1,6.5-6.3c1.9,0.8,2.1,4.8,0.4,9c-1.7,4.2-4.6,7.1-6.5,6.3
						C32.5,53.3,32.4,49.3,34.1,45z"/>
					<path class="st3" d="M33.9,46.4c1.7-4.2,4.8-7,7-6.1c0.4,0.1,0.7,0.4,1,0.7c-0.2-1.2-0.7-2.1-1.4-2.4c-1.9-0.7-4.8,2-6.5,6.3
						c-0.9,2.4-1.3,4.7-1.1,6.4C32.9,49.9,33.2,48.1,33.9,46.4z"/>
					<path class="st4" d="M59.3,27.5c0.6-2.1,4.5-2.9,8.8-1.7s7.3,3.9,6.7,6c-0.6,2.1-4.5,2.9-8.8,1.7
						C61.7,32.3,58.7,29.6,59.3,27.5z"/>
					<path class="st3" d="M68,25.8c-4.3-1.2-8.2-0.4-8.8,1.6c-0.1,0.3-0.1,0.6,0,0.9c1.2-1.5,4.7-1.9,8.4-0.9c3.7,1,6.4,3.1,6.7,5.1
						c0.2-0.2,0.3-0.5,0.4-0.7C75.3,29.7,72.3,27,68,25.8z"/>
					<path class="st4" d="M29.4,58.7c1.7-0.5,4,2.2,5.3,6.1s0.8,7.5-0.8,8c-1.7,0.5-4-2.2-5.3-6.1C27.4,62.8,27.8,59.2,29.4,58.7z"
						/>
					<path class="st3" d="M30.3,67.5c-1.2-3.9-0.8-7.5,0.8-8c0.1,0,0.3,0,0.4,0c-0.7-0.6-1.5-0.9-2.1-0.7c-1.7,0.5-2,4.1-0.8,8
						c1.1,3.6,3.1,6.2,4.8,6.2C32.2,71.8,31,69.9,30.3,67.5z"/>
					<path class="st4" d="M65.8,92.4c3-0.9,5.7-0.8,5.9,0.1c0.3,0.9-2,2.3-5,3.2s-5.7,0.8-5.9-0.1C60.6,94.7,62.8,93.3,65.8,92.4z"
						/>
					<path class="st3" d="M66.5,93.3c2.2-0.6,4.2-0.8,5.2-0.5c0-0.1,0-0.2,0-0.3c-0.2-0.9-2.9-0.9-5.9,0s-5.2,2.3-5,3.2
						c0,0.2,0.3,0.4,0.7,0.5C61.8,95.3,63.8,94.1,66.5,93.3z"/>
					<path class="st4" d="M70.8,69.4c1.5-0.9,3.2-0.7,3.8,0.4s-0.1,2.7-1.5,3.5c-1.5,0.9-3.2,0.7-3.8-0.4
						C68.6,71.8,69.3,70.2,70.8,69.4z"/>
					<path class="st3" d="M71.1,70.3c1.4-0.8,3-0.7,3.7,0.2c0-0.3-0.1-0.6-0.2-0.8c-0.6-1.1-2.3-1.3-3.8-0.4
						c-1.5,0.8-2.2,2.4-1.5,3.5c0,0,0.1,0.1,0.1,0.2C69.3,72.1,70,71,71.1,70.3z"/>
					<path class="st4" d="M78.9,36.4c1.8-1,5.3,1.6,7.9,6c2.5,4.4,3.1,8.7,1.3,9.8c-1.8,1-5.3-1.6-7.9-6
						C77.6,41.8,77.1,37.5,78.9,36.4z"/>
					<path class="st3" d="M82.4,47.9c-2.5-4.4-3.1-8.8-1.3-9.8c0.7-0.4,1.7-0.2,2.8,0.4c-1.8-1.8-3.6-2.6-4.8-1.9
						c-1.8,1-1.2,5.4,1.3,9.8c1.5,2.6,3.4,4.7,5.1,5.6C84.4,50.9,83.3,49.5,82.4,47.9z"/>
					<path class="st4" d="M27.8,43.6c0.9-1.6,2.2-2.6,2.9-2.2c0.7,0.4,0.5,2-0.4,3.6s-2.2,2.6-2.9,2.2S26.9,45.2,27.8,43.6z"/>
					<path class="st3" d="M29,44.4c0.6-1.1,1.5-2,2.2-2.2c0-0.4-0.1-0.7-0.4-0.9c-0.7-0.4-2,0.6-2.9,2.2c-0.9,1.6-1.1,3.2-0.4,3.6
						c0.2,0.1,0.4,0.1,0.7,0C28.1,46.4,28.4,45.4,29,44.4z"/>
					<path class="st4" d="M42.9,28.3c2.5-1.7,5-2.4,5.6-1.7s-1.1,2.8-3.7,4.5c-2.5,1.7-5,2.4-5.6,1.7S40.3,30,42.9,28.3z"/>
					<path class="st3" d="M43.5,29.4c1.9-1.3,3.8-2,4.9-2c0.1-0.3,0.2-0.7,0-0.9c-0.5-0.7-3,0-5.5,1.7c-2.5,1.7-4.2,3.7-3.7,4.5
						c0.1,0.2,0.3,0.3,0.6,0.3C40.3,32,41.6,30.7,43.5,29.4z"/>
					<ellipse class="st4" cx="61.2" cy="56.1" rx="8" ry="8"/>
					<path class="st3" d="M54,58.3c0-4.4,3.6-8,8-8c2.8,0,5.4,1.5,6.8,3.8c-0.9-3.4-4-6-7.7-6c-4.4,0-8,3.6-8,8c0,1.5,0.4,3,1.2,4.2
						C54.1,59.6,54,59,54,58.3z"/>
					<path class="st4" d="M46.3,42.2c0.9-1.8,2.7-2.8,4.1-2.1c1.4,0.7,1.8,2.7,0.9,4.5c-0.9,1.8-2.7,2.8-4.1,2.1
						C45.8,46,45.5,44,46.3,42.2z"/>
					<path class="st3" d="M46.8,43.4c0.9-1.8,2.7-2.8,4-2.1c0.2,0.1,0.5,0.3,0.7,0.5c-0.1-0.8-0.6-1.4-1.2-1.7
						c-1.3-0.6-3.2,0.3-4,2.1c-0.7,1.4-0.6,3,0.1,3.9C46.3,45.3,46.4,44.4,46.8,43.4z"/>
					<path class="st4" d="M28.7,75.1c0.7-0.6,3,0.9,5.1,3.4s3.1,5,2.4,5.6c-0.7,0.6-3-0.9-5.1-3.4S27.9,75.7,28.7,75.1z"/>
					<path class="st3" d="M29.3,76.5c0.7-0.6,3,0.9,5.1,3.4c0.7,0.9,1.3,1.8,1.8,2.6c-0.3-1.1-1.2-2.5-2.4-4c-2-2.5-4.3-4-5.1-3.4
						c-0.4,0.4-0.2,1.5,0.6,3C29,77.4,29,76.8,29.3,76.5z"/>
					
						<ellipse transform="matrix(0.9543 -0.2989 0.2989 0.9543 -21.6673 22.4832)" class="st4" cx="62.7" cy="82.1" rx="2.5" ry="1.8"/>
					<path class="st3" d="M62.2,80.2c-1.3,0.4-2.2,1.5-1.9,2.5c0,0.2,0.1,0.4,0.3,0.5c0.2-0.7,0.9-1.4,1.9-1.7
						c1-0.3,2.1-0.1,2.6,0.4c0-0.2,0-0.5,0-0.7C64.8,80.3,63.5,79.8,62.2,80.2z"/>
				</g>
			</g>
		</g>
	</g>
</g>
</svg>
