<?xml version="1.0" encoding="utf-8"?>
<!-- Generator: Adobe Illustrator 21.0.2, SVG Export Plug-In . SVG Version: 6.00 Build 0)  -->
<svg version="1.1" id="Layer_1" xmlns="http://www.w3.org/2000/svg" xmlns:xlink="http://www.w3.org/1999/xlink" x="0px" y="0px"
	 viewBox="0 0 120 120" style="enable-background:new 0 0 120 120;" xml:space="preserve">
<style type="text/css">
	.st0{fill:#F0F0F0;}
	.st1{fill:#D6D6CC;}
	.st2{fill:#FFFFEE;}
	.st3{fill:#60ACBE;}
</style>
<g id="Layer_2">
	<g id="mine_icon">
		<g id="mine">
			<g id="mineGroup">
				<g id="arm_front">
					<g id="hand">
						<path class="st0" d="M33.8,3c0.1,1.7,0.5,3.3,1.4,4.8c0.2,0.5,0.7,0.8,1.2,1c0.3,0.1,0.5,0.3,0.7,0.4c0.3,0.1,0.5,0.3,0.8,0.3
							c0.9,0.4,1.9,0.4,2.8,0c1.5-0.8,2.9-1.9,4.2-3.1c0.3,1,0.3,2.1,0,3.1c-0.2,1.1-0.7,2.2-1.5,3c-0.9,1.1-2,1.8-3.4,2.2
							c-1.3,0.3-2.7,0.2-4-0.3c-0.6-0.2-1.2-0.5-1.7-0.8c-0.3-0.2-0.5-0.4-0.7-0.6c-0.2-0.2-0.5-0.4-0.7-0.6c-0.9-1-1.5-2.2-1.7-3.6
							C31,6.6,31.9,4.3,33.8,3z"/>
					</g>
					<polygon id="arm2" class="st1" points="27.4,49.9 34.7,15.8 36.5,16.4 29.2,50.5 					"/>
					<polygon id="arm1" class="st1" points="27.5,50.1 62.4,28.3 63.5,29.6 28.5,51.4 					"/>
					<path id="circe2" class="st2" d="M37.9,16.6c-0.8,0.9-2.1,1-2.9,0.2c-0.9-0.6-1.3-1.8-0.7-2.7c0,0,0-0.1,0.1-0.1
						c0.9-0.9,2.3-0.9,3.2,0C38.2,14.6,38.3,15.7,37.9,16.6z M36.4,14.9c-0.2-0.2-0.6-0.2-0.8,0c0,0,0,0.1-0.1,0.1
						c-0.2,0.3-0.1,0.6,0.1,0.8c0,0,0,0,0.1,0c0.2,0.2,0.6,0.2,0.8,0c0,0,0-0.1,0.1-0.1C36.8,15.5,36.7,15.1,36.4,14.9z"/>
					<path id="circle1" class="st2" d="M29.7,51.1c-0.1,1.1-1,2-2.2,1.9c0,0,0,0,0,0c-1,0.2-2-0.6-2.2-1.6c-0.2-1,0.6-2,1.6-2.2
						c0.2,0,0.4,0,0.6,0c1-0.2,2,0.6,2.2,1.6C29.7,50.9,29.7,51,29.7,51.1z M27.5,50.6c-0.3,0-0.6,0.2-0.6,0.5
						c0,0.3,0.2,0.5,0.6,0.5s0.6-0.2,0.6-0.5S27.9,50.6,27.5,50.6z"/>
				</g>
				<polygon id="arm_back" class="st1" points="74.7,11.9 67.1,26.6 65.6,26 73,11.2 				"/>
				<g id="fire1">
					<path id="fire_orange" class="st3" d="M54.2,103.6c2.1,0,3.9,1.4,4.6,3.4c1.6,3.7-4.9,10.1-4.9,10.1s-6.1-6.3-4.6-10.3
						C50.2,104.8,52.1,103.6,54.2,103.6z"/>
					<path id="fire_yellow" class="st2" d="M54.2,103.6c0.9,0,1.7,0.6,2,1.5c0.7,1.7-2.2,4.5-2.2,4.5s-2.7-2.7-2-4.5
						C52.4,104.2,53.3,103.6,54.2,103.6z"/>
				</g>
				<g id="fire2">
					<path id="fire_orange-2" class="st3" d="M78.5,104.2c2.1,0,3.9,1.4,4.6,3.4c1.6,3.7-4.9,10.1-4.9,10.1s-6.1-6.3-4.6-10.3
						C74.3,105.4,76.3,104.2,78.5,104.2z"/>
					<path id="fire_yellow-2" class="st2" d="M78.5,104.2c0.9,0,1.7,0.6,2,1.5c0.7,1.7-2.2,4.5-2.2,4.5s-2.7-2.7-2-4.5
						C76.5,104.8,77.5,104.2,78.5,104.2z"/>
				</g>
				<g id="mine_base">
					<rect x="74.5" y="92.8" class="st2" width="7.5" height="6.7"/>
					<rect x="74.5" y="92.8" class="st1" width="3.9" height="6.7"/>
					<rect x="72.6" y="99.4" class="st2" width="11.5" height="2.2"/>
					<rect x="72.8" y="99.4" class="st1" width="5.5" height="2.2"/>
					<path class="st1" d="M84.6,102H72.2v-3h12.4V102z M73,101.3h10.8v-1.5H73V101.3z"/>
					<rect x="50.3" y="92.8" class="st2" width="7.5" height="6.7"/>
					<rect x="50.3" y="92.8" class="st1" width="3.9" height="6.7"/>
					<rect x="48.4" y="99.4" class="st2" width="11.5" height="2.2"/>
					<rect x="48.7" y="99.4" class="st1" width="5.5" height="2.2"/>
					<path class="st1" d="M60.4,102H48v-3h12.4V102z M48.8,101.3h10.8v-1.5H48.8L48.8,101.3z"/>
					<rect x="56.2" y="38.5" class="st1" width="9.2" height="4.2"/>
					<rect x="65.4" y="38.5" class="st2" width="9.2" height="4.3"/>
					<path class="st2" d="M76.2,81l-4.2-38.3H58.7L54.5,81h-2.1v6.4h2.3V82h21.8v5.3h2.3V81H76.2z M73.5,72.5l-7-3.4v-0.4l6.3-2.9
						L73.5,72.5z M66.5,58.2h4.9l-4.9,2.3V58.2z M66.5,65v-2.7l5.6,2.7H66.5z M72.2,65.5l-5.7,2.6v-2.6H72.2z M66.5,69.8l6.4,3h-6.4
						V69.8z M66.5,73.4H73l-6.5,2.8L66.5,73.4z M66.5,61.7v-0.5l5.6-2.7l0.6,6.3L66.5,61.7z M66.5,44H70l-3.5,2.1V44z M66.5,46.9
						l4-2.5l0.6,5.8l-4.6-2.7V46.9z M66.5,48l4.1,2.5h-4.1V48z M66.5,51h4.2l-4.2,2.2V51z M66.5,53.9l4.7-2.5l0.6,6l-5.3-3
						C66.5,54.3,66.5,53.9,66.5,53.9z M71.4,57.8h-4.9V55L71.4,57.8z M64.6,57.8h-5.2l5.2-2.8L64.6,57.8z M64.6,51v2.3l-4-2.3H64.6z
						 M60.5,50.5l4.1-2.5v2.5H60.5z M64.6,44v2.3L60.8,44H64.6z M60.3,44.3l4.3,2.6v0.4l-4.9,3.1L60.3,44.3z M59.6,51l5,2.8v0.3
						l-5.7,3.1L59.6,51z M64.6,80.9h-7.5l7.5-3.4V80.9z M64.6,77.1l-8.3,3.6l0.7-7l7.5,3.3V77.1z M64.6,76.3l-6.7-2.9h6.7V76.3z
						 M64.6,72.9h-6.8l6.8-3.1V72.9z M64.6,69.1l-7.3,3.5l0.7-6.8l6.6,3.1V69.1z M64.6,68.4l-5.9-2.7h5.9V68.4z M64.6,65h-6.1
						l6.1-2.9V65z M64.6,61.5l-6.5,3.1l0.6-6.1C58.8,58.6,64.6,61.5,64.6,61.5z M59.4,58.2h5.2v2.5L59.4,58.2z M66.5,80.9v-3.1
						l7.2,3.1H66.5z M66.5,77.2v-0.3l7.1-3.1l0.7,6.9L66.5,77.2z"/>
					<path class="st1" d="M68.7,30.1H62v8.4h6.7V30.1z M67.5,30.8l-2.2,2.8l-2.2-2.8H67.5z M62.8,31.7l2,2.7l-2,2.7V31.7z
						 M63.1,37.9l2.2-2.8l2.2,2.8H63.1z M67.9,37l-2-2.7l2-2.7V37z"/>
					<path class="st1" d="M65.6,42.7h-6.8L54.5,81h-2.1v6.4h2.3V82h10.8V42.7z M64.6,80.9h-7.5l7.5-3.4V80.9z M64.6,77.1l-8.3,3.6
						l0.7-7l7.5,3.3V77.1z M64.6,76.3l-6.7-2.9h6.7V76.3z M64.6,72.9h-6.8l6.8-3.1V72.9z M64.6,69.1l-7.3,3.5l0.7-6.8l6.6,3.1V69.1z
						 M64.6,68.4l-5.9-2.7h5.9V68.4z M64.6,65h-6.1l6.1-2.9V65z M64.6,61.5l-6.5,3.1l0.6-6.1C58.8,58.6,64.6,61.5,64.6,61.5z
						 M64.6,60.9l-5.2-2.5h5.2V60.9z M64.6,57.8h-5.2l5.2-2.8V57.8z M64.6,54.3L59,57.4l0.6-6.3l5,2.8V54.3z M64.6,53.3l-4-2.3h4
						V53.3z M64.6,50.5h-4.1l4.1-2.5V50.5z M64.6,47.3l-4.9,3.1l0.6-6.1l4.3,2.6C64.6,47,64.6,47.3,64.6,47.3z M60.9,44h3.8v2.3
						L60.9,44z"/>
					<path class="st2" d="M69.7,27.8c-0.2,2.3-2.1,4-4.4,3.9c-2.3,0.1-4.2-1.6-4.4-3.9c0.2-2.3,2.1-4,4.4-3.9
						C67.6,23.8,69.6,25.5,69.7,27.8z M65.3,26.7c-0.6,0-1.2,0.4-1.3,1c0.1,0.6,0.6,1.1,1.3,1c0.6,0,1.2-0.4,1.3-1
						C66.5,27.1,66,26.7,65.3,26.7z"/>
					<g id="minetalp">
						<path class="st2" d="M93,90.3H38.3c-1,0.1-1.8-0.7-1.9-1.7c0,0,0,0,0,0v-1.3h58.5v1.2C94.9,89.5,94,90.3,93,90.3z"/>
						<rect x="36.8" y="87.4" class="st1" width="28.5" height="2.5"/>
						<path class="st1" d="M93,90.6H38.3c-1.2,0.1-2.2-0.8-2.3-2V87h59.2v1.5C95.2,89.7,94.2,90.7,93,90.6C93,90.6,93,90.6,93,90.6z
							 M36.8,87.7v0.8c0,0.7,0.7,1.3,1.4,1.3c0,0,0,0,0.1,0H93c0.7,0.1,1.4-0.5,1.5-1.2c0,0,0,0,0-0.1v-0.8H36.8z"/>
						<path class="st2" d="M94.9,93.1H36.4V92c0-1,0.9-1.7,1.9-1.7c0,0,0,0,0,0H93c1-0.1,1.8,0.7,1.9,1.7c0,0,0,0,0,0L94.9,93.1
							L94.9,93.1z"/>
						<rect x="36.8" y="90.6" class="st1" width="28.5" height="2.5"/>
						<path class="st1" d="M95.3,93.4H36.1v-1.6c0.1-1.2,1-2.1,2.2-2c0,0,0.1,0,0.1,0H93c1.2-0.1,2.2,0.8,2.3,2V93.4z M36.8,92.7
							h57.7v-0.8c0-0.7-0.7-1.3-1.4-1.3c0,0,0,0-0.1,0H38.4c-0.7-0.1-1.4,0.5-1.5,1.2c0,0,0,0,0,0.1L36.8,92.7L36.8,92.7z"/>
					</g>
				</g>
			</g>
		</g>
	</g>
</g>
</svg>
