<svg xmlns="http://www.w3.org/2000/svg" viewBox="0 0 120 120"><defs><style>.cls-1{fill:#132930;}.cls-2{fill:#f0f0f0;}.cls-3{fill:#d6d6cc;}.cls-4{fill:#ffe;}.cls-5{fill:#60acbe;}</style></defs><title>Asset 3</title><g id="Layer_2" data-name="Layer 2"><g id="mine_icon"><rect class="cls-1" width="120" height="120" rx="12" ry="12"/><g id="mine"><g id="mineGroup"><g id="arm_front"><g id="hand"><path class="cls-2" d="M33.57,6.33a10.09,10.09,0,0,0,1.3,4.6,2.13,2.13,0,0,0,1.1,1,5.74,5.74,0,0,1,.7.4c.3.1.5.3.8.3a3.19,3.19,0,0,0,2.7,0,18,18,0,0,0,4-3,6.09,6.09,0,0,1,0,3,6,6,0,0,1-1.4,2.9,6.22,6.22,0,0,1-3.2,2.1,6.1,6.1,0,0,1-3.8-.3,8,8,0,0,1-1.6-.8,4.35,4.35,0,0,1-.7-.6c-.2-.2-.5-.4-.7-.6a5.69,5.69,0,0,1-1.6-3.4A6,6,0,0,1,33.57,6.33Z"/></g><polygon id="arm2" class="cls-3" points="27.47 51.13 34.47 18.63 36.17 19.13 29.17 51.63 27.47 51.13"/><polygon id="arm1" class="cls-3" points="27.57 51.33 60.87 30.53 61.87 31.73 28.57 52.53 27.57 51.33"/><path id="circe2" class="cls-4" d="M37.47,19.33a2,2,0,0,1-2.8.2,1.9,1.9,0,0,1-.6-2.7,2.13,2.13,0,0,1,3.4,2.5Zm-1.4-1.6a.52.52,0,0,0-.8.1.55.55,0,0,0,.2.8.52.52,0,0,0,.8-.1A.63.63,0,0,0,36.07,17.73Z"/><path id="circle1" class="cls-4" d="M29.67,52.23a1.94,1.94,0,0,1-2.1,1.8,1.82,1.82,0,1,1,0-3.6A1.82,1.82,0,0,1,29.67,52.23Zm-2.1-.5a.56.56,0,0,0-.6.5c0,.3.2.5.6.5s.6-.2.6-.5S28,51.73,27.57,51.73Z"/></g><polygon id="arm_back" class="cls-3" points="72.57 14.83 65.37 28.93 63.87 28.33 70.97 14.23 72.57 14.83"/><g id="fire1"><path id="fire_orange" class="cls-5" d="M53.07,102.33a4.77,4.77,0,0,1,4.4,3.2c1.5,3.5-4.7,9.6-4.7,9.6s-5.8-6-4.4-9.8A5.09,5.09,0,0,1,53.07,102.33Z"/><path id="fire_yellow" class="cls-4" d="M53.07,102.33a2,2,0,0,1,1.9,1.4c.7,1.6-2.1,4.3-2.1,4.3s-2.6-2.6-1.9-4.3A2.21,2.21,0,0,1,53.07,102.33Z"/></g><g id="fire2"><path id="fire_orange-2" data-name="fire_orange" class="cls-5" d="M76.17,102.93a4.77,4.77,0,0,1,4.4,3.2c1.5,3.5-4.7,9.6-4.7,9.6s-5.8-6-4.4-9.8A4.88,4.88,0,0,1,76.17,102.93Z"/><path id="fire_yellow-2" data-name="fire_yellow" class="cls-4" d="M76.17,102.93a2,2,0,0,1,1.9,1.4c.7,1.6-2.1,4.3-2.1,4.3s-2.6-2.6-1.9-4.3A2,2,0,0,1,76.17,102.93Z"/></g><g id="mine_base"><rect class="cls-4" x="72.37" y="92.03" width="7.2" height="6.4"/><rect class="cls-3" x="72.37" y="92.03" width="3.7" height="6.4"/><rect class="cls-4" x="70.57" y="98.33" width="11" height="2.1"/><rect class="cls-3" x="70.77" y="98.33" width="5.2" height="2.1"/><path class="cls-3" d="M82,100.83H70.17V98H82Zm-11-.7h10.3v-1.4H71Z"/><rect class="cls-4" x="49.37" y="92.03" width="7.2" height="6.4"/><rect class="cls-3" x="49.37" y="92.03" width="3.7" height="6.4"/><rect class="cls-4" x="47.47" y="98.33" width="11" height="2.1"/><rect class="cls-3" x="47.77" y="98.33" width="5.2" height="2.1"/><path class="cls-3" d="M59,100.83H47.17V98H59Zm-11.1-.7h10.3v-1.4H47.87Z"/><rect class="cls-3" x="54.97" y="40.23" width="8.8" height="4"/><rect class="cls-4" x="63.77" y="40.23" width="8.8" height="4.1"/><path class="cls-4" d="M74.07,80.73l-4-36.5H57.37l-4,36.5h-2v6.1h2.2v-5.1h20.8v5.1h2.2v-6.1ZM71.47,73Zm0-.3-6.7-3.2v-.4l6-2.8ZM64.77,59h4.7l-4.7,2.2Zm0,6.5v-2.6l5.3,2.6Zm5.4.5-5.4,2.5V66Zm-5.4,4.1,6.1,2.9h-6.1Zm0,3.4H71l-6.2,2.7Zm0-11.1v-.5l5.3-2.6.6,6Zm4.5-10.2Zm-4.5-6.7h3.3l-3.3,2Zm0,2.7,3.8-2.4.6,5.5-4.4-2.6v-.5Zm0,1.1,3.9,2.4h-3.9Zm0,2.9h4l-4,2.1Zm0,2.7,4.5-2.4.6,5.7-5.1-2.9v-.4Zm4.7,3.7h-4.7V56Zm-12.1.4Zm5.6-.4H58l5-2.7Zm0-6.4v2.2l-3.8-2.2Zm-3.9-.5,3.9-2.4v2.4Zm3.9-6.2v2.2l-3.6-2.2Zm-4.1.3,4.1,2.5v.4l-4.7,3Zm-.7,6.4,4.8,2.7v.3l-5.4,3Zm-3.1,28.5Zm7.9,0h-7.2l7.2-3.2ZM63,77l-7.9,3.4.7-6.7,7.2,3.1V77Zm0-.7-6.4-2.8H63ZM63,73h-6.5L63,70Zm0-3.6-7,3.3.7-6.5,6.3,3Zm0-.7-5.6-2.6H63Zm0-3.2h-5.8l5.8-2.8Zm0-3.3-6.2,3,.6-5.8,5.6,2.8ZM58,59h5v2.4Zm6.8,21.7v-3l6.9,3Zm0-3.6v-.3l6.8-3,.7,6.6Zm7.6,3.6Z"/><path class="cls-3" d="M66.87,32.23h-6.4v8h6.4Zm-1.1.7-2.1,2.7-2.1-2.7Zm-4.5.8,1.9,2.6-1.9,2.6Zm.3,5.9,2.1-2.7,2.1,2.7Zm4.5-.8-1.9-2.6,1.9-2.6Z"/><path class="cls-3" d="M63.87,44.23h-6.5l-4,36.5h-2v6.1h2.2v-5.1h10.3V44.23ZM57.37,59Zm-2.3,21.7Zm7.9,0h-7.2l7.2-3.2ZM63,77l-7.9,3.4.7-6.7,7.2,3.1V77Zm0-.7-6.4-2.8H63ZM63,73h-6.5L63,70Zm0-3.6-7,3.3.7-6.5,6.3,3Zm0-.7-5.6-2.6H63Zm0-3.2h-5.8l5.8-2.8Zm0-3.3-6.2,3,.6-5.8,5.6,2.8Zm0-.6-5-2.4h5Zm0-3H58l5-2.7Zm0-3.3-5.4,3,.6-6L63,55Zm0-1-3.8-2.2H63Zm0-2.6h-3.9l3.9-2.4Zm0-3.1-4.7,3,.6-5.8,4.1,2.5v.3Zm-3.6-3.1H63v2.2Z"/><path class="cls-4" d="M67.87,30a4,4,0,0,1-4.2,3.7,4,4,0,0,1-4.2-3.7,4,4,0,0,1,4.2-3.7A4,4,0,0,1,67.87,30Zm-4.2-1a1.2,1.2,0,0,0-1.2,1,1.13,1.13,0,0,0,1.2,1,1.2,1.2,0,0,0,1.2-1A1.13,1.13,0,0,0,63.67,29Z"/><g id="minetalp"><path class="cls-4" d="M90.07,89.63H37.87a1.69,1.69,0,0,1-1.8-1.6v-1.2h55.8v1.1A1.77,1.77,0,0,1,90.07,89.63Z"/><rect class="cls-3" x="36.47" y="86.83" width="27.2" height="2.4"/><path class="cls-3" d="M90.07,89.93H37.87a2.11,2.11,0,0,1-2.2-1.9v-1.5h56.5V88A2,2,0,0,1,90.07,89.93Zm-53.6-2.8v.8a1.27,1.27,0,0,0,1.4,1.2h52.2a1.27,1.27,0,0,0,1.4-1.2v-.8Z"/><path class="cls-4" d="M91.87,92.33H36.07v-1.1a1.69,1.69,0,0,1,1.8-1.6H90a1.69,1.69,0,0,1,1.8,1.6l.1,1.1Z"/><rect class="cls-3" x="36.47" y="89.93" width="27.2" height="2.4"/><path class="cls-3" d="M92.27,92.63H35.77v-1.5a2,2,0,0,1,2.2-1.9h52.1a2.11,2.11,0,0,1,2.2,1.9v1.5Zm-55.8-.7h55v-.8a1.27,1.27,0,0,0-1.4-1.2H38a1.27,1.27,0,0,0-1.4,1.2l-.1.8Z"/></g></g></g></g></g></g></svg>