<?xml version="1.0" encoding="utf-8"?>
<!-- Generator: Adobe Illustrator 21.0.2, SVG Export Plug-In . SVG Version: 6.00 Build 0)  -->
<svg version="1.1" id="Layer_1" xmlns="http://www.w3.org/2000/svg" xmlns:xlink="http://www.w3.org/1999/xlink" x="0px" y="0px"
	 viewBox="0 0 120 120" style="enable-background:new 0 0 120 120;" xml:space="preserve">
<style type="text/css">
	.st0{fill:#F0F0F0;}
	.st1{fill:#D6D6CC;}
	.st2{fill:#FFFFEE;}
	.st3{fill:#60ACBE;}
</style>
<g id="Layer_2">
	<g id="mine_icon">
		<g id="mine">
			<g id="mineGroup">
				<g id="arm_front">
					<g id="hand">
						<path class="st0" d="M33.6,6.3c0.1,1.6,0.5,3.2,1.3,4.6c0.2,0.5,0.6,0.8,1.1,1c0.2,0.1,0.5,0.3,0.7,0.4
							c0.3,0.1,0.5,0.3,0.8,0.3c0.9,0.4,1.8,0.4,2.7,0c1.5-0.8,2.8-1.8,4-3c0.3,1,0.3,2,0,3c-0.2,1.1-0.7,2.1-1.4,2.9
							c-0.8,1-1.9,1.8-3.2,2.1c-1.3,0.3-2.6,0.2-3.8-0.3c-0.6-0.2-1.1-0.5-1.6-0.8c-0.3-0.2-0.5-0.4-0.7-0.6
							c-0.2-0.2-0.5-0.4-0.7-0.6c-0.9-0.9-1.5-2.1-1.6-3.4C30.9,9.8,31.8,7.6,33.6,6.3z"/>
					</g>
					<polygon id="arm2" class="st1" points="27.5,51.1 34.5,18.6 36.2,19.1 29.2,51.6 					"/>
					<polygon id="arm1" class="st1" points="27.6,51.3 60.9,30.5 61.9,31.7 28.6,52.5 					"/>
					<path id="circe2" class="st2" d="M37.5,19.3c-0.7,0.8-2,0.9-2.8,0.2c-0.9-0.5-1.2-1.7-0.7-2.6c0,0,0-0.1,0.1-0.1
						c0.8-0.8,2.2-0.9,3,0C37.8,17.5,37.9,18.5,37.5,19.3z M36.1,17.7c-0.2-0.2-0.5-0.2-0.7,0c0,0,0,0.1-0.1,0.1
						c-0.2,0.3-0.1,0.6,0.1,0.8c0,0,0,0,0.1,0c0.2,0.2,0.5,0.2,0.7,0c0,0,0-0.1,0.1-0.1C36.4,18.3,36.3,17.9,36.1,17.7z"/>
					<path id="circle1" class="st2" d="M29.7,52.2c-0.1,1.1-1,1.9-2.1,1.8c0,0,0,0,0,0c-1,0.1-1.9-0.5-2.1-1.5
						c-0.1-1,0.5-1.9,1.5-2.1c0.2,0,0.4,0,0.5,0c1-0.2,1.9,0.5,2.1,1.5C29.7,52,29.7,52.1,29.7,52.2z M27.6,51.7
						c-0.3,0-0.6,0.2-0.6,0.5c0,0.3,0.2,0.5,0.6,0.5s0.6-0.2,0.6-0.5S28,51.7,27.6,51.7z"/>
				</g>
				<polygon id="arm_back" class="st1" points="72.6,14.8 65.4,28.9 63.9,28.3 71,14.2 				"/>
				<g id="fire1">
					<path id="fire_orange" class="st3" d="M53.1,102.3c2,0,3.7,1.3,4.4,3.2c1.5,3.5-4.7,9.6-4.7,9.6s-5.8-6-4.4-9.8
						C49.2,103.5,51,102.3,53.1,102.3z"/>
					<path id="fire_yellow" class="st2" d="M53.1,102.3c0.9,0,1.6,0.6,1.9,1.4c0.7,1.6-2.1,4.3-2.1,4.3s-2.6-2.6-1.9-4.3
						C51.3,102.9,52.1,102.3,53.1,102.3z"/>
				</g>
				<g id="fire2">
					<path id="fire_orange-2" class="st3" d="M76.2,102.9c2,0,3.7,1.3,4.4,3.2c1.5,3.5-4.7,9.6-4.7,9.6s-5.8-6-4.4-9.8
						C72.3,104,74.1,102.8,76.2,102.9z"/>
					<path id="fire_yellow-2" class="st2" d="M76.2,102.9c0.9,0,1.6,0.6,1.9,1.4c0.7,1.6-2.1,4.3-2.1,4.3s-2.6-2.6-1.9-4.3
						C74.3,103.4,75.2,102.8,76.2,102.9z"/>
				</g>
				<g id="mine_base">
					<rect x="72.4" y="92" class="st2" width="7.2" height="6.4"/>
					<rect x="72.4" y="92" class="st1" width="3.7" height="6.4"/>
					<rect x="70.6" y="98.3" class="st2" width="11" height="2.1"/>
					<rect x="70.8" y="98.3" class="st1" width="5.2" height="2.1"/>
					<path class="st1" d="M82,100.8H70.2V98H82V100.8z M71,100.1h10.3v-1.4H71V100.1z"/>
					<rect x="49.4" y="92" class="st2" width="7.2" height="6.4"/>
					<rect x="49.4" y="92" class="st1" width="3.7" height="6.4"/>
					<rect x="47.5" y="98.3" class="st2" width="11" height="2.1"/>
					<rect x="47.8" y="98.3" class="st1" width="5.2" height="2.1"/>
					<path class="st1" d="M59,100.8H47.2V98H59V100.8z M47.9,100.1h10.3v-1.4H47.9L47.9,100.1z"/>
					<rect x="55" y="40.2" class="st1" width="8.8" height="4"/>
					<rect x="63.8" y="40.2" class="st2" width="8.8" height="4.1"/>
					<path class="st2" d="M74.1,80.7l-4-36.5H57.4l-4,36.5h-2v6.1h2.2v-5.1h20.8v5.1h2.2v-6.1H74.1z M71.5,72.7l-6.7-3.2v-0.4l6-2.8
						L71.5,72.7z M64.8,59h4.7l-4.7,2.2V59z M64.8,65.5v-2.6l5.3,2.6H64.8z M70.2,66l-5.4,2.5V66H70.2z M64.8,70.1l6.1,2.9h-6.1
						V70.1z M64.8,73.5H71l-6.2,2.7L64.8,73.5z M64.8,62.4v-0.5l5.3-2.6l0.6,6L64.8,62.4z M64.8,45.5h3.3l-3.3,2V45.5z M64.8,48.2
						l3.8-2.4l0.6,5.5l-4.4-2.6V48.2z M64.8,49.3l3.9,2.4h-3.9V49.3z M64.8,52.2h4l-4,2.1V52.2z M64.8,54.9l4.5-2.4l0.6,5.7
						l-5.1-2.9C64.8,55.3,64.8,54.9,64.8,54.9z M69.5,58.6h-4.7V56L69.5,58.6z M63,58.6h-5l5-2.7L63,58.6z M63,52.2v2.2l-3.8-2.2H63
						z M59.1,51.7l3.9-2.4v2.4H59.1z M63,45.5v2.2l-3.6-2.2H63z M58.9,45.8l4.1,2.5v0.4l-4.7,3L58.9,45.8z M58.2,52.2l4.8,2.7v0.3
						l-5.4,3L58.2,52.2z M63,80.7h-7.2l7.2-3.2V80.7z M63,77l-7.9,3.4l0.7-6.7l7.2,3.1V77z M63,76.3l-6.4-2.8H63V76.3z M63,73h-6.5
						l6.5-3V73z M63,69.4l-7,3.3l0.7-6.5l6.3,3V69.4z M63,68.7l-5.6-2.6H63V68.7z M63,65.5h-5.8l5.8-2.8V65.5z M63,62.2l-6.2,3
						l0.6-5.8C57.4,59.4,63,62.2,63,62.2z M58,59h5v2.4L58,59z M64.8,80.7v-3l6.9,3H64.8z M64.8,77.1v-0.3l6.8-3l0.7,6.6L64.8,77.1z
						"/>
					<path class="st1" d="M66.9,32.2h-6.4v8h6.4V32.2z M65.8,32.9l-2.1,2.7l-2.1-2.7H65.8z M61.3,33.7l1.9,2.6l-1.9,2.6V33.7z
						 M61.6,39.6l2.1-2.7l2.1,2.7H61.6z M66.1,38.8l-1.9-2.6l1.9-2.6V38.8z"/>
					<path class="st1" d="M63.9,44.2h-6.5l-4,36.5h-2v6.1h2.2v-5.1h10.3V44.2z M63,80.7h-7.2l7.2-3.2V80.7z M63,77l-7.9,3.4l0.7-6.7
						l7.2,3.1V77z M63,76.3l-6.4-2.8H63V76.3z M63,73h-6.5l6.5-3V73z M63,69.4l-7,3.3l0.7-6.5l6.3,3V69.4z M63,68.7l-5.6-2.6H63
						V68.7z M63,65.5h-5.8l5.8-2.8V65.5z M63,62.2l-6.2,3l0.6-5.8C57.4,59.4,63,62.2,63,62.2z M63,61.6l-5-2.4h5V61.6z M63,58.6h-5
						l5-2.7V58.6z M63,55.3l-5.4,3l0.6-6L63,55V55.3z M63,54.3l-3.8-2.2H63V54.3z M63,51.7h-3.9l3.9-2.4V51.7z M63,48.6l-4.7,3
						l0.6-5.8l4.1,2.5C63,48.3,63,48.6,63,48.6z M59.4,45.5H63v2.2L59.4,45.5z"/>
					<path class="st2" d="M67.9,30c-0.2,2.2-2,3.8-4.2,3.7c-2.2,0.1-4-1.5-4.2-3.7c0.2-2.2,2-3.8,4.2-3.7
						C65.8,26.2,67.7,27.8,67.9,30z M63.7,29c-0.6,0-1.1,0.4-1.2,1c0.1,0.6,0.6,1,1.2,1c0.6,0,1.1-0.4,1.2-1
						C64.8,29.4,64.3,29,63.7,29z"/>
					<g id="minetalp">
						<path class="st2" d="M90.1,89.6H37.9c-0.9,0.1-1.7-0.6-1.8-1.6c0,0,0,0,0,0v-1.2h55.8v1.1C91.8,88.9,91,89.6,90.1,89.6z"/>
						<rect x="36.5" y="86.8" class="st1" width="27.2" height="2.4"/>
						<path class="st1" d="M90.1,89.9H37.9c-1.1,0.1-2.1-0.8-2.2-1.9v-1.5h56.5V88C92.1,89.1,91.2,90,90.1,89.9
							C90.1,89.9,90.1,89.9,90.1,89.9z M36.5,87.1v0.8c0,0.7,0.6,1.2,1.3,1.2c0,0,0,0,0.1,0h52.2c0.7,0.1,1.3-0.4,1.4-1.1
							c0,0,0,0,0-0.1v-0.8H36.5z"/>
						<path class="st2" d="M91.9,92.3H36.1v-1.1c0-0.9,0.8-1.6,1.8-1.6c0,0,0,0,0,0H90c0.9-0.1,1.7,0.6,1.8,1.6c0,0,0,0,0,0
							L91.9,92.3L91.9,92.3z"/>
						<rect x="36.5" y="89.9" class="st1" width="27.2" height="2.4"/>
						<path class="st1" d="M92.3,92.6H35.8v-1.5c0-1.1,1-2,2.1-1.9c0,0,0.1,0,0.1,0h52.1c1.1-0.1,2.1,0.8,2.2,1.9V92.6z M36.5,91.9
							h55v-0.8c0-0.7-0.6-1.2-1.3-1.2c0,0,0,0-0.1,0H38c-0.7-0.1-1.3,0.4-1.4,1.1c0,0,0,0,0,0.1L36.5,91.9L36.5,91.9z"/>
					</g>
				</g>
			</g>
		</g>
	</g>
</g>
</svg>
