<svg xmlns="http://www.w3.org/2000/svg" viewBox="0 0 120 120"><defs><style>.cls-1{fill:#132930;}.cls-2{fill:#fd8b4f;}.cls-3{fill:#c5572c;opacity:0.5;isolation:isolate;}.cls-4{fill:#d6d6cc;}.cls-5{fill:#040a0c;}.cls-6{opacity:0.2;}.cls-7{fill:#f0f0f0;}</style></defs><title>Asset 2</title><g id="Layer_2" data-name="Layer 2"><g id="townhall_icon"><rect class="cls-1" width="120" height="120" rx="12" ry="12"/><g id="spaceStation"><path class="cls-2" d="M99,57.16c0,1.79-17,4.95-38.35,4.95s-38.35-3.3-38.35-4.95,17-4.4,38.35-4.4S99,55.51,99,57.16Z"/><path class="cls-3" d="M60.63,53.18c-21.72.55-38.08,2.47-38.08,4.12s16.77,4.26,38.21,4.95Z"/><path class="cls-4" d="M60.63,62.8A189.81,189.81,0,0,1,33.54,61C22,59.23,22,57.85,22,57.3s0-1.92,11.55-3.3a230.92,230.92,0,0,1,27.08-1.51A230.92,230.92,0,0,1,87.71,54c11.55,1.37,11.55,2.75,11.55,3.3s0,1.92-11.55,3.71A215.74,215.74,0,0,1,60.63,62.8Zm-37.8-5.64c1.65,1.37,17,4.54,37.8,4.54s36-3,37.8-4.54c-1.79-1.37-16.91-3.85-37.8-3.85S24.61,55.93,22.82,57.16Z"/><path class="cls-1" d="M98.7,56.2a257.12,257.12,0,0,0-76.15-.27,153.7,153.7,0,0,1-.69-19.24,224.11,224.11,0,0,1,77.8-.14C99.53,44.52,99.39,48.23,98.7,56.2Z"/><path class="cls-5" d="M60.08,52.76a217.49,217.49,0,0,0-37.66,3c-.82-7.7-.69-11.27-.69-18.7a200.41,200.41,0,0,1,38.21-4C60.08,40.94,60.08,44.93,60.08,52.76Z"/><path class="cls-4" d="M99,56.75a252.67,252.67,0,0,0-76.84-.27,172.42,172.42,0,0,1-.82-20.34A216,216,0,0,1,99.94,36,173.51,173.51,0,0,1,99,56.75ZM22.82,55.24a261.93,261.93,0,0,1,75.47.27,170.12,170.12,0,0,0,.82-18.7,219.42,219.42,0,0,0-77,.14A166.27,166.27,0,0,0,22.82,55.24Z"/><g class="cls-6"><path class="cls-7" d="M99,36.13C90.18,24,75.88,14.69,60.63,14.69S31.48,23.9,22.69,36c0,0,29.42-3.16,37.94-3S99,36.13,99,36.13Z"/><path class="cls-7" d="M100.08,36.68,99,36.54c-.27,0-30.1-3.16-38.49-3.16s-37.53,3-37.8,3l-1.1.14.82-1.1C32.17,22,46.47,14,60.76,14s29,8.25,38.63,21.58Zm-39.86-4.4h0c7.56,0,31.89,2.47,37.39,3C88,22.94,73.82,15.1,60.35,15.1s-27.22,7.42-37,20.07C29.15,34.76,52.65,32.28,60.21,32.28Z"/></g><path class="cls-4" d="M39.87,34.07l.55-1c5.36-8.66,13.06-19,19.79-19h.14c4.95.14,11,6,19,18.83l.55,1-1-.14c-.14,0-14.71-1-18.83-1s-19.38,1.1-19.52,1.1ZM60.35,15.24c-4.81,0-11.41,6.19-18.56,17.6,3.44-.14,14.71-1,18.42-1h.14c3.57,0,14.57.69,17.87,1C70.8,21,65,15.37,60.35,15.24Z"/><path class="cls-4" d="M100.9,51.8c-1.79-1.1-14.71-4-39.59-4h-1.1C35.74,48,23,50.43,19.66,52.35a1.19,1.19,0,0,0-.55,1c0,.27.14,1,2.75,1.79l.14-1a6,6,0,0,1-1.79-.69c3.44-2.06,16.08-4.4,40.28-4.4,25.43-.14,38.49,2.89,40.28,3.85a.13.13,0,0,1,.14.14,6.57,6.57,0,0,1-1.65.69v1c1.65-.27,2.47-1,2.61-1.65A1.37,1.37,0,0,0,100.9,51.8Z"/><path class="cls-4" d="M100.9,46.44c-1.79-1.1-14.71-4-39.59-4h-1.1C35.74,42.59,23,45.07,19.52,47A1.19,1.19,0,0,0,19,48c0,.27-.14,1,2.61,1.79l-.14-1.1A2.57,2.57,0,0,1,19.94,48c3.44-2.06,16.08-4.4,40.28-4.4h1.1c24.74,0,37.39,2.75,39.18,3.71.14.14.27.14.41.27a8.54,8.54,0,0,1-1.37.41v1.1c1-.14,2.2-.55,2.34-1.37S101.18,46.58,100.9,46.44Z"/><path class="cls-4" d="M101.45,41.36c-1.79-1-15.12-4-40.14-4h-1.1C35.74,37.51,23,40,19.52,41.91a1.31,1.31,0,0,0-.82,1c0,.14.14,1,2.61,1.65l-.14-1.1a1.88,1.88,0,0,1-1.51-.55c0-.82,16.22-4.4,40.41-4.54,25.57-.14,39,2.89,40.83,3.85a.13.13,0,0,1,.14.14,8.54,8.54,0,0,1-1.37.41l-.14,1.1c1.51-.27,2.34-.69,2.34-1.37A.72.72,0,0,0,101.45,41.36Z"/><path class="cls-4" d="M102,36c-1.92-1.1-15.53-4.12-41.79-4-25.29.14-38.35,2.61-41.79,4.54a.8.8,0,0,0-.41,1c0,.27-.14,1.1,3.57,1.79l.14-1.1a7.37,7.37,0,0,1-2.47-.82C23,35.44,36,33.11,60.63,33c26.26-.14,39.59,2.89,41.51,3.85a.13.13,0,0,1,.14.14,10.51,10.51,0,0,1-2.2.69l.14,1c1.79-.41,2.89-1,2.89-1.79C102.83,36.54,102.28,36.27,102,36Z"/><path class="cls-4" d="M100.08,36.13,98.84,36c-.27,0-30.1-3-38.49-3s-37.53,3-37.8,3l-1.1.14.82-1C32,22.11,46.33,14.41,60.63,14.41s29,8.11,38.63,20.89Zm-39.86-4.4h0c7.42,0,31.34,2.47,36.84,3-9.35-12-23.23-19.52-36.57-19.52S33.68,22.52,24.2,34.76C29.56,34.07,52.65,31.73,60.21,31.73Z"/><path class="cls-4" d="M67.5,116.41V117c0,.41-.55.27-1.37.27h0c-.55,0-1.1.14-1.37-.14V117h0v-.55c-1.37,0-2.89-.14-4.4-.14H56.23v.55c0,.41-.55.27-1.37.27H54.3c-.41,0-.82,0-.82-.27v-.55c-4.26.14-7.29.55-7.29,1s6.19,1.1,14,1.1,14-.55,14-1.1C74.37,117,71.62,116.69,67.5,116.41Z"/><path class="cls-7" d="M54.58,117.51h0c-.82,0-1.37.14-1.37-.82V59.36a1.34,1.34,0,0,1,1.37-1.51h0A1.34,1.34,0,0,1,56,59.36v57.32C56.09,117.78,55.4,117.51,54.58,117.51Z"/><path class="cls-4" d="M54.58,57.85a1.34,1.34,0,0,0-1.37,1.51v57.32c0,1,.55.82,1.37.82h0Z"/><path class="cls-7" d="M66.54,117.78h0c-.82,0-1.37.14-1.37-.82V59.5A1.34,1.34,0,0,1,66.54,58h0a1.34,1.34,0,0,1,1.37,1.51v57.32C67.91,117.92,67.22,117.78,66.54,117.78Z"/><path class="cls-4" d="M66.54,58a1.34,1.34,0,0,0-1.37,1.51v57.32c0,1,.55.82,1.37.82h0Z"/></g></g></g></svg>