<svg xmlns="http://www.w3.org/2000/svg" viewBox="0 0 120 120"><defs><style>.cls-1{fill:#132930;}.cls-2{fill:#e5e5e5;}.cls-3{fill:#244654;}.cls-4{fill:#fff;}.cls-5{fill:#60acbe;}.cls-6{fill:#ff5514;}.cls-7{fill:#ff7743;}.cls-8{fill:#fff5f5;}.cls-9{fill:#ffddd0;}.cls-10{fill:#401505;}.cls-11{fill:#488ca7;}.cls-12{fill:#dd6231;}.cls-12,.cls-13{stroke:#fc6e23;stroke-miterlimit:10;}.cls-13{fill:#fc6e23;}.cls-14{fill:#944121;}.cls-15{fill:#c5572c;}</style></defs><title>Asset 20</title><g id="Layer_2" data-name="Layer 2"><g id="troopbg"><rect class="cls-1" width="120" height="120" rx="12" ry="12"/><path class="cls-2" d="M87.84,119a7.54,7.54,0,0,0,.27-2V75.63c0-4.34-3.81-7.88-8.41-7.88H40.85a8.13,8.13,0,0,0-8.41,7.88V117a7.54,7.54,0,0,0,.27,2H87.84Z"/><rect class="cls-3" x="73.42" y="70.15" width="4.16" height="48.85"/><rect class="cls-3" x="44.13" y="70.15" width="4.16" height="48.85"/><path class="cls-4" d="M93.68,51.74A28.29,28.29,0,0,1,65.36,80.06H55.28A28.29,28.29,0,0,1,27,51.74V41.65A28.29,28.29,0,0,1,55.28,13.34H65.36A28.29,28.29,0,0,1,93.68,41.65Z"/><path class="cls-5" d="M87.57,50.77A23.13,23.13,0,0,1,64.48,74H56.25A23.21,23.21,0,0,1,33.07,50.77V42.54A23.21,23.21,0,0,1,56.25,19.36h8.23a23.25,23.25,0,0,1,23.1,23.18Z"/><path class="cls-3" d="M40.41,67.67c9.29,1.59,7.08-6.9,21-7.08C74.21,60.41,70.05,67,81,67.14A24,24,0,0,1,69.7,73.51c-2,.44-10.18,2.74-18.85.09C41.83,70.86,40.41,67.67,40.41,67.67Z"/><g id="Layer_1-2" data-name="Layer 1"><g id="fox"><polygon class="cls-6" points="57.05 38.03 64.48 38.03 70.94 55.73 50.59 55.73 57.05 38.03"/><polygon class="cls-7" points="64.48 38.03 83.15 52.54 70.94 55.73 64.48 38.03"/><polygon class="cls-7" points="57.05 38.03 38.38 52.54 50.59 55.73 57.05 38.03"/><polygon class="cls-7" points="49.44 55.28 60.94 73.86 72.27 55.37 49.44 55.28"/><polygon class="cls-6" points="38.38 52.54 60.94 73.86 50.59 55.46 38.38 52.54"/><polygon class="cls-6" points="60.94 73.86 83.15 52.54 70.94 55.46 60.94 73.86"/><polygon class="cls-8" points="46.43 62.1 54.3 63.95 61.03 74.04 46.43 62.1"/><polygon class="cls-4" points="75.19 62.1 67.31 64.13 60.94 73.86 75.19 62.1"/><polygon class="cls-6" points="38.38 52.54 42.45 30.33 57.05 38.03 38.38 52.54"/><polygon class="cls-6" points="64.48 38.03 79.08 30.33 83.15 52.54 64.48 38.03"/><polygon class="cls-9" points="42.45 30.33 52.89 39.09 42.45 45.64 42.45 30.33"/><polygon class="cls-9" points="79.08 30.33 79.08 45.64 68.73 38.38 79.08 30.33"/><polygon class="cls-10" points="57.05 68.2 64.74 68.2 60.85 73.86 57.05 68.2"/><polygon class="cls-10" points="45.81 54.31 50.59 55.46 52.89 59.8 45.81 54.31"/><polygon class="cls-10" points="75.81 54.31 70.94 55.46 68.73 59.8 75.81 54.31"/><polygon class="cls-10" points="53.15 60.06 48.37 58.91 46.16 54.57 53.15 60.06"/><polygon class="cls-10" points="68.55 59.88 73.42 58.65 75.54 54.22 68.55 59.88"/></g></g><path class="cls-4" d="M38,68.56h-.53c-5,0-9.11,5-9.11,11.33v33H38Z"/><ellipse class="cls-11" cx="33.24" cy="113.07" rx="6.81" ry="6.9"/><path class="cls-4" d="M83.68,68.56h.53c5,0,9.11,5,9.11,11.33v33H83.68Z"/><ellipse class="cls-11" cx="88.37" cy="113.07" rx="6.81" ry="6.9"/><circle class="cls-12" cx="60.23" cy="99.79" r="5.13"/><path class="cls-13" d="M65.1,98.29a5.09,5.09,0,0,0-10,1.42,5.23,5.23,0,0,0,1.06,3.1,6.1,6.1,0,0,0,2.83.71A6.19,6.19,0,0,0,65.1,98.29Z"/><ellipse class="cls-14" cx="64.53" cy="101.73" rx="0.44" ry="0.18" transform="translate(-55.07 116.17) rotate(-64.49)"/><ellipse class="cls-15" cx="61.51" cy="97.39" rx="0.18" ry="0.27" transform="translate(-53.16 108.32) rotate(-63.17)"/><ellipse class="cls-15" cx="57.71" cy="99.26" rx="0.27" ry="0.18" transform="translate(-54.67 122.78) rotate(-71.65)"/><ellipse class="cls-15" cx="62.64" cy="103" rx="0.97" ry="0.53" transform="translate(-45.17 49.06) rotate(-32.11)"/><path class="cls-14" d="M62.53,102.71c.44-.27.88-.35,1.06-.18v-.09c-.18-.27-.62-.18-1.15.09s-.71.71-.62,1a.09.09,0,0,0,.09.09C61.82,103.33,62.09,103,62.53,102.71Z"/><ellipse class="cls-15" cx="63.61" cy="99.97" rx="0.88" ry="0.62" transform="translate(-48.2 139.18) rotate(-76.86)"/><path class="cls-14" d="M63,100.06c.09-.44.44-.8.8-.71a.67.67,0,0,1,.44.62.69.69,0,0,0-.44-.88c-.35-.09-.71.27-.8.71v.27Z"/><ellipse class="cls-15" cx="58.47" cy="101.22" rx="0.71" ry="1.06" transform="translate(-36.6 33.21) rotate(-24.41)"/><path class="cls-14" d="M58.11,100.41c.35-.18.88.18,1.06.71,0,.09.09.09.09.18,0-.18-.09-.27-.09-.44-.27-.53-.71-.88-1.06-.71a.79.79,0,0,0-.27,1.06C57.75,100.85,57.84,100.5,58.11,100.41Z"/><ellipse class="cls-15" cx="58.59" cy="103.33" rx="0.44" ry="0.97" transform="translate(-58.23 124.87) rotate(-70.89)"/><path class="cls-14" d="M57.75,103.24c.09-.27.53-.27,1.06-.09a1.16,1.16,0,0,1,.71.53c.09-.27-.27-.53-.8-.71s-1-.18-1.06.09c0,.09,0,.18.09.18Z"/><ellipse class="cls-15" cx="57.13" cy="97.87" rx="1.15" ry="0.53" transform="translate(-54.93 114.75) rotate(-68.29)"/><path class="cls-14" d="M56.69,97.85c.27-.62.62-1,1-.8.09,0,.09.09.18.09a.46.46,0,0,0-.18-.35c-.27-.09-.62.27-.88.88a3.89,3.89,0,0,0-.18.88A1,1,0,0,1,56.69,97.85Z"/><ellipse class="cls-15" cx="61.18" cy="95.55" rx="0.53" ry="1.06" transform="translate(-47.3 128.75) rotate(-74.38)"/><path class="cls-14" d="M61.29,95c-.62-.18-1.15-.09-1.24.27v.09a1.19,1.19,0,0,1,1.15-.09c.53.18.88.44.88.71a.09.09,0,0,1,.09-.09C62.36,95.54,61.91,95.19,61.29,95Z"/><ellipse class="cls-15" cx="56.34" cy="100.51" rx="0.44" ry="1.06" transform="translate(-27.32 21.27) rotate(-17.28)"/><path class="cls-14" d="M56.16,100.77c-.18-.53-.09-1.06.09-1.06h.09a.33.33,0,0,0-.27-.09c-.27.09-.27.53-.09,1.06s.44.88.62.88A1.71,1.71,0,0,1,56.16,100.77Z"/><ellipse class="cls-15" cx="61.11" cy="104.39" rx="0.8" ry="0.27" transform="translate(-26.32 20.8) rotate(-15.94)"/><path class="cls-14" d="M61.12,104.31a2.2,2.2,0,0,1,.71-.09v-.09c0-.09-.35-.09-.8,0a.93.93,0,0,0-.71.44.09.09,0,0,0,.09.09A1.69,1.69,0,0,1,61.12,104.31Z"/><ellipse class="cls-15" cx="61.83" cy="101.31" rx="0.44" ry="0.35" transform="translate(-42.37 44.49) rotate(-30)"/><path class="cls-14" d="M61.74,101.12a.56.56,0,0,1,.53,0V101c-.09-.18-.35-.18-.53-.09s-.27.35-.18.44h0C61.47,101.38,61.56,101.21,61.74,101.12Z"/><ellipse class="cls-15" cx="63.42" cy="97.59" rx="0.53" ry="1.24" transform="translate(-40.3 44.79) rotate(-30)"/><path class="cls-14" d="M63.24,98c-.35-.62-.44-1.24-.18-1.33.09-.09.27,0,.35.09-.27-.27-.53-.35-.62-.27-.27.18-.18.71.18,1.33a2.09,2.09,0,0,0,.71.8C63.59,98.46,63.42,98.29,63.24,98Z"/><ellipse class="cls-15" cx="55.99" cy="97.59" rx="0.44" ry="0.18" transform="translate(-56.52 97.29) rotate(-60)"/><path class="cls-14" d="M56,97.58q.13-.27.27-.27c0-.09,0-.09-.09-.09s-.27.09-.44.27a.43.43,0,0,0-.09.53h.09A1.18,1.18,0,0,0,56,97.58Z"/><ellipse class="cls-15" cx="58" cy="95.55" rx="0.8" ry="0.27" transform="translate(-43.28 48.27) rotate(-33.72)"/><path class="cls-14" d="M57.93,95.54a1.41,1.41,0,0,1,.71-.27v-.09c-.09-.09-.44,0-.8.27a1.32,1.32,0,0,0-.53.62h.09C57.49,95.9,57.75,95.72,57.93,95.54Z"/><circle class="cls-15" cx="60.41" cy="99.17" r="1.06"/><path class="cls-14" d="M59.43,99.53a1.08,1.08,0,0,1,1.06-1.06,1,1,0,0,1,.88.53,1.06,1.06,0,0,0-1.06-.8,1.08,1.08,0,0,0-1.06,1.06,1,1,0,0,0,.18.53Z"/><ellipse class="cls-15" cx="58.67" cy="97.39" rx="0.53" ry="0.35" transform="translate(-54.55 107.85) rotate(-64.21)"/><path class="cls-14" d="M58.46,97.49a.39.39,0,0,1,.53-.27.09.09,0,0,1,.09.09c0-.09-.09-.18-.18-.27a.39.39,0,0,0-.53.27.56.56,0,0,0,0,.53A.53.53,0,0,1,58.46,97.49Z"/><ellipse class="cls-15" cx="56.45" cy="102.46" rx="0.27" ry="0.8" transform="translate(-52.42 59.66) rotate(-39.69)"/><path class="cls-14" d="M56,102c.09-.09.44.09.71.44.09.09.18.27.27.35a1.85,1.85,0,0,0-.35-.53c-.27-.35-.62-.53-.71-.44s0,.18.09.44Z"/><ellipse class="cls-15" cx="60.59" cy="102.8" rx="0.35" ry="0.27" transform="translate(-27.85 22.69) rotate(-17.31)"/><path class="cls-14" d="M60.5,102.54c-.18.09-.27.18-.27.35V103q0-.13.27-.27c.18-.09.27,0,.35.09v-.09C60.85,102.54,60.67,102.45,60.5,102.54Z"/></g></g></svg>