<?xml version="1.0" encoding="utf-8"?>
<!-- Generator: Adobe Illustrator 21.0.2, SVG Export Plug-In . SVG Version: 6.00 Build 0)  -->
<svg version="1.1" id="Layer_1" xmlns="http://www.w3.org/2000/svg" xmlns:xlink="http://www.w3.org/1999/xlink" x="0px" y="0px"
	 viewBox="0 0 99.1 120.5" style="enable-background:new 0 0 99.1 120.5;" xml:space="preserve">
<style type="text/css">
	.st0{fill:#E5E5E5;}
	.st1{fill:#244654;}
	.st2{fill:#FFFFFF;}
	.st3{fill:#60ACBE;}
	.st4{fill:#FF5514;}
	.st5{fill:#FF7743;}
	.st6{fill:#FFF5F5;}
	.st7{fill:#FFDDD0;}
	.st8{fill:#401505;}
	.st9{fill:#488CA7;}
	.st10{fill:#DD6231;stroke:#FC6E23;stroke-miterlimit:10;}
	.st11{fill:#FC6E23;stroke:#FC6E23;stroke-miterlimit:10;}
	.st12{fill:#944121;}
	.st13{fill:#C5572C;}
	.st14{opacity:0.54;}
</style>
<g id="Layer_2">
	<g id="astronautFox_icon">
		<path class="st0" d="M80.5,119.4c0.2-0.7,0.3-1.5,0.3-2.3V70.4c0-4.9-4.3-8.9-9.5-8.9H27.4c-5.1-0.2-9.3,3.8-9.5,8.9c0,0,0,0,0,0
			v46.7c0,0.8,0.1,1.6,0.3,2.3C18.2,119.4,80.5,119.4,80.5,119.4z"/>
		<rect x="64.2" y="64.2" class="st1" width="4.7" height="55.2"/>
		<rect x="31.1" y="64.2" class="st1" width="4.7" height="55.2"/>
		<path class="st2" d="M87.1,43.4c0,17.7-14.3,32-32,32H43.7c-17.7,0-32-14.3-32-32V32c0-17.7,14.3-32,32-32h11.4
			c17.7,0,32,14.3,32,32V43.4z"/>
		<path class="st3" d="M80.2,42.3c0,14.4-11.6,26.2-26.1,26.2c0,0,0,0,0,0h-9.3c-14.5,0-26.2-11.7-26.2-26.2V33
			c0-14.5,11.7-26.2,26.2-26.2h9.3C68.5,6.9,80.2,18.6,80.2,33V42.3z"/>
		<path class="st1" d="M26.9,61.4c10.5,1.8,8-7.8,23.7-8c14.5-0.2,9.8,7.2,22.2,7.4c-3.5,3.5-8,6-12.8,7.2
			c-2.3,0.5-11.5,3.1-21.3,0.1C28.5,65,26.9,61.4,26.9,61.4z"/>
		<g id="Layer_1-2">
			<g id="fox">
				<polygon class="st4" points="45.7,27.9 54.1,27.9 61.4,47.9 38.4,47.9 				"/>
				<polygon class="st5" points="54.1,27.9 75.2,44.3 61.4,47.9 				"/>
				<polygon class="st5" points="45.7,27.9 24.6,44.3 38.4,47.9 				"/>
				<polygon class="st5" points="37.1,47.4 50.1,68.4 62.9,47.5 				"/>
				<polygon class="st4" points="24.6,44.3 50.1,68.4 38.4,47.6 				"/>
				<polygon class="st4" points="50.1,68.4 75.2,44.3 61.4,47.6 				"/>
				<polygon class="st6" points="33.7,55.1 42.6,57.2 50.2,68.6 				"/>
				<polygon class="st2" points="66.2,55.1 57.3,57.4 50.1,68.4 				"/>
				<polygon class="st4" points="24.6,44.3 29.2,19.2 45.7,27.9 				"/>
				<polygon class="st4" points="54.1,27.9 70.6,19.2 75.2,44.3 				"/>
				<polygon class="st7" points="29.2,19.2 41,29.1 29.2,36.5 				"/>
				<polygon class="st7" points="70.6,19.2 70.6,36.5 58.9,28.3 				"/>
				<polygon class="st8" points="45.7,62 54.4,62 50,68.4 				"/>
				<polygon class="st8" points="33,46.3 38.4,47.6 41,52.5 				"/>
				<polygon class="st8" points="66.9,46.3 61.4,47.6 58.9,52.5 				"/>
				<polygon class="st8" points="41.3,52.8 35.9,51.5 33.4,46.6 				"/>
				<polygon class="st8" points="58.7,52.6 64.2,51.2 66.6,46.2 				"/>
			</g>
		</g>
		<path class="st2" d="M24.2,62.4h-0.6c-5.7,0-10.3,5.7-10.3,12.8v37.3h10.9V62.4z"/>
		<ellipse class="st9" cx="18.8" cy="112.7" rx="7.7" ry="7.8"/>
		<path class="st2" d="M75.8,62.4h0.6c5.7,0,10.3,5.7,10.3,12.8v37.3H75.8V62.4z"/>
		<ellipse class="st9" cx="81.1" cy="112.7" rx="7.7" ry="7.8"/>
		<circle class="st10" cx="49.3" cy="97.7" r="5.8"/>
		<path class="st11" d="M54.8,96c-0.9-3.1-4.1-4.8-7.1-4c-2.5,0.7-4.2,3-4.2,5.6c0,1.3,0.4,2.5,1.2,3.5c1,0.5,2.1,0.8,3.2,0.8
			C51.3,101.9,54.3,99.4,54.8,96z"/>
		
			<ellipse transform="matrix(0.4307 -0.9025 0.9025 0.4307 -59.3272 105.753)" class="st12" cx="54.2" cy="99.9" rx="0.5" ry="0.2"/>
		<ellipse transform="matrix(0.4513 -0.8923 0.8923 0.4513 -56.9282 97.3921)" class="st13" cx="50.7" cy="95" rx="0.2" ry="0.3"/>
		
			<ellipse transform="matrix(0.3102 -0.9507 0.9507 0.3102 -59.8717 110.6512)" class="st13" cx="46.3" cy="96.6" rx="0.3" ry="0.2"/>
		<ellipse transform="matrix(0.847 -0.5315 0.5315 0.847 -45.8989 43.1494)" class="st13" cx="52" cy="101.3" rx="1.1" ry="0.6"/>
		<path class="st12" d="M51.9,101c0.5-0.3,1-0.4,1.2-0.2v-0.1c-0.2-0.3-0.7-0.2-1.3,0.1s-0.8,0.8-0.7,1.1c0,0.1,0,0.1,0.1,0.1
			C51.1,101.7,51.4,101.3,51.9,101z"/>
		<ellipse transform="matrix(0.2273 -0.9738 0.9738 0.2273 -54.2775 127.3656)" class="st13" cx="53.1" cy="97.9" rx="1" ry="0.7"/>
		<path class="st12" d="M52.4,98c0.1-0.5,0.5-0.9,0.9-0.8c0.3,0.1,0.5,0.4,0.5,0.7c0.1-0.4-0.1-0.9-0.5-1c0,0,0,0,0,0
			c-0.4-0.1-0.8,0.3-0.9,0.8V98z"/>
		
			<ellipse transform="matrix(0.9106 -0.4133 0.4133 0.9106 -36.8084 28.4288)" class="st13" cx="47.3" cy="99.3" rx="0.8" ry="1.2"/>
		<path class="st12" d="M46.9,98.4c0.4-0.2,1,0.2,1.2,0.8c0,0.1,0.1,0.1,0.1,0.2c0-0.2-0.1-0.3-0.1-0.5c-0.3-0.6-0.8-1-1.2-0.8
			c-0.4,0.3-0.5,0.8-0.3,1.2C46.5,98.9,46.6,98.5,46.9,98.4z"/>
		
			<ellipse transform="matrix(0.3274 -0.9449 0.9449 0.3274 -64.1908 113.2432)" class="st13" cx="47.4" cy="101.7" rx="0.5" ry="1.1"/>
		<path class="st12" d="M46.5,101.6c0.1-0.3,0.6-0.3,1.2-0.1c0.3,0.1,0.6,0.3,0.8,0.6c0.1-0.3-0.3-0.6-0.9-0.8s-1.1-0.2-1.2,0.1
			C46.4,101.5,46.4,101.6,46.5,101.6z"/>
		
			<ellipse transform="matrix(0.3699 -0.9291 0.9291 0.3699 -59.8885 102.7467)" class="st13" cx="45.8" cy="95.5" rx="1.3" ry="0.6"/>
		<path class="st12" d="M45.3,95.5c0.3-0.7,0.7-1.1,1.1-0.9c0.1,0,0.1,0.1,0.2,0.1c0-0.2-0.1-0.3-0.2-0.4c-0.3-0.1-0.7,0.3-1,1
			c-0.1,0.3-0.2,0.7-0.2,1C45.1,96,45.2,95.7,45.3,95.5z"/>
		
			<ellipse transform="matrix(0.2693 -0.9631 0.9631 0.2693 -52.6628 116.4032)" class="st13" cx="50.4" cy="92.9" rx="0.6" ry="1.2"/>
		<path class="st12" d="M50.5,92.3c-0.7-0.2-1.3-0.1-1.4,0.3v0.1c0.4-0.3,0.9-0.3,1.3-0.1c0.6,0.2,1,0.5,1,0.8c0-0.1,0-0.1,0.1-0.1
			C51.7,92.9,51.2,92.5,50.5,92.3z"/>
		<ellipse transform="matrix(0.9549 -0.297 0.297 0.9549 -27.2372 17.7823)" class="st13" cx="44.9" cy="98.5" rx="0.5" ry="1.2"/>
		<path class="st12" d="M44.7,98.8c-0.2-0.6-0.1-1.2,0.1-1.2h0.1c-0.1-0.1-0.2-0.1-0.3-0.1c-0.3,0.1-0.3,0.6-0.1,1.2s0.5,1,0.7,1
			C45,99.5,44.8,99.1,44.7,98.8z"/>
		
			<ellipse transform="matrix(0.9615 -0.2746 0.2746 0.9615 -26.3241 17.7655)" class="st13" cx="50.3" cy="102.9" rx="0.9" ry="0.3"/>
		<path class="st12" d="M50.3,102.8c0.3-0.1,0.5-0.1,0.8-0.1v-0.1c0-0.1-0.4-0.1-0.9,0c-0.3,0-0.6,0.2-0.8,0.5c0,0.1,0,0.1,0.1,0.1
			C49.7,103,50,102.9,50.3,102.8z"/>
		<ellipse transform="matrix(0.866 -0.5 0.5 0.866 -42.8598 38.8754)" class="st13" cx="51.1" cy="99.4" rx="0.5" ry="0.4"/>
		<path class="st12" d="M51,99.2c0.2-0.1,0.4-0.1,0.6,0v-0.1c-0.1-0.2-0.4-0.2-0.6-0.1s-0.3,0.4-0.2,0.5l0,0
			C50.7,99.5,50.8,99.3,51,99.2z"/>
		<ellipse transform="matrix(0.866 -0.5 0.5 0.866 -40.5202 39.2052)" class="st13" cx="52.9" cy="95.2" rx="0.6" ry="1.4"/>
		<path class="st12" d="M52.7,95.7c-0.4-0.7-0.5-1.4-0.2-1.5c0.1-0.1,0.3,0,0.4,0.1c-0.3-0.3-0.6-0.4-0.7-0.3
			c-0.3,0.2-0.2,0.8,0.2,1.5c0.2,0.4,0.5,0.7,0.8,0.9C53.1,96.2,52.9,96,52.7,95.7z"/>
		<ellipse transform="matrix(0.5 -0.866 0.866 0.5 -60.1981 86.1503)" class="st13" cx="44.5" cy="95.2" rx="0.5" ry="0.2"/>
		<path class="st12" d="M44.5,95.2c0.1-0.2,0.2-0.3,0.3-0.3c0-0.1,0-0.1-0.1-0.1s-0.3,0.1-0.5,0.3c-0.2,0.2-0.2,0.4-0.1,0.6h0.1
			C44.3,95.6,44.4,95.4,44.5,95.2z"/>
		
			<ellipse transform="matrix(0.8318 -0.5551 0.5551 0.8318 -43.7059 41.6044)" class="st13" cx="46.8" cy="92.9" rx="0.9" ry="0.3"/>
		<path class="st12" d="M46.7,92.9c0.2-0.2,0.5-0.3,0.8-0.3v-0.1c-0.1-0.1-0.5,0-0.9,0.3c-0.3,0.2-0.5,0.4-0.6,0.7h0.1
			C46.2,93.3,46.5,93.1,46.7,92.9z"/>
		<circle class="st13" cx="49.5" cy="97" r="1.2"/>
		<path class="st12" d="M48.4,97.4c0-0.7,0.5-1.2,1.2-1.2c0.4,0,0.8,0.2,1,0.6c-0.1-0.5-0.6-0.9-1.2-0.9c-0.7,0-1.2,0.5-1.2,1.2
			c0,0.2,0.1,0.4,0.2,0.6V97.4z"/>
		<ellipse transform="matrix(0.4351 -0.9004 0.9004 0.4351 -58.6644 96.4648)" class="st13" cx="47.5" cy="95" rx="0.6" ry="0.4"/>
		<path class="st12" d="M47.3,95.1c0.1-0.2,0.3-0.4,0.6-0.3c0,0,0,0,0,0c0.1,0,0.1,0,0.1,0.1c0-0.1-0.1-0.2-0.2-0.3
			c-0.2-0.1-0.5,0-0.6,0.3c0,0,0,0,0,0c-0.1,0.2-0.1,0.4,0,0.6C47.2,95.4,47.2,95.2,47.3,95.1z"/>
		<ellipse transform="matrix(0.7695 -0.6386 0.6386 0.7695 -53.9353 51.9723)" class="st13" cx="45" cy="100.7" rx="0.3" ry="0.9"/>
		<path class="st12" d="M44.5,100.2c0.1-0.1,0.5,0.1,0.8,0.5c0.1,0.1,0.2,0.3,0.3,0.4c-0.1-0.2-0.2-0.4-0.4-0.6
			c-0.3-0.4-0.7-0.6-0.8-0.5s0,0.2,0.1,0.5L44.5,100.2z"/>
		
			<ellipse transform="matrix(0.9547 -0.2975 0.2975 0.9547 -27.8306 19.3668)" class="st13" cx="49.7" cy="101.1" rx="0.4" ry="0.3"/>
		<path class="st12" d="M49.6,100.8c-0.2,0.1-0.3,0.2-0.3,0.4v0.1c0-0.1,0.1-0.2,0.3-0.3s0.3,0,0.4,0.1V101
			C50,100.8,49.8,100.7,49.6,100.8z"/>
		<g class="st14">
			<path class="st2" d="M44.3,15.5L42,16c-1.3,0.3-2.6-0.6-2.9-1.9s0.6-2.6,1.9-2.9l2.3-0.5c1.3-0.3,2.6,0.5,2.9,1.8
				c0,0,0,0.1,0,0.1C46.4,13.9,45.6,15.2,44.3,15.5z"/>
			<path class="st2" d="M25.3,36.1H25c-1.3,0.1-2.5-0.9-2.6-2.2c-0.8-9,4.3-17.5,12.6-21.1c1.2-0.5,2.7,0.1,3.2,1.3
				s-0.1,2.7-1.3,3.2c-6.4,2.8-10.3,9.3-9.7,16.2C27.4,34.7,26.5,35.9,25.3,36.1z"/>
		</g>
	</g>
</g>
</svg>
