<?xml version="1.0" encoding="utf-8"?>
<!-- Generator: Adobe Illustrator 21.0.2, SVG Export Plug-In . SVG Version: 6.00 Build 0)  -->
<svg version="1.1" id="Layer_1" xmlns="http://www.w3.org/2000/svg" xmlns:xlink="http://www.w3.org/1999/xlink" x="0px" y="0px"
	 viewBox="0 0 120 120" style="enable-background:new 0 0 120 120;" xml:space="preserve">
<style type="text/css">
	.st0{fill:#0A171D;}
	.st1{fill:#E5C400;}
	.st2{opacity:0.4;fill:#DDC75C;enable-background:new    ;}
	.st3{fill:#FEE159;}
	.st4{fill:#808080;}
	.st5{fill:#464646;}
	.st6{opacity:0.4;fill:#5B5B5F;enable-background:new    ;}
	.st7{opacity:0.4;fill:#FEE159;enable-background:new    ;}
	.st8{opacity:0.3;fill:#464646;enable-background:new    ;}
</style>
<title>Asset 19</title>
<g id="Layer_2">
	<g id="leadreboard">
		<circle class="st0" cx="60" cy="60" r="60"/>
		<g id="Layer_1-2">
			<path class="st1" d="M50.3,55.2c-7.5-2.8-13.3-8.8-15.8-16.4c-1.1-3.5-1.6-7.1-1.4-10.8l0.1-1.4h11.6v3.1h-8.7
				c0,2.8,0.5,5.6,1.3,8.2c2.2,6.7,7.3,12,13.9,14.4L50.3,55.2z"/>
			<path class="st2" d="M50.3,55.2c-7.5-2.8-13.3-8.8-15.8-16.4c-1.1-3.5-1.6-7.1-1.4-10.8l0.1-1.4h11.6v3.1h-8.7
				c0,2.8,0.5,5.6,1.3,8.2c2.2,6.7,7.3,12,13.9,14.4L50.3,55.2z"/>
			<rect x="57.1" y="58.5" class="st3" width="5.3" height="13.4"/>
			<path class="st1" d="M73.1,77.2H46.3V76c0-2.3,1.9-4.2,4.2-4.2l0,0h18.4c2.3,0,4.1,1.9,4.1,4.2L73.1,77.2L73.1,77.2z"/>
			<rect x="43" y="77.2" class="st4" width="33.5" height="16.5"/>
			<rect x="41.2" y="93" class="st5" width="37.1" height="4"/>
			<rect x="57.1" y="58.5" class="st6" width="5.3" height="3.6"/>
			<path class="st3" d="M86.3,28l-0.1-1.4h-8.4V25H41.7c0,12.1,3,35,18,35c4.2,0,8.1-2,10.6-5.3c7-2.9,12.3-8.7,14.7-15.9
				C86,35.3,86.5,31.6,86.3,28z M81.9,37.8c-1.5,4.7-4.5,8.8-8.5,11.6c2.7-6,3.8-13.5,4.2-19.7h5.7C83.2,32.5,82.8,35.2,81.9,37.8
				L81.9,37.8z"/>
			<path class="st7" d="M73.1,77.2H46.3V76c0-2.3,1.9-4.2,4.2-4.2l0,0h18.4c2.3,0,4.1,1.9,4.1,4.2L73.1,77.2L73.1,77.2z"/>
			<path class="st8" d="M86.3,28l-0.1-1.4h-8.4V25h-18v72h18.5v-4h-1.8V77.2h-3.4V76c0-2.3-1.9-4.2-4.2-4.2l0,0h-6.5v-12
				c3.2-0.7,6-2.5,7.9-5.1c7-2.9,12.3-8.8,14.6-16C86.1,35.3,86.5,31.7,86.3,28z M81.9,37.8c-1.5,4.7-4.5,8.8-8.5,11.6
				c2.7-6,3.8-13.5,4.2-19.7h5.7C83.2,32.5,82.8,35.2,81.9,37.8L81.9,37.8z"/>
		</g>
	</g>
</g>
</svg>
