<svg id="Layer_1" xmlns="http://www.w3.org/2000/svg" viewBox="0 0 512 512"><style>.st0{fill:#e6e6e6}.st1{fill:#ccc}.st2{fill:#f5f5f5}.st3{fill:#242424}.st4{fill:#cc803d}.st5{fill:#b37035}.st6{fill:#b36624}</style><path class="st0" d="M386 276.2c-5.5-14.3-10-33.7-10-68.6H136c0 34.9-4.5 54.3-10 68.6-5.5 14.3 11.2 26.6 22.9 35.6C194.5 347 198.5 384 256 384s61.5-37 107.1-72.2c11.7-9 28.4-21.3 22.9-35.6z"/><path class="st1" d="M386 276.2c-5.5-14.3-10-33.7-10-68.6h-12c0 34.9 4.5 54.3 10 68.6 5.5 14.3-11.2 26.6-22.9 35.6-44 33.9-49.3 69.5-101.1 72 1.9.1 3.9.2 6 .2 57.5 0 61.5-37 107.1-72.2 11.7-9 28.4-21.3 22.9-35.6z"/><circle class="st2" cx="299" cy="257" r="20"/><circle class="st3" cx="299" cy="257" r="12"/><circle class="st2" cx="211" cy="257" r="20"/><circle class="st3" cx="211" cy="257" r="12"/><path class="st4" d="M403.1 99c-1.9-1.9-4.5-3-7.1-3-29.8 0-79.8 19.1-111.4 47.8-8-4.8-17.8-7.8-28.6-7.8s-20.6 3-28.6 7.8C195.8 115.1 145.8 96 116 96c-2.7 0-5.3 1.1-7.1 3-1.9 1.9-2.9 4.5-2.9 7.2.5 23.6 11.4 52.2 21.1 77.4 3.2 8.4 6.3 28.5 8.9 36 106-2 100 95 100 126.4h40.1c0-31.3-6-128.3 99.9-126.4v-12c2.6-7.5 5.7-15.6 8.9-24.1 9.7-25.2 20.6-53.8 21.1-77.4 0-2.6-1-5.2-2.9-7.1z"/><path class="st5" d="M280.4 147.6c1.4-1.3 2.9-2.5 4.4-3.8-7.7-4.7-19-7.8-28.8-7.8-2 0-4 .1-6 .3 8.4.9 23.9 7.4 30.4 11.3zM403.1 99c-1.9-1.9-4.5-3-7.1-3-2.8 0-5.8.2-8.9.5 1.5.5 2.9 1.3 4 2.5 1.9 1.9 2.9 4.5 2.9 7.2-.5 23.6-11.4 52.2-21.1 77.4-3.2 8.4-6.4 16.6-8.9 24.1v12c-105.9-1.9-99.9 95-99.9 126.4h12c0-31.3-6-128.3 99.9-126.4v-12c2.6-7.5 5.7-15.6 8.9-24.1 9.7-25.2 20.6-53.8 21.1-77.4 0-2.7-1-5.3-2.9-7.2zm-183.9 48.6c2.4-1.4 5.5-2.7 8.2-3.8C195.1 114.7 145.5 96 116 96c-1.1 0-2.1.2-3.1.5 30.1 3.2 77.7 25 106.3 51.1z"/><path class="st3" d="M256 376c-10-10-20-19-20-30s9-20 20-20 20 9 20 20-10 20-20 30z"/><path class="st6" d="M386 116c-10 0-60 10-70 30 10 10 50 40 50 40 10-20 20-60 20-70zm-260 0c10 0 60 10 70 30-10 10-50 40-50 40-10-20-20-60-20-70z"/></svg>