<?xml version="1.0" encoding="utf-8"?>
<!-- Generator: Adobe Illustrator 21.0.2, SVG Export Plug-In . SVG Version: 6.00 Build 0)  -->
<svg version="1.1" id="Layer_1" xmlns="http://www.w3.org/2000/svg" xmlns:xlink="http://www.w3.org/1999/xlink" x="0px" y="0px"
	 viewBox="0 0 120 140" style="enable-background:new 0 0 120 140;" xml:space="preserve">
<style type="text/css">
	.st0{fill:#FD8B4F;}
	.st1{fill:#E5E5E5;}
	.st2{fill:#244654;}
	.st3{fill:#FFFFFF;}
	.st4{fill:#60ACBE;}
	.st5{fill-rule:evenodd;clip-rule:evenodd;fill:#244654;}
	.st6{fill:#FF5514;}
	.st7{fill:#FF7743;}
	.st8{fill:#FFF5F5;}
	.st9{fill:#FFDDD0;}
	.st10{fill:#401505;}
	.st11{fill:#488CA7;}
	.st12{fill:#DD6231;stroke:#FC6E23;stroke-miterlimit:10;}
	.st13{fill:#FC6E23;stroke:#FC6E23;stroke-miterlimit:10;}
	.st14{fill:#944121;}
	.st15{fill:#C5572C;}
	.st16{opacity:0.54;}
	.st17{opacity:0.2;fill:#A5B6BD;}
</style>
<g>
	<g>
		<g>
			<g>
				<path class="st0" d="M109.8,122.5c0,9.7-7.9,17.5-17.6,17.5H28.4c-9.7,0-17.6-7.8-17.6-17.5V62.8c0-9.7,7.9-17.5,17.6-17.5h63.9
					c9.7,0,17.6,7.8,17.6,17.5V122.5z"/>
				<path class="st1" d="M91.3,139.9c0.2-0.7,0.3-1.5,0.3-2.3V90.9c0-4.9-4.3-8.9-9.5-8.9H38.2c-5.3,0-9.5,4-9.5,8.9v46.7
					c0,0.8,0.1,1.6,0.3,2.3H91.3z"/>
				<g>
					<rect x="75" y="84.7" class="st2" width="4.7" height="55.2"/>
					<rect x="41.9" y="84.7" class="st2" width="4.7" height="55.2"/>
				</g>
				<g>
					<path class="st3" d="M97.9,63.9c0,17.7-14.3,32-32,32H54.5c-17.7,0-32-14.3-32-32V52.5c0-17.7,14.3-32,32-32h11.4
						c17.7,0,32,14.3,32,32V63.9z"/>
					<path class="st4" d="M91,62.8C91,77.3,79.3,89,64.9,89h-9.3c-14.4,0-26.2-11.7-26.2-26.2v-9.3c0-14.4,11.7-26.2,26.2-26.2h9.3
						C79.3,27.4,91,39.1,91,53.5V62.8z"/>
					<g>
						<path class="st5" d="M37.7,81.9c10.5,1.8,8-7.8,23.7-8c14.5-0.2,9.8,7.2,22.2,7.4c0,0-4.8,5.3-12.8,7.2
							c-2.3,0.5-11.5,3.1-21.3,0.1C39.3,85.5,37.7,81.9,37.7,81.9z"/>
						<g id="Layer_1_1_">
							<g id="fox">
								<polygon class="st6" points="56.5,48.4 64.9,48.4 72.2,68.4 49.2,68.4 								"/>
								<polygon class="st7" points="64.9,48.4 86,64.8 72.2,68.4 								"/>
								<polygon class="st7" points="56.5,48.4 35.4,64.8 49.2,68.4 								"/>
								<polygon class="st7" points="47.9,67.9 60.9,88.9 73.7,68 								"/>
								<polygon class="st6" points="35.4,64.8 60.9,88.9 49.2,68.1 								"/>
								<polygon class="st6" points="60.9,88.9 86,64.8 72.2,68.1 								"/>
								<polygon class="st8" points="44.5,75.6 53.4,77.7 61,89.1 								"/>
								<polygon class="st3" points="77,75.6 68.1,77.9 60.9,88.9 								"/>
								<polygon class="st6" points="35.4,64.8 40,39.7 56.5,48.4 								"/>
								<polygon class="st6" points="64.9,48.4 81.4,39.7 86,64.8 								"/>
								<polygon class="st9" points="40,39.7 51.8,49.6 40,57 								"/>
								<polygon class="st9" points="81.4,39.7 81.4,57 69.7,48.8 								"/>
								<polygon class="st10" points="56.5,82.5 65.2,82.5 60.8,88.9 								"/>
								<polygon class="st10" points="43.8,66.8 49.2,68.1 51.8,73 								"/>
								<polygon class="st10" points="77.7,66.8 72.2,68.1 69.7,73 								"/>
								<polygon class="st10" points="52.1,73.3 46.7,72 44.2,67.1 								"/>
								<polygon class="st10" points="69.5,73.1 75,71.7 77.4,66.7 								"/>
							</g>
						</g>
					</g>
				</g>
				<g>
					<g>
						<path class="st3" d="M35,82.9c-0.2,0-0.4,0-0.6,0c-5.7,0-10.3,5.7-10.3,12.8V133H35V82.9z"/>
						<ellipse class="st11" cx="29.6" cy="133.2" rx="7.7" ry="7.8"/>
					</g>
					<g>
						<path class="st3" d="M86.6,82.9c0.2,0,0.4,0,0.6,0c5.7,0,10.3,5.7,10.3,12.8V133H86.6V82.9z"/>
						<ellipse class="st11" cx="91.9" cy="133.2" rx="7.7" ry="7.8"/>
					</g>
				</g>
				<g>
					<g>
						<circle class="st12" cx="60.1" cy="118.2" r="5.8"/>
						<path class="st13" d="M65.6,116.5c-0.7-2.4-2.9-4.2-5.5-4.2c-3.2,0-5.8,2.6-5.8,5.8c0,1.3,0.5,2.6,1.2,3.5
							c1,0.5,2,0.8,3.2,0.8C62.2,122.4,65.1,119.8,65.6,116.5z"/>
					</g>
					<g>
						
							<ellipse transform="matrix(0.4306 -0.9025 0.9025 0.4306 -71.6903 127.2077)" class="st14" cx="65" cy="120.4" rx="0.5" ry="0.2"/>
						
							<ellipse transform="matrix(0.4513 -0.8924 0.8924 0.4513 -69.2869 118.2413)" class="st15" cx="61.5" cy="115.5" rx="0.2" ry="0.3"/>
						
							<ellipse transform="matrix(0.3148 -0.9491 0.9491 0.3148 -72.4053 134.9581)" class="st15" cx="57.3" cy="117.6" rx="0.3" ry="0.2"/>
						
							<ellipse transform="matrix(0.847 -0.5316 0.5316 0.847 -55.123 52.0399)" class="st15" cx="62.8" cy="121.8" rx="1.1" ry="0.6"/>
						<path class="st14" d="M62.7,121.5c0.5-0.3,1-0.4,1.2-0.2c0-0.1,0-0.1,0-0.1c-0.2-0.3-0.7-0.2-1.3,0.1
							c-0.5,0.3-0.8,0.8-0.7,1.1c0,0,0,0.1,0.1,0.1C61.9,122.2,62.2,121.8,62.7,121.5z"/>
						
							<ellipse transform="matrix(0.2274 -0.9738 0.9738 0.2274 -65.909 153.6997)" class="st15" cx="63.9" cy="118.4" rx="1" ry="0.7"/>
						<path class="st14" d="M63.2,118.5c0.1-0.5,0.5-0.9,0.9-0.8c0.3,0.1,0.5,0.4,0.5,0.7c0.1-0.5-0.1-0.9-0.5-1
							c-0.4-0.1-0.8,0.3-0.9,0.8C63.2,118.4,63.2,118.5,63.2,118.5C63.2,118.6,63.2,118.6,63.2,118.5z"/>
						
							<ellipse transform="matrix(0.9106 -0.4132 0.4132 0.9106 -44.3006 34.732)" class="st15" cx="58.1" cy="119.8" rx="0.8" ry="1.2"/>
						<path class="st14" d="M57.7,118.9c0.4-0.2,1,0.2,1.2,0.8c0,0.1,0.1,0.1,0.1,0.2c0-0.2-0.1-0.3-0.1-0.5c-0.3-0.6-0.8-1-1.2-0.8
							c-0.4,0.2-0.5,0.7-0.3,1.2C57.3,119.4,57.4,119,57.7,118.9z"/>
						
							<ellipse transform="matrix(0.3273 -0.9449 0.9449 0.3273 -76.3067 137.2904)" class="st15" cx="58.3" cy="122.2" rx="0.5" ry="1.1"/>
						<path class="st14" d="M57.3,122.1c0.1-0.3,0.6-0.3,1.2-0.1c0.4,0.1,0.7,0.4,0.8,0.6c0.1-0.3-0.3-0.6-0.9-0.8
							c-0.6-0.2-1.1-0.2-1.2,0.1C57.2,122,57.2,122.1,57.3,122.1C57.3,122.1,57.3,122.1,57.3,122.1z"/>
						
							<ellipse transform="matrix(0.3699 -0.9291 0.9291 0.3699 -72.1122 125.7065)" class="st15" cx="56.6" cy="116" rx="1.3" ry="0.6"/>
						<path class="st14" d="M56.1,116c0.3-0.7,0.7-1.1,1.1-0.9c0.1,0,0.1,0.1,0.2,0.1c0-0.2-0.1-0.3-0.2-0.4c-0.3-0.1-0.7,0.3-1,1
							c-0.1,0.4-0.2,0.7-0.2,1C55.9,116.6,56,116.3,56.1,116z"/>
						
							<ellipse transform="matrix(0.2692 -0.9631 0.9631 0.2692 -64.5139 141.8151)" class="st15" cx="61.2" cy="113.4" rx="0.6" ry="1.2"/>
						<path class="st14" d="M61.3,112.8c-0.7-0.2-1.3-0.1-1.4,0.3c0,0,0,0.1,0,0.1c0.2-0.2,0.7-0.3,1.3-0.1c0.6,0.2,1,0.5,1,0.8
							c0,0,0-0.1,0.1-0.1C62.5,113.4,62,113,61.3,112.8z"/>
						
							<ellipse transform="matrix(0.9549 -0.2971 0.2971 0.9549 -32.8435 21.9236)" class="st15" cx="55.7" cy="119" rx="0.5" ry="1.2"/>
						<path class="st14" d="M55.5,119.3c-0.2-0.6-0.1-1.2,0.1-1.2c0,0,0,0,0.1,0c-0.1-0.1-0.2-0.1-0.3-0.1c-0.3,0.1-0.3,0.6-0.1,1.2
							c0.2,0.6,0.5,1,0.7,1C55.8,120,55.6,119.7,55.5,119.3z"/>
						
							<ellipse transform="matrix(0.9615 -0.2747 0.2747 0.9615 -31.5567 21.5262)" class="st15" cx="61.1" cy="123.4" rx="0.9" ry="0.3"/>
						<path class="st14" d="M61.1,123.3c0.3-0.1,0.6-0.1,0.8-0.1c0,0,0,0,0-0.1c0-0.1-0.4-0.1-0.9,0c-0.5,0.1-0.8,0.4-0.8,0.5
							c0,0,0,0.1,0.1,0.1C60.4,123.6,60.7,123.4,61.1,123.3z"/>
						<ellipse transform="matrix(0.866 -0.5 0.5 0.866 -51.6487 47.0317)" class="st15" cx="61.9" cy="119.9" rx="0.5" ry="0.4"/>
						<path class="st14" d="M61.8,119.7c0.2-0.1,0.5-0.1,0.6,0c0,0,0-0.1,0-0.1c-0.1-0.2-0.4-0.2-0.6-0.1c-0.2,0.1-0.3,0.4-0.2,0.5
							c0,0,0,0,0,0C61.5,120,61.6,119.8,61.8,119.7z"/>
						<ellipse transform="matrix(0.866 -0.5 0.5 0.866 -49.3093 47.3604)" class="st15" cx="63.7" cy="115.7" rx="0.6" ry="1.4"/>
						<path class="st14" d="M63.5,116.2c-0.4-0.7-0.5-1.4-0.2-1.5c0.1-0.1,0.3,0,0.4,0.1c-0.3-0.3-0.6-0.4-0.7-0.3
							c-0.3,0.2-0.2,0.8,0.2,1.5c0.2,0.4,0.5,0.7,0.8,0.9C63.9,116.7,63.7,116.5,63.5,116.2z"/>
						<ellipse transform="matrix(0.5 -0.866 0.866 0.5 -72.5338 105.753)" class="st15" cx="55.3" cy="115.7" rx="0.5" ry="0.2"/>
						<path class="st14" d="M55.3,115.7c0.1-0.2,0.2-0.3,0.3-0.3c0-0.1,0-0.1-0.1-0.1c-0.1-0.1-0.3,0.1-0.5,0.3s-0.2,0.5-0.1,0.6
							c0,0,0.1,0,0.1,0C55.2,116,55.2,115.9,55.3,115.7z"/>
						
							<ellipse transform="matrix(0.8318 -0.5551 0.5551 0.8318 -53.2786 51.0546)" class="st15" cx="57.6" cy="113.4" rx="0.9" ry="0.3"/>
						<path class="st14" d="M57.5,113.4c0.3-0.2,0.6-0.3,0.8-0.3c0-0.1,0-0.1,0-0.1c-0.1-0.1-0.5,0-0.9,0.3
							c-0.4,0.3-0.6,0.6-0.6,0.7c0,0,0.1,0,0.1,0C57,113.8,57.3,113.6,57.5,113.4z"/>
						<circle class="st15" cx="60.3" cy="117.5" r="1.2"/>
						<path class="st14" d="M59.2,117.9c0-0.7,0.6-1.2,1.2-1.2c0.4,0,0.8,0.2,1,0.6c-0.1-0.5-0.6-0.9-1.2-0.9
							c-0.7,0-1.2,0.6-1.2,1.2c0,0.2,0.1,0.5,0.2,0.6C59.2,118.1,59.2,118,59.2,117.9z"/>
						
							<ellipse transform="matrix(0.4351 -0.9004 0.9004 0.4351 -71.0681 117.8192)" class="st15" cx="58.4" cy="115.5" rx="0.6" ry="0.4"/>
						<path class="st14" d="M58.1,115.6c0.1-0.3,0.4-0.4,0.6-0.3c0,0,0.1,0,0.1,0.1c0-0.1-0.1-0.2-0.2-0.3c-0.2-0.1-0.5,0-0.6,0.3
							c-0.1,0.2-0.1,0.5,0,0.6C58,115.9,58,115.7,58.1,115.6z"/>
						
							<ellipse transform="matrix(0.7696 -0.6386 0.6386 0.7696 -64.5145 63.5742)" class="st15" cx="55.8" cy="121.2" rx="0.3" ry="0.9"/>
						<path class="st14" d="M55.3,120.7c0.1-0.1,0.5,0.1,0.8,0.5c0.1,0.1,0.2,0.3,0.3,0.4c-0.1-0.2-0.2-0.4-0.4-0.6
							c-0.3-0.4-0.7-0.6-0.8-0.5c-0.1,0.1,0,0.2,0.1,0.5C55.3,120.8,55.3,120.7,55.3,120.7z"/>
						
							<ellipse transform="matrix(0.9547 -0.2976 0.2976 0.9547 -33.4372 23.5176)" class="st15" cx="60.5" cy="121.6" rx="0.4" ry="0.3"/>
						<path class="st14" d="M60.4,121.3c-0.2,0.1-0.3,0.2-0.3,0.4c0,0,0,0.1,0,0.1c0-0.1,0.1-0.2,0.3-0.3c0.2-0.1,0.3,0,0.4,0.1
							c0,0,0-0.1,0-0.1C60.8,121.3,60.6,121.2,60.4,121.3z"/>
					</g>
				</g>
			</g>
		</g>
		<g class="st16">
			<path class="st3" d="M55.1,36l-2.3,0.5c-1.3,0.3-2.6-0.5-2.9-1.9c-0.3-1.3,0.5-2.6,1.9-2.9l2.3-0.5c1.3-0.3,2.6,0.5,2.9,1.9
				C57.2,34.4,56.4,35.7,55.1,36z"/>
			<path class="st3" d="M36.1,56.6c-0.1,0-0.2,0-0.3,0c-1.3,0.1-2.5-0.9-2.6-2.2c-0.8-9.1,4.3-17.5,12.6-21.1c1.2-0.5,2.7,0,3.2,1.3
				c0.5,1.2,0,2.7-1.3,3.2C41.3,40.6,37.4,47.1,38,54C38.1,55.3,37.3,56.4,36.1,56.6z"/>
		</g>
	</g>
</g>
<path class="st17" d="M97.5,46c-3-14.5-15.9-25.5-31.3-25.5h-5.4V140h27.7c1.1,0.6,2.4,1,3.7,1c1.7,0,3.3-0.6,4.5-1.5
	c7.7-1.9,13.4-8.8,13.4-17V62.8C110.1,54.8,104.7,48.1,97.5,46z"/>
</svg>
