<?xml version="1.0" encoding="utf-8"?>
<!-- Generator: Adobe Illustrator 21.0.2, SVG Export Plug-In . SVG Version: 6.00 Build 0)  -->
<svg version="1.1" xmlns="http://www.w3.org/2000/svg" xmlns:xlink="http://www.w3.org/1999/xlink" x="0px" y="0px"
	 viewBox="0 0 300 300" style="enable-background:new 0 0 300 300;" xml:space="preserve">
<style type="text/css">
	.st0{fill:#1A2A2D;}
	.st1{fill:#FF5514;}
	.st2{fill:#FF7743;}
	.st3{fill:#FFF5F5;}
	.st4{fill:#FFFFFF;}
	.st5{fill:#FFDDD0;}
	.st6{fill:none;}
	.st7{fill:#401505;}
</style>
<g id="Layer_2">
	<circle class="st0" cx="150" cy="150" r="150"/>
</g>
<g id="fox">
	<polygon class="st1" points="135.5,98.3 164.5,98.3 189.7,173.4 110.3,173.4 	"/>
	<polygon class="st2" points="164.5,98.3 237.2,159.9 189.7,173.4 	"/>
	<polygon class="st2" points="135.5,98.3 62.8,159.9 110.3,173.4 	"/>
	<polygon class="st2" points="110.3,172.2 150.8,257.4 189.7,172.2 	"/>
	<polygon class="st1" points="62.8,159.9 150.8,257.4 110.3,172.2 	"/>
	<polygon class="st1" points="150.8,257.4 237.2,159.9 189.7,172.2 	"/>
	<polygon class="st3" points="98.9,200.1 127,208.3 151.2,258.3 	"/>
	<polygon class="st4" points="202.3,200.1 173.8,208.9 150.8,257.4 	"/>
	<polygon class="st1" points="62.8,159.9 78.6,65.7 135.5,98.3 	"/>
	<polygon class="st1" points="164.5,98.3 221.4,65.7 237.2,159.9 	"/>
	<polygon class="st5" points="78.6,65.7 119.2,102.9 78.6,130.8 	"/>
	<polygon class="st5" points="221.4,65.7 221.4,130.8 181.1,99.9 	"/>
	<line class="st6" x1="150.8" y1="172.2" x2="150.8" y2="257.4"/>
	<polygon class="st7" points="135.6,226.1 165.7,226 150.8,257.4 	"/>
	<polygon class="st7" points="91.7,167.4 110.3,172.2 119.2,190.7 	"/>
	<polygon class="st7" points="208.6,167.4 189.7,172.2 181.1,190.7 	"/>
	<polygon class="st7" points="120.5,191.7 101.9,186.9 93,168.4 	"/>
	<polygon class="st7" points="180.5,191 199.3,185.8 207.5,167.1 	"/>
</g>
</svg>
