<?xml version="1.0" encoding="utf-8"?>
<!-- Generator: Adobe Illustrator 21.0.0, SVG Export Plug-In . SVG Version: 6.00 Build 0)  -->
<svg version="1.1" id="Layer_1" xmlns="http://www.w3.org/2000/svg" xmlns:xlink="http://www.w3.org/1999/xlink" x="0px" y="0px"
	 viewBox="0 0 512 512" style="enable-background:new 0 0 512 512;" xml:space="preserve">
<style type="text/css">
	.st0{fill:#E6E6E6;}
	.st1{fill:#CCCCCC;}
	.st2{fill:#F5F5F5;}
	.st3{fill:#242424;}
	.st4{fill:#CC803D;}
	.st5{fill:#B37035;}
	.st6{fill:#B36624;}
</style>
<path class="st0" d="M386,276.2c-5.5-14.3-10-33.7-10-68.6H256H136c0,34.9-4.5,54.3-10,68.6c-5.5,14.3,11.2,26.6,22.9,35.6
	C194.5,347,198.5,384,256,384s61.5-37,107.1-72.2C374.8,302.8,391.5,290.5,386,276.2z"/>
<path class="st1" d="M386,276.2c-5.5-14.3-10-33.7-10-68.6h-12c0,34.9,4.5,54.3,10,68.6c5.5,14.3-11.2,26.6-22.9,35.6
	c-44,33.9-49.3,69.5-101.1,72c1.9,0.1,3.9,0.2,6,0.2c57.5,0,61.5-37,107.1-72.2C374.8,302.8,391.5,290.5,386,276.2z"/>
<circle class="st2" cx="299" cy="257" r="20"/>
<circle class="st3" cx="299" cy="257" r="12"/>
<circle class="st2" cx="211" cy="257" r="20"/>
<circle class="st3" cx="211" cy="257" r="12"/>
<path class="st4" d="M403.1,99c-1.9-1.9-4.5-3-7.1-3c-29.8,0-79.8,19.1-111.4,47.8c-8-4.8-17.8-7.8-28.6-7.8s-20.6,3-28.6,7.8
	C195.8,115.1,145.8,96,116,96c-2.7,0-5.3,1.1-7.1,3c-1.9,1.9-2.9,4.5-2.9,7.2c0.5,23.6,11.4,52.2,21.1,77.4c3.2,8.4,6.3,28.5,8.9,36
	c106-2,100,95,100,126.4h40.1c0-31.3-6-128.3,99.9-126.4v-12c2.6-7.5,5.7-15.6,8.9-24.1c9.7-25.2,20.6-53.8,21.1-77.4
	C406,103.5,405,100.9,403.1,99z"/>
<g>
	<path class="st5" d="M280.4,147.6c1.4-1.3,2.9-2.5,4.4-3.8c-7.7-4.7-19-7.8-28.8-7.8c-2,0-4,0.1-6,0.3
		C258.4,137.2,273.9,143.7,280.4,147.6z"/>
	<path class="st5" d="M403.1,99c-1.9-1.9-4.5-3-7.1-3c-2.8,0-5.8,0.2-8.9,0.5c1.5,0.5,2.9,1.3,4,2.5c1.9,1.9,2.9,4.5,2.9,7.2
		c-0.5,23.6-11.4,52.2-21.1,77.4c-3.2,8.4-6.4,16.6-8.9,24.1v12c-105.9-1.9-99.9,95-99.9,126.4h12c0-31.3-6-128.3,99.9-126.4v-12
		c2.6-7.5,5.7-15.6,8.9-24.1c9.7-25.2,20.6-53.8,21.1-77.4C406,103.5,405,100.9,403.1,99z"/>
	<path class="st5" d="M219.2,147.6c2.4-1.4,5.5-2.7,8.2-3.8C195.1,114.7,145.5,96,116,96c-1.1,0-2.1,0.2-3.1,0.5
		C143,99.7,190.6,121.5,219.2,147.6z"/>
</g>
<path class="st3" d="M256,376c-10-10-20-19-20-30c0-11,9-20,20-20c11,0,20,9,20,20C276,357,266,366,256,376z"/>
<g>
	<path class="st6" d="M386,116c-10,0-60,10-70,30c10,10,50,40,50,40C376,166,386,126,386,116z"/>
	<path class="st6" d="M126,116c10,0,60,10,70,30c-10,10-50,40-50,40C136,166,126,126,126,116z"/>
</g>
</svg>
